G04*
G04 #@! TF.GenerationSoftware,Altium Limited,Altium Designer,24.6.1 (21)*
G04*
G04 Layer_Color=2752767*
%FSLAX25Y25*%
%MOIN*%
G70*
G04*
G04 #@! TF.SameCoordinates,E50FEA8C-7DC8-4ABE-93B5-960DD125A3C4*
G04*
G04*
G04 #@! TF.FilePolarity,Positive*
G04*
G01*
G75*
%ADD12C,0.00500*%
%ADD43C,0.00667*%
D12*
X11307Y46297D02*
Y50297D01*
X15307D01*
Y46297D01*
X11307D01*
Y56297D02*
Y60297D01*
X15307D01*
Y56297D01*
X11307D01*
Y66297D02*
Y70297D01*
X15307D01*
Y66297D01*
X11307D01*
Y76297D02*
Y80297D01*
X15307D01*
Y76297D01*
X11307D01*
Y86297D02*
Y90297D01*
X15307D01*
Y86297D01*
X11307D01*
Y96297D02*
Y100297D01*
X15307D01*
Y96297D01*
X11307D01*
Y106297D02*
Y110297D01*
X15307D01*
Y106297D01*
X11307D01*
Y116297D02*
Y120297D01*
X15307D01*
Y116297D01*
X11307D01*
Y126297D02*
Y130297D01*
X15307D01*
Y126297D01*
X11307D01*
Y136297D02*
Y140297D01*
X15307D01*
Y136297D01*
X11307D01*
Y146297D02*
Y150297D01*
X15307D01*
Y146297D01*
X11307D01*
Y156297D02*
Y160297D01*
X15307D01*
Y156297D01*
X11307D01*
Y166297D02*
Y170297D01*
X15307D01*
Y166297D01*
X11307D01*
Y176297D02*
Y180297D01*
X15307D01*
Y176297D01*
X11307D01*
Y186297D02*
Y190297D01*
X15307D01*
Y186297D01*
X11307D01*
X71307D02*
Y190297D01*
X75307D01*
Y186297D01*
X71307D01*
Y176297D02*
Y180297D01*
X75307D01*
Y176297D01*
X71307D01*
Y166297D02*
Y170297D01*
X75307D01*
Y166297D01*
X71307D01*
Y156297D02*
Y160297D01*
X75307D01*
Y156297D01*
X71307D01*
Y146297D02*
Y150297D01*
X75307D01*
Y146297D01*
X71307D01*
Y136297D02*
Y140297D01*
X75307D01*
Y136297D01*
X71307D01*
Y126297D02*
Y130297D01*
X75307D01*
Y126297D01*
X71307D01*
Y116297D02*
Y120297D01*
X75307D01*
Y116297D01*
X71307D01*
Y106297D02*
Y110297D01*
X75307D01*
Y106297D01*
X71307D01*
Y96297D02*
Y100297D01*
X75307D01*
Y96297D01*
X71307D01*
Y86297D02*
Y90297D01*
X75307D01*
Y86297D01*
X71307D01*
Y76297D02*
Y80297D01*
X75307D01*
Y76297D01*
X71307D01*
Y66297D02*
Y70297D01*
X75307D01*
Y66297D01*
X71307D01*
Y56297D02*
Y60297D01*
X75307D01*
Y56297D01*
X71307D01*
Y46297D02*
Y50297D01*
X75307D01*
Y46297D01*
X71307D01*
D43*
X183102Y200787D02*
G03*
X183102Y200787I-2000J0D01*
G01*
X100425Y185039D02*
G03*
X100425Y185039I-2000J0D01*
G01*
X136350Y14665D02*
G03*
X136350Y14665I-2000J0D01*
G01*
X187039Y51181D02*
G03*
X187039Y51181I-2000J0D01*
G01*
X135858D02*
G03*
X135858Y51181I-2000J0D01*
G01*
X104362Y47244D02*
G03*
X104362Y47244I-2000J0D01*
G01*
X104362Y16463D02*
G03*
X104362Y16463I-2000J0D01*
G01*
X104362Y165354D02*
G03*
X104362Y165354I-2000J0D01*
G01*
X143732Y118110D02*
G03*
X143732Y118110I-2000J0D01*
G01*
X190976Y149606D02*
G03*
X190976Y149606I-2000J0D01*
G01*
X188024Y31496D02*
G03*
X188024Y31496I-2000J0D01*
G01*
X139795Y177165D02*
G03*
X139795Y177165I-2000J0D01*
G01*
X190976Y173228D02*
G03*
X190976Y173228I-2000J0D01*
G01*
X112236Y114173D02*
G03*
X112236Y114173I-2000J0D01*
G01*
X25622Y59055D02*
G03*
X25622Y59055I-2000J0D01*
G01*
X84677Y78740D02*
G03*
X84677Y78740I-2000J0D01*
G01*
M02*
