G04*
G04 #@! TF.GenerationSoftware,Altium Limited,Altium Designer,24.6.1 (21)*
G04*
G04 Layer_Color=8388736*
%FSLAX25Y25*%
%MOIN*%
G70*
G04*
G04 #@! TF.SameCoordinates,E50FEA8C-7DC8-4ABE-93B5-960DD125A3C4*
G04*
G04*
G04 #@! TF.FilePolarity,Negative*
G04*
G01*
G75*
%ADD18R,0.03740X0.08465*%
%ADD19R,0.12795X0.08465*%
%ADD24R,0.02362X0.06693*%
%ADD25R,0.03937X0.10630*%
%ADD27R,0.04724X0.03543*%
%ADD29R,0.05733X0.05136*%
%ADD30R,0.03740X0.05315*%
%ADD31R,0.12992X0.05906*%
%ADD32R,0.04724X0.05906*%
%ADD33R,0.06509X0.05524*%
%ADD34R,0.08674X0.05800*%
%ADD35R,0.04737X0.04934*%
%ADD36R,0.04934X0.09461*%
%ADD37R,0.05524X0.06509*%
%ADD38R,0.06312X0.06706*%
%ADD39C,0.05567*%
%ADD40R,0.05567X0.05567*%
%ADD41C,0.05800*%
D18*
X93307Y35827D02*
D03*
X102362D02*
D03*
X111417D02*
D03*
D19*
X102362Y58661D02*
D03*
D24*
X134843Y23622D02*
D03*
X129921D02*
D03*
D25*
X142126Y11024D02*
D03*
X122638D02*
D03*
D27*
X145669Y176969D02*
D03*
Y185236D02*
D03*
D29*
X94488Y16513D02*
D03*
Y22857D02*
D03*
D30*
X185039Y39370D02*
D03*
X179134D02*
D03*
X184055Y59055D02*
D03*
X178150D02*
D03*
D31*
X157480Y63779D02*
D03*
D32*
X166535Y38583D02*
D03*
X157480D02*
D03*
X148425D02*
D03*
D33*
X177165Y165354D02*
D03*
Y157480D02*
D03*
D34*
X156604Y141732D02*
D03*
X93582Y141780D02*
D03*
X93612Y126358D02*
D03*
Y133858D02*
D03*
X93604Y149606D02*
D03*
X93582Y157480D02*
D03*
Y110236D02*
D03*
X93612Y165354D02*
D03*
X156604Y118110D02*
D03*
X93604Y118360D02*
D03*
X156612Y165354D02*
D03*
Y157854D02*
D03*
X156604Y149606D02*
D03*
Y110236D02*
D03*
D35*
X181102Y194783D02*
D03*
X98425D02*
D03*
X143602D02*
D03*
X122047D02*
D03*
D36*
X186909Y200787D02*
D03*
X175295D02*
D03*
X104232D02*
D03*
X92618D02*
D03*
X137795D02*
D03*
X149409D02*
D03*
X116240D02*
D03*
X127854D02*
D03*
D37*
X185039Y141732D02*
D03*
X177165D02*
D03*
Y181102D02*
D03*
X185039D02*
D03*
D38*
X126378Y43307D02*
D03*
X133858D02*
D03*
D39*
X13307Y48297D02*
D03*
Y58297D02*
D03*
Y68297D02*
D03*
Y78297D02*
D03*
Y88297D02*
D03*
Y98297D02*
D03*
Y108297D02*
D03*
Y118297D02*
D03*
Y128297D02*
D03*
Y138297D02*
D03*
Y148297D02*
D03*
Y158297D02*
D03*
Y168297D02*
D03*
Y178297D02*
D03*
Y188297D02*
D03*
X73307D02*
D03*
Y178297D02*
D03*
Y168297D02*
D03*
Y158297D02*
D03*
Y148297D02*
D03*
Y138297D02*
D03*
Y128297D02*
D03*
Y118297D02*
D03*
Y108297D02*
D03*
Y98297D02*
D03*
Y88297D02*
D03*
Y78297D02*
D03*
Y68297D02*
D03*
Y58297D02*
D03*
D40*
Y48297D02*
D03*
D41*
X181102Y200787D02*
D03*
X98425Y185039D02*
D03*
X134350Y14665D02*
D03*
X185039Y51181D02*
D03*
X133858D02*
D03*
X102362Y47244D02*
D03*
X102362Y16463D02*
D03*
X102362Y165354D02*
D03*
X141732Y118110D02*
D03*
X188976Y149606D02*
D03*
X186024Y31496D02*
D03*
X137795Y177165D02*
D03*
X188976Y173228D02*
D03*
X110236Y114173D02*
D03*
X23622Y59055D02*
D03*
X82677Y78740D02*
D03*
M02*
