G04*
G04 #@! TF.GenerationSoftware,Altium Limited,Altium Designer,24.6.1 (21)*
G04*
G04 Layer_Color=65535*
%FSLAX25Y25*%
%MOIN*%
G70*
G04*
G04 #@! TF.SameCoordinates,E50FEA8C-7DC8-4ABE-93B5-960DD125A3C4*
G04*
G04*
G04 #@! TF.FilePolarity,Positive*
G04*
G01*
G75*
%ADD10C,0.00984*%
%ADD11C,0.00787*%
%ADD12C,0.00500*%
%ADD13C,0.01000*%
%ADD14C,0.01063*%
%ADD15C,0.01169*%
%ADD16C,0.00595*%
%ADD17C,0.00935*%
D10*
X93701Y29232D02*
G03*
X93701Y29232I-492J0D01*
G01*
X171555Y200787D02*
G03*
X171555Y200787I-492J0D01*
G01*
X88878D02*
G03*
X88878Y200787I-492J0D01*
G01*
X130413Y29232D02*
G03*
X130413Y29232I-492J0D01*
G01*
X148721Y32677D02*
G03*
X148721Y32677I-492J0D01*
G01*
X134055Y200787D02*
G03*
X134055Y200787I-492J0D01*
G01*
X112500D02*
G03*
X112500Y200787I-492J0D01*
G01*
X81161Y48297D02*
G03*
X81161Y48297I-492J0D01*
G01*
D11*
X89173Y39961D02*
Y54527D01*
X110236D02*
X115551D01*
X89173D02*
X94488D01*
X115551Y39961D02*
Y54527D01*
X114764Y39961D02*
X115551D01*
X105709D02*
X108071D01*
X96653D02*
X99016D01*
X89173D02*
X89961D01*
X179626Y161024D02*
Y161811D01*
X174705Y161024D02*
Y161811D01*
X178937Y205906D02*
X183268D01*
X96260D02*
X100591D01*
X121063Y17815D02*
Y22638D01*
X126083Y6693D02*
X138681D01*
X143701Y17815D02*
Y22638D01*
X137500D02*
X143701D01*
X121063D02*
X127264D01*
X180709Y139272D02*
X181496D01*
X180709Y144193D02*
X181496D01*
X143012Y180217D02*
Y181988D01*
X148327Y180217D02*
Y181988D01*
X98930Y13945D02*
Y25426D01*
X90047Y13945D02*
Y25426D01*
X180709Y183563D02*
X181496D01*
X180709Y178642D02*
X181496D01*
X177756Y35138D02*
X186417D01*
X177756Y43602D02*
X186417D01*
X176751Y54793D02*
X185412D01*
X176772Y63287D02*
X185433D01*
X144291Y43898D02*
X170669D01*
Y58465D01*
X144291D02*
X170669D01*
X144291Y43898D02*
Y58465D01*
X141437Y205906D02*
X145768D01*
X119882D02*
X124213D01*
X78307Y33297D02*
Y210797D01*
X8307D02*
X78307D01*
X8307Y33297D02*
Y210797D01*
Y33297D02*
X78307D01*
D12*
X138858Y159045D02*
X147608D01*
Y146545D02*
Y159045D01*
X138858Y146545D02*
X147608D01*
X138858D02*
Y159045D01*
X105108Y141545D02*
Y161545D01*
X126358D01*
Y141545D02*
Y161545D01*
X105108Y141545D02*
X126358D01*
X93582Y169291D02*
X156604D01*
X93582Y106299D02*
X156604D01*
D13*
X8874Y5937D02*
Y11935D01*
X10873Y9935D01*
X12873Y11935D01*
Y5937D01*
X14872Y11935D02*
Y5937D01*
X18871D01*
X26868Y11935D02*
Y7936D01*
X28868Y5937D01*
X30867Y7936D01*
Y11935D01*
X35865Y5937D02*
X33866D01*
X32866Y6936D01*
Y8936D01*
X33866Y9935D01*
X35865D01*
X36865Y8936D01*
Y7936D01*
X32866D01*
X38864Y9935D02*
Y5937D01*
Y7936D01*
X39864Y8936D01*
X40864Y9935D01*
X41863D01*
X44862Y5937D02*
Y6936D01*
X45862D01*
Y5937D01*
X44862D01*
X49861Y10935D02*
X50860Y11935D01*
X52860D01*
X53860Y10935D01*
Y6936D01*
X52860Y5937D01*
X50860D01*
X49861Y6936D01*
Y10935D01*
X55859Y4937D02*
X59857D01*
X61857Y10935D02*
X62857Y11935D01*
X64856D01*
X65856Y10935D01*
Y6936D01*
X64856Y5937D01*
X62857D01*
X61857Y6936D01*
Y10935D01*
X153543Y18747D02*
X151544D01*
X152544D01*
Y13749D01*
X151544Y12749D01*
X150544D01*
X149545Y13749D01*
X155543Y12749D02*
X157542D01*
X156542D01*
Y18747D01*
X155543Y17747D01*
X97364Y73865D02*
Y68867D01*
X98364Y67867D01*
X100363D01*
X101363Y68867D01*
Y73865D01*
X107361Y67867D02*
X103362D01*
X107361Y71866D01*
Y72865D01*
X106361Y73865D01*
X104362D01*
X103362Y72865D01*
X144490Y76481D02*
Y71483D01*
X145489Y70483D01*
X147489D01*
X148488Y71483D01*
Y76481D01*
X150488Y70483D02*
X152487D01*
X151488D01*
Y76481D01*
X150488Y75482D01*
X126588Y56282D02*
X125589Y57282D01*
X123589D01*
X122590Y56282D01*
Y52283D01*
X123589Y51284D01*
X125589D01*
X126588Y52283D01*
X131587Y51284D02*
Y57282D01*
X128588Y54282D01*
X132587D01*
X175166Y26559D02*
X174166Y25560D01*
Y23560D01*
X175166Y22561D01*
X179165D01*
X180164Y23560D01*
Y25560D01*
X179165Y26559D01*
X175166Y28559D02*
X174166Y29558D01*
Y31558D01*
X175166Y32557D01*
X176166D01*
X177165Y31558D01*
Y30558D01*
Y31558D01*
X178165Y32557D01*
X179165D01*
X180164Y31558D01*
Y29558D01*
X179165Y28559D01*
X175166Y69867D02*
X174166Y68867D01*
Y66867D01*
X175166Y65868D01*
X179165D01*
X180164Y66867D01*
Y68867D01*
X179165Y69867D01*
X180164Y75864D02*
Y71866D01*
X176166Y75864D01*
X175166D01*
X174166Y74865D01*
Y72865D01*
X175166Y71866D01*
X82677Y29558D02*
X81678Y30558D01*
X79678D01*
X78679Y29558D01*
Y25560D01*
X79678Y24560D01*
X81678D01*
X82677Y25560D01*
X84676Y24560D02*
X86676D01*
X85676D01*
Y30558D01*
X84676Y29558D01*
X164293Y185977D02*
Y191975D01*
X167292D01*
X168292Y190976D01*
Y188976D01*
X167292Y187977D01*
X164293D01*
X166292D02*
X168292Y185977D01*
X170291Y190976D02*
X171291Y191975D01*
X173290D01*
X174290Y190976D01*
Y189976D01*
X173290Y188976D01*
X172290D01*
X173290D01*
X174290Y187977D01*
Y186977D01*
X173290Y185977D01*
X171291D01*
X170291Y186977D01*
X160356Y170229D02*
Y176227D01*
X163355D01*
X164355Y175228D01*
Y173228D01*
X163355Y172229D01*
X160356D01*
X162355D02*
X164355Y170229D01*
X170353D02*
X166354D01*
X170353Y174228D01*
Y175228D01*
X169353Y176227D01*
X167354D01*
X166354Y175228D01*
X181041Y126922D02*
Y132920D01*
X184040D01*
X185039Y131921D01*
Y129921D01*
X184040Y128922D01*
X181041D01*
X183040D02*
X185039Y126922D01*
X187039D02*
X189038D01*
X188038D01*
Y132920D01*
X187039Y131921D01*
X164293Y209599D02*
Y215597D01*
X167292D01*
X168292Y214598D01*
Y212598D01*
X167292Y211599D01*
X164293D01*
X173290Y209599D02*
Y215597D01*
X170291Y212598D01*
X174290D01*
X156419Y197788D02*
Y203786D01*
X159418D01*
X160418Y202787D01*
Y200787D01*
X159418Y199788D01*
X156419D01*
X158418D02*
X160418Y197788D01*
X165416D02*
Y203786D01*
X162417Y200787D01*
X166416D01*
X133590Y209384D02*
Y215382D01*
X136589D01*
X137589Y214382D01*
Y212383D01*
X136589Y211383D01*
X133590D01*
X139588Y214382D02*
X140587Y215382D01*
X142587D01*
X143587Y214382D01*
Y213382D01*
X142587Y212383D01*
X141587D01*
X142587D01*
X143587Y211383D01*
Y210383D01*
X142587Y209384D01*
X140587D01*
X139588Y210383D01*
X111990Y209384D02*
Y215382D01*
X114989D01*
X115989Y214382D01*
Y212383D01*
X114989Y211383D01*
X111990D01*
X121986Y209384D02*
X117988D01*
X121986Y213382D01*
Y214382D01*
X120987Y215382D01*
X118988D01*
X117988Y214382D01*
X88390Y209384D02*
Y215382D01*
X91389D01*
X92388Y214382D01*
Y212383D01*
X91389Y211383D01*
X88390D01*
X94388Y209384D02*
X96387D01*
X95388D01*
Y215382D01*
X94388Y214382D01*
X8490Y214583D02*
Y220582D01*
X10489Y218582D01*
X12489Y220582D01*
Y214583D01*
X14488Y220582D02*
Y214583D01*
X17487D01*
X18486Y215583D01*
Y219582D01*
X17487Y220582D01*
X14488D01*
X20486Y214583D02*
X22485D01*
X21486D01*
Y220582D01*
X20486Y219582D01*
X105299Y174166D02*
X107299D01*
X106299D01*
Y180164D01*
X105299Y179165D01*
D14*
X100658Y165120D02*
X103491D01*
X145669Y124172D02*
X148502D01*
D15*
X99941Y112573D02*
X103056D01*
D16*
X148549Y108256D02*
Y110239D01*
X149541Y111230D01*
X150532Y110239D01*
Y108256D01*
Y109743D01*
X148549D01*
D17*
X149606Y136195D02*
X152722D01*
X151164Y137753D02*
Y134637D01*
M02*
