G04*
G04 #@! TF.GenerationSoftware,Altium Limited,Altium Designer,24.6.1 (21)*
G04*
G04 Layer_Color=8421504*
%FSLAX25Y25*%
%MOIN*%
G70*
G04*
G04 #@! TF.SameCoordinates,E50FEA8C-7DC8-4ABE-93B5-960DD125A3C4*
G04*
G04*
G04 #@! TF.FilePolarity,Positive*
G04*
G01*
G75*
%ADD18R,0.03740X0.08465*%
%ADD19R,0.12795X0.08465*%
%ADD20R,0.05709X0.04724*%
%ADD21R,0.07874X0.05000*%
%ADD22R,0.03937X0.04134*%
%ADD23R,0.04134X0.08661*%
%ADD24R,0.02362X0.06693*%
%ADD25R,0.03937X0.10630*%
%ADD26R,0.04724X0.05709*%
%ADD27R,0.04724X0.03543*%
%ADD28R,0.05512X0.05906*%
%ADD29R,0.05733X0.05136*%
%ADD30R,0.03740X0.05315*%
%ADD31R,0.12992X0.05906*%
%ADD32R,0.04724X0.05906*%
D18*
X93307Y35827D02*
D03*
X102362D02*
D03*
X111417D02*
D03*
D19*
X102362Y58661D02*
D03*
D20*
X177165Y165354D02*
D03*
Y157480D02*
D03*
D21*
X156604Y141732D02*
D03*
X93582Y141780D02*
D03*
X93612Y126358D02*
D03*
Y133858D02*
D03*
X93604Y149606D02*
D03*
X93582Y157480D02*
D03*
Y110236D02*
D03*
X93612Y165354D02*
D03*
X156604Y118110D02*
D03*
X93604Y118360D02*
D03*
X156612Y165354D02*
D03*
Y157854D02*
D03*
X156604Y149606D02*
D03*
Y110236D02*
D03*
D22*
X181102Y194783D02*
D03*
X98425D02*
D03*
X143602D02*
D03*
X122047D02*
D03*
D23*
X186909Y200787D02*
D03*
X175295D02*
D03*
X104232D02*
D03*
X92618D02*
D03*
X137795D02*
D03*
X149409D02*
D03*
X116240D02*
D03*
X127854D02*
D03*
D24*
X134843Y23622D02*
D03*
X129921D02*
D03*
D25*
X142126Y11024D02*
D03*
X122638D02*
D03*
D26*
X185039Y141732D02*
D03*
X177165D02*
D03*
Y181102D02*
D03*
X185039D02*
D03*
D27*
X145669Y176969D02*
D03*
Y185236D02*
D03*
D28*
X126378Y43307D02*
D03*
X133858D02*
D03*
D29*
X94488Y16513D02*
D03*
Y22857D02*
D03*
D30*
X185039Y39370D02*
D03*
X179134D02*
D03*
X184055Y59055D02*
D03*
X178150D02*
D03*
D31*
X157480Y63779D02*
D03*
D32*
X166535Y38583D02*
D03*
X157480D02*
D03*
X148425D02*
D03*
M02*
