G04*
G04 #@! TF.GenerationSoftware,Altium Limited,Altium Designer,24.6.1 (21)*
G04*
G04 Layer_Physical_Order=1*
G04 Layer_Color=255*
%FSLAX25Y25*%
%MOIN*%
G70*
G04*
G04 #@! TF.SameCoordinates,E50FEA8C-7DC8-4ABE-93B5-960DD125A3C4*
G04*
G04*
G04 #@! TF.FilePolarity,Positive*
G04*
G01*
G75*
%ADD13C,0.01000*%
%ADD18R,0.03740X0.08465*%
%ADD19R,0.12795X0.08465*%
%ADD20R,0.05709X0.04724*%
%ADD21R,0.07874X0.05000*%
%ADD22R,0.03937X0.04134*%
%ADD23R,0.04134X0.08661*%
%ADD24R,0.02362X0.06693*%
%ADD25R,0.03937X0.10630*%
%ADD26R,0.04724X0.05709*%
%ADD27R,0.04724X0.03543*%
%ADD28R,0.05512X0.05906*%
%ADD29R,0.05733X0.05136*%
%ADD30R,0.03740X0.05315*%
%ADD31R,0.12992X0.05906*%
%ADD32R,0.04724X0.05906*%
%ADD39C,0.05567*%
%ADD40R,0.05567X0.05567*%
%ADD42C,0.05000*%
D13*
X134843Y23622D02*
G03*
X134350Y23130I0J-492D01*
G01*
X22864Y58297D02*
G03*
X23622Y59055I0J758D01*
G01*
X13307Y48297D02*
G03*
X14360Y47244I1053J0D01*
G01*
X41496Y62992D02*
G03*
X31496Y52992I0J-10000D01*
G01*
X82677Y66929D02*
G03*
X78740Y62992I0J-3937D01*
G01*
X121653Y56929D02*
G03*
X111653Y66929I-10000J0D01*
G01*
X114173Y35827D02*
G03*
X121653Y43307I0J7480D01*
G01*
X111919Y88297D02*
G03*
X114173Y90551I0J2254D01*
G01*
X137795Y117319D02*
G03*
X137783Y117478I-1000J0D01*
G01*
X157480Y92362D02*
G03*
X147480Y102362I-10000J0D01*
G01*
X137783Y118745D02*
G03*
X137783Y117478I3949J-634D01*
G01*
X137783Y118745D02*
G03*
X137795Y118901I-988J157D01*
G01*
X148425Y41181D02*
G03*
X138425Y51181I-10000J0D01*
G01*
X167323Y39370D02*
G03*
X166535Y38583I0J-787D01*
G01*
X157185Y29232D02*
G03*
X166535Y38583I0J9350D01*
G01*
X94969Y29232D02*
G03*
X94488Y28752I0J-481D01*
G01*
X184055Y52165D02*
G03*
X185039Y51181I984J0D01*
G01*
X178150Y59055D02*
G03*
X173425Y63779I-4724J0D01*
G01*
X94488Y34646D02*
G03*
X93307Y35827I-1181J0D01*
G01*
X102362Y16463D02*
G03*
X101598Y17228I-765J0D01*
G01*
X73307Y178297D02*
G03*
X74439Y177165I1132J0D01*
G01*
X73986Y188976D02*
G03*
X73307Y188297I0J-679D01*
G01*
X93036Y159480D02*
G03*
X90452Y161334I-3391J-2000D01*
G01*
D02*
G03*
X90255Y161354I-201J-979D01*
G01*
X89337Y161393D02*
G03*
X89122Y161417I-220J-976D01*
G01*
X89337Y161393D02*
G03*
X89675Y161354I338J1461D01*
G01*
X13986Y188976D02*
G03*
X13307Y188297I0J-679D01*
G01*
X70516Y141780D02*
G03*
X71037Y141930I-5J1000D01*
G01*
X75578Y141929D02*
G03*
X76099Y141780I525J851D01*
G01*
X75578Y141929D02*
G03*
X71037Y141930I-2271J-3632D01*
G01*
X73307Y138297D02*
G03*
X77746Y133858I4439J0D01*
G01*
X73435Y98425D02*
G03*
X73307Y98297I0J-128D01*
G01*
X91127Y122453D02*
G03*
X93120Y124358I-1826J3905D01*
G01*
X90711Y122360D02*
G03*
X91127Y122453I-5J1000D01*
G01*
X89667Y122360D02*
G03*
X88938Y122171I0J-1500D01*
G01*
X88460Y122047D02*
G03*
X88938Y122171I-5J1000D01*
G01*
X114173Y114960D02*
G03*
X114185Y114810I1000J5D01*
G01*
X114185Y113537D02*
G03*
X114173Y113386I988J-155D01*
G01*
X124173Y149606D02*
G03*
X114173Y139606I0J-10000D01*
G01*
X114185Y113537D02*
G03*
X114185Y114810I-3949J637D01*
G01*
X106299Y110236D02*
G03*
X110236Y114173I0J3937D01*
G01*
X181102Y194783D02*
G03*
X177165Y190847I0J-3937D01*
G01*
X185039Y141732D02*
G03*
X188976Y145669I0J3937D01*
G01*
Y177165D02*
G03*
X185039Y181102I-3937J0D01*
G01*
X167165Y110236D02*
G03*
X177165Y120236I0J10000D01*
G01*
X149531Y187008D02*
G03*
X149531Y187026I-1500J0D01*
G01*
X149457Y182999D02*
G03*
X149409Y182697I952J-306D01*
G01*
X145669Y176969D02*
G03*
X149409Y180709I0J3740D01*
G01*
X149457Y182999D02*
G03*
X149531Y183465I-1426J466D01*
G01*
X137795Y177165D02*
G03*
X137992Y176969I197J0D01*
G01*
X145669Y192717D02*
G03*
X143602Y194783I-2067J0D01*
G01*
X82234Y78297D02*
G03*
X82677Y78740I0J443D01*
G01*
X186024Y38386D02*
G03*
X185039Y39370I-984J0D01*
G01*
X175295Y200787D02*
X186909D01*
X165453Y63779D02*
X173425D01*
X157480D02*
X165453D01*
X165354Y63878D02*
Y74803D01*
Y63878D02*
X165453Y63779D01*
X125984Y42913D02*
X126378Y43307D01*
X125984Y35433D02*
Y42913D01*
X92618Y190847D02*
X98425Y185039D01*
X92618Y190847D02*
Y200787D01*
X98425Y185039D02*
Y194783D01*
Y185039D02*
X104232Y190847D01*
Y200787D01*
X134350Y14665D02*
Y23130D01*
X94488Y28752D02*
Y34646D01*
X129921Y29232D02*
X157185D01*
X94969D02*
X129921D01*
Y23622D02*
Y29232D01*
X14360Y47244D02*
X31496D01*
X13307Y58297D02*
X22864D01*
X31496Y47244D02*
Y52992D01*
X41496Y62992D02*
X78740D01*
X82677Y66929D02*
X111653D01*
X121653Y43307D02*
Y56929D01*
X73307Y88297D02*
X111919D01*
X114173Y90551D02*
Y113386D01*
X102362Y47244D02*
Y58661D01*
X137795Y102362D02*
Y117319D01*
Y102362D02*
X147480D01*
X157480Y63779D02*
Y92362D01*
X156604Y141732D02*
Y141732D01*
X137795D02*
X156604D01*
X137795Y118901D02*
Y141732D01*
X133858Y51181D02*
X138425D01*
X148425Y38583D02*
Y41181D01*
X167323Y39370D02*
X179134D01*
X94488Y22857D02*
Y28752D01*
X184055Y52165D02*
Y59055D01*
X157480Y38583D02*
Y63779D01*
X133858Y43307D02*
Y51181D01*
X111417Y35827D02*
X114173D01*
X121653Y43307D02*
X126378D01*
X102362Y35827D02*
Y47244D01*
X94488Y17228D02*
X101598D01*
X102362Y165354D02*
Y165354D01*
X93612Y165354D02*
X102362D01*
X74439Y177165D02*
X82677D01*
Y149606D02*
Y177165D01*
Y149606D02*
X93604D01*
X73986Y188976D02*
X86614D01*
X93036Y159480D02*
X93582Y157480D01*
X89675Y161354D02*
X90255D01*
X86614Y161417D02*
X89122D01*
X86614D02*
Y188976D01*
X13986D02*
X19685D01*
Y141780D02*
X70516D01*
X76099D02*
X93582D01*
X76099D02*
X76099D01*
X19685D02*
Y188976D01*
X77746Y133858D02*
X93612D01*
X73435Y98425D02*
X86614D01*
X93120Y124358D02*
X93612Y126358D01*
X89667Y122360D02*
X90711D01*
X86614Y122047D02*
X88460D01*
X86614Y98425D02*
Y122047D01*
X114173Y114960D02*
Y139606D01*
Y114960D02*
Y114960D01*
X124173Y149606D02*
X156604D01*
X141732Y118110D02*
X156604D01*
Y118110D01*
X93582Y110236D02*
X106299D01*
X177165Y181102D02*
Y190847D01*
X188976Y145669D02*
Y149606D01*
Y173228D02*
Y177165D01*
X177165Y165354D02*
Y181102D01*
Y141732D02*
Y157480D01*
X156604Y110236D02*
X167165D01*
X177165Y120236D02*
Y141732D01*
X149531Y183465D02*
Y187008D01*
X137992Y176969D02*
X145669D01*
X149409Y180709D02*
Y182697D01*
Y200787D02*
X149443Y196957D01*
X149531Y187026D01*
X137795Y177165D02*
Y200787D01*
X145669Y185236D02*
Y192717D01*
X73307Y78297D02*
X82234D01*
X186024Y31496D02*
Y38386D01*
D18*
X93307Y35827D02*
D03*
X102362D02*
D03*
X111417D02*
D03*
D19*
X102362Y58661D02*
D03*
D20*
X177165Y165354D02*
D03*
Y157480D02*
D03*
D21*
X156604Y141732D02*
D03*
X93582Y141780D02*
D03*
X93612Y126358D02*
D03*
Y133858D02*
D03*
X93604Y149606D02*
D03*
X93582Y157480D02*
D03*
Y110236D02*
D03*
X93612Y165354D02*
D03*
X156604Y118110D02*
D03*
X93604Y118360D02*
D03*
X156612Y165354D02*
D03*
Y157854D02*
D03*
X156604Y149606D02*
D03*
Y110236D02*
D03*
D22*
X181102Y194783D02*
D03*
X98425D02*
D03*
X143602D02*
D03*
X122047D02*
D03*
D23*
X186909Y200787D02*
D03*
X175295D02*
D03*
X104232D02*
D03*
X92618D02*
D03*
X137795D02*
D03*
X149409D02*
D03*
X116240D02*
D03*
X127854D02*
D03*
D24*
X134843Y23622D02*
D03*
X129921D02*
D03*
D25*
X142126Y11024D02*
D03*
X122638D02*
D03*
D26*
X185039Y141732D02*
D03*
X177165D02*
D03*
Y181102D02*
D03*
X185039D02*
D03*
D27*
X145669Y176969D02*
D03*
Y185236D02*
D03*
D28*
X126378Y43307D02*
D03*
X133858D02*
D03*
D29*
X94488Y16513D02*
D03*
Y22857D02*
D03*
D30*
X185039Y39370D02*
D03*
X179134D02*
D03*
X184055Y59055D02*
D03*
X178150D02*
D03*
D31*
X157480Y63779D02*
D03*
D32*
X166535Y38583D02*
D03*
X157480D02*
D03*
X148425D02*
D03*
D39*
X13307Y48297D02*
D03*
Y58297D02*
D03*
Y68297D02*
D03*
Y78297D02*
D03*
Y88297D02*
D03*
Y98297D02*
D03*
Y108297D02*
D03*
Y118297D02*
D03*
Y128297D02*
D03*
Y138297D02*
D03*
Y148297D02*
D03*
Y158297D02*
D03*
Y168297D02*
D03*
Y178297D02*
D03*
Y188297D02*
D03*
X73307D02*
D03*
Y178297D02*
D03*
Y168297D02*
D03*
Y158297D02*
D03*
Y148297D02*
D03*
Y138297D02*
D03*
Y128297D02*
D03*
Y118297D02*
D03*
Y108297D02*
D03*
Y98297D02*
D03*
Y88297D02*
D03*
Y78297D02*
D03*
Y68297D02*
D03*
Y58297D02*
D03*
D40*
Y48297D02*
D03*
D42*
X181102Y200787D02*
D03*
X98425Y185039D02*
D03*
X134350Y14665D02*
D03*
X185039Y51181D02*
D03*
X133858D02*
D03*
X102362Y47244D02*
D03*
X102362Y16463D02*
D03*
X102362Y165354D02*
D03*
X141732Y118110D02*
D03*
X188976Y149606D02*
D03*
X186024Y31496D02*
D03*
X137795Y177165D02*
D03*
X188976Y173228D02*
D03*
X110236Y114173D02*
D03*
X23622Y59055D02*
D03*
X82677Y78740D02*
D03*
M02*
