M48
;Layer_Color=9474304
;FILE_FORMAT=2:4
INCH,LZ
;TYPE=PLATED
T01F00S00C0.0280
T02F00S00C0.0360
%
T01
X010236Y001646
X013435Y001467
X018602Y00315
X002362Y005906
X008268Y007874
X010236Y004724
X013386Y005118
X018504
X018898Y014961
Y017323
X01811Y020079
X01378Y017717
X010236Y016535
X009843Y018504
X011024Y011417
X014173Y011811
T02
X001331Y00483
Y00583
Y00683
Y00783
Y00883
Y00983
Y01083
Y01183
Y01283
Y01383
Y01483
Y01583
Y01683
Y01783
Y01883
X007331
Y01783
Y01683
Y01583
Y01483
Y01383
Y01283
Y01183
Y01083
Y00983
Y00883
Y00783
Y00683
Y00583
Y00483
M30
