G04*
G04 #@! TF.GenerationSoftware,Altium Limited,Altium Designer,24.6.1 (21)*
G04*
G04 Layer_Physical_Order=2*
G04 Layer_Color=16711680*
%FSLAX25Y25*%
%MOIN*%
G70*
G04*
G04 #@! TF.SameCoordinates,E50FEA8C-7DC8-4ABE-93B5-960DD125A3C4*
G04*
G04*
G04 #@! TF.FilePolarity,Positive*
G04*
G01*
G75*
%ADD39C,0.05567*%
%ADD40R,0.05567X0.05567*%
%ADD42C,0.05000*%
G36*
X190125Y220321D02*
X190841Y220024D01*
X191486Y219594D01*
X192034Y219045D01*
X192465Y218400D01*
X192762Y217684D01*
X192913Y216923D01*
Y216535D01*
Y175409D01*
X191913Y175141D01*
X191777Y175377D01*
X191125Y176029D01*
X190327Y176490D01*
X189476Y176718D01*
Y173228D01*
Y169739D01*
X190327Y169967D01*
X191125Y170428D01*
X191777Y171079D01*
X191913Y171315D01*
X192913Y171047D01*
Y151787D01*
X191913Y151519D01*
X191777Y151755D01*
X191125Y152407D01*
X190327Y152868D01*
X189476Y153096D01*
Y149606D01*
Y146117D01*
X190327Y146345D01*
X191125Y146806D01*
X191777Y147457D01*
X191913Y147693D01*
X192913Y147425D01*
Y7874D01*
Y7486D01*
X192762Y6726D01*
X192465Y6009D01*
X192034Y5364D01*
X191486Y4816D01*
X190841Y4385D01*
X190125Y4088D01*
X189364Y3937D01*
X7486D01*
X6726Y4088D01*
X6009Y4385D01*
X5364Y4816D01*
X4816Y5364D01*
X4385Y6009D01*
X4088Y6726D01*
X3937Y7486D01*
Y7874D01*
Y216535D01*
Y216923D01*
X4088Y217684D01*
X4385Y218400D01*
X4816Y219045D01*
X5364Y219594D01*
X6009Y220024D01*
X6726Y220321D01*
X7486Y220472D01*
X189364D01*
X190125Y220321D01*
D02*
G37*
%LPC*%
G36*
X181602Y204277D02*
Y201287D01*
X184592D01*
X184364Y202138D01*
X183903Y202936D01*
X183251Y203588D01*
X182453Y204049D01*
X181602Y204277D01*
D02*
G37*
G36*
X180602D02*
X179751Y204049D01*
X178953Y203588D01*
X178302Y202936D01*
X177841Y202138D01*
X177613Y201287D01*
X180602D01*
Y204277D01*
D02*
G37*
G36*
X184592Y200287D02*
X181602D01*
Y197298D01*
X182453Y197526D01*
X183251Y197987D01*
X183903Y198638D01*
X184364Y199436D01*
X184592Y200287D01*
D02*
G37*
G36*
X180602D02*
X177613D01*
X177841Y199436D01*
X178302Y198638D01*
X178953Y197987D01*
X179751Y197526D01*
X180602Y197298D01*
Y200287D01*
D02*
G37*
G36*
X98925Y188529D02*
Y185539D01*
X101915D01*
X101687Y186390D01*
X101226Y187188D01*
X100574Y187840D01*
X99776Y188301D01*
X98925Y188529D01*
D02*
G37*
G36*
X97925D02*
X97074Y188301D01*
X96276Y187840D01*
X95625Y187188D01*
X95164Y186390D01*
X94936Y185539D01*
X97925D01*
Y188529D01*
D02*
G37*
G36*
X73805Y192081D02*
X72809D01*
X71847Y191823D01*
X70984Y191325D01*
X70280Y190620D01*
X69781Y189758D01*
X69524Y188795D01*
Y187799D01*
X69781Y186837D01*
X70280Y185974D01*
X70984Y185270D01*
X71847Y184772D01*
X72809Y184514D01*
X73805D01*
X74767Y184772D01*
X75630Y185270D01*
X76335Y185974D01*
X76833Y186837D01*
X77091Y187799D01*
Y188795D01*
X76833Y189758D01*
X76335Y190620D01*
X75630Y191325D01*
X74767Y191823D01*
X73805Y192081D01*
D02*
G37*
G36*
X13805D02*
X12809D01*
X11847Y191823D01*
X10984Y191325D01*
X10280Y190620D01*
X9781Y189758D01*
X9524Y188795D01*
Y187799D01*
X9781Y186837D01*
X10280Y185974D01*
X10984Y185270D01*
X11847Y184772D01*
X12809Y184514D01*
X13805D01*
X14767Y184772D01*
X15630Y185270D01*
X16335Y185974D01*
X16833Y186837D01*
X17090Y187799D01*
Y188795D01*
X16833Y189758D01*
X16335Y190620D01*
X15630Y191325D01*
X14767Y191823D01*
X13805Y192081D01*
D02*
G37*
G36*
X101915Y184539D02*
X98925D01*
Y181550D01*
X99776Y181778D01*
X100574Y182239D01*
X101226Y182890D01*
X101687Y183688D01*
X101915Y184539D01*
D02*
G37*
G36*
X97925D02*
X94936D01*
X95164Y183688D01*
X95625Y182890D01*
X96276Y182239D01*
X97074Y181778D01*
X97925Y181550D01*
Y184539D01*
D02*
G37*
G36*
X138295Y180655D02*
Y177665D01*
X141285D01*
X141057Y178516D01*
X140596Y179314D01*
X139944Y179966D01*
X139146Y180427D01*
X138295Y180655D01*
D02*
G37*
G36*
X137295D02*
X136444Y180427D01*
X135646Y179966D01*
X134995Y179314D01*
X134534Y178516D01*
X134306Y177665D01*
X137295D01*
Y180655D01*
D02*
G37*
G36*
X73805Y182081D02*
X72809D01*
X71847Y181823D01*
X70984Y181325D01*
X70280Y180620D01*
X69781Y179758D01*
X69524Y178795D01*
Y177799D01*
X69781Y176837D01*
X70280Y175974D01*
X70984Y175270D01*
X71847Y174772D01*
X72809Y174514D01*
X73805D01*
X74767Y174772D01*
X75630Y175270D01*
X76335Y175974D01*
X76833Y176837D01*
X77091Y177799D01*
Y178795D01*
X76833Y179758D01*
X76335Y180620D01*
X75630Y181325D01*
X74767Y181823D01*
X73805Y182081D01*
D02*
G37*
G36*
X13805D02*
X12809D01*
X11847Y181823D01*
X10984Y181325D01*
X10280Y180620D01*
X9781Y179758D01*
X9524Y178795D01*
Y177799D01*
X9781Y176837D01*
X10280Y175974D01*
X10984Y175270D01*
X11847Y174772D01*
X12809Y174514D01*
X13805D01*
X14767Y174772D01*
X15630Y175270D01*
X16335Y175974D01*
X16833Y176837D01*
X17090Y177799D01*
Y178795D01*
X16833Y179758D01*
X16335Y180620D01*
X15630Y181325D01*
X14767Y181823D01*
X13805Y182081D01*
D02*
G37*
G36*
X188476Y176718D02*
X187625Y176490D01*
X186827Y176029D01*
X186176Y175377D01*
X185715Y174579D01*
X185487Y173728D01*
X188476D01*
Y176718D01*
D02*
G37*
G36*
X141285Y176665D02*
X138295D01*
Y173676D01*
X139146Y173904D01*
X139944Y174365D01*
X140596Y175016D01*
X141057Y175814D01*
X141285Y176665D01*
D02*
G37*
G36*
X137295D02*
X134306D01*
X134534Y175814D01*
X134995Y175016D01*
X135646Y174365D01*
X136444Y173904D01*
X137295Y173676D01*
Y176665D01*
D02*
G37*
G36*
X188476Y172728D02*
X185487D01*
X185715Y171877D01*
X186176Y171079D01*
X186827Y170428D01*
X187625Y169967D01*
X188476Y169739D01*
Y172728D01*
D02*
G37*
G36*
X102862Y168844D02*
Y165854D01*
X105852D01*
X105624Y166705D01*
X105163Y167503D01*
X104511Y168155D01*
X103713Y168616D01*
X102862Y168844D01*
D02*
G37*
G36*
X101862D02*
X101011Y168616D01*
X100213Y168155D01*
X99562Y167503D01*
X99101Y166705D01*
X98873Y165854D01*
X101862D01*
Y168844D01*
D02*
G37*
G36*
X73805Y172081D02*
X72809D01*
X71847Y171823D01*
X70984Y171325D01*
X70280Y170620D01*
X69781Y169758D01*
X69524Y168795D01*
Y167799D01*
X69781Y166837D01*
X70280Y165974D01*
X70984Y165270D01*
X71847Y164772D01*
X72809Y164514D01*
X73805D01*
X74767Y164772D01*
X75630Y165270D01*
X76335Y165974D01*
X76833Y166837D01*
X77091Y167799D01*
Y168795D01*
X76833Y169758D01*
X76335Y170620D01*
X75630Y171325D01*
X74767Y171823D01*
X73805Y172081D01*
D02*
G37*
G36*
X13805D02*
X12809D01*
X11847Y171823D01*
X10984Y171325D01*
X10280Y170620D01*
X9781Y169758D01*
X9524Y168795D01*
Y167799D01*
X9781Y166837D01*
X10280Y165974D01*
X10984Y165270D01*
X11847Y164772D01*
X12809Y164514D01*
X13805D01*
X14767Y164772D01*
X15630Y165270D01*
X16335Y165974D01*
X16833Y166837D01*
X17090Y167799D01*
Y168795D01*
X16833Y169758D01*
X16335Y170620D01*
X15630Y171325D01*
X14767Y171823D01*
X13805Y172081D01*
D02*
G37*
G36*
X105852Y164854D02*
X102862D01*
Y161865D01*
X103713Y162093D01*
X104511Y162554D01*
X105163Y163205D01*
X105624Y164003D01*
X105852Y164854D01*
D02*
G37*
G36*
X101862D02*
X98873D01*
X99101Y164003D01*
X99562Y163205D01*
X100213Y162554D01*
X101011Y162093D01*
X101862Y161865D01*
Y164854D01*
D02*
G37*
G36*
X73805Y162081D02*
X72809D01*
X71847Y161823D01*
X70984Y161325D01*
X70280Y160620D01*
X69781Y159758D01*
X69524Y158795D01*
Y157799D01*
X69781Y156837D01*
X70280Y155974D01*
X70984Y155270D01*
X71847Y154772D01*
X72809Y154514D01*
X73805D01*
X74767Y154772D01*
X75630Y155270D01*
X76335Y155974D01*
X76833Y156837D01*
X77091Y157799D01*
Y158795D01*
X76833Y159758D01*
X76335Y160620D01*
X75630Y161325D01*
X74767Y161823D01*
X73805Y162081D01*
D02*
G37*
G36*
X13805D02*
X12809D01*
X11847Y161823D01*
X10984Y161325D01*
X10280Y160620D01*
X9781Y159758D01*
X9524Y158795D01*
Y157799D01*
X9781Y156837D01*
X10280Y155974D01*
X10984Y155270D01*
X11847Y154772D01*
X12809Y154514D01*
X13805D01*
X14767Y154772D01*
X15630Y155270D01*
X16335Y155974D01*
X16833Y156837D01*
X17090Y157799D01*
Y158795D01*
X16833Y159758D01*
X16335Y160620D01*
X15630Y161325D01*
X14767Y161823D01*
X13805Y162081D01*
D02*
G37*
G36*
X188476Y153096D02*
X187625Y152868D01*
X186827Y152407D01*
X186176Y151755D01*
X185715Y150957D01*
X185487Y150106D01*
X188476D01*
Y153096D01*
D02*
G37*
G36*
Y149106D02*
X185487D01*
X185715Y148255D01*
X186176Y147457D01*
X186827Y146806D01*
X187625Y146345D01*
X188476Y146117D01*
Y149106D01*
D02*
G37*
G36*
X73805Y152081D02*
X72809D01*
X71847Y151823D01*
X70984Y151325D01*
X70280Y150620D01*
X69781Y149758D01*
X69524Y148795D01*
Y147799D01*
X69781Y146837D01*
X70280Y145974D01*
X70984Y145270D01*
X71847Y144772D01*
X72809Y144514D01*
X73805D01*
X74767Y144772D01*
X75630Y145270D01*
X76335Y145974D01*
X76833Y146837D01*
X77091Y147799D01*
Y148795D01*
X76833Y149758D01*
X76335Y150620D01*
X75630Y151325D01*
X74767Y151823D01*
X73805Y152081D01*
D02*
G37*
G36*
X13805D02*
X12809D01*
X11847Y151823D01*
X10984Y151325D01*
X10280Y150620D01*
X9781Y149758D01*
X9524Y148795D01*
Y147799D01*
X9781Y146837D01*
X10280Y145974D01*
X10984Y145270D01*
X11847Y144772D01*
X12809Y144514D01*
X13805D01*
X14767Y144772D01*
X15630Y145270D01*
X16335Y145974D01*
X16833Y146837D01*
X17090Y147799D01*
Y148795D01*
X16833Y149758D01*
X16335Y150620D01*
X15630Y151325D01*
X14767Y151823D01*
X13805Y152081D01*
D02*
G37*
G36*
X73805Y142081D02*
X72809D01*
X71847Y141823D01*
X70984Y141325D01*
X70280Y140620D01*
X69781Y139758D01*
X69524Y138795D01*
Y137799D01*
X69781Y136837D01*
X70280Y135974D01*
X70984Y135270D01*
X71847Y134772D01*
X72809Y134514D01*
X73805D01*
X74767Y134772D01*
X75630Y135270D01*
X76335Y135974D01*
X76833Y136837D01*
X77091Y137799D01*
Y138795D01*
X76833Y139758D01*
X76335Y140620D01*
X75630Y141325D01*
X74767Y141823D01*
X73805Y142081D01*
D02*
G37*
G36*
X13805D02*
X12809D01*
X11847Y141823D01*
X10984Y141325D01*
X10280Y140620D01*
X9781Y139758D01*
X9524Y138795D01*
Y137799D01*
X9781Y136837D01*
X10280Y135974D01*
X10984Y135270D01*
X11847Y134772D01*
X12809Y134514D01*
X13805D01*
X14767Y134772D01*
X15630Y135270D01*
X16335Y135974D01*
X16833Y136837D01*
X17090Y137799D01*
Y138795D01*
X16833Y139758D01*
X16335Y140620D01*
X15630Y141325D01*
X14767Y141823D01*
X13805Y142081D01*
D02*
G37*
G36*
X73805Y132081D02*
X72809D01*
X71847Y131823D01*
X70984Y131325D01*
X70280Y130620D01*
X69781Y129758D01*
X69524Y128795D01*
Y127799D01*
X69781Y126837D01*
X70280Y125974D01*
X70984Y125270D01*
X71847Y124772D01*
X72809Y124514D01*
X73805D01*
X74767Y124772D01*
X75630Y125270D01*
X76335Y125974D01*
X76833Y126837D01*
X77091Y127799D01*
Y128795D01*
X76833Y129758D01*
X76335Y130620D01*
X75630Y131325D01*
X74767Y131823D01*
X73805Y132081D01*
D02*
G37*
G36*
X13805D02*
X12809D01*
X11847Y131823D01*
X10984Y131325D01*
X10280Y130620D01*
X9781Y129758D01*
X9524Y128795D01*
Y127799D01*
X9781Y126837D01*
X10280Y125974D01*
X10984Y125270D01*
X11847Y124772D01*
X12809Y124514D01*
X13805D01*
X14767Y124772D01*
X15630Y125270D01*
X16335Y125974D01*
X16833Y126837D01*
X17090Y127799D01*
Y128795D01*
X16833Y129758D01*
X16335Y130620D01*
X15630Y131325D01*
X14767Y131823D01*
X13805Y132081D01*
D02*
G37*
G36*
X142232Y121600D02*
Y118610D01*
X145222D01*
X144994Y119461D01*
X144533Y120259D01*
X143881Y120911D01*
X143083Y121372D01*
X142232Y121600D01*
D02*
G37*
G36*
X141232D02*
X140381Y121372D01*
X139583Y120911D01*
X138932Y120259D01*
X138471Y119461D01*
X138243Y118610D01*
X141232D01*
Y121600D01*
D02*
G37*
G36*
X110736Y117663D02*
Y114673D01*
X113726D01*
X113498Y115524D01*
X113037Y116322D01*
X112385Y116974D01*
X111587Y117435D01*
X110736Y117663D01*
D02*
G37*
G36*
X109736D02*
X108885Y117435D01*
X108087Y116974D01*
X107436Y116322D01*
X106975Y115524D01*
X106747Y114673D01*
X109736D01*
Y117663D01*
D02*
G37*
G36*
X145222Y117610D02*
X142232D01*
Y114621D01*
X143083Y114849D01*
X143881Y115310D01*
X144533Y115961D01*
X144994Y116759D01*
X145222Y117610D01*
D02*
G37*
G36*
X141232D02*
X138243D01*
X138471Y116759D01*
X138932Y115961D01*
X139583Y115310D01*
X140381Y114849D01*
X141232Y114621D01*
Y117610D01*
D02*
G37*
G36*
X73805Y122081D02*
X72809D01*
X71847Y121823D01*
X70984Y121325D01*
X70280Y120620D01*
X69781Y119758D01*
X69524Y118795D01*
Y117799D01*
X69781Y116837D01*
X70280Y115974D01*
X70984Y115270D01*
X71847Y114772D01*
X72809Y114514D01*
X73805D01*
X74767Y114772D01*
X75630Y115270D01*
X76335Y115974D01*
X76833Y116837D01*
X77091Y117799D01*
Y118795D01*
X76833Y119758D01*
X76335Y120620D01*
X75630Y121325D01*
X74767Y121823D01*
X73805Y122081D01*
D02*
G37*
G36*
X13805D02*
X12809D01*
X11847Y121823D01*
X10984Y121325D01*
X10280Y120620D01*
X9781Y119758D01*
X9524Y118795D01*
Y117799D01*
X9781Y116837D01*
X10280Y115974D01*
X10984Y115270D01*
X11847Y114772D01*
X12809Y114514D01*
X13805D01*
X14767Y114772D01*
X15630Y115270D01*
X16335Y115974D01*
X16833Y116837D01*
X17090Y117799D01*
Y118795D01*
X16833Y119758D01*
X16335Y120620D01*
X15630Y121325D01*
X14767Y121823D01*
X13805Y122081D01*
D02*
G37*
G36*
X113726Y113673D02*
X110736D01*
Y110684D01*
X111587Y110912D01*
X112385Y111372D01*
X113037Y112024D01*
X113498Y112822D01*
X113726Y113673D01*
D02*
G37*
G36*
X109736D02*
X106747D01*
X106975Y112822D01*
X107436Y112024D01*
X108087Y111372D01*
X108885Y110912D01*
X109736Y110684D01*
Y113673D01*
D02*
G37*
G36*
X73805Y112081D02*
X72809D01*
X71847Y111823D01*
X70984Y111325D01*
X70280Y110620D01*
X69781Y109758D01*
X69524Y108795D01*
Y107799D01*
X69781Y106837D01*
X70280Y105974D01*
X70984Y105270D01*
X71847Y104772D01*
X72809Y104514D01*
X73805D01*
X74767Y104772D01*
X75630Y105270D01*
X76335Y105974D01*
X76833Y106837D01*
X77091Y107799D01*
Y108795D01*
X76833Y109758D01*
X76335Y110620D01*
X75630Y111325D01*
X74767Y111823D01*
X73805Y112081D01*
D02*
G37*
G36*
X13805D02*
X12809D01*
X11847Y111823D01*
X10984Y111325D01*
X10280Y110620D01*
X9781Y109758D01*
X9524Y108795D01*
Y107799D01*
X9781Y106837D01*
X10280Y105974D01*
X10984Y105270D01*
X11847Y104772D01*
X12809Y104514D01*
X13805D01*
X14767Y104772D01*
X15630Y105270D01*
X16335Y105974D01*
X16833Y106837D01*
X17090Y107799D01*
Y108795D01*
X16833Y109758D01*
X16335Y110620D01*
X15630Y111325D01*
X14767Y111823D01*
X13805Y112081D01*
D02*
G37*
G36*
X73805Y102081D02*
X72809D01*
X71847Y101823D01*
X70984Y101325D01*
X70280Y100620D01*
X69781Y99758D01*
X69524Y98795D01*
Y97799D01*
X69781Y96837D01*
X70280Y95974D01*
X70984Y95270D01*
X71847Y94772D01*
X72809Y94514D01*
X73805D01*
X74767Y94772D01*
X75630Y95270D01*
X76335Y95974D01*
X76833Y96837D01*
X77091Y97799D01*
Y98795D01*
X76833Y99758D01*
X76335Y100620D01*
X75630Y101325D01*
X74767Y101823D01*
X73805Y102081D01*
D02*
G37*
G36*
X13805D02*
X12809D01*
X11847Y101823D01*
X10984Y101325D01*
X10280Y100620D01*
X9781Y99758D01*
X9524Y98795D01*
Y97799D01*
X9781Y96837D01*
X10280Y95974D01*
X10984Y95270D01*
X11847Y94772D01*
X12809Y94514D01*
X13805D01*
X14767Y94772D01*
X15630Y95270D01*
X16335Y95974D01*
X16833Y96837D01*
X17090Y97799D01*
Y98795D01*
X16833Y99758D01*
X16335Y100620D01*
X15630Y101325D01*
X14767Y101823D01*
X13805Y102081D01*
D02*
G37*
G36*
X73805Y92081D02*
X72809D01*
X71847Y91823D01*
X70984Y91325D01*
X70280Y90620D01*
X69781Y89758D01*
X69524Y88795D01*
Y87799D01*
X69781Y86837D01*
X70280Y85974D01*
X70984Y85270D01*
X71847Y84772D01*
X72809Y84514D01*
X73805D01*
X74767Y84772D01*
X75630Y85270D01*
X76335Y85974D01*
X76833Y86837D01*
X77091Y87799D01*
Y88795D01*
X76833Y89758D01*
X76335Y90620D01*
X75630Y91325D01*
X74767Y91823D01*
X73805Y92081D01*
D02*
G37*
G36*
X13805D02*
X12809D01*
X11847Y91823D01*
X10984Y91325D01*
X10280Y90620D01*
X9781Y89758D01*
X9524Y88795D01*
Y87799D01*
X9781Y86837D01*
X10280Y85974D01*
X10984Y85270D01*
X11847Y84772D01*
X12809Y84514D01*
X13805D01*
X14767Y84772D01*
X15630Y85270D01*
X16335Y85974D01*
X16833Y86837D01*
X17090Y87799D01*
Y88795D01*
X16833Y89758D01*
X16335Y90620D01*
X15630Y91325D01*
X14767Y91823D01*
X13805Y92081D01*
D02*
G37*
G36*
X83177Y82230D02*
Y79240D01*
X86167D01*
X85939Y80091D01*
X85478Y80889D01*
X84826Y81541D01*
X84028Y82002D01*
X83177Y82230D01*
D02*
G37*
G36*
X82177D02*
X81326Y82002D01*
X80528Y81541D01*
X79877Y80889D01*
X79416Y80091D01*
X79188Y79240D01*
X82177D01*
Y82230D01*
D02*
G37*
G36*
X73807Y82080D02*
Y78797D01*
X77090D01*
X76833Y79758D01*
X76335Y80620D01*
X75630Y81325D01*
X74767Y81823D01*
X73807Y82080D01*
D02*
G37*
G36*
X72807D02*
X71847Y81823D01*
X70984Y81325D01*
X70280Y80620D01*
X69781Y79758D01*
X69524Y78797D01*
X72807D01*
Y82080D01*
D02*
G37*
G36*
X86167Y78240D02*
X83177D01*
Y75251D01*
X84028Y75479D01*
X84826Y75939D01*
X85478Y76591D01*
X85939Y77389D01*
X86167Y78240D01*
D02*
G37*
G36*
X82177D02*
X79188D01*
X79416Y77389D01*
X79877Y76591D01*
X80528Y75939D01*
X81326Y75479D01*
X82177Y75251D01*
Y78240D01*
D02*
G37*
G36*
X77090Y77797D02*
X73807D01*
Y74514D01*
X74767Y74772D01*
X75630Y75270D01*
X76335Y75974D01*
X76833Y76837D01*
X77090Y77797D01*
D02*
G37*
G36*
X72807D02*
X69524D01*
X69781Y76837D01*
X70280Y75974D01*
X70984Y75270D01*
X71847Y74772D01*
X72807Y74514D01*
Y77797D01*
D02*
G37*
G36*
X13805Y82081D02*
X12809D01*
X11847Y81823D01*
X10984Y81325D01*
X10280Y80620D01*
X9781Y79758D01*
X9524Y78795D01*
Y77799D01*
X9781Y76837D01*
X10280Y75974D01*
X10984Y75270D01*
X11847Y74772D01*
X12809Y74514D01*
X13805D01*
X14767Y74772D01*
X15630Y75270D01*
X16335Y75974D01*
X16833Y76837D01*
X17090Y77799D01*
Y78795D01*
X16833Y79758D01*
X16335Y80620D01*
X15630Y81325D01*
X14767Y81823D01*
X13805Y82081D01*
D02*
G37*
G36*
X73805Y72081D02*
X72809D01*
X71847Y71823D01*
X70984Y71325D01*
X70280Y70620D01*
X69781Y69758D01*
X69524Y68795D01*
Y67799D01*
X69781Y66837D01*
X70280Y65974D01*
X70984Y65270D01*
X71847Y64772D01*
X72809Y64514D01*
X73805D01*
X74767Y64772D01*
X75630Y65270D01*
X76335Y65974D01*
X76833Y66837D01*
X77091Y67799D01*
Y68795D01*
X76833Y69758D01*
X76335Y70620D01*
X75630Y71325D01*
X74767Y71823D01*
X73805Y72081D01*
D02*
G37*
G36*
X13805D02*
X12809D01*
X11847Y71823D01*
X10984Y71325D01*
X10280Y70620D01*
X9781Y69758D01*
X9524Y68795D01*
Y67799D01*
X9781Y66837D01*
X10280Y65974D01*
X10984Y65270D01*
X11847Y64772D01*
X12809Y64514D01*
X13805D01*
X14767Y64772D01*
X15630Y65270D01*
X16335Y65974D01*
X16833Y66837D01*
X17090Y67799D01*
Y68795D01*
X16833Y69758D01*
X16335Y70620D01*
X15630Y71325D01*
X14767Y71823D01*
X13805Y72081D01*
D02*
G37*
G36*
X24122Y62545D02*
Y59555D01*
X27112D01*
X26884Y60406D01*
X26423Y61204D01*
X25771Y61856D01*
X24973Y62317D01*
X24122Y62545D01*
D02*
G37*
G36*
X23122D02*
X22271Y62317D01*
X21473Y61856D01*
X20821Y61204D01*
X20361Y60406D01*
X20133Y59555D01*
X23122D01*
Y62545D01*
D02*
G37*
G36*
X13807Y62080D02*
Y58797D01*
X17090D01*
X16833Y59758D01*
X16335Y60620D01*
X15630Y61325D01*
X14767Y61823D01*
X13807Y62080D01*
D02*
G37*
G36*
X12807D02*
X11847Y61823D01*
X10984Y61325D01*
X10280Y60620D01*
X9781Y59758D01*
X9524Y58797D01*
X12807D01*
Y62080D01*
D02*
G37*
G36*
X27112Y58555D02*
X24122D01*
Y55566D01*
X24973Y55794D01*
X25771Y56254D01*
X26423Y56906D01*
X26884Y57704D01*
X27112Y58555D01*
D02*
G37*
G36*
X23122D02*
X20133D01*
X20361Y57704D01*
X20821Y56906D01*
X21473Y56254D01*
X22271Y55794D01*
X23122Y55566D01*
Y58555D01*
D02*
G37*
G36*
X17090Y57797D02*
X13807D01*
Y54514D01*
X14767Y54772D01*
X15630Y55270D01*
X16335Y55974D01*
X16833Y56837D01*
X17090Y57797D01*
D02*
G37*
G36*
X12807D02*
X9524D01*
X9781Y56837D01*
X10280Y55974D01*
X10984Y55270D01*
X11847Y54772D01*
X12807Y54514D01*
Y57797D01*
D02*
G37*
G36*
X73805Y62081D02*
X72809D01*
X71847Y61823D01*
X70984Y61325D01*
X70280Y60620D01*
X69781Y59758D01*
X69524Y58795D01*
Y57799D01*
X69781Y56837D01*
X70280Y55974D01*
X70984Y55270D01*
X71847Y54772D01*
X72809Y54514D01*
X73805D01*
X74767Y54772D01*
X75630Y55270D01*
X76335Y55974D01*
X76833Y56837D01*
X77091Y57799D01*
Y58795D01*
X76833Y59758D01*
X76335Y60620D01*
X75630Y61325D01*
X74767Y61823D01*
X73805Y62081D01*
D02*
G37*
G36*
X185539Y54671D02*
Y51681D01*
X188529D01*
X188301Y52532D01*
X187840Y53330D01*
X187188Y53982D01*
X186390Y54443D01*
X185539Y54671D01*
D02*
G37*
G36*
X184539D02*
X183688Y54443D01*
X182890Y53982D01*
X182239Y53330D01*
X181778Y52532D01*
X181550Y51681D01*
X184539D01*
Y54671D01*
D02*
G37*
G36*
X134358D02*
Y51681D01*
X137348D01*
X137120Y52532D01*
X136659Y53330D01*
X136007Y53982D01*
X135209Y54443D01*
X134358Y54671D01*
D02*
G37*
G36*
X133358D02*
X132507Y54443D01*
X131709Y53982D01*
X131058Y53330D01*
X130597Y52532D01*
X130369Y51681D01*
X133358D01*
Y54671D01*
D02*
G37*
G36*
X102862Y50734D02*
Y47744D01*
X105852D01*
X105624Y48595D01*
X105163Y49393D01*
X104511Y50045D01*
X103713Y50506D01*
X102862Y50734D01*
D02*
G37*
G36*
X101862D02*
X101011Y50506D01*
X100213Y50045D01*
X99562Y49393D01*
X99101Y48595D01*
X98873Y47744D01*
X101862D01*
Y50734D01*
D02*
G37*
G36*
X188529Y50681D02*
X185539D01*
Y47692D01*
X186390Y47920D01*
X187188Y48380D01*
X187840Y49032D01*
X188301Y49830D01*
X188529Y50681D01*
D02*
G37*
G36*
X184539D02*
X181550D01*
X181778Y49830D01*
X182239Y49032D01*
X182890Y48380D01*
X183688Y47920D01*
X184539Y47692D01*
Y50681D01*
D02*
G37*
G36*
X137348D02*
X134358D01*
Y47692D01*
X135209Y47920D01*
X136007Y48380D01*
X136659Y49032D01*
X137120Y49830D01*
X137348Y50681D01*
D02*
G37*
G36*
X133358D02*
X130369D01*
X130597Y49830D01*
X131058Y49032D01*
X131709Y48380D01*
X132507Y47920D01*
X133358Y47692D01*
Y50681D01*
D02*
G37*
G36*
X77091Y52081D02*
X69524D01*
Y44514D01*
X77091D01*
Y52081D01*
D02*
G37*
G36*
X13805D02*
X12809D01*
X11847Y51823D01*
X10984Y51325D01*
X10280Y50620D01*
X9781Y49758D01*
X9524Y48795D01*
Y47799D01*
X9781Y46837D01*
X10280Y45974D01*
X10984Y45270D01*
X11847Y44772D01*
X12809Y44514D01*
X13805D01*
X14767Y44772D01*
X15630Y45270D01*
X16335Y45974D01*
X16833Y46837D01*
X17090Y47799D01*
Y48795D01*
X16833Y49758D01*
X16335Y50620D01*
X15630Y51325D01*
X14767Y51823D01*
X13805Y52081D01*
D02*
G37*
G36*
X105852Y46744D02*
X102862D01*
Y43755D01*
X103713Y43983D01*
X104511Y44443D01*
X105163Y45095D01*
X105624Y45893D01*
X105852Y46744D01*
D02*
G37*
G36*
X101862D02*
X98873D01*
X99101Y45893D01*
X99562Y45095D01*
X100213Y44443D01*
X101011Y43983D01*
X101862Y43755D01*
Y46744D01*
D02*
G37*
G36*
X186524Y34986D02*
Y31996D01*
X189513D01*
X189285Y32847D01*
X188824Y33645D01*
X188173Y34297D01*
X187375Y34758D01*
X186524Y34986D01*
D02*
G37*
G36*
X185524D02*
X184673Y34758D01*
X183875Y34297D01*
X183223Y33645D01*
X182762Y32847D01*
X182534Y31996D01*
X185524D01*
Y34986D01*
D02*
G37*
G36*
X189513Y30996D02*
X186524D01*
Y28007D01*
X187375Y28235D01*
X188173Y28695D01*
X188824Y29347D01*
X189285Y30145D01*
X189513Y30996D01*
D02*
G37*
G36*
X185524D02*
X182534D01*
X182762Y30145D01*
X183223Y29347D01*
X183875Y28695D01*
X184673Y28235D01*
X185524Y28007D01*
Y30996D01*
D02*
G37*
G36*
X102862Y19952D02*
Y16963D01*
X105852D01*
X105624Y17814D01*
X105163Y18612D01*
X104511Y19264D01*
X103713Y19724D01*
X102862Y19952D01*
D02*
G37*
G36*
X101862D02*
X101011Y19724D01*
X100213Y19264D01*
X99562Y18612D01*
X99101Y17814D01*
X98873Y16963D01*
X101862D01*
Y19952D01*
D02*
G37*
G36*
X134850Y18155D02*
Y15165D01*
X137840D01*
X137612Y16016D01*
X137151Y16814D01*
X136499Y17466D01*
X135701Y17927D01*
X134850Y18155D01*
D02*
G37*
G36*
X133850D02*
X132999Y17927D01*
X132201Y17466D01*
X131550Y16814D01*
X131089Y16016D01*
X130861Y15165D01*
X133850D01*
Y18155D01*
D02*
G37*
G36*
X105852Y15963D02*
X102862D01*
Y12973D01*
X103713Y13201D01*
X104511Y13662D01*
X105163Y14314D01*
X105624Y15112D01*
X105852Y15963D01*
D02*
G37*
G36*
X101862D02*
X98873D01*
X99101Y15112D01*
X99562Y14314D01*
X100213Y13662D01*
X101011Y13201D01*
X101862Y12973D01*
Y15963D01*
D02*
G37*
G36*
X137840Y14165D02*
X134850D01*
Y11176D01*
X135701Y11404D01*
X136499Y11865D01*
X137151Y12516D01*
X137612Y13314D01*
X137840Y14165D01*
D02*
G37*
G36*
X133850D02*
X130861D01*
X131089Y13314D01*
X131550Y12516D01*
X132201Y11865D01*
X132999Y11404D01*
X133850Y11176D01*
Y14165D01*
D02*
G37*
%LPD*%
D39*
X13307Y48297D02*
D03*
Y58297D02*
D03*
Y68297D02*
D03*
Y78297D02*
D03*
Y88297D02*
D03*
Y98297D02*
D03*
Y108297D02*
D03*
Y118297D02*
D03*
Y128297D02*
D03*
Y138297D02*
D03*
Y148297D02*
D03*
Y158297D02*
D03*
Y168297D02*
D03*
Y178297D02*
D03*
Y188297D02*
D03*
X73307D02*
D03*
Y178297D02*
D03*
Y168297D02*
D03*
Y158297D02*
D03*
Y148297D02*
D03*
Y138297D02*
D03*
Y128297D02*
D03*
Y118297D02*
D03*
Y108297D02*
D03*
Y98297D02*
D03*
Y88297D02*
D03*
Y78297D02*
D03*
Y68297D02*
D03*
Y58297D02*
D03*
D40*
Y48297D02*
D03*
D42*
X181102Y200787D02*
D03*
X98425Y185039D02*
D03*
X134350Y14665D02*
D03*
X185039Y51181D02*
D03*
X133858D02*
D03*
X102362Y47244D02*
D03*
X102362Y16463D02*
D03*
X102362Y165354D02*
D03*
X141732Y118110D02*
D03*
X188976Y149606D02*
D03*
X186024Y31496D02*
D03*
X137795Y177165D02*
D03*
X188976Y173228D02*
D03*
X110236Y114173D02*
D03*
X23622Y59055D02*
D03*
X82677Y78740D02*
D03*
M02*
