G04*
G04 #@! TF.GenerationSoftware,Altium Limited,Altium Designer,24.6.1 (21)*
G04*
G04 Layer_Color=128*
%FSLAX25Y25*%
%MOIN*%
G70*
G04*
G04 #@! TF.SameCoordinates,FB6864B3-348A-4B3C-8FDE-2C751703143F*
G04*
G04*
G04 #@! TF.FilePolarity,Positive*
G04*
G01*
G75*
%ADD12C,0.00500*%
D12*
X56496Y21654D02*
X59252D01*
X57874Y20276D02*
Y23031D01*
X56496Y29921D02*
X59252D01*
X57874Y28543D02*
Y31299D01*
X4921Y153937D02*
X10827D01*
X7874Y150984D02*
Y156890D01*
X4921Y164961D02*
X10827D01*
X7874Y162008D02*
Y167913D01*
X2362Y126378D02*
X14173D01*
X8268Y120473D02*
Y132283D01*
X175000Y13780D02*
X179331D01*
X177165Y11614D02*
Y15945D01*
X165000Y13780D02*
X169331D01*
X167165Y11614D02*
Y15945D01*
X155000Y13780D02*
X159331D01*
X157165Y11614D02*
Y15945D01*
X80405Y166270D02*
X84004D01*
X82205Y164471D02*
Y168069D01*
X80405Y156270D02*
X84004D01*
X82205Y154471D02*
Y158069D01*
X80405Y146270D02*
X84004D01*
X82205Y144471D02*
Y148069D01*
X80405Y136270D02*
X84004D01*
X82205Y134470D02*
Y138069D01*
X80405Y126270D02*
X84004D01*
X82205Y124470D02*
Y128069D01*
X80405Y116270D02*
X84004D01*
X82205Y114471D02*
Y118069D01*
X80405Y106270D02*
X84004D01*
X82205Y104471D02*
Y108069D01*
X80405Y96270D02*
X84004D01*
X82205Y94471D02*
Y98069D01*
X80405Y86270D02*
X84004D01*
X82205Y84470D02*
Y88069D01*
X80405Y76270D02*
X84004D01*
X82205Y74471D02*
Y78069D01*
X80405Y66270D02*
X84004D01*
X82205Y64470D02*
Y68069D01*
X80405Y56270D02*
X84004D01*
X82205Y54470D02*
Y58069D01*
X80405Y46270D02*
X84004D01*
X82205Y44471D02*
Y48069D01*
X80405Y36270D02*
X84004D01*
X82205Y34470D02*
Y38069D01*
X80405Y26270D02*
X84004D01*
X82205Y24471D02*
Y28069D01*
X140405Y26270D02*
X144004D01*
X142205Y24471D02*
Y28069D01*
X140405Y36270D02*
X144004D01*
X142205Y34470D02*
Y38069D01*
X140405Y46270D02*
X144004D01*
X142205Y44471D02*
Y48069D01*
X140405Y56270D02*
X144004D01*
X142205Y54470D02*
Y58069D01*
X140405Y66270D02*
X144004D01*
X142205Y64470D02*
Y68069D01*
X140405Y76270D02*
X144004D01*
X142205Y74471D02*
Y78069D01*
X140405Y86270D02*
X144004D01*
X142205Y84470D02*
Y88069D01*
X140405Y96270D02*
X144004D01*
X142205Y94471D02*
Y98069D01*
X140405Y106270D02*
X144004D01*
X142205Y104471D02*
Y108069D01*
X140405Y116270D02*
X144004D01*
X142205Y114471D02*
Y118069D01*
X140405Y126270D02*
X144004D01*
X142205Y124470D02*
Y128069D01*
X140405Y136270D02*
X144004D01*
X142205Y134470D02*
Y138069D01*
X140405Y146270D02*
X144004D01*
X142205Y144471D02*
Y148069D01*
X140405Y156270D02*
X144004D01*
X142205Y154471D02*
Y158069D01*
X140405Y166270D02*
X144004D01*
X142205Y164471D02*
Y168069D01*
X110630Y191732D02*
X122441D01*
X116535Y185827D02*
Y197638D01*
X194882Y11811D02*
X206693D01*
X200787Y5906D02*
Y17717D01*
X48994Y21654D02*
X51794D01*
X50394Y20254D02*
Y23054D01*
X17104Y132283D02*
X19904D01*
X18504Y130884D02*
Y133684D01*
X199387Y70866D02*
X202187D01*
X200787Y69466D02*
Y72266D01*
X132458Y161417D02*
X135258D01*
X133858Y160017D02*
Y162817D01*
X104899Y177165D02*
X107699D01*
X106299Y175765D02*
Y178565D01*
X34821Y192913D02*
X37620D01*
X36220Y191513D02*
Y194313D01*
X46632Y192913D02*
X49431D01*
X48031Y191513D02*
Y194313D01*
X15529Y94488D02*
X18329D01*
X16929Y93088D02*
Y95888D01*
X19072Y11811D02*
X21872D01*
X20472Y10411D02*
Y13211D01*
X12380Y35433D02*
X15179D01*
X13780Y34033D02*
Y36833D01*
X197419Y149606D02*
X200219D01*
X198819Y148206D02*
Y151006D01*
X209230Y179134D02*
X212030D01*
X210630Y177734D02*
Y180534D01*
X185608Y9843D02*
X188408D01*
X187008Y8443D02*
Y11242D01*
X205293Y21654D02*
X208093D01*
X206693Y20254D02*
Y23054D01*
X152143Y163386D02*
X154943D01*
X153543Y161986D02*
Y164786D01*
X221041Y25591D02*
X223841D01*
X222441Y24191D02*
Y26991D01*
X150175Y74803D02*
X152975D01*
X151575Y73403D02*
Y76203D01*
X167891Y25591D02*
X170691D01*
X169291Y24191D02*
Y26991D01*
X14348Y112205D02*
X17148D01*
X15748Y110805D02*
Y113605D01*
X59624Y68898D02*
X62424D01*
X61024Y67498D02*
Y70298D01*
X47813Y41339D02*
X50613D01*
X49213Y39939D02*
Y42739D01*
X39939Y21654D02*
X42739D01*
X41339Y20254D02*
Y23054D01*
X63561Y177165D02*
X66361D01*
X64961Y175765D02*
Y178565D01*
X6474Y175197D02*
X9274D01*
X7874Y173797D02*
Y176597D01*
X26159Y173228D02*
X28959D01*
X27559Y171828D02*
Y174628D01*
X91120Y147638D02*
X93920D01*
X92520Y146238D02*
Y149038D01*
X39643Y133858D02*
X42443D01*
X41043Y132458D02*
Y135258D01*
X71435Y194882D02*
X74235D01*
X72835Y193482D02*
Y196282D01*
X171828Y190945D02*
X174628D01*
X173228Y189545D02*
Y192345D01*
M02*
