G04*
G04 #@! TF.GenerationSoftware,Altium Limited,Altium Designer,24.6.1 (21)*
G04*
G04 Layer_Color=65535*
%FSLAX25Y25*%
%MOIN*%
G70*
G04*
G04 #@! TF.SameCoordinates,FB6864B3-348A-4B3C-8FDE-2C751703143F*
G04*
G04*
G04 #@! TF.FilePolarity,Positive*
G04*
G01*
G75*
%ADD10C,0.00984*%
%ADD11C,0.01000*%
%ADD12C,0.00500*%
%ADD13C,0.00394*%
%ADD14C,0.00787*%
%ADD15C,0.01575*%
%ADD16C,0.01063*%
%ADD17C,0.01169*%
%ADD18C,0.00595*%
%ADD19C,0.00935*%
D10*
X70866Y77576D02*
G03*
X70866Y77576I-492J0D01*
G01*
X185020Y13780D02*
G03*
X185020Y13780I-492J0D01*
G01*
X75335Y166270D02*
G03*
X75335Y166270I-492J0D01*
G01*
X177461Y196850D02*
G03*
X177461Y196850I-492J0D01*
G01*
X68110Y192815D02*
G03*
X68110Y192815I-492J0D01*
G01*
X33169Y166732D02*
G03*
X33169Y166732I-492J0D01*
G01*
X165847Y149311D02*
G03*
X165847Y149311I-492J0D01*
G01*
X161811Y39370D02*
G03*
X161811Y39370I-492J0D01*
G01*
X183366D02*
G03*
X183366Y39370I-492J0D01*
G01*
X204921D02*
G03*
X204921Y39370I-492J0D01*
G01*
X45768Y69095D02*
G03*
X45768Y69095I-492J0D01*
G01*
X42028Y11811D02*
G03*
X42028Y11811I-492J0D01*
G01*
X20175Y174409D02*
G03*
X20175Y174409I-492J0D01*
G01*
D11*
X148819Y189370D02*
X168504D01*
X141732Y199606D02*
X148819Y189370D01*
X64567Y196457D02*
X66535D01*
X64567D02*
Y198819D01*
X66535D01*
X69291Y10236D02*
Y14173D01*
X46850Y10236D02*
Y14173D01*
X170866Y51575D02*
X223228D01*
X13780Y159055D02*
X19291D01*
X27165Y156299D02*
X28346Y155118D01*
X25984D02*
X28346D01*
X25984D02*
X27165Y156299D01*
Y153543D02*
Y156299D01*
X24016Y153543D02*
X27165D01*
X223228Y53937D02*
Y66535D01*
X170472Y53543D02*
X184646Y66535D01*
X22047Y137795D02*
Y141732D01*
X12992Y137795D02*
Y141732D01*
X57087Y118110D02*
X59055Y120079D01*
X57087Y118110D02*
Y122047D01*
X59055Y120079D01*
X55118D02*
X59055D01*
X8268Y49606D02*
X27953D01*
X9843Y20472D02*
X27953D01*
X36220Y24409D02*
Y46457D01*
X191339Y190551D02*
X210236D01*
X191732Y168110D02*
X211024D01*
X183071Y172047D02*
Y183858D01*
X45912Y87672D02*
X39914D01*
X41914Y89671D01*
X39914Y91671D01*
X45912D01*
X39914Y93670D02*
X45912D01*
Y96669D01*
X44913Y97669D01*
X40914D01*
X39914Y96669D01*
Y93670D01*
X45912Y103667D02*
Y99668D01*
X41914Y103667D01*
X40914D01*
X39914Y102667D01*
Y100668D01*
X40914Y99668D01*
X91427Y162355D02*
Y168353D01*
X93427Y166354D01*
X95426Y168353D01*
Y162355D01*
X97426Y168353D02*
Y162355D01*
X100425D01*
X101424Y163355D01*
Y167354D01*
X100425Y168353D01*
X97426D01*
X103424Y162355D02*
X105423D01*
X104423D01*
Y168353D01*
X103424Y167354D01*
D12*
X167774Y124016D02*
Y132766D01*
X180274D01*
Y124016D02*
Y132766D01*
X167774Y124016D02*
X180274D01*
X165274Y90266D02*
X185274D01*
X165274D02*
Y111516D01*
X185274D01*
Y90266D02*
Y111516D01*
X157528Y78740D02*
Y141762D01*
X220520Y78740D02*
Y141762D01*
D13*
X27559Y124409D02*
X43307D01*
X27559Y142717D02*
X43307D01*
X70734Y31430D02*
X70275Y31889D01*
X69357D01*
X68898Y31430D01*
Y30970D01*
X69357Y30511D01*
X70275D01*
X70734Y30052D01*
Y29593D01*
X70275Y29134D01*
X69357D01*
X68898Y29593D01*
X52362Y31495D02*
X54199D01*
X53281D01*
Y28740D01*
X171915Y5248D02*
X171259Y5904D01*
X169947D01*
X169291Y5248D01*
Y4592D01*
X169947Y3936D01*
X171259D01*
X171915Y3280D01*
Y2624D01*
X171259Y1969D01*
X169947D01*
X169291Y2624D01*
X175195Y1969D02*
X173883D01*
X173227Y2624D01*
Y3936D01*
X173883Y4592D01*
X175195D01*
X175851Y3936D01*
Y3280D01*
X173227D01*
X177163Y4592D02*
Y1969D01*
Y3280D01*
X177819Y3936D01*
X178475Y4592D01*
X179131D01*
X181099D02*
X182411Y1969D01*
X183722Y4592D01*
X185690Y1969D02*
X187002D01*
X187658Y2624D01*
Y3936D01*
X187002Y4592D01*
X185690D01*
X185034Y3936D01*
Y2624D01*
X185690Y1969D01*
X226378Y98425D02*
X222442D01*
Y100393D01*
X223098Y101049D01*
X224410D01*
X225066Y100393D01*
Y98425D01*
Y99737D02*
X226378Y101049D01*
X222442Y104985D02*
Y102361D01*
X224410D01*
Y103673D01*
Y102361D01*
X226378D01*
Y106297D02*
X222442D01*
X223754Y107609D01*
X222442Y108921D01*
X226378D01*
X222442Y112856D02*
X223098Y111544D01*
X224410Y110232D01*
X225722D01*
X226378Y110888D01*
Y112200D01*
X225722Y112856D01*
X225066D01*
X224410Y112200D01*
Y110232D01*
X225722Y114168D02*
X226378Y114824D01*
Y116136D01*
X225722Y116792D01*
X223098D01*
X222442Y116136D01*
Y114824D01*
X223098Y114168D01*
X223754D01*
X224410Y114824D01*
Y116792D01*
X222442Y118104D02*
X226378D01*
X224410D01*
Y120728D01*
X222442D01*
X226378D01*
X223098Y124663D02*
X222442Y124007D01*
Y122696D01*
X223098Y122040D01*
X225722D01*
X226378Y122696D01*
Y124007D01*
X225722Y124663D01*
X222442Y125975D02*
X226378D01*
X225066Y127287D01*
X226378Y128599D01*
X222442D01*
X17453Y84778D02*
X18109Y85434D01*
Y86746D01*
X17453Y87402D01*
X14829D01*
X14173Y86746D01*
Y85434D01*
X14829Y84778D01*
X16141D01*
Y86090D01*
X14173Y83466D02*
X18109D01*
Y81498D01*
X17453Y80842D01*
X16141D01*
X15485Y81498D01*
Y83466D01*
X17453Y76906D02*
X18109Y77562D01*
Y78874D01*
X17453Y79530D01*
X16797D01*
X16141Y78874D01*
Y77562D01*
X15485Y76906D01*
X14829D01*
X14173Y77562D01*
Y78874D01*
X14829Y79530D01*
X7087Y3543D02*
Y4855D01*
Y4199D01*
X3151D01*
X3807Y3543D01*
X3151Y9447D02*
Y6823D01*
X5119D01*
X4463Y8135D01*
Y8791D01*
X5119Y9447D01*
X6431D01*
X7087Y8791D01*
Y7479D01*
X6431Y6823D01*
X3151Y10759D02*
Y13383D01*
X3807D01*
X6431Y10759D01*
X7087D01*
X3151Y17318D02*
Y14695D01*
X5119D01*
X4463Y16006D01*
Y16662D01*
X5119Y17318D01*
X6431D01*
X7087Y16662D01*
Y15350D01*
X6431Y14695D01*
X7087Y18630D02*
X6431D01*
Y19286D01*
X7087D01*
Y18630D01*
Y23878D02*
X3151D01*
X5119Y21910D01*
Y24534D01*
X7087Y28470D02*
Y25846D01*
X4463Y28470D01*
X3807D01*
X3151Y27814D01*
Y26502D01*
X3807Y25846D01*
X7087Y29782D02*
X3151D01*
X4463Y31093D01*
X3151Y32405D01*
X7087D01*
X3151Y33717D02*
X7087D01*
X5119D01*
Y36341D01*
X3151D01*
X7087D01*
X4463Y37653D02*
Y40277D01*
X7087Y37653D01*
Y40277D01*
X198425Y198294D02*
X199081Y197638D01*
X200393D01*
X201049Y198294D01*
Y200918D01*
X200393Y201573D01*
X199081D01*
X198425Y200918D01*
Y200262D01*
X199081Y199606D01*
X201049D01*
X202361Y197638D02*
X203673D01*
X203017D01*
Y201573D01*
X202361Y200918D01*
X208264Y201573D02*
X205641D01*
Y199606D01*
X206953Y200262D01*
X207609D01*
X208264Y199606D01*
Y198294D01*
X207609Y197638D01*
X206297D01*
X205641Y198294D01*
X209577Y197638D02*
Y201573D01*
X210888Y200262D01*
X212200Y201573D01*
Y197638D01*
X213512Y201573D02*
Y197638D01*
Y199606D01*
X216136D01*
Y201573D01*
Y197638D01*
X217448Y200262D02*
X220072D01*
X217448Y197638D01*
X220072D01*
X6954Y116535D02*
X4330D01*
X3018Y115224D01*
X4330Y113912D01*
X6954D01*
X3018Y112600D02*
Y111288D01*
Y111944D01*
X5642D01*
Y112600D01*
X3018Y109320D02*
X5642D01*
Y107352D01*
X4986Y106696D01*
X3018D01*
X2362Y105384D02*
Y102760D01*
X3018Y101448D02*
X5642D01*
Y100793D01*
X4986Y100136D01*
X3018D01*
X4986D01*
X5642Y99481D01*
X4986Y98825D01*
X3018D01*
X5642Y96857D02*
Y95545D01*
X4986Y94889D01*
X3018D01*
Y96857D01*
X3674Y97513D01*
X4330Y96857D01*
Y94889D01*
X5642Y93577D02*
X3018Y90953D01*
X4330Y92265D01*
X5642Y90953D01*
X3018Y93577D01*
X4330Y89641D02*
Y87017D01*
X5642Y89641D02*
Y87017D01*
X3018Y85706D02*
Y84394D01*
Y85049D01*
X6954D01*
X6298Y85706D01*
X6954Y79802D02*
Y82426D01*
X4986D01*
X5642Y81114D01*
Y80458D01*
X4986Y79802D01*
X3674D01*
X3018Y80458D01*
Y81770D01*
X3674Y82426D01*
X5642Y78490D02*
X3018Y77178D01*
X5642Y75866D01*
X28608Y122046D02*
X27952Y122702D01*
X26640D01*
X25984Y122046D01*
Y119422D01*
X26640Y118766D01*
X27952D01*
X28608Y119422D01*
Y120734D01*
X27296D01*
X29920Y118766D02*
Y122702D01*
X31888D01*
X32544Y122046D01*
Y120734D01*
X31888Y120078D01*
X29920D01*
X36480Y122046D02*
X35824Y122702D01*
X34512D01*
X33856Y122046D01*
Y121390D01*
X34512Y120734D01*
X35824D01*
X36480Y120078D01*
Y119422D01*
X35824Y118766D01*
X34512D01*
X33856Y119422D01*
X37791Y118110D02*
X40415D01*
X41727Y118766D02*
Y122702D01*
X43695D01*
X44351Y122046D01*
Y120734D01*
X43695Y120078D01*
X41727D01*
X43039D02*
X44351Y118766D01*
X48287Y122046D02*
X47631Y122702D01*
X46319D01*
X45663Y122046D01*
Y121390D01*
X46319Y120734D01*
X47631D01*
X48287Y120078D01*
Y119422D01*
X47631Y118766D01*
X46319D01*
X45663Y119422D01*
X49599Y122702D02*
X52223D01*
X50911D01*
Y118766D01*
X216929Y10235D02*
X215617D01*
X214961Y9579D01*
Y6955D01*
X215617Y6299D01*
X216929D01*
X217584Y6955D01*
Y9579D01*
X216929Y10235D01*
X218896D02*
Y6299D01*
Y8267D01*
X219552Y8923D01*
X220864D01*
X221520Y8267D01*
Y6299D01*
X222832D02*
Y8923D01*
X223488D01*
X224144Y8267D01*
Y6299D01*
Y8267D01*
X224800Y8923D01*
X225456Y8267D01*
Y6299D01*
X217584Y16140D02*
X214961D01*
Y14173D01*
X216272Y14829D01*
X216929D01*
X217584Y14173D01*
Y12861D01*
X216929Y12205D01*
X215617D01*
X214961Y12861D01*
X218896Y15484D02*
X219552Y16140D01*
X220864D01*
X221520Y15484D01*
Y12861D01*
X220864Y12205D01*
X219552D01*
X218896Y12861D01*
Y15484D01*
X218898Y49605D02*
Y45669D01*
X221521D01*
X199212Y49605D02*
X197900D01*
X197244Y48949D01*
Y46325D01*
X197900Y45669D01*
X199212D01*
X199868Y46325D01*
Y48949D01*
X199212Y49605D01*
X180183Y48949D02*
X179527Y49605D01*
X178215D01*
X177559Y48949D01*
Y48293D01*
X178215Y47637D01*
X179527D01*
X180183Y46981D01*
Y46325D01*
X179527Y45669D01*
X178215D01*
X177559Y46325D01*
X180709Y173622D02*
X176773D01*
Y175590D01*
X177429Y176246D01*
X178741D01*
X179397Y175590D01*
Y173622D01*
X176773Y177558D02*
Y178870D01*
Y178214D01*
X180709D01*
Y177558D01*
Y178870D01*
Y182805D02*
Y181493D01*
X180053Y180838D01*
X178741D01*
X178085Y181493D01*
Y182805D01*
X178741Y183461D01*
X179397D01*
Y180838D01*
X38189Y38976D02*
X42125D01*
Y37009D01*
X41469Y36353D01*
X40157D01*
X39501Y37009D01*
Y38976D01*
X42125Y35041D02*
Y33729D01*
Y34385D01*
X38189D01*
Y35041D01*
Y33729D01*
Y29793D02*
Y31105D01*
X38845Y31761D01*
X40157D01*
X40813Y31105D01*
Y29793D01*
X40157Y29137D01*
X39501D01*
Y31761D01*
X61023Y40683D02*
X57087D01*
Y42651D01*
X57743Y43307D01*
X59055D01*
X59711Y42651D01*
Y40683D01*
Y41995D02*
X61023Y43307D01*
Y44619D02*
Y45931D01*
Y45275D01*
X57087D01*
X57743Y44619D01*
X16273Y156430D02*
X15617Y157086D01*
X14305D01*
X13649Y156430D01*
Y153806D01*
X14305Y153150D01*
X15617D01*
X16273Y153806D01*
X20209Y153150D02*
X17585D01*
X20209Y155774D01*
Y156430D01*
X19553Y157086D01*
X18241D01*
X17585Y156430D01*
X109317Y192650D02*
X108661Y193306D01*
X107349D01*
X106693Y192650D01*
Y190026D01*
X107349Y189370D01*
X108661D01*
X109317Y190026D01*
Y191338D01*
X108005D01*
X88190Y185433D02*
Y188057D01*
X86878Y186745D02*
X89502D01*
X86878Y189369D02*
X86222Y190025D01*
Y191337D01*
X86878Y191993D01*
X87534D01*
X88190Y191337D01*
Y190681D01*
Y191337D01*
X88846Y191993D01*
X89502D01*
X90158Y191337D01*
Y190025D01*
X89502Y189369D01*
X90158Y193305D02*
X89502D01*
Y193960D01*
X90158D01*
Y193305D01*
X86878Y196584D02*
X86222Y197240D01*
Y198552D01*
X86878Y199208D01*
X87534D01*
X88190Y198552D01*
Y197896D01*
Y198552D01*
X88846Y199208D01*
X89502D01*
X90158Y198552D01*
Y197240D01*
X89502Y196584D01*
X198819Y164434D02*
Y160498D01*
X201443D01*
X204722Y164434D02*
X203411D01*
X202755Y163778D01*
Y161154D01*
X203411Y160498D01*
X204722D01*
X205379Y161154D01*
Y163778D01*
X204722Y164434D01*
X206690Y160498D02*
Y164434D01*
X208658D01*
X209314Y163778D01*
Y162466D01*
X208658Y161810D01*
X206690D01*
X208002D02*
X209314Y160498D01*
X210626D02*
Y163122D01*
X211938Y164434D01*
X213250Y163122D01*
Y160498D01*
Y162466D01*
X210626D01*
X214562Y159843D02*
X217186D01*
X218498Y160498D02*
Y164434D01*
X220465D01*
X221121Y163778D01*
Y162466D01*
X220465Y161810D01*
X218498D01*
X222433Y164434D02*
X225057D01*
X223745D01*
Y160498D01*
X151101Y22398D02*
Y26334D01*
X153069D01*
X153725Y25678D01*
Y24366D01*
X153069Y23710D01*
X151101D01*
X157660Y26334D02*
X155036D01*
Y24366D01*
X156348Y25022D01*
X157004D01*
X157660Y24366D01*
Y23054D01*
X157004Y22398D01*
X155693D01*
X155036Y23054D01*
X48557Y152362D02*
Y149082D01*
X49213Y148426D01*
X50525D01*
X51181Y149082D01*
Y152362D01*
X52493Y148426D02*
X53805D01*
X53149D01*
Y152362D01*
X52493Y151706D01*
X161681Y168898D02*
Y172834D01*
X163649D01*
X164305Y172178D01*
Y170866D01*
X163649Y170210D01*
X161681D01*
X167585Y168898D02*
Y172834D01*
X165617Y170866D01*
X168240D01*
X32907Y139501D02*
X32251Y140157D01*
X30939D01*
X30283Y139501D01*
Y136877D01*
X30939Y136221D01*
X32251D01*
X32907Y136877D01*
X34219Y139501D02*
X34875Y140157D01*
X36187D01*
X36843Y139501D01*
Y138845D01*
X36187Y138189D01*
X35531D01*
X36187D01*
X36843Y137533D01*
Y136877D01*
X36187Y136221D01*
X34875D01*
X34219Y136877D01*
X30185Y64961D02*
Y68897D01*
X32153D01*
X32809Y68241D01*
Y66929D01*
X32153Y66273D01*
X30185D01*
X34121Y68241D02*
X34776Y68897D01*
X36088D01*
X36744Y68241D01*
Y67585D01*
X36088Y66929D01*
X35432D01*
X36088D01*
X36744Y66273D01*
Y65617D01*
X36088Y64961D01*
X34776D01*
X34121Y65617D01*
X50921Y13353D02*
X50462Y13812D01*
X49543D01*
X49084Y13353D01*
Y11516D01*
X49543Y11057D01*
X50462D01*
X50921Y11516D01*
Y12434D01*
X50003D01*
X51839Y11057D02*
Y13812D01*
X53217D01*
X53676Y13353D01*
Y12434D01*
X53217Y11975D01*
X51839D01*
X56431Y13353D02*
X55972Y13812D01*
X55054D01*
X54594Y13353D01*
Y12893D01*
X55054Y12434D01*
X55972D01*
X56431Y11975D01*
Y11516D01*
X55972Y11057D01*
X55054D01*
X54594Y11516D01*
X57349Y10598D02*
X59186D01*
X60104Y13812D02*
Y11057D01*
X61941D01*
X64696Y13812D02*
X62859D01*
Y11057D01*
X64696D01*
X62859Y12434D02*
X63778D01*
X65614Y13812D02*
Y11057D01*
X66992D01*
X67451Y11516D01*
Y13353D01*
X66992Y13812D01*
X65614D01*
X17717Y141076D02*
X17061Y141732D01*
X15749D01*
X15093Y141076D01*
Y138452D01*
X15749Y137796D01*
X17061D01*
X17717Y138452D01*
X19028Y137796D02*
X20340D01*
X19684D01*
Y141732D01*
X19028Y141076D01*
X17717Y202755D02*
X16405D01*
X17061D01*
Y199476D01*
X16405Y198819D01*
X15749D01*
X15093Y199476D01*
X19028Y198819D02*
X20340D01*
X19684D01*
Y202755D01*
X19028Y202099D01*
X33301Y129265D02*
X32645Y129921D01*
X31333D01*
X30677Y129265D01*
Y126641D01*
X31333Y125985D01*
X32645D01*
X33301Y126641D01*
X36581Y125985D02*
Y129921D01*
X34613Y127953D01*
X37236D01*
X153543Y191339D02*
X156167D01*
X159447Y195930D02*
X158135D01*
X157479Y195274D01*
Y192650D01*
X158135Y191995D01*
X159447D01*
X160103Y192650D01*
Y195274D01*
X159447Y195930D01*
X161415D02*
Y192650D01*
X162071Y191995D01*
X163383D01*
X164039Y192650D01*
Y195930D01*
X165350D02*
X167974D01*
X166662D01*
Y191995D01*
X4986Y55511D02*
X4330Y56166D01*
X3018D01*
X2362Y55511D01*
Y52887D01*
X3018Y52231D01*
X4330D01*
X4986Y52887D01*
Y54199D01*
X3674D01*
X6298Y52231D02*
Y56166D01*
X8266D01*
X8922Y55511D01*
Y54199D01*
X8266Y53543D01*
X6298D01*
X12857Y55511D02*
X12202Y56166D01*
X10890D01*
X10234Y55511D01*
Y54855D01*
X10890Y54199D01*
X12202D01*
X12857Y53543D01*
Y52887D01*
X12202Y52231D01*
X10890D01*
X10234Y52887D01*
X14169Y51575D02*
X16793D01*
X18105Y52231D02*
Y56166D01*
X20073D01*
X20729Y55511D01*
Y54199D01*
X20073Y53543D01*
X18105D01*
X22041Y56166D02*
X24665D01*
X23353D01*
Y52231D01*
X187402Y62073D02*
Y66009D01*
X188714Y64697D01*
X190025Y66009D01*
Y62073D01*
X191337Y66009D02*
Y62073D01*
X193961D01*
X195273Y61417D02*
X197897D01*
X201833Y66009D02*
X199209D01*
Y64041D01*
X200521D01*
X199209D01*
Y62073D01*
X203145Y66009D02*
Y62073D01*
X205768D01*
X207080Y66009D02*
X208392D01*
X207736D01*
Y62073D01*
X207080D01*
X208392D01*
X212984Y65353D02*
X212328Y66009D01*
X211016D01*
X210360Y65353D01*
Y62729D01*
X211016Y62073D01*
X212328D01*
X212984Y62729D01*
Y64041D01*
X211672D01*
X214296Y66009D02*
Y62073D01*
Y64041D01*
X216920D01*
Y66009D01*
Y62073D01*
X218232Y66009D02*
X220855D01*
X219543D01*
Y62073D01*
X175591Y53543D02*
X178214D01*
X179526Y58135D02*
X182150D01*
X180838D01*
Y54199D01*
X183462D02*
Y58135D01*
X185430D01*
X186086Y57479D01*
Y56167D01*
X185430Y55511D01*
X183462D01*
X184774D02*
X186086Y54199D01*
X187398D02*
Y56823D01*
X188710Y58135D01*
X190022Y56823D01*
Y54199D01*
Y56167D01*
X187398D01*
X193957Y57479D02*
X193301Y58135D01*
X191990D01*
X191333Y57479D01*
Y54855D01*
X191990Y54199D01*
X193301D01*
X193957Y54855D01*
X195269Y58135D02*
Y54199D01*
Y55511D01*
X197893Y58135D01*
X195925Y56167D01*
X197893Y54199D01*
X201829Y58135D02*
X199205D01*
Y54199D01*
X201829D01*
X199205Y56167D02*
X200517D01*
X203141Y54199D02*
Y58135D01*
X205109D01*
X205765Y57479D01*
Y56167D01*
X205109Y55511D01*
X203141D01*
X204453D02*
X205765Y54199D01*
X207077Y53543D02*
X209700D01*
X211012Y57479D02*
X211668Y58135D01*
X212980D01*
X213636Y57479D01*
Y54855D01*
X212980Y54199D01*
X211668D01*
X211012Y54855D01*
Y57479D01*
X214948Y54199D02*
Y54855D01*
X215604D01*
Y54199D01*
X214948D01*
X218228Y57479D02*
X218884Y58135D01*
X220196D01*
X220851Y57479D01*
Y54855D01*
X220196Y54199D01*
X218884D01*
X218228Y54855D01*
Y57479D01*
X26640Y4329D02*
X25984Y4985D01*
X24672D01*
X24016Y4329D01*
Y1706D01*
X24672Y1050D01*
X25984D01*
X26640Y1706D01*
Y3018D01*
X25328D01*
X27951Y1050D02*
Y4985D01*
X29919D01*
X30575Y4329D01*
Y3018D01*
X29919Y2362D01*
X27951D01*
X34511Y4329D02*
X33855Y4985D01*
X32543D01*
X31887Y4329D01*
Y3673D01*
X32543Y3018D01*
X33855D01*
X34511Y2362D01*
Y1706D01*
X33855Y1050D01*
X32543D01*
X31887Y1706D01*
X35823Y394D02*
X38447D01*
X39759Y1050D02*
Y3673D01*
X41071Y4985D01*
X42382Y3673D01*
Y1050D01*
Y3018D01*
X39759D01*
X43694Y1050D02*
Y4985D01*
X46318Y1050D01*
Y4985D01*
X47630D02*
X50254D01*
X48942D01*
Y1050D01*
X51566Y394D02*
X54190D01*
X57469Y4985D02*
X56158D01*
X55502Y4329D01*
Y1706D01*
X56158Y1050D01*
X57469D01*
X58126Y1706D01*
Y4329D01*
X57469Y4985D01*
X59437D02*
Y1706D01*
X60093Y1050D01*
X61405D01*
X62061Y1706D01*
Y4985D01*
X63373D02*
X65997D01*
X64685D01*
Y1050D01*
X146063Y201836D02*
Y197900D01*
X148687D01*
X151967Y201836D02*
X150655D01*
X149999Y201180D01*
Y198556D01*
X150655Y197900D01*
X151967D01*
X152623Y198556D01*
Y201180D01*
X151967Y201836D01*
X153935Y197900D02*
Y201836D01*
X155902D01*
X156558Y201180D01*
Y199868D01*
X155902Y199212D01*
X153935D01*
X155246D02*
X156558Y197900D01*
X157870D02*
Y200524D01*
X159182Y201836D01*
X160494Y200524D01*
Y197900D01*
Y199868D01*
X157870D01*
X161806Y197244D02*
X164430D01*
X165742Y197900D02*
Y200524D01*
X167054Y201836D01*
X168366Y200524D01*
Y197900D01*
Y199868D01*
X165742D01*
X169677Y197900D02*
Y201836D01*
X172301Y197900D01*
Y201836D01*
X173613D02*
X176237D01*
X174925D01*
Y197900D01*
D14*
X62697Y44193D02*
Y44980D01*
X67224Y44193D02*
Y44980D01*
X23523Y163091D02*
Y163681D01*
X29231Y163091D02*
Y163681D01*
X24016Y73836D02*
X62598D01*
X24016Y115076D02*
Y115962D01*
Y73836D02*
Y74721D01*
Y115962D02*
X62598D01*
Y115076D02*
Y115962D01*
Y73836D02*
Y74721D01*
X151575Y8484D02*
Y19075D01*
Y8484D02*
X182756D01*
Y19075D01*
X151575D02*
X182756D01*
X77205Y181270D02*
X147205D01*
Y3770D02*
Y181270D01*
X77205Y3770D02*
X147205D01*
X77205D02*
Y181270D01*
X184843Y201969D02*
X189173D01*
X202362Y182776D02*
X203150D01*
X202362Y187303D02*
X203150D01*
X189272Y178051D02*
Y178839D01*
X184744Y178051D02*
Y178839D01*
X54823Y182185D02*
Y194390D01*
Y182185D02*
X65059D01*
Y194390D01*
X54823D02*
X65059D01*
X43898Y170669D02*
X58465D01*
Y144291D02*
Y170669D01*
X43898Y144291D02*
X58465D01*
X43898D02*
Y170669D01*
X48130Y182776D02*
Y183366D01*
X42421Y182776D02*
Y183366D01*
X38287Y182776D02*
Y183366D01*
X32579Y182776D02*
Y183366D01*
X160236Y157185D02*
Y161516D01*
X202362Y170965D02*
X203150D01*
X202362Y175492D02*
X203150D01*
X212894Y157776D02*
X213681D01*
X212894Y153248D02*
X213681D01*
X50886Y134941D02*
X51476D01*
X50886Y140650D02*
X51476D01*
X169193Y44488D02*
X173524D01*
X190748D02*
X195079D01*
X212303D02*
X216634D01*
X29232Y35039D02*
Y35827D01*
X33760Y35039D02*
Y35827D01*
X16043Y47539D02*
X16831D01*
X16043Y43012D02*
X16831D01*
X16043Y23327D02*
X16831D01*
X16043Y27854D02*
X16831D01*
X20571Y63287D02*
X21358D01*
X20571Y58760D02*
X21358D01*
X50394Y56890D02*
Y61221D01*
X29331Y6693D02*
X33661D01*
X212303Y21949D02*
Y22736D01*
X216831Y21949D02*
Y22736D01*
X17421Y144783D02*
X18012D01*
X17421Y150492D02*
X18012D01*
X22341Y181004D02*
X28541D01*
X5903D02*
X12104D01*
X5903D02*
Y185827D01*
X10923Y196949D02*
X23522D01*
X28541Y181004D02*
Y185827D01*
X50886Y125098D02*
X51476D01*
X50886Y130807D02*
X51476D01*
D15*
X62500Y17323D02*
X67421D01*
D16*
X161700Y85816D02*
Y88649D01*
X209101Y132658D02*
Y135491D01*
D17*
X216738Y85866D02*
Y88982D01*
D18*
X218563Y133707D02*
X216581D01*
X215589Y134698D01*
X216581Y135690D01*
X218563D01*
X217076D01*
Y133707D01*
D19*
X185639Y132408D02*
Y135524D01*
X184081Y133966D02*
X187197D01*
M02*
