G04*
G04 #@! TF.GenerationSoftware,Altium Limited,Altium Designer,24.6.1 (21)*
G04*
G04 Layer_Color=16711935*
%FSLAX25Y25*%
%MOIN*%
G70*
G04*
G04 #@! TF.SameCoordinates,FB6864B3-348A-4B3C-8FDE-2C751703143F*
G04*
G04*
G04 #@! TF.FilePolarity,Negative*
G04*
G01*
G75*
%ADD50C,0.04737*%
%ADD51C,0.08674*%
%ADD52C,0.12611*%
G04:AMPARAMS|DCode=53|XSize=70.99mil|YSize=70.99mil|CornerRadius=19.75mil|HoleSize=0mil|Usage=FLASHONLY|Rotation=180.000|XOffset=0mil|YOffset=0mil|HoleType=Round|Shape=RoundedRectangle|*
%AMROUNDEDRECTD53*
21,1,0.07099,0.03150,0,0,180.0*
21,1,0.03150,0.07099,0,0,180.0*
1,1,0.03950,-0.01575,0.01575*
1,1,0.03950,0.01575,0.01575*
1,1,0.03950,0.01575,-0.01575*
1,1,0.03950,-0.01575,-0.01575*
%
%ADD53ROUNDEDRECTD53*%
%ADD54C,0.07099*%
%ADD55R,0.05567X0.05567*%
%ADD56C,0.05567*%
%ADD57C,0.05800*%
D50*
X57874Y21654D02*
D03*
Y29921D02*
D03*
D51*
X7874Y153937D02*
D03*
Y164961D02*
D03*
D52*
X8268Y126378D02*
D03*
X116535Y191732D02*
D03*
X200787Y11811D02*
D03*
D53*
X177165Y13780D02*
D03*
D54*
X167165D02*
D03*
X157165D02*
D03*
D55*
X82205Y166270D02*
D03*
D56*
Y156270D02*
D03*
Y146270D02*
D03*
Y136270D02*
D03*
Y126270D02*
D03*
Y116270D02*
D03*
Y106270D02*
D03*
Y96270D02*
D03*
Y86270D02*
D03*
Y76270D02*
D03*
Y66270D02*
D03*
Y56270D02*
D03*
Y46270D02*
D03*
Y36270D02*
D03*
Y26270D02*
D03*
X142205D02*
D03*
Y36270D02*
D03*
Y46270D02*
D03*
Y56270D02*
D03*
Y66270D02*
D03*
Y76270D02*
D03*
Y86270D02*
D03*
Y96270D02*
D03*
Y106270D02*
D03*
Y116270D02*
D03*
Y126270D02*
D03*
Y136270D02*
D03*
Y146270D02*
D03*
Y156270D02*
D03*
Y166270D02*
D03*
D57*
X50394Y21654D02*
D03*
X18504Y132283D02*
D03*
X200787Y70866D02*
D03*
X133858Y161417D02*
D03*
X106299Y177165D02*
D03*
X36220Y192913D02*
D03*
X48031D02*
D03*
X16929Y94488D02*
D03*
X20472Y11811D02*
D03*
X13780Y35433D02*
D03*
X198819Y149606D02*
D03*
X210630Y179134D02*
D03*
X187008Y9843D02*
D03*
X206693Y21654D02*
D03*
X153543Y163386D02*
D03*
X222441Y25591D02*
D03*
X151575Y74803D02*
D03*
X169291Y25591D02*
D03*
X15748Y112205D02*
D03*
X61024Y68898D02*
D03*
X49213Y41339D02*
D03*
X41339Y21654D02*
D03*
X64961Y177165D02*
D03*
X7874Y175197D02*
D03*
X27559Y173228D02*
D03*
X92520Y147638D02*
D03*
X41043Y133858D02*
D03*
X72835Y194882D02*
D03*
X173228Y190945D02*
D03*
M02*
