G04*
G04 #@! TF.GenerationSoftware,Altium Limited,Altium Designer,24.6.1 (21)*
G04*
G04 Layer_Physical_Order=2*
G04 Layer_Color=16711680*
%FSLAX25Y25*%
%MOIN*%
G70*
G04*
G04 #@! TF.SameCoordinates,FB6864B3-348A-4B3C-8FDE-2C751703143F*
G04*
G04*
G04 #@! TF.FilePolarity,Positive*
G04*
G01*
G75*
%ADD55R,0.05567X0.05567*%
%ADD56C,0.05567*%
%ADD59C,0.03937*%
%ADD60C,0.07874*%
%ADD61C,0.11811*%
G04:AMPARAMS|DCode=62|XSize=62.99mil|YSize=62.99mil|CornerRadius=15.75mil|HoleSize=0mil|Usage=FLASHONLY|Rotation=180.000|XOffset=0mil|YOffset=0mil|HoleType=Round|Shape=RoundedRectangle|*
%AMROUNDEDRECTD62*
21,1,0.06299,0.03150,0,0,180.0*
21,1,0.03150,0.06299,0,0,180.0*
1,1,0.03150,-0.01575,0.01575*
1,1,0.03150,0.01575,0.01575*
1,1,0.03150,0.01575,-0.01575*
1,1,0.03150,-0.01575,-0.01575*
%
%ADD62ROUNDEDRECTD62*%
%ADD63C,0.06299*%
%ADD64C,0.05000*%
G36*
X225524Y202456D02*
X226078Y201903D01*
X226378Y201179D01*
Y200787D01*
Y27771D01*
X225378Y27503D01*
X225242Y27740D01*
X224590Y28391D01*
X223792Y28852D01*
X222941Y29080D01*
Y25591D01*
Y22101D01*
X223792Y22329D01*
X224590Y22790D01*
X225242Y23441D01*
X225378Y23678D01*
X226378Y23410D01*
Y3937D01*
Y3545D01*
X226078Y2822D01*
X225524Y2268D01*
X224801Y1969D01*
X3545D01*
X2822Y2268D01*
X2268Y2822D01*
X1969Y3545D01*
Y3937D01*
Y121576D01*
X2694Y121886D01*
X2968Y121911D01*
X3866Y121014D01*
X4997Y120258D01*
X6254Y119738D01*
X7588Y119473D01*
X7768D01*
Y126378D01*
Y133283D01*
X7588D01*
X6254Y133018D01*
X4997Y132498D01*
X3866Y131742D01*
X2968Y130845D01*
X2694Y130870D01*
X1969Y131180D01*
Y153211D01*
X2937Y153287D01*
X3274Y152031D01*
X3923Y150906D01*
X4843Y149986D01*
X5968Y149336D01*
X7224Y149000D01*
X7374D01*
Y153937D01*
Y158874D01*
X7224D01*
X5968Y158538D01*
X4843Y157888D01*
X3923Y156968D01*
X3274Y155843D01*
X2937Y154587D01*
X1969Y154663D01*
Y200787D01*
Y201179D01*
X2268Y201903D01*
X2822Y202456D01*
X3545Y202756D01*
X224801D01*
X225524Y202456D01*
D02*
G37*
%LPC*%
G36*
X73335Y198371D02*
Y195382D01*
X76324D01*
X76096Y196233D01*
X75635Y197031D01*
X74984Y197683D01*
X74186Y198143D01*
X73335Y198371D01*
D02*
G37*
G36*
X72335D02*
X71484Y198143D01*
X70686Y197683D01*
X70034Y197031D01*
X69573Y196233D01*
X69345Y195382D01*
X72335D01*
Y198371D01*
D02*
G37*
G36*
X48531Y196403D02*
Y193413D01*
X51521D01*
X51293Y194264D01*
X50832Y195062D01*
X50181Y195714D01*
X49382Y196175D01*
X48531Y196403D01*
D02*
G37*
G36*
X47532D02*
X46681Y196175D01*
X45882Y195714D01*
X45231Y195062D01*
X44770Y194264D01*
X44542Y193413D01*
X47532D01*
Y196403D01*
D02*
G37*
G36*
X36720D02*
Y193413D01*
X39710D01*
X39482Y194264D01*
X39021Y195062D01*
X38370Y195714D01*
X37571Y196175D01*
X36720Y196403D01*
D02*
G37*
G36*
X35721D02*
X34870Y196175D01*
X34071Y195714D01*
X33420Y195062D01*
X32959Y194264D01*
X32731Y193413D01*
X35721D01*
Y196403D01*
D02*
G37*
G36*
X117216Y198638D02*
X117035D01*
Y192232D01*
X123441D01*
Y192412D01*
X123176Y193747D01*
X122655Y195003D01*
X121899Y196134D01*
X120937Y197096D01*
X119806Y197852D01*
X118550Y198372D01*
X117216Y198638D01*
D02*
G37*
G36*
X116035D02*
X115855D01*
X114521Y198372D01*
X113265Y197852D01*
X112133Y197096D01*
X111172Y196134D01*
X110416Y195003D01*
X109895Y193747D01*
X109630Y192412D01*
Y192232D01*
X116035D01*
Y198638D01*
D02*
G37*
G36*
X173728Y194434D02*
Y191445D01*
X176718D01*
X176490Y192296D01*
X176029Y193094D01*
X175377Y193746D01*
X174579Y194206D01*
X173728Y194434D01*
D02*
G37*
G36*
X172728D02*
X171877Y194206D01*
X171079Y193746D01*
X170428Y193094D01*
X169967Y192296D01*
X169739Y191445D01*
X172728D01*
Y194434D01*
D02*
G37*
G36*
X76324Y194382D02*
X73335D01*
Y191392D01*
X74186Y191620D01*
X74984Y192081D01*
X75635Y192733D01*
X76096Y193531D01*
X76324Y194382D01*
D02*
G37*
G36*
X72335D02*
X69345D01*
X69573Y193531D01*
X70034Y192733D01*
X70686Y192081D01*
X71484Y191620D01*
X72335Y191392D01*
Y194382D01*
D02*
G37*
G36*
X51521Y192413D02*
X48531D01*
Y189424D01*
X49382Y189652D01*
X50181Y190113D01*
X50832Y190764D01*
X51293Y191562D01*
X51521Y192413D01*
D02*
G37*
G36*
X47532D02*
X44542D01*
X44770Y191562D01*
X45231Y190764D01*
X45882Y190113D01*
X46681Y189652D01*
X47532Y189424D01*
Y192413D01*
D02*
G37*
G36*
X39710D02*
X36720D01*
Y189424D01*
X37571Y189652D01*
X38370Y190113D01*
X39021Y190764D01*
X39482Y191562D01*
X39710Y192413D01*
D02*
G37*
G36*
X35721D02*
X32731D01*
X32959Y191562D01*
X33420Y190764D01*
X34071Y190113D01*
X34870Y189652D01*
X35721Y189424D01*
Y192413D01*
D02*
G37*
G36*
X176718Y190445D02*
X173728D01*
Y187455D01*
X174579Y187683D01*
X175377Y188144D01*
X176029Y188796D01*
X176490Y189594D01*
X176718Y190445D01*
D02*
G37*
G36*
X172728D02*
X169739D01*
X169967Y189594D01*
X170428Y188796D01*
X171079Y188144D01*
X171877Y187683D01*
X172728Y187455D01*
Y190445D01*
D02*
G37*
G36*
X123441Y191232D02*
X117035D01*
Y184827D01*
X117216D01*
X118550Y185092D01*
X119806Y185613D01*
X120937Y186368D01*
X121899Y187330D01*
X122655Y188461D01*
X123176Y189718D01*
X123441Y191052D01*
Y191232D01*
D02*
G37*
G36*
X116035D02*
X109630D01*
Y191052D01*
X109895Y189718D01*
X110416Y188461D01*
X111172Y187330D01*
X112133Y186368D01*
X113265Y185613D01*
X114521Y185092D01*
X115855Y184827D01*
X116035D01*
Y191232D01*
D02*
G37*
G36*
X211130Y182623D02*
Y179634D01*
X214119D01*
X213891Y180485D01*
X213431Y181283D01*
X212779Y181935D01*
X211981Y182395D01*
X211130Y182623D01*
D02*
G37*
G36*
X210130D02*
X209279Y182395D01*
X208481Y181935D01*
X207829Y181283D01*
X207368Y180485D01*
X207140Y179634D01*
X210130D01*
Y182623D01*
D02*
G37*
G36*
X106799Y180655D02*
Y177665D01*
X109789D01*
X109561Y178516D01*
X109100Y179314D01*
X108448Y179966D01*
X107650Y180427D01*
X106799Y180655D01*
D02*
G37*
G36*
X105799D02*
X104948Y180427D01*
X104150Y179966D01*
X103498Y179314D01*
X103038Y178516D01*
X102810Y177665D01*
X105799D01*
Y180655D01*
D02*
G37*
G36*
X65461D02*
Y177665D01*
X68450D01*
X68222Y178516D01*
X67761Y179314D01*
X67110Y179966D01*
X66312Y180427D01*
X65461Y180655D01*
D02*
G37*
G36*
X64461D02*
X63610Y180427D01*
X62812Y179966D01*
X62160Y179314D01*
X61699Y178516D01*
X61471Y177665D01*
X64461D01*
Y180655D01*
D02*
G37*
G36*
X8374Y178686D02*
Y175697D01*
X11364D01*
X11135Y176548D01*
X10675Y177346D01*
X10023Y177998D01*
X9225Y178458D01*
X8374Y178686D01*
D02*
G37*
G36*
X7374D02*
X6523Y178458D01*
X5725Y177998D01*
X5073Y177346D01*
X4612Y176548D01*
X4385Y175697D01*
X7374D01*
Y178686D01*
D02*
G37*
G36*
X214119Y178634D02*
X211130D01*
Y175644D01*
X211981Y175872D01*
X212779Y176333D01*
X213431Y176985D01*
X213891Y177783D01*
X214119Y178634D01*
D02*
G37*
G36*
X210130D02*
X207140D01*
X207368Y177783D01*
X207829Y176985D01*
X208481Y176333D01*
X209279Y175872D01*
X210130Y175644D01*
Y178634D01*
D02*
G37*
G36*
X28059Y176718D02*
Y173728D01*
X31049D01*
X30821Y174579D01*
X30360Y175377D01*
X29708Y176029D01*
X28910Y176490D01*
X28059Y176718D01*
D02*
G37*
G36*
X27059D02*
X26208Y176490D01*
X25410Y176029D01*
X24758Y175377D01*
X24298Y174579D01*
X24070Y173728D01*
X27059D01*
Y176718D01*
D02*
G37*
G36*
X109789Y176665D02*
X106799D01*
Y173676D01*
X107650Y173904D01*
X108448Y174365D01*
X109100Y175016D01*
X109561Y175814D01*
X109789Y176665D01*
D02*
G37*
G36*
X105799D02*
X102810D01*
X103038Y175814D01*
X103498Y175016D01*
X104150Y174365D01*
X104948Y173904D01*
X105799Y173676D01*
Y176665D01*
D02*
G37*
G36*
X68450D02*
X65461D01*
Y173676D01*
X66312Y173904D01*
X67110Y174365D01*
X67761Y175016D01*
X68222Y175814D01*
X68450Y176665D01*
D02*
G37*
G36*
X64461D02*
X61471D01*
X61699Y175814D01*
X62160Y175016D01*
X62812Y174365D01*
X63610Y173904D01*
X64461Y173676D01*
Y176665D01*
D02*
G37*
G36*
X11364Y174697D02*
X8374D01*
Y171707D01*
X9225Y171935D01*
X10023Y172396D01*
X10675Y173048D01*
X11135Y173846D01*
X11364Y174697D01*
D02*
G37*
G36*
X7374D02*
X4385D01*
X4612Y173846D01*
X5073Y173048D01*
X5725Y172396D01*
X6523Y171935D01*
X7374Y171707D01*
Y174697D01*
D02*
G37*
G36*
X31049Y172728D02*
X28059D01*
Y169739D01*
X28910Y169967D01*
X29708Y170428D01*
X30360Y171079D01*
X30821Y171877D01*
X31049Y172728D01*
D02*
G37*
G36*
X27059D02*
X24070D01*
X24298Y171877D01*
X24758Y171079D01*
X25410Y170428D01*
X26208Y169967D01*
X27059Y169739D01*
Y172728D01*
D02*
G37*
G36*
X154043Y166875D02*
Y163886D01*
X157033D01*
X156805Y164737D01*
X156344Y165535D01*
X155692Y166186D01*
X154894Y166647D01*
X154043Y166875D01*
D02*
G37*
G36*
X153043D02*
X152192Y166647D01*
X151394Y166186D01*
X150743Y165535D01*
X150282Y164737D01*
X150054Y163886D01*
X153043D01*
Y166875D01*
D02*
G37*
G36*
X142675Y169841D02*
X141735D01*
X140826Y169597D01*
X140012Y169127D01*
X139347Y168462D01*
X138877Y167648D01*
X138634Y166740D01*
Y165800D01*
X138877Y164891D01*
X139347Y164077D01*
X140012Y163412D01*
X140826Y162942D01*
X141735Y162699D01*
X142675D01*
X143583Y162942D01*
X144397Y163412D01*
X145062Y164077D01*
X145532Y164891D01*
X145776Y165800D01*
Y166740D01*
X145532Y167648D01*
X145062Y168462D01*
X144397Y169127D01*
X143583Y169597D01*
X142675Y169841D01*
D02*
G37*
G36*
X85776D02*
X78634D01*
Y162699D01*
X85776D01*
Y169841D01*
D02*
G37*
G36*
X134358Y164907D02*
Y161917D01*
X137348D01*
X137120Y162768D01*
X136659Y163566D01*
X136007Y164218D01*
X135209Y164679D01*
X134358Y164907D01*
D02*
G37*
G36*
X133358D02*
X132507Y164679D01*
X131709Y164218D01*
X131058Y163566D01*
X130597Y162768D01*
X130369Y161917D01*
X133358D01*
Y164907D01*
D02*
G37*
G36*
X8496Y169685D02*
X7252D01*
X6050Y169363D01*
X4973Y168741D01*
X4093Y167861D01*
X3472Y166784D01*
X3150Y165583D01*
Y164339D01*
X3472Y163137D01*
X4093Y162060D01*
X4973Y161180D01*
X6050Y160558D01*
X7252Y160236D01*
X8496D01*
X9698Y160558D01*
X10775Y161180D01*
X11654Y162060D01*
X12276Y163137D01*
X12598Y164339D01*
Y165583D01*
X12276Y166784D01*
X11654Y167861D01*
X10775Y168741D01*
X9698Y169363D01*
X8496Y169685D01*
D02*
G37*
G36*
X157033Y162886D02*
X154043D01*
Y159896D01*
X154894Y160124D01*
X155692Y160585D01*
X156344Y161237D01*
X156805Y162035D01*
X157033Y162886D01*
D02*
G37*
G36*
X153043D02*
X150054D01*
X150282Y162035D01*
X150743Y161237D01*
X151394Y160585D01*
X152192Y160124D01*
X153043Y159896D01*
Y162886D01*
D02*
G37*
G36*
X137348Y160917D02*
X134358D01*
Y157928D01*
X135209Y158156D01*
X136007Y158617D01*
X136659Y159268D01*
X137120Y160066D01*
X137348Y160917D01*
D02*
G37*
G36*
X133358D02*
X130369D01*
X130597Y160066D01*
X131058Y159268D01*
X131709Y158617D01*
X132507Y158156D01*
X133358Y157928D01*
Y160917D01*
D02*
G37*
G36*
X142705Y160053D02*
Y156770D01*
X145988D01*
X145730Y157730D01*
X145232Y158593D01*
X144528Y159297D01*
X143665Y159795D01*
X142705Y160053D01*
D02*
G37*
G36*
X141705D02*
X140744Y159795D01*
X139882Y159297D01*
X139177Y158593D01*
X138679Y157730D01*
X138422Y156770D01*
X141705D01*
Y160053D01*
D02*
G37*
G36*
X8524Y158874D02*
X8374D01*
Y154437D01*
X12811D01*
Y154587D01*
X12475Y155843D01*
X11825Y156968D01*
X10905Y157888D01*
X9780Y158538D01*
X8524Y158874D01*
D02*
G37*
G36*
X82675Y159841D02*
X81735D01*
X80826Y159597D01*
X80012Y159127D01*
X79347Y158462D01*
X78877Y157648D01*
X78634Y156740D01*
Y155800D01*
X78877Y154891D01*
X79347Y154077D01*
X80012Y153412D01*
X80826Y152942D01*
X81735Y152699D01*
X82675D01*
X83583Y152942D01*
X84397Y153412D01*
X85062Y154077D01*
X85532Y154891D01*
X85776Y155800D01*
Y156740D01*
X85532Y157648D01*
X85062Y158462D01*
X84397Y159127D01*
X83583Y159597D01*
X82675Y159841D01*
D02*
G37*
G36*
X145988Y155770D02*
X142705D01*
Y152487D01*
X143665Y152744D01*
X144528Y153242D01*
X145232Y153947D01*
X145730Y154809D01*
X145988Y155770D01*
D02*
G37*
G36*
X141705D02*
X138422D01*
X138679Y154809D01*
X139177Y153947D01*
X139882Y153242D01*
X140744Y152744D01*
X141705Y152487D01*
Y155770D01*
D02*
G37*
G36*
X199319Y153096D02*
Y150106D01*
X202308D01*
X202080Y150957D01*
X201620Y151755D01*
X200968Y152407D01*
X200170Y152868D01*
X199319Y153096D01*
D02*
G37*
G36*
X198319D02*
X197468Y152868D01*
X196670Y152407D01*
X196018Y151755D01*
X195557Y150957D01*
X195329Y150106D01*
X198319D01*
Y153096D01*
D02*
G37*
G36*
X12811Y153437D02*
X8374D01*
Y149000D01*
X8524D01*
X9780Y149336D01*
X10905Y149986D01*
X11825Y150906D01*
X12475Y152031D01*
X12811Y153287D01*
Y153437D01*
D02*
G37*
G36*
X93020Y151127D02*
Y148138D01*
X96009D01*
X95781Y148989D01*
X95320Y149787D01*
X94669Y150438D01*
X93871Y150899D01*
X93020Y151127D01*
D02*
G37*
G36*
X92020D02*
X91169Y150899D01*
X90371Y150438D01*
X89719Y149787D01*
X89258Y148989D01*
X89030Y148138D01*
X92020D01*
Y151127D01*
D02*
G37*
G36*
X202308Y149106D02*
X199319D01*
Y146117D01*
X200170Y146345D01*
X200968Y146806D01*
X201620Y147457D01*
X202080Y148255D01*
X202308Y149106D01*
D02*
G37*
G36*
X198319D02*
X195329D01*
X195557Y148255D01*
X196018Y147457D01*
X196670Y146806D01*
X197468Y146345D01*
X198319Y146117D01*
Y149106D01*
D02*
G37*
G36*
X96009Y147138D02*
X93020D01*
Y144148D01*
X93871Y144376D01*
X94669Y144837D01*
X95320Y145489D01*
X95781Y146287D01*
X96009Y147138D01*
D02*
G37*
G36*
X92020D02*
X89030D01*
X89258Y146287D01*
X89719Y145489D01*
X90371Y144837D01*
X91169Y144376D01*
X92020Y144148D01*
Y147138D01*
D02*
G37*
G36*
X142675Y149841D02*
X141735D01*
X140826Y149597D01*
X140012Y149127D01*
X139347Y148462D01*
X138877Y147648D01*
X138634Y146740D01*
Y145800D01*
X138877Y144891D01*
X139347Y144077D01*
X140012Y143412D01*
X140826Y142942D01*
X141735Y142699D01*
X142675D01*
X143583Y142942D01*
X144397Y143412D01*
X145062Y144077D01*
X145532Y144891D01*
X145776Y145800D01*
Y146740D01*
X145532Y147648D01*
X145062Y148462D01*
X144397Y149127D01*
X143583Y149597D01*
X142675Y149841D01*
D02*
G37*
G36*
X82675D02*
X81735D01*
X80826Y149597D01*
X80012Y149127D01*
X79347Y148462D01*
X78877Y147648D01*
X78634Y146740D01*
Y145800D01*
X78877Y144891D01*
X79347Y144077D01*
X80012Y143412D01*
X80826Y142942D01*
X81735Y142699D01*
X82675D01*
X83583Y142942D01*
X84397Y143412D01*
X85062Y144077D01*
X85532Y144891D01*
X85776Y145800D01*
Y146740D01*
X85532Y147648D01*
X85062Y148462D01*
X84397Y149127D01*
X83583Y149597D01*
X82675Y149841D01*
D02*
G37*
G36*
X82705Y140053D02*
Y136770D01*
X85988D01*
X85730Y137730D01*
X85232Y138593D01*
X84528Y139297D01*
X83665Y139795D01*
X82705Y140053D01*
D02*
G37*
G36*
X81705D02*
X80744Y139795D01*
X79882Y139297D01*
X79177Y138593D01*
X78679Y137730D01*
X78422Y136770D01*
X81705D01*
Y140053D01*
D02*
G37*
G36*
X41543Y137348D02*
Y134358D01*
X44533D01*
X44305Y135209D01*
X43844Y136007D01*
X43192Y136659D01*
X42394Y137120D01*
X41543Y137348D01*
D02*
G37*
G36*
X40543D02*
X39692Y137120D01*
X38894Y136659D01*
X38243Y136007D01*
X37782Y135209D01*
X37554Y134358D01*
X40543D01*
Y137348D01*
D02*
G37*
G36*
X19004Y135773D02*
Y132783D01*
X21993D01*
X21765Y133634D01*
X21305Y134432D01*
X20653Y135084D01*
X19855Y135545D01*
X19004Y135773D01*
D02*
G37*
G36*
X18004D02*
X17153Y135545D01*
X16355Y135084D01*
X15703Y134432D01*
X15243Y133634D01*
X15014Y132783D01*
X18004D01*
Y135773D01*
D02*
G37*
G36*
X142675Y139841D02*
X141735D01*
X140826Y139597D01*
X140012Y139127D01*
X139347Y138462D01*
X138877Y137648D01*
X138634Y136740D01*
Y135800D01*
X138877Y134891D01*
X139347Y134077D01*
X140012Y133412D01*
X140826Y132942D01*
X141735Y132699D01*
X142675D01*
X143583Y132942D01*
X144397Y133412D01*
X145062Y134077D01*
X145532Y134891D01*
X145776Y135800D01*
Y136740D01*
X145532Y137648D01*
X145062Y138462D01*
X144397Y139127D01*
X143583Y139597D01*
X142675Y139841D01*
D02*
G37*
G36*
X85988Y135770D02*
X82705D01*
Y132487D01*
X83665Y132744D01*
X84528Y133242D01*
X85232Y133947D01*
X85730Y134809D01*
X85988Y135770D01*
D02*
G37*
G36*
X81705D02*
X78422D01*
X78679Y134809D01*
X79177Y133947D01*
X79882Y133242D01*
X80744Y132744D01*
X81705Y132487D01*
Y135770D01*
D02*
G37*
G36*
X44533Y133358D02*
X41543D01*
Y130369D01*
X42394Y130597D01*
X43192Y131058D01*
X43844Y131709D01*
X44305Y132507D01*
X44533Y133358D01*
D02*
G37*
G36*
X40543D02*
X37554D01*
X37782Y132507D01*
X38243Y131709D01*
X38894Y131058D01*
X39692Y130597D01*
X40543Y130369D01*
Y133358D01*
D02*
G37*
G36*
X21993Y131783D02*
X19004D01*
Y128794D01*
X19855Y129022D01*
X20653Y129483D01*
X21305Y130134D01*
X21765Y130932D01*
X21993Y131783D01*
D02*
G37*
G36*
X18004D02*
X15014D01*
X15243Y130932D01*
X15703Y130134D01*
X16355Y129483D01*
X17153Y129022D01*
X18004Y128794D01*
Y131783D01*
D02*
G37*
G36*
X8948Y133283D02*
X8768D01*
Y126878D01*
X15173D01*
Y127058D01*
X14908Y128392D01*
X14387Y129649D01*
X13632Y130780D01*
X12670Y131742D01*
X11539Y132498D01*
X10282Y133018D01*
X8948Y133283D01*
D02*
G37*
G36*
X142675Y129841D02*
X141735D01*
X140826Y129597D01*
X140012Y129127D01*
X139347Y128462D01*
X138877Y127648D01*
X138634Y126740D01*
Y125800D01*
X138877Y124891D01*
X139347Y124077D01*
X140012Y123412D01*
X140826Y122942D01*
X141735Y122699D01*
X142675D01*
X143583Y122942D01*
X144397Y123412D01*
X145062Y124077D01*
X145532Y124891D01*
X145776Y125800D01*
Y126740D01*
X145532Y127648D01*
X145062Y128462D01*
X144397Y129127D01*
X143583Y129597D01*
X142675Y129841D01*
D02*
G37*
G36*
X82675D02*
X81735D01*
X80826Y129597D01*
X80012Y129127D01*
X79347Y128462D01*
X78877Y127648D01*
X78634Y126740D01*
Y125800D01*
X78877Y124891D01*
X79347Y124077D01*
X80012Y123412D01*
X80826Y122942D01*
X81735Y122699D01*
X82675D01*
X83583Y122942D01*
X84397Y123412D01*
X85062Y124077D01*
X85532Y124891D01*
X85776Y125800D01*
Y126740D01*
X85532Y127648D01*
X85062Y128462D01*
X84397Y129127D01*
X83583Y129597D01*
X82675Y129841D01*
D02*
G37*
G36*
X15173Y125878D02*
X8768D01*
Y119473D01*
X8948D01*
X10282Y119738D01*
X11539Y120258D01*
X12670Y121014D01*
X13632Y121976D01*
X14387Y123107D01*
X14908Y124364D01*
X15173Y125698D01*
Y125878D01*
D02*
G37*
G36*
X16248Y115694D02*
Y112705D01*
X19238D01*
X19010Y113556D01*
X18549Y114354D01*
X17897Y115005D01*
X17099Y115466D01*
X16248Y115694D01*
D02*
G37*
G36*
X15248D02*
X14397Y115466D01*
X13599Y115005D01*
X12947Y114354D01*
X12487Y113556D01*
X12258Y112705D01*
X15248D01*
Y115694D01*
D02*
G37*
G36*
X142675Y119841D02*
X141735D01*
X140826Y119597D01*
X140012Y119127D01*
X139347Y118462D01*
X138877Y117648D01*
X138634Y116740D01*
Y115800D01*
X138877Y114891D01*
X139347Y114077D01*
X140012Y113412D01*
X140826Y112942D01*
X141735Y112699D01*
X142675D01*
X143583Y112942D01*
X144397Y113412D01*
X145062Y114077D01*
X145532Y114891D01*
X145776Y115800D01*
Y116740D01*
X145532Y117648D01*
X145062Y118462D01*
X144397Y119127D01*
X143583Y119597D01*
X142675Y119841D01*
D02*
G37*
G36*
X82675D02*
X81735D01*
X80826Y119597D01*
X80012Y119127D01*
X79347Y118462D01*
X78877Y117648D01*
X78634Y116740D01*
Y115800D01*
X78877Y114891D01*
X79347Y114077D01*
X80012Y113412D01*
X80826Y112942D01*
X81735Y112699D01*
X82675D01*
X83583Y112942D01*
X84397Y113412D01*
X85062Y114077D01*
X85532Y114891D01*
X85776Y115800D01*
Y116740D01*
X85532Y117648D01*
X85062Y118462D01*
X84397Y119127D01*
X83583Y119597D01*
X82675Y119841D01*
D02*
G37*
G36*
X19238Y111705D02*
X16248D01*
Y108715D01*
X17099Y108943D01*
X17897Y109404D01*
X18549Y110056D01*
X19010Y110854D01*
X19238Y111705D01*
D02*
G37*
G36*
X15248D02*
X12258D01*
X12487Y110854D01*
X12947Y110056D01*
X13599Y109404D01*
X14397Y108943D01*
X15248Y108715D01*
Y111705D01*
D02*
G37*
G36*
X142675Y109841D02*
X141735D01*
X140826Y109597D01*
X140012Y109127D01*
X139347Y108462D01*
X138877Y107648D01*
X138634Y106740D01*
Y105800D01*
X138877Y104891D01*
X139347Y104077D01*
X140012Y103412D01*
X140826Y102942D01*
X141735Y102699D01*
X142675D01*
X143583Y102942D01*
X144397Y103412D01*
X145062Y104077D01*
X145532Y104891D01*
X145776Y105800D01*
Y106740D01*
X145532Y107648D01*
X145062Y108462D01*
X144397Y109127D01*
X143583Y109597D01*
X142675Y109841D01*
D02*
G37*
G36*
X82675D02*
X81735D01*
X80826Y109597D01*
X80012Y109127D01*
X79347Y108462D01*
X78877Y107648D01*
X78634Y106740D01*
Y105800D01*
X78877Y104891D01*
X79347Y104077D01*
X80012Y103412D01*
X80826Y102942D01*
X81735Y102699D01*
X82675D01*
X83583Y102942D01*
X84397Y103412D01*
X85062Y104077D01*
X85532Y104891D01*
X85776Y105800D01*
Y106740D01*
X85532Y107648D01*
X85062Y108462D01*
X84397Y109127D01*
X83583Y109597D01*
X82675Y109841D01*
D02*
G37*
G36*
X17429Y97978D02*
Y94988D01*
X20419D01*
X20191Y95839D01*
X19730Y96637D01*
X19078Y97289D01*
X18280Y97750D01*
X17429Y97978D01*
D02*
G37*
G36*
X16429D02*
X15578Y97750D01*
X14780Y97289D01*
X14128Y96637D01*
X13668Y95839D01*
X13440Y94988D01*
X16429D01*
Y97978D01*
D02*
G37*
G36*
X142675Y99840D02*
X141735D01*
X140826Y99597D01*
X140012Y99127D01*
X139347Y98462D01*
X138877Y97648D01*
X138634Y96740D01*
Y95800D01*
X138877Y94891D01*
X139347Y94077D01*
X140012Y93412D01*
X140826Y92942D01*
X141735Y92699D01*
X142675D01*
X143583Y92942D01*
X144397Y93412D01*
X145062Y94077D01*
X145532Y94891D01*
X145776Y95800D01*
Y96740D01*
X145532Y97648D01*
X145062Y98462D01*
X144397Y99127D01*
X143583Y99597D01*
X142675Y99840D01*
D02*
G37*
G36*
X82675D02*
X81735D01*
X80826Y99597D01*
X80012Y99127D01*
X79347Y98462D01*
X78877Y97648D01*
X78634Y96740D01*
Y95800D01*
X78877Y94891D01*
X79347Y94077D01*
X80012Y93412D01*
X80826Y92942D01*
X81735Y92699D01*
X82675D01*
X83583Y92942D01*
X84397Y93412D01*
X85062Y94077D01*
X85532Y94891D01*
X85776Y95800D01*
Y96740D01*
X85532Y97648D01*
X85062Y98462D01*
X84397Y99127D01*
X83583Y99597D01*
X82675Y99840D01*
D02*
G37*
G36*
X20419Y93988D02*
X17429D01*
Y90999D01*
X18280Y91227D01*
X19078Y91688D01*
X19730Y92339D01*
X20191Y93137D01*
X20419Y93988D01*
D02*
G37*
G36*
X16429D02*
X13440D01*
X13668Y93137D01*
X14128Y92339D01*
X14780Y91688D01*
X15578Y91227D01*
X16429Y90999D01*
Y93988D01*
D02*
G37*
G36*
X142675Y89841D02*
X141735D01*
X140826Y89597D01*
X140012Y89127D01*
X139347Y88462D01*
X138877Y87648D01*
X138634Y86740D01*
Y85800D01*
X138877Y84891D01*
X139347Y84077D01*
X140012Y83412D01*
X140826Y82942D01*
X141735Y82699D01*
X142675D01*
X143583Y82942D01*
X144397Y83412D01*
X145062Y84077D01*
X145532Y84891D01*
X145776Y85800D01*
Y86740D01*
X145532Y87648D01*
X145062Y88462D01*
X144397Y89127D01*
X143583Y89597D01*
X142675Y89841D01*
D02*
G37*
G36*
X82675D02*
X81735D01*
X80826Y89597D01*
X80012Y89127D01*
X79347Y88462D01*
X78877Y87648D01*
X78634Y86740D01*
Y85800D01*
X78877Y84891D01*
X79347Y84077D01*
X80012Y83412D01*
X80826Y82942D01*
X81735Y82699D01*
X82675D01*
X83583Y82942D01*
X84397Y83412D01*
X85062Y84077D01*
X85532Y84891D01*
X85776Y85800D01*
Y86740D01*
X85532Y87648D01*
X85062Y88462D01*
X84397Y89127D01*
X83583Y89597D01*
X82675Y89841D01*
D02*
G37*
G36*
X152075Y78293D02*
Y75303D01*
X155064D01*
X154836Y76154D01*
X154376Y76952D01*
X153724Y77604D01*
X152926Y78065D01*
X152075Y78293D01*
D02*
G37*
G36*
X151075D02*
X150224Y78065D01*
X149426Y77604D01*
X148774Y76952D01*
X148313Y76154D01*
X148085Y75303D01*
X151075D01*
Y78293D01*
D02*
G37*
G36*
X142675Y79840D02*
X141735D01*
X140826Y79597D01*
X140012Y79127D01*
X139347Y78462D01*
X138877Y77648D01*
X138634Y76740D01*
Y75800D01*
X138877Y74891D01*
X139347Y74077D01*
X140012Y73412D01*
X140826Y72942D01*
X141735Y72699D01*
X142675D01*
X143583Y72942D01*
X144397Y73412D01*
X145062Y74077D01*
X145532Y74891D01*
X145776Y75800D01*
Y76740D01*
X145532Y77648D01*
X145062Y78462D01*
X144397Y79127D01*
X143583Y79597D01*
X142675Y79840D01*
D02*
G37*
G36*
X82675D02*
X81735D01*
X80826Y79597D01*
X80012Y79127D01*
X79347Y78462D01*
X78877Y77648D01*
X78634Y76740D01*
Y75800D01*
X78877Y74891D01*
X79347Y74077D01*
X80012Y73412D01*
X80826Y72942D01*
X81735Y72699D01*
X82675D01*
X83583Y72942D01*
X84397Y73412D01*
X85062Y74077D01*
X85532Y74891D01*
X85776Y75800D01*
Y76740D01*
X85532Y77648D01*
X85062Y78462D01*
X84397Y79127D01*
X83583Y79597D01*
X82675Y79840D01*
D02*
G37*
G36*
X201287Y74356D02*
Y71366D01*
X204277D01*
X204049Y72217D01*
X203588Y73015D01*
X202936Y73667D01*
X202138Y74128D01*
X201287Y74356D01*
D02*
G37*
G36*
X200287D02*
X199436Y74128D01*
X198638Y73667D01*
X197987Y73015D01*
X197526Y72217D01*
X197298Y71366D01*
X200287D01*
Y74356D01*
D02*
G37*
G36*
X155064Y74303D02*
X152075D01*
Y71314D01*
X152926Y71542D01*
X153724Y72002D01*
X154376Y72654D01*
X154836Y73452D01*
X155064Y74303D01*
D02*
G37*
G36*
X151075D02*
X148085D01*
X148313Y73452D01*
X148774Y72654D01*
X149426Y72002D01*
X150224Y71542D01*
X151075Y71314D01*
Y74303D01*
D02*
G37*
G36*
X61524Y72387D02*
Y69398D01*
X64513D01*
X64285Y70249D01*
X63824Y71047D01*
X63173Y71698D01*
X62375Y72159D01*
X61524Y72387D01*
D02*
G37*
G36*
X60524D02*
X59673Y72159D01*
X58875Y71698D01*
X58223Y71047D01*
X57762Y70249D01*
X57534Y69398D01*
X60524D01*
Y72387D01*
D02*
G37*
G36*
X204277Y70366D02*
X201287D01*
Y67377D01*
X202138Y67605D01*
X202936Y68065D01*
X203588Y68717D01*
X204049Y69515D01*
X204277Y70366D01*
D02*
G37*
G36*
X200287D02*
X197298D01*
X197526Y69515D01*
X197987Y68717D01*
X198638Y68065D01*
X199436Y67605D01*
X200287Y67377D01*
Y70366D01*
D02*
G37*
G36*
X64513Y68398D02*
X61524D01*
Y65408D01*
X62375Y65636D01*
X63173Y66097D01*
X63824Y66749D01*
X64285Y67547D01*
X64513Y68398D01*
D02*
G37*
G36*
X60524D02*
X57534D01*
X57762Y67547D01*
X58223Y66749D01*
X58875Y66097D01*
X59673Y65636D01*
X60524Y65408D01*
Y68398D01*
D02*
G37*
G36*
X142675Y69841D02*
X141735D01*
X140826Y69597D01*
X140012Y69127D01*
X139347Y68462D01*
X138877Y67648D01*
X138634Y66740D01*
Y65800D01*
X138877Y64891D01*
X139347Y64077D01*
X140012Y63412D01*
X140826Y62942D01*
X141735Y62699D01*
X142675D01*
X143583Y62942D01*
X144397Y63412D01*
X145062Y64077D01*
X145532Y64891D01*
X145776Y65800D01*
Y66740D01*
X145532Y67648D01*
X145062Y68462D01*
X144397Y69127D01*
X143583Y69597D01*
X142675Y69841D01*
D02*
G37*
G36*
X82675D02*
X81735D01*
X80826Y69597D01*
X80012Y69127D01*
X79347Y68462D01*
X78877Y67648D01*
X78634Y66740D01*
Y65800D01*
X78877Y64891D01*
X79347Y64077D01*
X80012Y63412D01*
X80826Y62942D01*
X81735Y62699D01*
X82675D01*
X83583Y62942D01*
X84397Y63412D01*
X85062Y64077D01*
X85532Y64891D01*
X85776Y65800D01*
Y66740D01*
X85532Y67648D01*
X85062Y68462D01*
X84397Y69127D01*
X83583Y69597D01*
X82675Y69841D01*
D02*
G37*
G36*
X142675Y59841D02*
X141735D01*
X140826Y59597D01*
X140012Y59127D01*
X139347Y58462D01*
X138877Y57648D01*
X138634Y56740D01*
Y55800D01*
X138877Y54891D01*
X139347Y54077D01*
X140012Y53412D01*
X140826Y52942D01*
X141735Y52699D01*
X142675D01*
X143583Y52942D01*
X144397Y53412D01*
X145062Y54077D01*
X145532Y54891D01*
X145776Y55800D01*
Y56740D01*
X145532Y57648D01*
X145062Y58462D01*
X144397Y59127D01*
X143583Y59597D01*
X142675Y59841D01*
D02*
G37*
G36*
X82675D02*
X81735D01*
X80826Y59597D01*
X80012Y59127D01*
X79347Y58462D01*
X78877Y57648D01*
X78634Y56740D01*
Y55800D01*
X78877Y54891D01*
X79347Y54077D01*
X80012Y53412D01*
X80826Y52942D01*
X81735Y52699D01*
X82675D01*
X83583Y52942D01*
X84397Y53412D01*
X85062Y54077D01*
X85532Y54891D01*
X85776Y55800D01*
Y56740D01*
X85532Y57648D01*
X85062Y58462D01*
X84397Y59127D01*
X83583Y59597D01*
X82675Y59841D01*
D02*
G37*
G36*
X142675Y49841D02*
X141735D01*
X140826Y49597D01*
X140012Y49127D01*
X139347Y48462D01*
X138877Y47648D01*
X138634Y46740D01*
Y45800D01*
X138877Y44891D01*
X139347Y44077D01*
X140012Y43412D01*
X140826Y42942D01*
X141735Y42699D01*
X142675D01*
X143583Y42942D01*
X144397Y43412D01*
X145062Y44077D01*
X145532Y44891D01*
X145776Y45800D01*
Y46740D01*
X145532Y47648D01*
X145062Y48462D01*
X144397Y49127D01*
X143583Y49597D01*
X142675Y49841D01*
D02*
G37*
G36*
X82675D02*
X81735D01*
X80826Y49597D01*
X80012Y49127D01*
X79347Y48462D01*
X78877Y47648D01*
X78634Y46740D01*
Y45800D01*
X78877Y44891D01*
X79347Y44077D01*
X80012Y43412D01*
X80826Y42942D01*
X81735Y42699D01*
X82675D01*
X83583Y42942D01*
X84397Y43412D01*
X85062Y44077D01*
X85532Y44891D01*
X85776Y45800D01*
Y46740D01*
X85532Y47648D01*
X85062Y48462D01*
X84397Y49127D01*
X83583Y49597D01*
X82675Y49841D01*
D02*
G37*
G36*
X49713Y44828D02*
Y41839D01*
X52702D01*
X52474Y42689D01*
X52013Y43488D01*
X51362Y44139D01*
X50564Y44600D01*
X49713Y44828D01*
D02*
G37*
G36*
X48713D02*
X47862Y44600D01*
X47063Y44139D01*
X46412Y43488D01*
X45951Y42689D01*
X45723Y41839D01*
X48713D01*
Y44828D01*
D02*
G37*
G36*
X52702Y40839D02*
X49713D01*
Y37849D01*
X50564Y38077D01*
X51362Y38538D01*
X52013Y39189D01*
X52474Y39988D01*
X52702Y40839D01*
D02*
G37*
G36*
X48713D02*
X45723D01*
X45951Y39988D01*
X46412Y39189D01*
X47063Y38538D01*
X47862Y38077D01*
X48713Y37849D01*
Y40839D01*
D02*
G37*
G36*
X14279Y38923D02*
Y35933D01*
X17269D01*
X17041Y36784D01*
X16580Y37582D01*
X15929Y38234D01*
X15131Y38695D01*
X14279Y38923D01*
D02*
G37*
G36*
X13280D02*
X12429Y38695D01*
X11631Y38234D01*
X10979Y37582D01*
X10518Y36784D01*
X10290Y35933D01*
X13280D01*
Y38923D01*
D02*
G37*
G36*
X142675Y39841D02*
X141735D01*
X140826Y39597D01*
X140012Y39127D01*
X139347Y38462D01*
X138877Y37648D01*
X138634Y36740D01*
Y35800D01*
X138877Y34891D01*
X139347Y34077D01*
X140012Y33412D01*
X140826Y32942D01*
X141735Y32699D01*
X142675D01*
X143583Y32942D01*
X144397Y33412D01*
X145062Y34077D01*
X145532Y34891D01*
X145776Y35800D01*
Y36740D01*
X145532Y37648D01*
X145062Y38462D01*
X144397Y39127D01*
X143583Y39597D01*
X142675Y39841D01*
D02*
G37*
G36*
X82675D02*
X81735D01*
X80826Y39597D01*
X80012Y39127D01*
X79347Y38462D01*
X78877Y37648D01*
X78634Y36740D01*
Y35800D01*
X78877Y34891D01*
X79347Y34077D01*
X80012Y33412D01*
X80826Y32942D01*
X81735Y32699D01*
X82675D01*
X83583Y32942D01*
X84397Y33412D01*
X85062Y34077D01*
X85532Y34891D01*
X85776Y35800D01*
Y36740D01*
X85532Y37648D01*
X85062Y38462D01*
X84397Y39127D01*
X83583Y39597D01*
X82675Y39841D01*
D02*
G37*
G36*
X17269Y34933D02*
X14279D01*
Y31944D01*
X15131Y32172D01*
X15929Y32632D01*
X16580Y33284D01*
X17041Y34082D01*
X17269Y34933D01*
D02*
G37*
G36*
X13280D02*
X10290D01*
X10518Y34082D01*
X10979Y33284D01*
X11631Y32632D01*
X12429Y32172D01*
X13280Y31944D01*
Y34933D01*
D02*
G37*
G36*
X58237Y32677D02*
X57511D01*
X56810Y32489D01*
X56182Y32127D01*
X55669Y31613D01*
X55306Y30985D01*
X55118Y30284D01*
Y29558D01*
X55306Y28857D01*
X55669Y28229D01*
X56182Y27716D01*
X56810Y27353D01*
X57511Y27165D01*
X58237D01*
X58938Y27353D01*
X59566Y27716D01*
X60079Y28229D01*
X60442Y28857D01*
X60630Y29558D01*
Y30284D01*
X60442Y30985D01*
X60079Y31613D01*
X59566Y32127D01*
X58938Y32489D01*
X58237Y32677D01*
D02*
G37*
G36*
X221941Y29080D02*
X221090Y28852D01*
X220292Y28391D01*
X219640Y27740D01*
X219180Y26941D01*
X218952Y26091D01*
X221941D01*
Y29080D01*
D02*
G37*
G36*
X169791D02*
Y26091D01*
X172781D01*
X172553Y26941D01*
X172092Y27740D01*
X171440Y28391D01*
X170642Y28852D01*
X169791Y29080D01*
D02*
G37*
G36*
X168791D02*
X167940Y28852D01*
X167142Y28391D01*
X166491Y27740D01*
X166030Y26941D01*
X165802Y26091D01*
X168791D01*
Y29080D01*
D02*
G37*
G36*
X142675Y29841D02*
X141735D01*
X140826Y29597D01*
X140012Y29127D01*
X139347Y28462D01*
X138877Y27648D01*
X138634Y26740D01*
Y25800D01*
X138877Y24891D01*
X139347Y24077D01*
X140012Y23412D01*
X140826Y22942D01*
X141735Y22699D01*
X142675D01*
X143583Y22942D01*
X144397Y23412D01*
X145062Y24077D01*
X145532Y24891D01*
X145776Y25800D01*
Y26740D01*
X145532Y27648D01*
X145062Y28462D01*
X144397Y29127D01*
X143583Y29597D01*
X142675Y29841D01*
D02*
G37*
G36*
X82675D02*
X81735D01*
X80826Y29597D01*
X80012Y29127D01*
X79347Y28462D01*
X78877Y27648D01*
X78634Y26740D01*
Y25800D01*
X78877Y24891D01*
X79347Y24077D01*
X80012Y23412D01*
X80826Y22942D01*
X81735Y22699D01*
X82675D01*
X83583Y22942D01*
X84397Y23412D01*
X85062Y24077D01*
X85532Y24891D01*
X85776Y25800D01*
Y26740D01*
X85532Y27648D01*
X85062Y28462D01*
X84397Y29127D01*
X83583Y29597D01*
X82675Y29841D01*
D02*
G37*
G36*
X207193Y25143D02*
Y22154D01*
X210182D01*
X209954Y23005D01*
X209494Y23803D01*
X208842Y24454D01*
X208044Y24915D01*
X207193Y25143D01*
D02*
G37*
G36*
X206193D02*
X205342Y24915D01*
X204544Y24454D01*
X203892Y23803D01*
X203431Y23005D01*
X203203Y22154D01*
X206193D01*
Y25143D01*
D02*
G37*
G36*
X58374Y24593D02*
Y22154D01*
X60813D01*
X60640Y22799D01*
X60249Y23476D01*
X59697Y24029D01*
X59020Y24420D01*
X58374Y24593D01*
D02*
G37*
G36*
X57374D02*
X56728Y24420D01*
X56051Y24029D01*
X55499Y23476D01*
X55108Y22799D01*
X54935Y22154D01*
X57374D01*
Y24593D01*
D02*
G37*
G36*
X50894Y25143D02*
Y22154D01*
X53883D01*
X53655Y23005D01*
X53194Y23803D01*
X52543Y24454D01*
X51745Y24915D01*
X50894Y25143D01*
D02*
G37*
G36*
X49894D02*
X49043Y24915D01*
X48245Y24454D01*
X47593Y23803D01*
X47132Y23005D01*
X46904Y22154D01*
X49894D01*
Y25143D01*
D02*
G37*
G36*
X41839D02*
Y22154D01*
X44828D01*
X44600Y23005D01*
X44139Y23803D01*
X43488Y24454D01*
X42689Y24915D01*
X41839Y25143D01*
D02*
G37*
G36*
X40839D02*
X39988Y24915D01*
X39189Y24454D01*
X38538Y23803D01*
X38077Y23005D01*
X37849Y22154D01*
X40839D01*
Y25143D01*
D02*
G37*
G36*
X221941Y25091D02*
X218952D01*
X219180Y24240D01*
X219640Y23441D01*
X220292Y22790D01*
X221090Y22329D01*
X221941Y22101D01*
Y25091D01*
D02*
G37*
G36*
X172781D02*
X169791D01*
Y22101D01*
X170642Y22329D01*
X171440Y22790D01*
X172092Y23441D01*
X172553Y24240D01*
X172781Y25091D01*
D02*
G37*
G36*
X168791D02*
X165802D01*
X166030Y24240D01*
X166491Y23441D01*
X167142Y22790D01*
X167940Y22329D01*
X168791Y22101D01*
Y25091D01*
D02*
G37*
G36*
X60813Y21154D02*
X58374D01*
Y18714D01*
X59020Y18887D01*
X59697Y19278D01*
X60249Y19831D01*
X60640Y20508D01*
X60813Y21154D01*
D02*
G37*
G36*
X57374D02*
X54935D01*
X55108Y20508D01*
X55499Y19831D01*
X56051Y19278D01*
X56728Y18887D01*
X57374Y18714D01*
Y21154D01*
D02*
G37*
G36*
X210182D02*
X207193D01*
Y18164D01*
X208044Y18392D01*
X208842Y18853D01*
X209494Y19504D01*
X209954Y20303D01*
X210182Y21154D01*
D02*
G37*
G36*
X206193D02*
X203203D01*
X203431Y20303D01*
X203892Y19504D01*
X204544Y18853D01*
X205342Y18392D01*
X206193Y18164D01*
Y21154D01*
D02*
G37*
G36*
X53883D02*
X50894D01*
Y18164D01*
X51745Y18392D01*
X52543Y18853D01*
X53194Y19504D01*
X53655Y20303D01*
X53883Y21154D01*
D02*
G37*
G36*
X49894D02*
X46904D01*
X47132Y20303D01*
X47593Y19504D01*
X48245Y18853D01*
X49043Y18392D01*
X49894Y18164D01*
Y21154D01*
D02*
G37*
G36*
X44828D02*
X41839D01*
Y18164D01*
X42689Y18392D01*
X43488Y18853D01*
X44139Y19504D01*
X44600Y20303D01*
X44828Y21154D01*
D02*
G37*
G36*
X40839D02*
X37849D01*
X38077Y20303D01*
X38538Y19504D01*
X39189Y18853D01*
X39988Y18392D01*
X40839Y18164D01*
Y21154D01*
D02*
G37*
G36*
X178740Y17951D02*
X177665D01*
Y14279D01*
X181337D01*
Y15354D01*
X181249Y16026D01*
X180989Y16653D01*
X180577Y17191D01*
X180039Y17603D01*
X179412Y17863D01*
X178740Y17951D01*
D02*
G37*
G36*
X176665D02*
X175591D01*
X174918Y17863D01*
X174292Y17603D01*
X173754Y17191D01*
X173342Y16653D01*
X173082Y16026D01*
X172994Y15354D01*
Y14279D01*
X176665D01*
Y17951D01*
D02*
G37*
G36*
X201467Y18717D02*
X201287D01*
Y12311D01*
X207693D01*
Y12491D01*
X207428Y13825D01*
X206907Y15082D01*
X206151Y16213D01*
X205189Y17175D01*
X204058Y17931D01*
X202802Y18451D01*
X201467Y18717D01*
D02*
G37*
G36*
X200287D02*
X200107D01*
X198773Y18451D01*
X197516Y17931D01*
X196385Y17175D01*
X195423Y16213D01*
X194668Y15082D01*
X194147Y13825D01*
X193882Y12491D01*
Y12311D01*
X200287D01*
Y18717D01*
D02*
G37*
G36*
X20972Y15301D02*
Y12311D01*
X23962D01*
X23734Y13162D01*
X23273Y13960D01*
X22622Y14612D01*
X21823Y15073D01*
X20972Y15301D01*
D02*
G37*
G36*
X19972D02*
X19121Y15073D01*
X18323Y14612D01*
X17672Y13960D01*
X17211Y13162D01*
X16983Y12311D01*
X19972D01*
Y15301D01*
D02*
G37*
G36*
X187508Y13332D02*
Y10343D01*
X190497D01*
X190269Y11193D01*
X189809Y11992D01*
X189157Y12643D01*
X188359Y13104D01*
X187508Y13332D01*
D02*
G37*
G36*
X186508D02*
X185657Y13104D01*
X184859Y12643D01*
X184207Y11992D01*
X183746Y11193D01*
X183518Y10343D01*
X186508D01*
Y13332D01*
D02*
G37*
G36*
X167684Y17717D02*
X166647D01*
X165646Y17448D01*
X164748Y16930D01*
X164015Y16197D01*
X163497Y15299D01*
X163228Y14298D01*
Y13261D01*
X163497Y12260D01*
X164015Y11362D01*
X164748Y10629D01*
X165646Y10111D01*
X166647Y9843D01*
X167684D01*
X168685Y10111D01*
X169583Y10629D01*
X170316Y11362D01*
X170834Y12260D01*
X171102Y13261D01*
Y14298D01*
X170834Y15299D01*
X170316Y16197D01*
X169583Y16930D01*
X168685Y17448D01*
X167684Y17717D01*
D02*
G37*
G36*
X157684D02*
X156647D01*
X155646Y17448D01*
X154748Y16930D01*
X154015Y16197D01*
X153497Y15299D01*
X153228Y14298D01*
Y13261D01*
X153497Y12260D01*
X154015Y11362D01*
X154748Y10629D01*
X155646Y10111D01*
X156647Y9843D01*
X157684D01*
X158685Y10111D01*
X159583Y10629D01*
X160316Y11362D01*
X160834Y12260D01*
X161102Y13261D01*
Y14298D01*
X160834Y15299D01*
X160316Y16197D01*
X159583Y16930D01*
X158685Y17448D01*
X157684Y17717D01*
D02*
G37*
G36*
X181337Y13280D02*
X177665D01*
Y9608D01*
X178740D01*
X179412Y9696D01*
X180039Y9956D01*
X180577Y10368D01*
X180989Y10906D01*
X181249Y11533D01*
X181337Y12205D01*
Y13280D01*
D02*
G37*
G36*
X176665D02*
X172994D01*
Y12205D01*
X173082Y11533D01*
X173342Y10906D01*
X173754Y10368D01*
X174292Y9956D01*
X174918Y9696D01*
X175591Y9608D01*
X176665D01*
Y13280D01*
D02*
G37*
G36*
X23962Y11311D02*
X20972D01*
Y8321D01*
X21823Y8550D01*
X22622Y9010D01*
X23273Y9662D01*
X23734Y10460D01*
X23962Y11311D01*
D02*
G37*
G36*
X19972D02*
X16983D01*
X17211Y10460D01*
X17672Y9662D01*
X18323Y9010D01*
X19121Y8550D01*
X19972Y8321D01*
Y11311D01*
D02*
G37*
G36*
X190497Y9342D02*
X187508D01*
Y6353D01*
X188359Y6581D01*
X189157Y7042D01*
X189809Y7694D01*
X190269Y8492D01*
X190497Y9342D01*
D02*
G37*
G36*
X186508D02*
X183518D01*
X183746Y8492D01*
X184207Y7694D01*
X184859Y7042D01*
X185657Y6581D01*
X186508Y6353D01*
Y9342D01*
D02*
G37*
G36*
X207693Y11311D02*
X201287D01*
Y4905D01*
X201467D01*
X202802Y5171D01*
X204058Y5691D01*
X205189Y6447D01*
X206151Y7409D01*
X206907Y8540D01*
X207428Y9797D01*
X207693Y11131D01*
Y11311D01*
D02*
G37*
G36*
X200287D02*
X193882D01*
Y11131D01*
X194147Y9797D01*
X194668Y8540D01*
X195423Y7409D01*
X196385Y6447D01*
X197516Y5691D01*
X198773Y5171D01*
X200107Y4905D01*
X200287D01*
Y11311D01*
D02*
G37*
%LPD*%
D55*
X82205Y166270D02*
D03*
D56*
Y156270D02*
D03*
Y146270D02*
D03*
Y136270D02*
D03*
Y126270D02*
D03*
Y116270D02*
D03*
Y106270D02*
D03*
Y96270D02*
D03*
Y86270D02*
D03*
Y76270D02*
D03*
Y66270D02*
D03*
Y56270D02*
D03*
Y46270D02*
D03*
Y36270D02*
D03*
Y26270D02*
D03*
X142205D02*
D03*
Y36270D02*
D03*
Y46270D02*
D03*
Y56270D02*
D03*
Y66270D02*
D03*
Y76270D02*
D03*
Y86270D02*
D03*
Y96270D02*
D03*
Y106270D02*
D03*
Y116270D02*
D03*
Y126270D02*
D03*
Y136270D02*
D03*
Y146270D02*
D03*
Y156270D02*
D03*
Y166270D02*
D03*
D59*
X57874Y21654D02*
D03*
Y29921D02*
D03*
D60*
X7874Y153937D02*
D03*
Y164961D02*
D03*
D61*
X8268Y126378D02*
D03*
X116535Y191732D02*
D03*
D62*
X177165Y13780D02*
D03*
D63*
X167165D02*
D03*
X157165D02*
D03*
D64*
X50394Y21654D02*
D03*
X18504Y132283D02*
D03*
X200787Y70866D02*
D03*
X133858Y161417D02*
D03*
X106299Y177165D02*
D03*
X36220Y192913D02*
D03*
X48031D02*
D03*
X16929Y94488D02*
D03*
X20472Y11811D02*
D03*
X13780Y35433D02*
D03*
X198819Y149606D02*
D03*
X210630Y179134D02*
D03*
X187008Y9843D02*
D03*
X206693Y21654D02*
D03*
X153543Y163386D02*
D03*
X222441Y25591D02*
D03*
X151575Y74803D02*
D03*
X169291Y25591D02*
D03*
X15748Y112205D02*
D03*
X61024Y68898D02*
D03*
X49213Y41339D02*
D03*
X41339Y21654D02*
D03*
X64961Y177165D02*
D03*
X7874Y175197D02*
D03*
X27559Y173228D02*
D03*
X92520Y147638D02*
D03*
X41043Y133858D02*
D03*
X72835Y194882D02*
D03*
X173228Y190945D02*
D03*
M02*
