G04*
G04 #@! TF.GenerationSoftware,Altium Limited,Altium Designer,24.6.1 (21)*
G04*
G04 Layer_Color=16711935*
%FSLAX25Y25*%
%MOIN*%
G70*
G04*
G04 #@! TF.SameCoordinates,FB6864B3-348A-4B3C-8FDE-2C751703143F*
G04*
G04*
G04 #@! TF.FilePolarity,Positive*
G04*
G01*
G75*
%ADD13C,0.00394*%
%ADD14C,0.00787*%
D13*
X64075Y119980D02*
Y124114D01*
X61910Y119980D02*
Y124114D01*
X64075D01*
X61910Y119980D02*
X64075D01*
X62106Y40256D02*
Y48917D01*
X67815Y40256D02*
Y48917D01*
X62106Y40256D02*
X67815D01*
X62106Y48917D02*
X67815D01*
X72736Y92028D02*
Y96161D01*
X70571Y92028D02*
Y96161D01*
X72736D01*
X70571Y92028D02*
X72736D01*
X181890Y201969D02*
X192126D01*
Y191732D02*
Y201969D01*
X181890Y191732D02*
Y201969D01*
Y191732D02*
X192126D01*
X198425Y182185D02*
X207087D01*
X198425Y187894D02*
X207087D01*
Y182185D02*
Y187894D01*
X198425Y182185D02*
Y187894D01*
X189862Y174114D02*
Y182776D01*
X184153Y174114D02*
Y182776D01*
X189862D01*
X184153Y174114D02*
X189862D01*
X160236Y154232D02*
Y164469D01*
X170472D01*
X160236Y154232D02*
X170472D01*
Y164469D01*
X198425Y170374D02*
X207087D01*
X198425Y176083D02*
X207087D01*
Y170374D02*
Y176083D01*
X198425Y170374D02*
Y176083D01*
X208957Y158366D02*
X217618D01*
X208957Y152657D02*
X217618D01*
X208957D02*
Y158366D01*
X217618Y152657D02*
Y158366D01*
X166240Y44488D02*
X176476D01*
Y34252D02*
Y44488D01*
X166240Y34252D02*
Y44488D01*
Y34252D02*
X176476D01*
X187795Y44488D02*
X198031D01*
Y34252D02*
Y44488D01*
X187795Y34252D02*
Y44488D01*
Y34252D02*
X198031D01*
X209350D02*
X219587D01*
X209350D02*
Y44488D01*
X219587Y34252D02*
Y44488D01*
X209350D02*
X219587D01*
X28642Y31102D02*
Y39764D01*
X34350Y31102D02*
Y39764D01*
X28642Y31102D02*
X34350D01*
X28642Y39764D02*
X34350D01*
X12106Y48130D02*
X20768D01*
X12106Y42421D02*
X20768D01*
X12106D02*
Y48130D01*
X20768Y42421D02*
Y48130D01*
X12106Y22736D02*
X20768D01*
X12106Y28445D02*
X20768D01*
Y22736D02*
Y28445D01*
X12106Y22736D02*
Y28445D01*
X16634Y58169D02*
Y63878D01*
X25295Y58169D02*
Y63878D01*
X16634D02*
X25295D01*
X16634Y58169D02*
X25295D01*
X40157Y53937D02*
Y64173D01*
X50394D01*
X40157Y53937D02*
X50394D01*
Y64173D01*
X26378Y16929D02*
X36614D01*
Y6693D02*
Y16929D01*
X26378Y6693D02*
Y16929D01*
Y6693D02*
X36614D01*
X67421Y21850D02*
Y29724D01*
Y26772D02*
Y29724D01*
X62500D02*
X67421D01*
X62500Y21850D02*
Y29724D01*
Y21850D02*
X67421D01*
X211713Y18012D02*
X217421D01*
X211713Y26673D02*
X217421D01*
X211713Y18012D02*
Y26673D01*
X217421Y18012D02*
Y26673D01*
X81004Y193209D02*
Y197343D01*
X78839Y193209D02*
Y197343D01*
X81004D01*
X78839Y193209D02*
X81004D01*
D14*
X23523Y159055D02*
Y167717D01*
X29231D01*
Y159055D02*
Y167717D01*
X23523Y159055D02*
X29231D01*
X24016Y73836D02*
X62598D01*
X24016D02*
Y115962D01*
X62598D01*
Y73836D02*
Y115962D01*
X77205Y181270D02*
X147205D01*
Y3770D02*
Y181270D01*
X77205Y3770D02*
X147205D01*
X77205D02*
Y181270D01*
X55807Y183169D02*
Y193405D01*
Y183169D02*
X64075D01*
Y193405D01*
X55807D02*
X64075D01*
X43898Y170669D02*
X58465D01*
Y144291D02*
Y170669D01*
X43898Y144291D02*
X58465D01*
X43898D02*
Y170669D01*
X42421Y178740D02*
X48130D01*
Y187402D01*
X42421D02*
X48130D01*
X42421Y178740D02*
Y187402D01*
X32579Y178740D02*
X38287D01*
Y187402D01*
X32579D02*
X38287D01*
X32579Y178740D02*
Y187402D01*
X46850Y134941D02*
X55512D01*
X46850D02*
Y140650D01*
X55512D01*
Y134941D02*
Y140650D01*
X13386Y144783D02*
X22047D01*
X13386D02*
Y150492D01*
X22047D01*
Y144783D02*
Y150492D01*
X5903Y181004D02*
X28541D01*
X5903D02*
Y196949D01*
X28541D01*
Y181004D02*
Y196949D01*
X46850Y125098D02*
X55512D01*
X46850D02*
Y130807D01*
X55512D01*
Y125098D02*
Y130807D01*
M02*
