G04*
G04 #@! TF.GenerationSoftware,Altium Limited,Altium Designer,24.6.1 (21)*
G04*
G04 Layer_Physical_Order=1*
G04 Layer_Color=255*
%FSLAX25Y25*%
%MOIN*%
G70*
G04*
G04 #@! TF.SameCoordinates,FB6864B3-348A-4B3C-8FDE-2C751703143F*
G04*
G04*
G04 #@! TF.FilePolarity,Positive*
G04*
G01*
G75*
%ADD11C,0.01000*%
%ADD21R,0.05000X0.07874*%
%ADD22R,0.01772X0.01772*%
%ADD23R,0.05315X0.03347*%
%ADD24R,0.05512X0.03740*%
%ADD25O,0.05906X0.11811*%
%ADD26R,0.03937X0.04134*%
%ADD27R,0.04134X0.08661*%
%ADD28R,0.03347X0.05315*%
%ADD29R,0.05906X0.04724*%
%ADD30R,0.05906X0.12992*%
%ADD31R,0.04134X0.03937*%
%ADD32R,0.08661X0.04134*%
%ADD33R,0.03740X0.05512*%
%ADD34R,0.04724X0.04724*%
%ADD35R,0.03937X0.10630*%
%ADD36R,0.02362X0.06693*%
%ADD41R,0.07087X0.02756*%
%ADD42R,0.07087X0.03150*%
%ADD46R,0.01378X0.01378*%
%ADD55R,0.05567X0.05567*%
%ADD56C,0.05567*%
%ADD58C,0.01968*%
%ADD59C,0.03937*%
%ADD60C,0.07874*%
%ADD61C,0.11811*%
G04:AMPARAMS|DCode=62|XSize=62.99mil|YSize=62.99mil|CornerRadius=15.75mil|HoleSize=0mil|Usage=FLASHONLY|Rotation=180.000|XOffset=0mil|YOffset=0mil|HoleType=Round|Shape=RoundedRectangle|*
%AMROUNDEDRECTD62*
21,1,0.06299,0.03150,0,0,180.0*
21,1,0.03150,0.06299,0,0,180.0*
1,1,0.03150,-0.01575,0.01575*
1,1,0.03150,0.01575,0.01575*
1,1,0.03150,0.01575,-0.01575*
1,1,0.03150,-0.01575,-0.01575*
%
%ADD62ROUNDEDRECTD62*%
%ADD63C,0.06299*%
%ADD64C,0.05000*%
D11*
X7874Y142283D02*
G03*
X17874Y132283I10000J0D01*
G01*
X103199Y36270D02*
G03*
X106299Y39370I0J3100D01*
G01*
X108268Y41339D02*
G03*
X106299Y39370I0J-1969D01*
G01*
X155512Y68898D02*
G03*
X149606Y62992I0J-5906D01*
G01*
X139606Y41339D02*
G03*
X149606Y51339I0J10000D01*
G01*
X167349Y68898D02*
G03*
X177213Y78762I0J9865D01*
G01*
X161417Y66929D02*
G03*
X153543Y59055I0J-7874D01*
G01*
X163386Y64961D02*
G03*
X157480Y59055I0J-5906D01*
G01*
X175039Y64961D02*
G03*
X185039Y74961I0J10000D01*
G01*
X171102Y66929D02*
G03*
X180213Y72807I0J10000D01*
G01*
X180886Y74294D02*
G03*
X181001Y74825I-1173J531D01*
G01*
X181003Y75509D02*
G03*
X181001Y75442I998J-71D01*
G01*
X181102Y82677D02*
G03*
X177165Y86614I-3937J0D01*
G01*
X181100Y76858D02*
G03*
X181102Y76929I-998J71D01*
G01*
X62008Y112222D02*
G03*
X62992Y113206I0J984D01*
G01*
X44980Y137795D02*
G03*
X41043Y133858I0J-3937D01*
G01*
D02*
G03*
X46949Y127953I5906J0D01*
G01*
X208709Y70866D02*
G03*
X216583Y78740I0J7874D01*
G01*
X133858Y161417D02*
G03*
X139006Y156270I5148J0D01*
G01*
X57087Y195669D02*
G03*
X54724Y198031I-2362J0D01*
G01*
X41390Y200787D02*
G03*
X31390Y190787I0J-10000D01*
G01*
X43307Y198031D02*
G03*
X40945Y195669I0J-2362D01*
G01*
X35433Y179429D02*
G03*
X39665Y175197I4232J0D01*
G01*
X31496Y179134D02*
G03*
X35433Y175197I3937J0D01*
G01*
Y179429D02*
G03*
X40945Y184941I0J5512D01*
G01*
X55118Y187008D02*
G03*
X51968Y183858I0J-3150D01*
G01*
X47539Y179429D02*
G03*
X51968Y183858I0J4429D01*
G01*
X66929Y88583D02*
G03*
X68898Y86614I1969J0D01*
G01*
X67716Y88583D02*
G03*
X71653Y92520I0J3937D01*
G01*
X185087Y145621D02*
G03*
X183071Y147638I-2017J0D01*
G01*
X125984Y161575D02*
G03*
X135984Y151575I10000J0D01*
G01*
X155512Y149606D02*
G03*
X153543Y151575I-1969J0D01*
G01*
X155512Y149606D02*
G03*
X157480Y147638I1969J0D01*
G01*
X31496Y184153D02*
G03*
X31449Y184456I-1000J0D01*
G01*
X31390Y184843D02*
G03*
X31449Y184456I1287J0D01*
G01*
X38583Y157480D02*
G03*
X36319Y159744I-2264J0D01*
G01*
X66929Y152362D02*
G03*
X61811Y157480I-5118J0D01*
G01*
X63779Y168504D02*
G03*
X57087Y175197I-6693J0D01*
G01*
X84646Y51181D02*
G03*
X88583Y55118I0J3937D01*
G01*
X72835Y74803D02*
G03*
X76772Y70866I3937J0D01*
G01*
X88583Y68898D02*
G03*
X86614Y70866I-1969J0D01*
G01*
X72835Y82677D02*
G03*
X68898Y86614I-3937J0D01*
G01*
X74803Y51181D02*
G03*
X72835Y49213I0J-1969D01*
G01*
X65765Y99229D02*
G03*
X66929Y100394I0J1164D01*
G01*
X66158Y103560D02*
G03*
X66929Y104331I0J771D01*
G01*
X64584Y107891D02*
G03*
X66929Y110236I0J2345D01*
G01*
X72835Y7874D02*
G03*
X76772Y3937I3937J0D01*
G01*
X161417D02*
G03*
X167165Y9685I0J5748D01*
G01*
X142205Y190787D02*
G03*
X132205Y200787I-10000J0D01*
G01*
X36220Y192913D02*
G03*
X35433Y192126I0J-787D01*
G01*
X45276Y186713D02*
G03*
X48031Y189469I0J2756D01*
G01*
X24606Y103560D02*
G03*
X16929Y95883I0J-7677D01*
G01*
X73228Y105246D02*
G03*
X82205Y96270I8976J0D01*
G01*
X71653Y95669D02*
G03*
X73228Y97244I0J1575D01*
G01*
X75590Y179528D02*
G03*
X68110Y187008I-7480J0D01*
G01*
X73228D02*
G03*
X79921Y193701I0J6693D01*
G01*
X152254Y26270D02*
G03*
X157480Y31496I0J5226D01*
G01*
X151575D02*
G03*
X153543Y33465I0J1969D01*
G01*
X192961Y80551D02*
G03*
X182961Y90551I-10000J0D01*
G01*
X155542Y78770D02*
G03*
X151575Y74803I0J-3967D01*
G01*
X177165Y86614D02*
G03*
X169339Y78788I0J-7826D01*
G01*
X123514Y76270D02*
G03*
X129921Y82677I0J6408D01*
G01*
X200461Y90394D02*
G03*
X190461Y100394I-10000J0D01*
G01*
X167341Y131890D02*
G03*
X177213Y141762I0J9872D01*
G01*
X70079Y192126D02*
G03*
X72835Y194882I0J2756D01*
G01*
X58937Y188272D02*
G03*
X57276Y189558I-1850J-673D01*
G01*
X38583Y166535D02*
G03*
X31890Y173228I-6693J0D01*
G01*
X26377Y167028D02*
G03*
X27559Y168210I0J1182D01*
G01*
X98425Y131890D02*
G03*
X94488Y127953I0J-3937D01*
G01*
X92805Y126270D02*
G03*
X94488Y127953I0J1683D01*
G01*
X90551Y104331D02*
G03*
X94488Y100394I3937J0D01*
G01*
X59055Y179134D02*
G03*
X61024Y177165I1969J0D01*
G01*
X37795Y147638D02*
G03*
X38583Y148425I0J787D01*
G01*
X73228Y174449D02*
G03*
X63228Y184449I-10000J0D01*
G01*
X75590Y112884D02*
G03*
X82205Y106270I6614J0D01*
G01*
X59058Y183650D02*
G03*
X59055Y183575I997J-80D01*
G01*
X59063Y187697D02*
G03*
X58985Y188137I-1287J0D01*
G01*
X59058Y183650D02*
G03*
X59063Y183760I-1283J110D01*
G01*
X57087Y68898D02*
G03*
X55118Y70866I-1969J0D01*
G01*
X62008Y77576D02*
G03*
X61024Y76591I0J-984D01*
G01*
X59072Y90568D02*
G03*
X53150Y84646I0J-5922D01*
G01*
Y72835D02*
G03*
X55118Y70866I1969J0D01*
G01*
X90551Y112205D02*
G03*
X86486Y116270I-4065J0D01*
G01*
X66929Y59055D02*
G03*
X69715Y56270I2785J0D01*
G01*
X68898Y68898D02*
G03*
X71526Y66270I2628J0D01*
G01*
X68898Y79347D02*
G03*
X62008Y86237I-6890J0D01*
G01*
X66929Y76985D02*
G03*
X66925Y77082I-1000J0D01*
G01*
X66839Y78954D02*
G03*
X66276Y80018I-1287J0D01*
G01*
X66839Y78012D02*
G03*
X66843Y77920I1000J5D01*
G01*
X64961Y57087D02*
G03*
X61024Y61024I-3937J0D01*
G01*
X57087Y62992D02*
G03*
X59055Y61024I1969J0D01*
G01*
X79734Y46270D02*
G03*
X76772Y43307I0J-2963D01*
G01*
Y23779D02*
G03*
X86772Y13780I10000J0D01*
G01*
X101073Y26270D02*
G03*
X104331Y29528I0J3258D01*
G01*
X106299Y31496D02*
G03*
X104331Y29528I0J-1969D01*
G01*
X9939Y175197D02*
G03*
X14762Y180020I0J4823D01*
G01*
X21358Y178345D02*
G03*
X19683Y180020I-1675J0D01*
G01*
X133858Y90551D02*
G03*
X129921Y86614I0J-3937D01*
G01*
X177165Y13780D02*
G03*
X181102Y9843I3937J0D01*
G01*
X64961Y29921D02*
Y29921D01*
X57874Y29921D02*
X64961D01*
X50394Y21654D02*
X57874D01*
X64961D01*
Y29921D02*
Y41339D01*
X17874Y132283D02*
X18504D01*
X7874Y142283D02*
Y153937D01*
X21358Y164961D02*
Y178345D01*
Y147638D02*
Y164961D01*
X7874D02*
X21358D01*
X14075Y136713D02*
Y147638D01*
Y136713D02*
X18504Y132283D01*
X82205Y36270D02*
X103199D01*
X106299Y39370D02*
Y39370D01*
X108268Y41339D02*
X139606D01*
X149606Y51339D02*
Y62992D01*
X155512Y68898D02*
X167349D01*
X163386Y64961D02*
X175039D01*
X185039Y74961D02*
Y78740D01*
X181001Y74825D02*
Y75442D01*
X181102Y76929D02*
Y82677D01*
X181003Y75509D02*
X181100Y76858D01*
X180213Y72807D02*
X180886Y74294D01*
X161417Y66929D02*
X171102D01*
X62992Y127953D02*
X66929D01*
X54823D02*
X62992D01*
Y123622D02*
Y127953D01*
Y113206D02*
Y120473D01*
X46949Y127953D02*
X47539D01*
X44980Y137795D02*
X47539D01*
X66929Y127953D02*
Y137795D01*
Y110236D02*
Y127953D01*
Y137795D02*
Y152362D01*
X54823Y137795D02*
X66929D01*
X200787Y70866D02*
X208709D01*
X139006Y156270D02*
X142205D01*
X102362Y181102D02*
Y192913D01*
Y181102D02*
X106299Y177165D01*
X94488Y200787D02*
X125984D01*
X79921D02*
X94488D01*
Y192913D02*
Y200787D01*
X57087Y192126D02*
Y195669D01*
X43307Y198031D02*
X54724D01*
X40945Y184941D02*
Y195669D01*
X55118Y187008D02*
X57087D01*
X45276Y179429D02*
X47539D01*
X66929Y88583D02*
X67716D01*
X66929D02*
Y100394D01*
X41390Y200787D02*
X79921D01*
Y196850D02*
Y200787D01*
X185087Y141762D02*
Y145621D01*
X142205Y166270D02*
Y190787D01*
X157480Y147638D02*
X183071D01*
X135984Y151575D02*
X153543D01*
X35433Y175197D02*
X39665D01*
X31390Y184843D02*
Y190787D01*
X39665Y175197D02*
X45276D01*
Y179429D01*
X31496Y179134D02*
Y184153D01*
X63779Y157480D02*
Y168504D01*
X38583Y157480D02*
X61811D01*
X63779D01*
X26377Y159744D02*
X36319D01*
X45276Y175197D02*
X57087D01*
X74803Y51181D02*
X84646D01*
X76772Y70866D02*
X86614D01*
X88583Y55118D02*
Y68898D01*
X72835Y74803D02*
Y82677D01*
X62008Y99229D02*
X65765D01*
X66929Y100394D02*
Y104331D01*
X62008Y103560D02*
X66158D01*
X66929Y104331D02*
Y110236D01*
X62008Y107891D02*
X64584D01*
X76772Y3937D02*
X161417D01*
X167165Y9685D02*
Y13780D01*
X125984Y200787D02*
X132205D01*
X125984Y161575D02*
Y200787D01*
X72835Y7874D02*
Y49213D01*
X35433Y186713D02*
Y192126D01*
X48031Y189469D02*
Y192913D01*
X16929Y94488D02*
Y95883D01*
X73228Y105246D02*
Y174449D01*
Y97244D02*
Y105246D01*
X62795Y187008D02*
X68110D01*
X73228D01*
X153543Y33465D02*
Y59055D01*
X133858Y90551D02*
X182961D01*
X192961Y78770D02*
Y80551D01*
X200461Y78770D02*
Y90394D01*
X129921Y82677D02*
Y86614D01*
X169339Y78740D02*
Y78788D01*
X155542Y78770D02*
X161465D01*
X142205Y26270D02*
X152254D01*
X157480Y31496D02*
Y59055D01*
X94488Y100394D02*
X190461D01*
X98425Y131890D02*
X167341D01*
X57087Y189567D02*
X57276Y189558D01*
X27559Y173228D02*
X31890D01*
X27559Y168210D02*
Y173228D01*
X82205Y126270D02*
X92805D01*
X24606Y112205D02*
Y112222D01*
X59055Y179134D02*
Y183575D01*
X21358Y147638D02*
X37795D01*
X61024Y177165D02*
X64961D01*
X62795Y192126D02*
X70079D01*
X62795Y184449D02*
X63228D01*
X75590Y112884D02*
Y179528D01*
X59063Y183760D02*
Y187697D01*
X58936Y188272D02*
X58985Y188137D01*
X15748Y112205D02*
X24606D01*
X53150Y72835D02*
Y84646D01*
X59072Y90568D02*
X62008D01*
Y81906D02*
X65051Y80853D01*
X82205Y116270D02*
X86486D01*
X90551Y104331D02*
Y112205D01*
X66929Y59055D02*
Y76985D01*
X66839Y78012D02*
Y78012D01*
Y78954D01*
X68898Y68898D02*
Y79347D01*
X71526Y66270D02*
X82205D01*
X64961Y47835D02*
Y57087D01*
X65051Y80853D02*
X66276Y80018D01*
X66843Y77920D02*
X66925Y77082D01*
X61024Y68898D02*
Y76591D01*
X57087Y62992D02*
Y68898D01*
X59055Y61024D02*
X61024D01*
X69715Y56270D02*
X82205D01*
X79734Y46270D02*
X82205D01*
X76772Y23779D02*
Y43307D01*
X86772Y13780D02*
X157165D01*
X82205Y26270D02*
X101073D01*
X7874Y175197D02*
X9939D01*
X106299Y31496D02*
X151575D01*
X82205Y76270D02*
X123514D01*
X181102Y9843D02*
X187008D01*
D21*
X185087Y141762D02*
D03*
X185039Y78740D02*
D03*
X200461Y78770D02*
D03*
X192961D02*
D03*
X177213Y78762D02*
D03*
X169339Y78740D02*
D03*
X216583D02*
D03*
X161465Y78770D02*
D03*
X208709Y141762D02*
D03*
X208459Y78762D02*
D03*
X161465Y141770D02*
D03*
X168965D02*
D03*
X177213Y141762D02*
D03*
X216583D02*
D03*
D22*
X62992Y123622D02*
D03*
Y120473D02*
D03*
X71653Y95669D02*
D03*
Y92520D02*
D03*
X79921Y196850D02*
D03*
Y193701D02*
D03*
D23*
X64961Y41339D02*
D03*
Y47835D02*
D03*
X187008Y181693D02*
D03*
Y175197D02*
D03*
X31496Y32185D02*
D03*
Y38681D02*
D03*
X214567Y19094D02*
D03*
Y25591D02*
D03*
D24*
X26377Y159744D02*
D03*
Y167028D02*
D03*
X45276Y186713D02*
D03*
Y179429D02*
D03*
X35433Y186713D02*
D03*
Y179429D02*
D03*
D25*
X102362Y192913D02*
D03*
X94488D02*
D03*
D26*
X187008Y190847D02*
D03*
X171358Y33366D02*
D03*
X192913D02*
D03*
X214469D02*
D03*
X31496Y17815D02*
D03*
D27*
X192815Y196850D02*
D03*
X181201D02*
D03*
X177165Y39370D02*
D03*
X165551D02*
D03*
X198721D02*
D03*
X187106D02*
D03*
X208661D02*
D03*
X220276D02*
D03*
X37303Y11811D02*
D03*
X25689D02*
D03*
D28*
X206004Y185039D02*
D03*
X199508D02*
D03*
X206004Y173228D02*
D03*
X199508D02*
D03*
X210039Y155512D02*
D03*
X216535D02*
D03*
X13189Y45276D02*
D03*
X19685D02*
D03*
Y25591D02*
D03*
X13189D02*
D03*
X17717Y61024D02*
D03*
X24213D02*
D03*
D29*
X38583Y166535D02*
D03*
Y157480D02*
D03*
Y148425D02*
D03*
D30*
X63779Y157480D02*
D03*
D31*
X171358Y159350D02*
D03*
X39272Y59055D02*
D03*
D32*
X165354Y165157D02*
D03*
Y153543D02*
D03*
X45276Y64862D02*
D03*
Y53248D02*
D03*
D33*
X54823Y137795D02*
D03*
X47539D02*
D03*
X21358Y147638D02*
D03*
X14075D02*
D03*
X54823Y127953D02*
D03*
X47539D02*
D03*
D34*
X64961Y29921D02*
D03*
Y21654D02*
D03*
D35*
X26967Y192618D02*
D03*
X7478D02*
D03*
D36*
X19683Y180020D02*
D03*
X14762D02*
D03*
D41*
X62008Y77576D02*
D03*
Y112222D02*
D03*
X24606D02*
D03*
Y77576D02*
D03*
D42*
X62008Y81906D02*
D03*
Y86237D02*
D03*
Y90568D02*
D03*
Y94899D02*
D03*
Y99229D02*
D03*
Y103560D02*
D03*
Y107891D02*
D03*
X24606D02*
D03*
Y103560D02*
D03*
Y99229D02*
D03*
Y94899D02*
D03*
Y90568D02*
D03*
Y86237D02*
D03*
Y81906D02*
D03*
D46*
X57087Y192126D02*
D03*
Y189567D02*
D03*
Y187008D02*
D03*
Y184449D02*
D03*
X62795D02*
D03*
Y187008D02*
D03*
Y189567D02*
D03*
Y192126D02*
D03*
D55*
X82205Y166270D02*
D03*
D56*
Y156270D02*
D03*
Y146270D02*
D03*
Y136270D02*
D03*
Y126270D02*
D03*
Y116270D02*
D03*
Y106270D02*
D03*
Y96270D02*
D03*
Y86270D02*
D03*
Y76270D02*
D03*
Y66270D02*
D03*
Y56270D02*
D03*
Y46270D02*
D03*
Y36270D02*
D03*
Y26270D02*
D03*
X142205D02*
D03*
Y36270D02*
D03*
Y46270D02*
D03*
Y56270D02*
D03*
Y66270D02*
D03*
Y76270D02*
D03*
Y86270D02*
D03*
Y96270D02*
D03*
Y106270D02*
D03*
Y116270D02*
D03*
Y126270D02*
D03*
Y136270D02*
D03*
Y146270D02*
D03*
Y156270D02*
D03*
Y166270D02*
D03*
D58*
X9843Y66929D02*
G03*
X15748Y61024I5906J0D01*
G01*
X19842Y107891D02*
G03*
X9843Y97891I0J-10000D01*
G01*
X171358Y33366D02*
G03*
X169291Y31299I0J-2067D01*
G01*
X165551Y29331D02*
G03*
X169291Y25591I3740J0D01*
G01*
D02*
G03*
X177165Y33465I0J7874D01*
G01*
X214567Y33268D02*
G03*
X214469Y33366I-98J0D01*
G01*
X208661Y39370D02*
G03*
X206693Y37402I0J-1969D01*
G01*
Y21654D02*
G03*
X209252Y19094I2559J0D01*
G01*
X190354Y185039D02*
G03*
X187008Y181693I0J-3347D01*
G01*
X199508Y173228D02*
G03*
X197539Y175197I-1969J0D01*
G01*
X206004Y173228D02*
G03*
X210630Y177854I0J4626D01*
G01*
Y180413D02*
G03*
X206004Y185039I-4626J0D01*
G01*
X208709Y141762D02*
G03*
X200865Y149606I-7844J0D01*
G01*
X177008Y159350D02*
G03*
X187008Y169350I0J10000D01*
G01*
Y165512D02*
G03*
X197008Y155512I10000J0D01*
G01*
X222441Y37205D02*
G03*
X220276Y39370I-2165J0D01*
G01*
X153543Y163386D02*
G03*
X163386Y153543I9843J0D01*
G01*
X155315Y165157D02*
G03*
X153543Y163386I0J-1772D01*
G01*
X179134Y196850D02*
G03*
X173228Y190945I0J-5906D01*
G01*
X82520Y136270D02*
G03*
X92520Y146270I0J10000D01*
G01*
X31496Y44980D02*
G03*
X31201Y45276I-295J0D01*
G01*
X39272Y59055D02*
G03*
X31496Y51279I0J-7776D01*
G01*
Y53740D02*
G03*
X24213Y61024I-7283J0D01*
G01*
X13780Y44685D02*
G03*
X13189Y45276I-591J0D01*
G01*
Y25591D02*
G03*
X13780Y26181I0J591D01*
G01*
X49213Y49311D02*
G03*
X45276Y53248I-3937J0D01*
G01*
X37303Y11811D02*
G03*
X41339Y15846I0J4035D01*
G01*
X20472Y11811D02*
X25689D01*
X15748Y61024D02*
X17717D01*
X9843Y66929D02*
Y97891D01*
X19842Y107891D02*
X24606D01*
X165551Y29331D02*
Y39370D01*
X169291Y25591D02*
Y31299D01*
X177165Y33465D02*
Y39370D01*
X214567Y25591D02*
Y33268D01*
X206693Y21654D02*
Y37402D01*
X209252Y19094D02*
X214567D01*
X187008Y181693D02*
Y190847D01*
X190354Y185039D02*
X199508D01*
X187008Y175197D02*
X197539D01*
X206004Y173228D02*
Y174213D01*
X210630Y177854D02*
Y179134D01*
Y180413D01*
X216583Y141762D02*
Y155512D01*
X197008D02*
X210039D01*
X198819Y149606D02*
X200865D01*
X216535Y155512D02*
X216583D01*
X187008Y165512D02*
Y169350D01*
X222441Y25591D02*
Y37205D01*
X163386Y153543D02*
X165354D01*
X155315Y165157D02*
X165354D01*
X181201Y196850D02*
X192815D01*
X171358Y159350D02*
X177008D01*
X187008Y169350D02*
Y175197D01*
X179134Y196850D02*
X181201D01*
X82205Y136270D02*
X82520D01*
X92520Y146270D02*
Y147638D01*
X31496Y38681D02*
Y44980D01*
X19685Y45276D02*
X31201D01*
X31496Y51279D02*
Y53740D01*
Y44980D02*
Y51279D01*
X13780Y35433D02*
Y44685D01*
Y26181D02*
Y35433D01*
X45276Y53248D02*
Y64862D01*
X49213Y41339D02*
Y49311D01*
X31496Y25591D02*
Y32185D01*
Y17815D02*
Y25591D01*
X19685D02*
X31496D01*
X41339Y15846D02*
Y21654D01*
D59*
X57874D02*
D03*
Y29921D02*
D03*
D60*
X7874Y153937D02*
D03*
Y164961D02*
D03*
D61*
X8268Y126378D02*
D03*
X116535Y191732D02*
D03*
X200787Y11811D02*
D03*
D62*
X177165Y13780D02*
D03*
D63*
X167165D02*
D03*
X157165D02*
D03*
D64*
X50394Y21654D02*
D03*
X18504Y132283D02*
D03*
X200787Y70866D02*
D03*
X133858Y161417D02*
D03*
X106299Y177165D02*
D03*
X36220Y192913D02*
D03*
X48031D02*
D03*
X16929Y94488D02*
D03*
X20472Y11811D02*
D03*
X13780Y35433D02*
D03*
X198819Y149606D02*
D03*
X210630Y179134D02*
D03*
X187008Y9843D02*
D03*
X206693Y21654D02*
D03*
X153543Y163386D02*
D03*
X222441Y25591D02*
D03*
X151575Y74803D02*
D03*
X169291Y25591D02*
D03*
X15748Y112205D02*
D03*
X61024Y68898D02*
D03*
X49213Y41339D02*
D03*
X41339Y21654D02*
D03*
X64961Y177165D02*
D03*
X7874Y175197D02*
D03*
X27559Y173228D02*
D03*
X92520Y147638D02*
D03*
X41043Y133858D02*
D03*
X72835Y194882D02*
D03*
X173228Y190945D02*
D03*
M02*
