G04*
G04 #@! TF.GenerationSoftware,Altium Limited,Altium Designer,24.6.1 (21)*
G04*
G04 Layer_Color=32768*
%FSLAX25Y25*%
%MOIN*%
G70*
G04*
G04 #@! TF.SameCoordinates,FB6864B3-348A-4B3C-8FDE-2C751703143F*
G04*
G04*
G04 #@! TF.FilePolarity,Positive*
G04*
G01*
G75*
%ADD13C,0.00394*%
%ADD14C,0.00787*%
%ADD66C,0.00197*%
D13*
X61910Y122047D02*
X64075D01*
X62992Y120965D02*
Y123130D01*
Y44587D02*
X66929D01*
X64961Y42618D02*
Y46555D01*
X70571Y94095D02*
X72736D01*
X71653Y93012D02*
Y95177D01*
X187008Y194882D02*
Y198819D01*
X185039Y196850D02*
X188976D01*
X202756Y183071D02*
Y187008D01*
X200787Y185039D02*
X204724D01*
X185039Y178445D02*
X188976D01*
X187008Y176476D02*
Y180413D01*
X163386Y159350D02*
X167323D01*
X165354Y157382D02*
Y161319D01*
X202756Y171260D02*
Y175197D01*
X200787Y173228D02*
X204724D01*
X213287Y153543D02*
Y157480D01*
X211319Y155512D02*
X215256D01*
X171358Y37402D02*
Y41339D01*
X169390Y39370D02*
X173327D01*
X192913Y37402D02*
Y41339D01*
X190945Y39370D02*
X194882D01*
X212500D02*
X216437D01*
X214469Y37402D02*
Y41339D01*
X29528Y35433D02*
X33465D01*
X31496Y33465D02*
Y37402D01*
X16437Y43307D02*
Y47244D01*
X14469Y45276D02*
X18406D01*
X16437Y23622D02*
Y27559D01*
X14469Y25591D02*
X18406D01*
X18996Y61024D02*
X22933D01*
X20965Y59055D02*
Y62992D01*
X45276Y57087D02*
Y61024D01*
X43307Y59055D02*
X47244D01*
X29528Y11811D02*
X33465D01*
X31496Y9843D02*
Y13780D01*
X64961Y24803D02*
Y26772D01*
X63976Y25787D02*
X65945D01*
X214567Y20374D02*
Y24311D01*
X212598Y22343D02*
X216535D01*
X78839Y195276D02*
X81004D01*
X79921Y194193D02*
Y196358D01*
D14*
X22243Y157087D02*
Y169685D01*
X30511D01*
Y157087D02*
Y169685D01*
X22243Y157087D02*
X30511D01*
X20669Y73442D02*
X65945D01*
X20669D02*
Y116355D01*
X65945D01*
Y73442D02*
Y116355D01*
X76811Y181663D02*
X147598D01*
Y3376D02*
Y181663D01*
X76811Y3376D02*
X147598D01*
X76811D02*
Y181663D01*
X53839Y181201D02*
Y195374D01*
Y181201D02*
X66043D01*
Y195374D01*
X53839D02*
X66043D01*
X35236Y171063D02*
X67126D01*
Y143898D02*
Y171063D01*
X35236Y143898D02*
X67126D01*
X35236D02*
Y171063D01*
X41142Y176772D02*
X49409D01*
Y189370D01*
X41142D02*
X49409D01*
X41142Y176772D02*
Y189370D01*
X31299Y176772D02*
X39567D01*
Y189370D01*
X31299D02*
X39567D01*
X31299Y176772D02*
Y189370D01*
X44882Y133661D02*
X57480D01*
X44882D02*
Y141929D01*
X57480D01*
Y133661D02*
Y141929D01*
X11417Y143504D02*
X24016D01*
X11417D02*
Y151772D01*
X24016D01*
Y143504D02*
Y151772D01*
X5116Y176279D02*
X29329D01*
X5116D02*
Y198327D01*
X29329D01*
Y176279D02*
Y198327D01*
X44882Y123819D02*
X57480D01*
X44882D02*
Y132087D01*
X57480D01*
Y123819D02*
Y132087D01*
D66*
X64567Y119095D02*
Y125000D01*
X61417Y119095D02*
Y125000D01*
X64567D01*
X61417Y119095D02*
X64567D01*
X61614Y39272D02*
Y49902D01*
X68307Y39272D02*
Y49902D01*
X61614Y39272D02*
X68307D01*
X61614Y49902D02*
X68307D01*
X73228Y91142D02*
Y97047D01*
X70079Y91142D02*
Y97047D01*
X73228D01*
X70079Y91142D02*
X73228D01*
X150787Y7697D02*
X183543D01*
X150787D02*
Y19862D01*
X183543D01*
Y7697D02*
Y19862D01*
X178740Y202362D02*
X195276D01*
X178740Y188386D02*
Y202362D01*
X195276Y188386D02*
Y202362D01*
X178740Y188386D02*
X195276D01*
X197441Y181693D02*
X208071D01*
X197441Y188386D02*
X208071D01*
Y181693D02*
Y188386D01*
X197441Y181693D02*
Y188386D01*
X190354Y173130D02*
Y183760D01*
X183661Y173130D02*
Y183760D01*
X190354D01*
X183661Y173130D02*
X190354D01*
X159843Y151083D02*
Y167618D01*
Y151083D02*
X173819D01*
X159843Y167618D02*
X173819D01*
Y151083D02*
Y167618D01*
X197441Y169882D02*
X208071D01*
X197441Y176575D02*
X208071D01*
Y169882D02*
Y176575D01*
X197441Y169882D02*
Y176575D01*
X207972Y158858D02*
X218602D01*
X207972Y152165D02*
X218602D01*
X207972D02*
Y158858D01*
X218602Y152165D02*
Y158858D01*
X163091Y44882D02*
X179626D01*
X163091Y30906D02*
Y44882D01*
X179626Y30906D02*
Y44882D01*
X163091Y30906D02*
X179626D01*
X184646Y44882D02*
X201181D01*
X184646Y30906D02*
Y44882D01*
X201181Y30906D02*
Y44882D01*
X184646Y30906D02*
X201181D01*
X206201D02*
X222736D01*
Y44882D01*
X206201Y30906D02*
Y44882D01*
X222736D01*
X28150Y30118D02*
Y40748D01*
X34843Y30118D02*
Y40748D01*
X28150Y30118D02*
X34843D01*
X28150Y40748D02*
X34843D01*
X11122Y48622D02*
X21752D01*
X11122Y41929D02*
X21752D01*
X11122D02*
Y48622D01*
X21752Y41929D02*
Y48622D01*
X11122Y22244D02*
X21752D01*
X11122Y28937D02*
X21752D01*
Y22244D02*
Y28937D01*
X11122Y22244D02*
Y28937D01*
X15650Y57677D02*
Y64370D01*
X26280Y57677D02*
Y64370D01*
X15650D02*
X26280D01*
X15650Y57677D02*
X26280D01*
X36811Y50787D02*
Y67323D01*
Y50787D02*
X50787D01*
X36811Y67323D02*
X50787D01*
Y50787D02*
Y67323D01*
X23228Y20276D02*
X39764D01*
X23228Y6299D02*
Y20276D01*
X39764Y6299D02*
Y20276D01*
X23228Y6299D02*
X39764D01*
X67716Y18898D02*
Y32677D01*
X62205D02*
X67716D01*
X62205Y18898D02*
Y32677D01*
Y18898D02*
X67716D01*
X211221Y17028D02*
X217913D01*
X211221Y27657D02*
X217913D01*
X211221Y17028D02*
Y27657D01*
X217913Y17028D02*
Y27657D01*
X81496Y192323D02*
Y198228D01*
X78347Y192323D02*
Y198228D01*
X81496D01*
X78347Y192323D02*
X81496D01*
M02*
