M48
;Layer_Color=9474304
;FILE_FORMAT=2:4
INCH,TZ
;TYPE=PLATED
T01F00S00C0.0276
T02F00S00C0.0280
T03F00S00C0.0360
T04F00S00C0.0433
T05F00S00C0.0591
T06F00S00C0.1181
%
T01
X5787Y2165
Y2992
T02
X20669Y2165
X18701Y984
X5039Y2165
X4134
X2047Y1181
X1378Y3543
X4921Y4134
X1693Y9449
X1575Y11220
X1850Y13228
X4104Y13386
X2756Y17323
X787Y17520
X6496Y17717
X10630
X13386Y16142
X15354Y16339
X19882Y14961
X20079Y7087
X15157Y7480
X16929Y2559
X6102Y6890
X9252Y14764
X21063Y17913
X22244Y2559
X17323Y19094
X7283Y19488
X4803Y19291
X3622
T03
X8220Y2627
Y3627
Y4627
Y5627
Y6627
Y7627
Y8627
Y9627
Y10627
Y11627
Y12627
Y13627
Y14627
Y15627
Y16627
X14220
Y15627
Y14627
Y13627
Y12627
Y11627
Y10627
Y9627
Y8627
Y7627
Y6627
Y5627
Y4627
Y3627
Y2627
T04
X15717Y1378
X16717
X17717
T05
X787Y15394
Y16496
T06
X20079Y1181
X827Y12638
X11654Y19173
M30
