G04*
G04 #@! TF.GenerationSoftware,Altium Limited,Altium Designer,24.6.1 (21)*
G04*
G04 Layer_Color=16711935*
%FSLAX25Y25*%
%MOIN*%
G70*
G04*
G04 #@! TF.SameCoordinates,FB6864B3-348A-4B3C-8FDE-2C751703143F*
G04*
G04*
G04 #@! TF.FilePolarity,Positive*
G04*
G01*
G75*
%ADD14C,0.00787*%
G36*
X26336Y165856D02*
X26331D01*
X26317D01*
X26295D01*
X26268Y165859D01*
X26235Y165862D01*
X26199Y165870D01*
X26161Y165878D01*
X26123Y165892D01*
X26120D01*
X26115Y165895D01*
X26107Y165897D01*
X26093Y165903D01*
X26079Y165911D01*
X26060Y165919D01*
X26017Y165941D01*
X25965Y165968D01*
X25907Y166004D01*
X25847Y166045D01*
X25787Y166094D01*
X25785Y166097D01*
X25779Y166099D01*
X25771Y166108D01*
X25757Y166121D01*
X25744Y166135D01*
X25725Y166154D01*
X25703Y166173D01*
X25678Y166198D01*
X25651Y166225D01*
X25624Y166255D01*
X25591Y166288D01*
X25558Y166326D01*
X25523Y166364D01*
X25487Y166408D01*
X25449Y166452D01*
X25408Y166501D01*
X25405Y166506D01*
X25392Y166520D01*
X25375Y166539D01*
X25350Y166566D01*
X25323Y166599D01*
X25291Y166637D01*
X25255Y166681D01*
X25214Y166725D01*
X25129Y166817D01*
X25039Y166908D01*
X24996Y166951D01*
X24952Y166992D01*
X24911Y167028D01*
X24873Y167058D01*
X24870Y167060D01*
X24865Y167063D01*
X24854Y167071D01*
X24840Y167079D01*
X24821Y167093D01*
X24802Y167104D01*
X24753Y167131D01*
X24695Y167159D01*
X24633Y167183D01*
X24567Y167200D01*
X24534Y167202D01*
X24501Y167205D01*
X24499D01*
X24493D01*
X24482D01*
X24472Y167202D01*
X24455D01*
X24436Y167197D01*
X24395Y167189D01*
X24346Y167172D01*
X24294Y167148D01*
X24267Y167134D01*
X24242Y167115D01*
X24218Y167096D01*
X24193Y167071D01*
X24190Y167069D01*
X24187Y167066D01*
X24182Y167058D01*
X24174Y167047D01*
X24163Y167033D01*
X24152Y167017D01*
X24127Y166979D01*
X24106Y166927D01*
X24084Y166869D01*
X24070Y166801D01*
X24065Y166763D01*
Y166703D01*
X24067Y166686D01*
Y166667D01*
X24073Y166645D01*
X24081Y166596D01*
X24098Y166539D01*
X24122Y166479D01*
X24138Y166449D01*
X24155Y166419D01*
X24177Y166392D01*
X24201Y166364D01*
X24204Y166361D01*
X24207Y166359D01*
X24215Y166353D01*
X24226Y166342D01*
X24239Y166334D01*
X24256Y166323D01*
X24275Y166310D01*
X24297Y166299D01*
X24321Y166285D01*
X24349Y166274D01*
X24414Y166252D01*
X24485Y166236D01*
X24526Y166233D01*
X24570Y166230D01*
X24537Y165914D01*
X24532D01*
X24521Y165917D01*
X24504Y165919D01*
X24480Y165922D01*
X24450Y165927D01*
X24414Y165936D01*
X24376Y165944D01*
X24335Y165957D01*
X24294Y165971D01*
X24248Y165988D01*
X24204Y166009D01*
X24160Y166031D01*
X24114Y166058D01*
X24073Y166088D01*
X24032Y166121D01*
X23996Y166159D01*
X23994Y166162D01*
X23988Y166170D01*
X23980Y166181D01*
X23966Y166198D01*
X23953Y166219D01*
X23936Y166247D01*
X23920Y166277D01*
X23901Y166312D01*
X23885Y166351D01*
X23868Y166394D01*
X23852Y166441D01*
X23838Y166492D01*
X23824Y166547D01*
X23816Y166604D01*
X23811Y166667D01*
X23808Y166733D01*
Y166768D01*
X23811Y166793D01*
X23813Y166823D01*
X23819Y166858D01*
X23824Y166899D01*
X23833Y166940D01*
X23844Y166987D01*
X23857Y167033D01*
X23874Y167082D01*
X23893Y167129D01*
X23917Y167178D01*
X23945Y167224D01*
X23975Y167268D01*
X24010Y167309D01*
X24013Y167312D01*
X24018Y167317D01*
X24032Y167328D01*
X24046Y167342D01*
X24065Y167358D01*
X24089Y167377D01*
X24117Y167396D01*
X24149Y167415D01*
X24182Y167434D01*
X24220Y167454D01*
X24261Y167473D01*
X24305Y167489D01*
X24354Y167503D01*
X24403Y167514D01*
X24455Y167519D01*
X24510Y167522D01*
X24512D01*
X24515D01*
X24523D01*
X24534D01*
X24564Y167519D01*
X24602Y167514D01*
X24649Y167505D01*
X24698Y167494D01*
X24753Y167481D01*
X24807Y167459D01*
X24810D01*
X24813Y167456D01*
X24821Y167454D01*
X24832Y167448D01*
X24862Y167432D01*
X24900Y167410D01*
X24947Y167380D01*
X24998Y167344D01*
X25053Y167303D01*
X25113Y167252D01*
X25116Y167249D01*
X25121Y167246D01*
X25129Y167235D01*
X25143Y167224D01*
X25159Y167208D01*
X25179Y167189D01*
X25203Y167167D01*
X25228Y167139D01*
X25258Y167107D01*
X25291Y167071D01*
X25329Y167033D01*
X25367Y166989D01*
X25411Y166943D01*
X25454Y166891D01*
X25503Y166834D01*
X25555Y166774D01*
X25558Y166771D01*
X25566Y166763D01*
X25577Y166746D01*
X25594Y166730D01*
X25613Y166706D01*
X25634Y166681D01*
X25684Y166624D01*
X25735Y166563D01*
X25790Y166506D01*
X25815Y166479D01*
X25837Y166454D01*
X25858Y166432D01*
X25875Y166416D01*
X25877Y166413D01*
X25888Y166402D01*
X25905Y166389D01*
X25927Y166370D01*
X25951Y166348D01*
X25978Y166326D01*
X26039Y166282D01*
Y167525D01*
X26336D01*
Y165856D01*
D02*
G37*
G36*
X25555Y165608D02*
X25574Y165603D01*
X25604Y165592D01*
X25637Y165581D01*
X25678Y165564D01*
X25722Y165548D01*
X25768Y165526D01*
X25820Y165501D01*
X25869Y165474D01*
X25924Y165444D01*
X25976Y165409D01*
X26025Y165371D01*
X26074Y165330D01*
X26120Y165283D01*
X26164Y165234D01*
X26167Y165231D01*
X26172Y165220D01*
X26183Y165207D01*
X26197Y165185D01*
X26213Y165160D01*
X26232Y165128D01*
X26251Y165092D01*
X26270Y165048D01*
X26290Y165002D01*
X26309Y164953D01*
X26328Y164898D01*
X26344Y164838D01*
X26358Y164775D01*
X26369Y164710D01*
X26374Y164642D01*
X26377Y164568D01*
Y164530D01*
X26374Y164500D01*
X26371Y164467D01*
X26369Y164426D01*
X26363Y164382D01*
X26355Y164333D01*
X26347Y164281D01*
X26336Y164227D01*
X26322Y164172D01*
X26309Y164117D01*
X26290Y164060D01*
X26268Y164005D01*
X26243Y163954D01*
X26213Y163905D01*
X26210Y163902D01*
X26205Y163894D01*
X26197Y163880D01*
X26183Y163864D01*
X26164Y163842D01*
X26145Y163817D01*
X26120Y163790D01*
X26090Y163760D01*
X26058Y163730D01*
X26022Y163697D01*
X25984Y163667D01*
X25940Y163634D01*
X25894Y163601D01*
X25845Y163571D01*
X25790Y163544D01*
X25733Y163517D01*
X25730Y163514D01*
X25719Y163511D01*
X25700Y163506D01*
X25678Y163498D01*
X25648Y163487D01*
X25615Y163476D01*
X25574Y163465D01*
X25531Y163451D01*
X25482Y163440D01*
X25430Y163427D01*
X25375Y163416D01*
X25315Y163408D01*
X25189Y163391D01*
X25124Y163389D01*
X25058Y163386D01*
X25053D01*
X25042D01*
X25020D01*
X24993Y163389D01*
X24957Y163391D01*
X24916Y163394D01*
X24873Y163399D01*
X24824Y163405D01*
X24772Y163413D01*
X24717Y163421D01*
X24600Y163449D01*
X24542Y163468D01*
X24485Y163487D01*
X24425Y163509D01*
X24370Y163536D01*
X24368Y163539D01*
X24357Y163544D01*
X24343Y163552D01*
X24321Y163563D01*
X24297Y163580D01*
X24269Y163599D01*
X24239Y163621D01*
X24204Y163645D01*
X24171Y163675D01*
X24133Y163705D01*
X24098Y163741D01*
X24059Y163779D01*
X24024Y163820D01*
X23988Y163864D01*
X23956Y163913D01*
X23925Y163962D01*
X23923Y163964D01*
X23920Y163976D01*
X23912Y163989D01*
X23901Y164011D01*
X23890Y164035D01*
X23876Y164068D01*
X23863Y164104D01*
X23849Y164142D01*
X23835Y164186D01*
X23822Y164235D01*
X23808Y164284D01*
X23797Y164339D01*
X23778Y164451D01*
X23775Y164511D01*
X23773Y164573D01*
Y164609D01*
X23775Y164636D01*
X23778Y164669D01*
X23784Y164707D01*
X23789Y164748D01*
X23797Y164795D01*
X23808Y164844D01*
X23819Y164895D01*
X23835Y164947D01*
X23855Y165002D01*
X23876Y165057D01*
X23904Y165108D01*
X23931Y165160D01*
X23966Y165209D01*
X23969Y165212D01*
X23975Y165220D01*
X23986Y165234D01*
X24002Y165250D01*
X24021Y165272D01*
X24046Y165297D01*
X24073Y165321D01*
X24106Y165351D01*
X24141Y165381D01*
X24182Y165411D01*
X24226Y165442D01*
X24275Y165469D01*
X24327Y165499D01*
X24384Y165523D01*
X24444Y165548D01*
X24507Y165570D01*
X24583Y165242D01*
X24581D01*
X24573Y165237D01*
X24556Y165234D01*
X24537Y165226D01*
X24515Y165218D01*
X24491Y165204D01*
X24430Y165177D01*
X24365Y165141D01*
X24297Y165095D01*
X24234Y165046D01*
X24207Y165016D01*
X24182Y164986D01*
X24179Y164983D01*
X24177Y164977D01*
X24171Y164969D01*
X24163Y164955D01*
X24152Y164939D01*
X24141Y164920D01*
X24130Y164898D01*
X24119Y164871D01*
X24108Y164841D01*
X24098Y164811D01*
X24076Y164740D01*
X24062Y164658D01*
X24057Y164614D01*
Y164541D01*
X24059Y164519D01*
X24062Y164494D01*
X24065Y164464D01*
X24067Y164431D01*
X24073Y164399D01*
X24092Y164319D01*
X24117Y164237D01*
X24133Y164197D01*
X24152Y164156D01*
X24174Y164117D01*
X24198Y164079D01*
X24201Y164076D01*
X24204Y164071D01*
X24212Y164060D01*
X24223Y164046D01*
X24237Y164033D01*
X24256Y164014D01*
X24275Y163995D01*
X24297Y163973D01*
X24324Y163951D01*
X24351Y163926D01*
X24414Y163883D01*
X24488Y163842D01*
X24573Y163806D01*
X24575D01*
X24583Y163804D01*
X24597Y163798D01*
X24613Y163795D01*
X24635Y163790D01*
X24660Y163782D01*
X24690Y163776D01*
X24720Y163768D01*
X24755Y163760D01*
X24794Y163754D01*
X24875Y163741D01*
X24963Y163733D01*
X25056Y163730D01*
X25058D01*
X25069D01*
X25086D01*
X25110Y163733D01*
X25138D01*
X25170Y163735D01*
X25206Y163738D01*
X25247Y163741D01*
X25291Y163746D01*
X25334Y163752D01*
X25430Y163768D01*
X25525Y163793D01*
X25618Y163823D01*
X25621D01*
X25629Y163828D01*
X25640Y163833D01*
X25656Y163839D01*
X25678Y163850D01*
X25700Y163864D01*
X25752Y163894D01*
X25812Y163935D01*
X25869Y163984D01*
X25927Y164044D01*
X25951Y164076D01*
X25976Y164112D01*
Y164115D01*
X25981Y164120D01*
X25987Y164131D01*
X25995Y164147D01*
X26003Y164167D01*
X26014Y164188D01*
X26022Y164213D01*
X26033Y164240D01*
X26055Y164303D01*
X26074Y164377D01*
X26088Y164456D01*
X26090Y164497D01*
X26093Y164541D01*
Y164568D01*
X26090Y164587D01*
X26088Y164612D01*
X26085Y164639D01*
X26079Y164672D01*
X26074Y164704D01*
X26055Y164781D01*
X26041Y164819D01*
X26025Y164860D01*
X26006Y164901D01*
X25984Y164939D01*
X25959Y164977D01*
X25932Y165016D01*
X25929Y165018D01*
X25924Y165024D01*
X25916Y165035D01*
X25902Y165048D01*
X25886Y165062D01*
X25864Y165081D01*
X25839Y165100D01*
X25812Y165122D01*
X25779Y165144D01*
X25744Y165166D01*
X25705Y165188D01*
X25662Y165209D01*
X25615Y165228D01*
X25563Y165248D01*
X25509Y165267D01*
X25451Y165280D01*
X25536Y165613D01*
X25542D01*
X25555Y165608D01*
D02*
G37*
G36*
X43307Y92379D02*
X42807D01*
X42210Y94164D01*
Y94167D01*
X42207Y94175D01*
X42202Y94189D01*
X42196Y94205D01*
X42191Y94224D01*
X42182Y94249D01*
X42163Y94304D01*
X42144Y94364D01*
X42125Y94426D01*
X42106Y94484D01*
X42098Y94511D01*
X42090Y94536D01*
Y94533D01*
X42087Y94530D01*
X42084Y94522D01*
X42081Y94511D01*
X42076Y94495D01*
X42070Y94478D01*
X42065Y94456D01*
X42057Y94435D01*
X42049Y94407D01*
X42038Y94377D01*
X42027Y94345D01*
X42016Y94306D01*
X42002Y94268D01*
X41989Y94224D01*
X41972Y94181D01*
X41956Y94132D01*
X41350Y92379D01*
X40899D01*
Y94899D01*
X41221D01*
Y92788D01*
X41958Y94899D01*
X42259D01*
X42985Y92753D01*
Y94899D01*
X43307D01*
Y92379D01*
D02*
G37*
G36*
X40364D02*
X39425D01*
X39398Y92382D01*
X39365D01*
X39332Y92384D01*
X39259Y92387D01*
X39185Y92395D01*
X39111Y92404D01*
X39078Y92412D01*
X39048Y92417D01*
X39046D01*
X39037Y92420D01*
X39026Y92423D01*
X39013Y92428D01*
X38994Y92434D01*
X38972Y92439D01*
X38920Y92458D01*
X38863Y92483D01*
X38803Y92513D01*
X38740Y92551D01*
X38680Y92597D01*
X38677Y92600D01*
X38672Y92606D01*
X38661Y92614D01*
X38647Y92627D01*
X38631Y92644D01*
X38612Y92665D01*
X38590Y92687D01*
X38568Y92715D01*
X38543Y92745D01*
X38519Y92778D01*
X38494Y92813D01*
X38470Y92851D01*
X38423Y92936D01*
X38382Y93029D01*
Y93031D01*
X38377Y93040D01*
X38374Y93056D01*
X38366Y93075D01*
X38358Y93100D01*
X38350Y93130D01*
X38341Y93162D01*
X38330Y93201D01*
X38322Y93244D01*
X38314Y93291D01*
X38306Y93340D01*
X38298Y93392D01*
X38289Y93446D01*
X38287Y93504D01*
X38281Y93626D01*
Y93629D01*
Y93640D01*
Y93654D01*
Y93676D01*
X38284Y93700D01*
Y93730D01*
X38287Y93763D01*
X38289Y93799D01*
X38298Y93878D01*
X38311Y93962D01*
X38328Y94050D01*
X38350Y94137D01*
Y94140D01*
X38352Y94148D01*
X38358Y94159D01*
X38360Y94173D01*
X38369Y94192D01*
X38377Y94213D01*
X38396Y94265D01*
X38420Y94323D01*
X38451Y94385D01*
X38483Y94446D01*
X38521Y94503D01*
Y94506D01*
X38527Y94508D01*
X38532Y94516D01*
X38541Y94527D01*
X38560Y94552D01*
X38590Y94585D01*
X38622Y94623D01*
X38661Y94661D01*
X38704Y94697D01*
X38751Y94732D01*
X38754D01*
X38756Y94735D01*
X38773Y94746D01*
X38800Y94760D01*
X38835Y94779D01*
X38879Y94798D01*
X38931Y94819D01*
X38991Y94839D01*
X39054Y94858D01*
X39057D01*
X39062Y94861D01*
X39070D01*
X39084Y94863D01*
X39100Y94866D01*
X39122Y94871D01*
X39144Y94874D01*
X39169Y94877D01*
X39228Y94885D01*
X39297Y94893D01*
X39373Y94896D01*
X39455Y94899D01*
X40364D01*
Y92379D01*
D02*
G37*
G36*
X37989Y94893D02*
Y94880D01*
Y94858D01*
X37986Y94830D01*
X37984Y94798D01*
X37975Y94762D01*
X37967Y94724D01*
X37954Y94686D01*
Y94683D01*
X37951Y94678D01*
X37948Y94669D01*
X37943Y94656D01*
X37934Y94642D01*
X37926Y94623D01*
X37905Y94579D01*
X37877Y94527D01*
X37842Y94470D01*
X37801Y94410D01*
X37752Y94350D01*
X37749Y94347D01*
X37746Y94342D01*
X37738Y94334D01*
X37724Y94320D01*
X37711Y94306D01*
X37692Y94287D01*
X37672Y94265D01*
X37648Y94241D01*
X37620Y94213D01*
X37591Y94186D01*
X37558Y94153D01*
X37519Y94121D01*
X37481Y94085D01*
X37438Y94050D01*
X37394Y94011D01*
X37345Y93971D01*
X37339Y93968D01*
X37326Y93954D01*
X37307Y93938D01*
X37279Y93913D01*
X37247Y93886D01*
X37208Y93853D01*
X37165Y93818D01*
X37121Y93777D01*
X37028Y93692D01*
X36938Y93602D01*
X36894Y93558D01*
X36853Y93515D01*
X36818Y93474D01*
X36788Y93435D01*
X36785Y93433D01*
X36782Y93427D01*
X36774Y93416D01*
X36766Y93403D01*
X36752Y93384D01*
X36742Y93364D01*
X36714Y93315D01*
X36687Y93258D01*
X36662Y93195D01*
X36646Y93130D01*
X36643Y93097D01*
X36641Y93064D01*
Y93061D01*
Y93056D01*
Y93045D01*
X36643Y93034D01*
Y93018D01*
X36649Y92999D01*
X36657Y92958D01*
X36673Y92909D01*
X36698Y92857D01*
X36711Y92829D01*
X36731Y92805D01*
X36750Y92780D01*
X36774Y92756D01*
X36777Y92753D01*
X36780Y92750D01*
X36788Y92745D01*
X36799Y92737D01*
X36812Y92726D01*
X36829Y92715D01*
X36867Y92690D01*
X36919Y92668D01*
X36976Y92646D01*
X37045Y92633D01*
X37083Y92627D01*
X37143D01*
X37159Y92630D01*
X37178D01*
X37200Y92636D01*
X37249Y92644D01*
X37307Y92660D01*
X37367Y92685D01*
X37397Y92701D01*
X37427Y92717D01*
X37454Y92739D01*
X37481Y92764D01*
X37484Y92767D01*
X37487Y92769D01*
X37492Y92778D01*
X37503Y92788D01*
X37511Y92802D01*
X37522Y92818D01*
X37536Y92838D01*
X37547Y92859D01*
X37560Y92884D01*
X37571Y92911D01*
X37593Y92977D01*
X37610Y93048D01*
X37612Y93089D01*
X37615Y93132D01*
X37932Y93100D01*
Y93094D01*
X37929Y93083D01*
X37926Y93067D01*
X37924Y93042D01*
X37918Y93012D01*
X37910Y92977D01*
X37902Y92939D01*
X37888Y92898D01*
X37874Y92857D01*
X37858Y92810D01*
X37836Y92767D01*
X37814Y92723D01*
X37787Y92677D01*
X37757Y92636D01*
X37724Y92595D01*
X37686Y92559D01*
X37683Y92556D01*
X37675Y92551D01*
X37664Y92543D01*
X37648Y92529D01*
X37626Y92515D01*
X37599Y92499D01*
X37569Y92483D01*
X37533Y92463D01*
X37495Y92447D01*
X37451Y92431D01*
X37405Y92414D01*
X37353Y92401D01*
X37298Y92387D01*
X37241Y92379D01*
X37178Y92373D01*
X37113Y92371D01*
X37077D01*
X37053Y92373D01*
X37023Y92376D01*
X36987Y92382D01*
X36946Y92387D01*
X36905Y92395D01*
X36859Y92406D01*
X36812Y92420D01*
X36763Y92436D01*
X36717Y92455D01*
X36668Y92480D01*
X36621Y92507D01*
X36578Y92537D01*
X36537Y92573D01*
X36534Y92576D01*
X36529Y92581D01*
X36518Y92595D01*
X36504Y92608D01*
X36488Y92627D01*
X36468Y92652D01*
X36449Y92679D01*
X36430Y92712D01*
X36411Y92745D01*
X36392Y92783D01*
X36373Y92824D01*
X36357Y92868D01*
X36343Y92917D01*
X36332Y92966D01*
X36327Y93018D01*
X36324Y93072D01*
Y93075D01*
Y93078D01*
Y93086D01*
Y93097D01*
X36327Y93127D01*
X36332Y93165D01*
X36340Y93212D01*
X36351Y93261D01*
X36365Y93315D01*
X36387Y93370D01*
Y93373D01*
X36389Y93375D01*
X36392Y93384D01*
X36397Y93395D01*
X36414Y93424D01*
X36436Y93463D01*
X36466Y93509D01*
X36501Y93561D01*
X36542Y93616D01*
X36594Y93676D01*
X36597Y93678D01*
X36599Y93684D01*
X36610Y93692D01*
X36621Y93706D01*
X36638Y93722D01*
X36657Y93741D01*
X36679Y93766D01*
X36706Y93790D01*
X36739Y93820D01*
X36774Y93853D01*
X36812Y93891D01*
X36856Y93929D01*
X36903Y93973D01*
X36954Y94017D01*
X37012Y94066D01*
X37072Y94118D01*
X37075Y94121D01*
X37083Y94129D01*
X37099Y94140D01*
X37115Y94156D01*
X37140Y94175D01*
X37165Y94197D01*
X37222Y94246D01*
X37282Y94298D01*
X37339Y94353D01*
X37367Y94377D01*
X37391Y94399D01*
X37413Y94421D01*
X37429Y94437D01*
X37432Y94440D01*
X37443Y94451D01*
X37457Y94467D01*
X37476Y94489D01*
X37498Y94514D01*
X37519Y94541D01*
X37563Y94601D01*
X36321D01*
Y94899D01*
X37989D01*
Y94893D01*
D02*
G37*
G36*
X114613Y91779D02*
X114290D01*
Y93889D01*
X113553Y91779D01*
X113253D01*
X112527Y93924D01*
Y91779D01*
X112205D01*
Y94298D01*
X112704D01*
X113302Y92513D01*
Y92510D01*
X113305Y92502D01*
X113310Y92488D01*
X113316Y92472D01*
X113321Y92453D01*
X113330Y92428D01*
X113349Y92374D01*
X113368Y92314D01*
X113387Y92251D01*
X113406Y92194D01*
X113414Y92166D01*
X113422Y92142D01*
Y92144D01*
X113425Y92147D01*
X113428Y92155D01*
X113431Y92166D01*
X113436Y92183D01*
X113441Y92199D01*
X113447Y92221D01*
X113455Y92243D01*
X113463Y92270D01*
X113474Y92300D01*
X113485Y92333D01*
X113496Y92371D01*
X113510Y92409D01*
X113523Y92453D01*
X113540Y92497D01*
X113556Y92546D01*
X114162Y94298D01*
X114613D01*
Y91779D01*
D02*
G37*
G36*
X118729D02*
X118421D01*
Y93747D01*
X118415Y93741D01*
X118402Y93728D01*
X118377Y93709D01*
X118342Y93681D01*
X118301Y93649D01*
X118249Y93613D01*
X118192Y93575D01*
X118126Y93534D01*
X118123D01*
X118118Y93528D01*
X118110Y93523D01*
X118096Y93518D01*
X118080Y93507D01*
X118061Y93498D01*
X118017Y93474D01*
X117968Y93449D01*
X117913Y93422D01*
X117856Y93397D01*
X117801Y93376D01*
Y93673D01*
X117804Y93676D01*
X117812Y93679D01*
X117826Y93687D01*
X117845Y93695D01*
X117867Y93706D01*
X117894Y93722D01*
X117924Y93739D01*
X117954Y93755D01*
X118025Y93799D01*
X118102Y93851D01*
X118181Y93905D01*
X118254Y93968D01*
X118257Y93971D01*
X118263Y93976D01*
X118273Y93984D01*
X118287Y93998D01*
X118301Y94014D01*
X118320Y94031D01*
X118361Y94077D01*
X118407Y94126D01*
X118454Y94184D01*
X118495Y94244D01*
X118530Y94307D01*
X118729D01*
Y91779D01*
D02*
G37*
G36*
X116114Y94296D02*
X116147D01*
X116180Y94293D01*
X116253Y94290D01*
X116327Y94282D01*
X116401Y94274D01*
X116434Y94266D01*
X116463Y94260D01*
X116466D01*
X116474Y94257D01*
X116485Y94255D01*
X116499Y94249D01*
X116518Y94244D01*
X116540Y94238D01*
X116592Y94219D01*
X116649Y94195D01*
X116709Y94165D01*
X116772Y94126D01*
X116832Y94080D01*
X116835Y94077D01*
X116840Y94072D01*
X116851Y94064D01*
X116865Y94050D01*
X116881Y94034D01*
X116900Y94012D01*
X116922Y93990D01*
X116944Y93963D01*
X116969Y93932D01*
X116993Y93900D01*
X117018Y93864D01*
X117042Y93826D01*
X117089Y93741D01*
X117130Y93649D01*
Y93646D01*
X117135Y93638D01*
X117138Y93621D01*
X117146Y93602D01*
X117154Y93578D01*
X117162Y93548D01*
X117171Y93515D01*
X117182Y93477D01*
X117190Y93433D01*
X117198Y93387D01*
X117206Y93337D01*
X117214Y93286D01*
X117222Y93231D01*
X117225Y93174D01*
X117231Y93051D01*
Y93048D01*
Y93037D01*
Y93024D01*
Y93002D01*
X117228Y92977D01*
Y92947D01*
X117225Y92914D01*
X117222Y92879D01*
X117214Y92800D01*
X117201Y92715D01*
X117184Y92628D01*
X117162Y92540D01*
Y92537D01*
X117160Y92529D01*
X117154Y92518D01*
X117151Y92505D01*
X117143Y92486D01*
X117135Y92464D01*
X117116Y92412D01*
X117091Y92355D01*
X117061Y92292D01*
X117029Y92232D01*
X116990Y92174D01*
Y92172D01*
X116985Y92169D01*
X116980Y92161D01*
X116971Y92150D01*
X116952Y92125D01*
X116922Y92093D01*
X116889Y92054D01*
X116851Y92016D01*
X116807Y91981D01*
X116761Y91945D01*
X116758D01*
X116756Y91942D01*
X116739Y91931D01*
X116712Y91918D01*
X116676Y91899D01*
X116633Y91880D01*
X116581Y91858D01*
X116521Y91839D01*
X116458Y91820D01*
X116455D01*
X116450Y91817D01*
X116442D01*
X116428Y91814D01*
X116412Y91811D01*
X116390Y91806D01*
X116368Y91803D01*
X116343Y91800D01*
X116283Y91792D01*
X116215Y91784D01*
X116139Y91781D01*
X116057Y91779D01*
X115148D01*
Y94298D01*
X116087D01*
X116114Y94296D01*
D02*
G37*
G36*
X61923Y189393D02*
Y189388D01*
Y189377D01*
Y189357D01*
Y189330D01*
X61920Y189297D01*
X61917Y189262D01*
X61915Y189221D01*
X61912Y189175D01*
X61901Y189079D01*
X61887Y188978D01*
X61866Y188880D01*
X61852Y188833D01*
X61835Y188790D01*
Y188787D01*
X61833Y188779D01*
X61827Y188768D01*
X61819Y188751D01*
X61808Y188732D01*
X61797Y188710D01*
X61765Y188661D01*
X61746Y188631D01*
X61724Y188604D01*
X61696Y188571D01*
X61669Y188541D01*
X61636Y188511D01*
X61603Y188481D01*
X61565Y188454D01*
X61524Y188427D01*
X61522Y188424D01*
X61513Y188421D01*
X61502Y188413D01*
X61483Y188405D01*
X61462Y188394D01*
X61434Y188383D01*
X61404Y188369D01*
X61366Y188358D01*
X61328Y188345D01*
X61284Y188331D01*
X61235Y188320D01*
X61183Y188309D01*
X61126Y188301D01*
X61066Y188293D01*
X61003Y188290D01*
X60937Y188287D01*
X60902D01*
X60877Y188290D01*
X60847D01*
X60814Y188293D01*
X60774Y188298D01*
X60733Y188304D01*
X60640Y188317D01*
X60541Y188339D01*
X60446Y188369D01*
X60400Y188386D01*
X60356Y188408D01*
X60353Y188410D01*
X60345Y188413D01*
X60334Y188421D01*
X60320Y188429D01*
X60301Y188443D01*
X60279Y188459D01*
X60258Y188476D01*
X60233Y188498D01*
X60178Y188547D01*
X60127Y188607D01*
X60077Y188678D01*
X60056Y188719D01*
X60036Y188760D01*
Y188762D01*
X60034Y188771D01*
X60028Y188784D01*
X60023Y188803D01*
X60015Y188825D01*
X60006Y188855D01*
X59998Y188888D01*
X59990Y188926D01*
X59979Y188970D01*
X59971Y189016D01*
X59963Y189068D01*
X59957Y189126D01*
X59949Y189186D01*
X59946Y189251D01*
X59941Y189319D01*
Y189393D01*
Y190848D01*
X60274D01*
Y189393D01*
Y189390D01*
Y189379D01*
Y189363D01*
Y189338D01*
X60277Y189311D01*
Y189281D01*
X60279Y189246D01*
X60282Y189210D01*
X60288Y189131D01*
X60299Y189052D01*
X60315Y188975D01*
X60323Y188940D01*
X60334Y188910D01*
Y188907D01*
X60337Y188904D01*
X60339Y188896D01*
X60345Y188885D01*
X60361Y188855D01*
X60383Y188822D01*
X60410Y188781D01*
X60446Y188743D01*
X60490Y188705D01*
X60541Y188670D01*
X60544D01*
X60550Y188667D01*
X60558Y188661D01*
X60569Y188656D01*
X60583Y188651D01*
X60602Y188645D01*
X60621Y188637D01*
X60642Y188629D01*
X60697Y188615D01*
X60760Y188601D01*
X60831Y188590D01*
X60907Y188588D01*
X60943D01*
X60967Y188590D01*
X60997Y188593D01*
X61033Y188596D01*
X61071Y188601D01*
X61112Y188610D01*
X61197Y188629D01*
X61240Y188642D01*
X61284Y188659D01*
X61325Y188678D01*
X61363Y188700D01*
X61399Y188724D01*
X61431Y188754D01*
X61434Y188757D01*
X61440Y188762D01*
X61445Y188773D01*
X61456Y188787D01*
X61467Y188806D01*
X61481Y188831D01*
X61497Y188861D01*
X61511Y188896D01*
X61524Y188937D01*
X61541Y188984D01*
X61554Y189035D01*
X61565Y189093D01*
X61576Y189158D01*
X61584Y189229D01*
X61587Y189308D01*
X61590Y189393D01*
Y190848D01*
X61923D01*
Y189393D01*
D02*
G37*
G36*
X63247Y190854D02*
X63277Y190851D01*
X63313Y190845D01*
X63353Y190840D01*
X63394Y190832D01*
X63441Y190821D01*
X63487Y190807D01*
X63536Y190791D01*
X63583Y190772D01*
X63632Y190747D01*
X63678Y190720D01*
X63722Y190690D01*
X63763Y190654D01*
X63766Y190652D01*
X63771Y190646D01*
X63782Y190632D01*
X63796Y190619D01*
X63812Y190600D01*
X63831Y190575D01*
X63850Y190548D01*
X63869Y190515D01*
X63889Y190482D01*
X63908Y190444D01*
X63927Y190403D01*
X63943Y190359D01*
X63957Y190310D01*
X63968Y190261D01*
X63973Y190209D01*
X63976Y190155D01*
Y190152D01*
Y190149D01*
Y190141D01*
Y190130D01*
X63973Y190100D01*
X63968Y190062D01*
X63959Y190015D01*
X63949Y189966D01*
X63935Y189912D01*
X63913Y189857D01*
Y189854D01*
X63910Y189852D01*
X63908Y189843D01*
X63902Y189833D01*
X63886Y189803D01*
X63864Y189764D01*
X63834Y189718D01*
X63798Y189666D01*
X63757Y189611D01*
X63706Y189551D01*
X63703Y189549D01*
X63700Y189543D01*
X63689Y189535D01*
X63678Y189521D01*
X63662Y189505D01*
X63643Y189486D01*
X63621Y189461D01*
X63594Y189437D01*
X63561Y189407D01*
X63525Y189374D01*
X63487Y189336D01*
X63443Y189297D01*
X63397Y189254D01*
X63345Y189210D01*
X63288Y189161D01*
X63228Y189109D01*
X63225Y189106D01*
X63217Y189098D01*
X63200Y189087D01*
X63184Y189071D01*
X63160Y189052D01*
X63135Y189030D01*
X63078Y188981D01*
X63018Y188929D01*
X62960Y188874D01*
X62933Y188850D01*
X62908Y188828D01*
X62887Y188806D01*
X62870Y188790D01*
X62867Y188787D01*
X62857Y188776D01*
X62843Y188760D01*
X62824Y188738D01*
X62802Y188713D01*
X62780Y188686D01*
X62736Y188626D01*
X63979D01*
Y188328D01*
X62311D01*
Y188334D01*
Y188347D01*
Y188369D01*
X62313Y188397D01*
X62316Y188429D01*
X62324Y188465D01*
X62332Y188503D01*
X62346Y188541D01*
Y188544D01*
X62349Y188549D01*
X62352Y188558D01*
X62357Y188571D01*
X62365Y188585D01*
X62373Y188604D01*
X62395Y188648D01*
X62423Y188700D01*
X62458Y188757D01*
X62499Y188817D01*
X62548Y188877D01*
X62551Y188880D01*
X62554Y188885D01*
X62562Y188893D01*
X62575Y188907D01*
X62589Y188921D01*
X62608Y188940D01*
X62627Y188962D01*
X62652Y188986D01*
X62679Y189014D01*
X62709Y189041D01*
X62742Y189074D01*
X62780Y189106D01*
X62818Y189142D01*
X62862Y189177D01*
X62906Y189216D01*
X62955Y189257D01*
X62960Y189259D01*
X62974Y189273D01*
X62993Y189289D01*
X63020Y189314D01*
X63053Y189341D01*
X63091Y189374D01*
X63135Y189409D01*
X63179Y189450D01*
X63271Y189535D01*
X63362Y189625D01*
X63405Y189669D01*
X63446Y189712D01*
X63482Y189753D01*
X63512Y189792D01*
X63515Y189794D01*
X63517Y189800D01*
X63525Y189811D01*
X63534Y189824D01*
X63547Y189843D01*
X63558Y189863D01*
X63586Y189912D01*
X63613Y189969D01*
X63637Y190032D01*
X63654Y190097D01*
X63656Y190130D01*
X63659Y190163D01*
Y190166D01*
Y190171D01*
Y190182D01*
X63656Y190193D01*
Y190209D01*
X63651Y190228D01*
X63643Y190269D01*
X63626Y190319D01*
X63602Y190370D01*
X63588Y190398D01*
X63569Y190422D01*
X63550Y190447D01*
X63525Y190471D01*
X63523Y190474D01*
X63520Y190477D01*
X63512Y190482D01*
X63501Y190490D01*
X63487Y190501D01*
X63471Y190512D01*
X63433Y190537D01*
X63381Y190559D01*
X63323Y190581D01*
X63255Y190594D01*
X63217Y190600D01*
X63157D01*
X63140Y190597D01*
X63121D01*
X63099Y190592D01*
X63050Y190583D01*
X62993Y190567D01*
X62933Y190542D01*
X62903Y190526D01*
X62873Y190510D01*
X62846Y190488D01*
X62818Y190463D01*
X62816Y190461D01*
X62813Y190458D01*
X62807Y190450D01*
X62796Y190439D01*
X62788Y190425D01*
X62777Y190409D01*
X62764Y190390D01*
X62753Y190368D01*
X62739Y190343D01*
X62728Y190316D01*
X62706Y190250D01*
X62690Y190179D01*
X62687Y190138D01*
X62685Y190095D01*
X62368Y190127D01*
Y190133D01*
X62371Y190144D01*
X62373Y190160D01*
X62376Y190185D01*
X62382Y190215D01*
X62390Y190250D01*
X62398Y190288D01*
X62412Y190329D01*
X62425Y190370D01*
X62442Y190417D01*
X62463Y190461D01*
X62485Y190504D01*
X62513Y190550D01*
X62543Y190592D01*
X62575Y190632D01*
X62614Y190668D01*
X62616Y190671D01*
X62625Y190676D01*
X62635Y190684D01*
X62652Y190698D01*
X62674Y190712D01*
X62701Y190728D01*
X62731Y190744D01*
X62766Y190763D01*
X62805Y190780D01*
X62848Y190796D01*
X62895Y190813D01*
X62947Y190826D01*
X63001Y190840D01*
X63059Y190848D01*
X63121Y190854D01*
X63187Y190856D01*
X63222D01*
X63247Y190854D01*
D02*
G37*
G36*
X53163Y158586D02*
Y158581D01*
Y158570D01*
Y158550D01*
Y158523D01*
X53160Y158490D01*
X53158Y158455D01*
X53155Y158414D01*
X53152Y158368D01*
X53141Y158272D01*
X53127Y158171D01*
X53106Y158073D01*
X53092Y158026D01*
X53076Y157983D01*
Y157980D01*
X53073Y157972D01*
X53067Y157961D01*
X53059Y157944D01*
X53048Y157925D01*
X53038Y157903D01*
X53005Y157854D01*
X52986Y157824D01*
X52964Y157797D01*
X52936Y157764D01*
X52909Y157734D01*
X52876Y157704D01*
X52844Y157674D01*
X52805Y157647D01*
X52764Y157620D01*
X52762Y157617D01*
X52754Y157614D01*
X52743Y157606D01*
X52723Y157598D01*
X52702Y157587D01*
X52674Y157576D01*
X52644Y157562D01*
X52606Y157551D01*
X52568Y157538D01*
X52524Y157524D01*
X52475Y157513D01*
X52423Y157502D01*
X52366Y157494D01*
X52306Y157486D01*
X52243Y157483D01*
X52178Y157480D01*
X52142D01*
X52117Y157483D01*
X52087D01*
X52055Y157486D01*
X52014Y157491D01*
X51973Y157497D01*
X51880Y157510D01*
X51782Y157532D01*
X51686Y157562D01*
X51640Y157579D01*
X51596Y157600D01*
X51593Y157603D01*
X51585Y157606D01*
X51574Y157614D01*
X51560Y157622D01*
X51541Y157636D01*
X51520Y157652D01*
X51498Y157669D01*
X51473Y157691D01*
X51419Y157740D01*
X51367Y157800D01*
X51318Y157871D01*
X51296Y157912D01*
X51277Y157953D01*
Y157955D01*
X51274Y157964D01*
X51268Y157977D01*
X51263Y157996D01*
X51255Y158018D01*
X51247Y158048D01*
X51238Y158081D01*
X51230Y158119D01*
X51219Y158163D01*
X51211Y158209D01*
X51203Y158261D01*
X51197Y158318D01*
X51189Y158378D01*
X51187Y158444D01*
X51181Y158512D01*
Y158586D01*
Y160041D01*
X51514D01*
Y158586D01*
Y158583D01*
Y158572D01*
Y158556D01*
Y158531D01*
X51517Y158504D01*
Y158474D01*
X51520Y158439D01*
X51522Y158403D01*
X51528Y158324D01*
X51539Y158245D01*
X51555Y158168D01*
X51563Y158133D01*
X51574Y158103D01*
Y158100D01*
X51577Y158097D01*
X51580Y158089D01*
X51585Y158078D01*
X51601Y158048D01*
X51623Y158015D01*
X51651Y157974D01*
X51686Y157936D01*
X51730Y157898D01*
X51782Y157862D01*
X51784D01*
X51790Y157860D01*
X51798Y157854D01*
X51809Y157849D01*
X51823Y157843D01*
X51842Y157838D01*
X51861Y157830D01*
X51883Y157822D01*
X51937Y157808D01*
X52000Y157794D01*
X52071Y157783D01*
X52148Y157781D01*
X52183D01*
X52207Y157783D01*
X52238Y157786D01*
X52273Y157789D01*
X52311Y157794D01*
X52352Y157802D01*
X52437Y157822D01*
X52481Y157835D01*
X52524Y157852D01*
X52565Y157871D01*
X52603Y157893D01*
X52639Y157917D01*
X52672Y157947D01*
X52674Y157950D01*
X52680Y157955D01*
X52685Y157966D01*
X52696Y157980D01*
X52707Y157999D01*
X52721Y158024D01*
X52737Y158054D01*
X52751Y158089D01*
X52764Y158130D01*
X52781Y158176D01*
X52794Y158228D01*
X52805Y158286D01*
X52816Y158351D01*
X52824Y158422D01*
X52827Y158501D01*
X52830Y158586D01*
Y160041D01*
X53163D01*
Y158586D01*
D02*
G37*
G36*
X54757Y157521D02*
X54449D01*
Y159490D01*
X54443Y159484D01*
X54430Y159470D01*
X54405Y159451D01*
X54370Y159424D01*
X54329Y159391D01*
X54277Y159356D01*
X54220Y159318D01*
X54154Y159277D01*
X54151D01*
X54146Y159271D01*
X54138Y159266D01*
X54124Y159260D01*
X54108Y159249D01*
X54088Y159241D01*
X54045Y159217D01*
X53996Y159192D01*
X53941Y159165D01*
X53884Y159140D01*
X53829Y159118D01*
Y159416D01*
X53832Y159419D01*
X53840Y159421D01*
X53854Y159430D01*
X53873Y159438D01*
X53895Y159449D01*
X53922Y159465D01*
X53952Y159481D01*
X53982Y159498D01*
X54053Y159541D01*
X54129Y159593D01*
X54209Y159648D01*
X54282Y159711D01*
X54285Y159713D01*
X54290Y159719D01*
X54301Y159727D01*
X54315Y159741D01*
X54329Y159757D01*
X54348Y159774D01*
X54389Y159820D01*
X54435Y159869D01*
X54482Y159926D01*
X54523Y159986D01*
X54558Y160049D01*
X54757D01*
Y157521D01*
D02*
G37*
G36*
X44457Y187231D02*
X44476D01*
X44500Y187229D01*
X44530Y187226D01*
X44560Y187220D01*
X44629Y187209D01*
X44702Y187190D01*
X44779Y187166D01*
X44858Y187130D01*
X44861D01*
X44866Y187125D01*
X44877Y187119D01*
X44891Y187111D01*
X44907Y187100D01*
X44926Y187089D01*
X44973Y187057D01*
X45022Y187018D01*
X45074Y186969D01*
X45125Y186912D01*
X45169Y186849D01*
Y186846D01*
X45175Y186841D01*
X45180Y186830D01*
X45186Y186816D01*
X45194Y186800D01*
X45202Y186781D01*
X45213Y186756D01*
X45221Y186732D01*
X45243Y186672D01*
X45259Y186601D01*
X45270Y186524D01*
X45276Y186442D01*
Y186426D01*
X45273Y186404D01*
X45270Y186377D01*
X45268Y186344D01*
X45259Y186306D01*
X45251Y186265D01*
X45240Y186219D01*
X45224Y186169D01*
X45207Y186117D01*
X45183Y186066D01*
X45156Y186014D01*
X45123Y185959D01*
X45085Y185910D01*
X45041Y185858D01*
X44992Y185812D01*
X44989Y185809D01*
X44978Y185801D01*
X44962Y185790D01*
X44937Y185774D01*
X44907Y185754D01*
X44869Y185735D01*
X44822Y185714D01*
X44768Y185692D01*
X44708Y185667D01*
X44640Y185645D01*
X44563Y185626D01*
X44478Y185607D01*
X44386Y185591D01*
X44285Y185580D01*
X44175Y185572D01*
X44058Y185569D01*
X44055D01*
X44050D01*
X44039D01*
X44025D01*
X44009D01*
X43987Y185572D01*
X43965D01*
X43938Y185574D01*
X43878Y185577D01*
X43810Y185582D01*
X43733Y185591D01*
X43651Y185601D01*
X43564Y185618D01*
X43477Y185634D01*
X43389Y185656D01*
X43302Y185683D01*
X43217Y185714D01*
X43135Y185749D01*
X43062Y185793D01*
X42996Y185839D01*
X42993Y185842D01*
X42982Y185850D01*
X42969Y185864D01*
X42950Y185883D01*
X42928Y185905D01*
X42903Y185935D01*
X42879Y185967D01*
X42851Y186006D01*
X42824Y186049D01*
X42799Y186098D01*
X42775Y186150D01*
X42753Y186208D01*
X42734Y186268D01*
X42720Y186333D01*
X42709Y186401D01*
X42707Y186475D01*
Y186505D01*
X42709Y186524D01*
X42712Y186549D01*
X42715Y186579D01*
X42720Y186612D01*
X42729Y186647D01*
X42748Y186726D01*
X42761Y186765D01*
X42778Y186808D01*
X42797Y186849D01*
X42821Y186887D01*
X42846Y186926D01*
X42876Y186964D01*
X42879Y186967D01*
X42884Y186972D01*
X42892Y186983D01*
X42906Y186994D01*
X42922Y187010D01*
X42944Y187027D01*
X42969Y187046D01*
X42996Y187065D01*
X43026Y187084D01*
X43062Y187103D01*
X43100Y187122D01*
X43141Y187141D01*
X43185Y187158D01*
X43231Y187171D01*
X43280Y187185D01*
X43335Y187193D01*
X43359Y186885D01*
X43356D01*
X43351Y186882D01*
X43343Y186879D01*
X43329Y186876D01*
X43296Y186868D01*
X43258Y186855D01*
X43214Y186838D01*
X43171Y186816D01*
X43130Y186794D01*
X43094Y186767D01*
X43092Y186765D01*
X43089Y186762D01*
X43081Y186754D01*
X43073Y186745D01*
X43051Y186718D01*
X43026Y186680D01*
X43001Y186636D01*
X42982Y186582D01*
X42966Y186521D01*
X42963Y186489D01*
X42961Y186456D01*
Y186431D01*
X42966Y186401D01*
X42972Y186366D01*
X42982Y186325D01*
X42996Y186281D01*
X43018Y186238D01*
X43045Y186194D01*
Y186191D01*
X43051Y186188D01*
X43056Y186180D01*
X43064Y186169D01*
X43089Y186145D01*
X43124Y186112D01*
X43168Y186074D01*
X43223Y186036D01*
X43286Y186000D01*
X43356Y185965D01*
X43359D01*
X43365Y185962D01*
X43378Y185956D01*
X43395Y185951D01*
X43414Y185945D01*
X43441Y185937D01*
X43471Y185929D01*
X43504Y185921D01*
X43542Y185913D01*
X43586Y185907D01*
X43635Y185899D01*
X43687Y185891D01*
X43741Y185885D01*
X43801Y185883D01*
X43867Y185880D01*
X43932Y185877D01*
X43933Y185877D01*
X43935D01*
X43932Y185877D01*
X43927Y185883D01*
X43919Y185888D01*
X43908Y185896D01*
X43878Y185921D01*
X43840Y185951D01*
X43799Y185992D01*
X43758Y186038D01*
X43720Y186090D01*
X43684Y186147D01*
Y186150D01*
X43681Y186156D01*
X43676Y186164D01*
X43670Y186175D01*
X43665Y186191D01*
X43657Y186208D01*
X43640Y186251D01*
X43627Y186303D01*
X43613Y186361D01*
X43602Y186423D01*
X43599Y186489D01*
Y186502D01*
X43602Y186519D01*
Y186541D01*
X43608Y186568D01*
X43610Y186598D01*
X43619Y186634D01*
X43627Y186672D01*
X43640Y186710D01*
X43654Y186754D01*
X43673Y186797D01*
X43695Y186841D01*
X43722Y186887D01*
X43752Y186931D01*
X43788Y186975D01*
X43829Y187016D01*
X43832Y187018D01*
X43840Y187024D01*
X43851Y187035D01*
X43870Y187051D01*
X43892Y187067D01*
X43919Y187084D01*
X43952Y187106D01*
X43987Y187125D01*
X44028Y187144D01*
X44072Y187166D01*
X44121Y187182D01*
X44173Y187201D01*
X44227Y187215D01*
X44287Y187226D01*
X44350Y187231D01*
X44416Y187234D01*
X44418D01*
X44427D01*
X44438D01*
X44457Y187231D01*
D02*
G37*
G36*
X44454Y185293D02*
X44473Y185288D01*
X44503Y185277D01*
X44536Y185266D01*
X44577Y185249D01*
X44620Y185233D01*
X44667Y185211D01*
X44719Y185187D01*
X44768Y185159D01*
X44822Y185129D01*
X44874Y185094D01*
X44923Y185055D01*
X44973Y185015D01*
X45019Y184968D01*
X45063Y184919D01*
X45065Y184916D01*
X45071Y184905D01*
X45082Y184892D01*
X45096Y184870D01*
X45112Y184845D01*
X45131Y184813D01*
X45150Y184777D01*
X45169Y184733D01*
X45188Y184687D01*
X45207Y184638D01*
X45226Y184583D01*
X45243Y184523D01*
X45257Y184460D01*
X45268Y184395D01*
X45273Y184327D01*
X45276Y184253D01*
Y184215D01*
X45273Y184185D01*
X45270Y184152D01*
X45268Y184111D01*
X45262Y184067D01*
X45254Y184018D01*
X45246Y183966D01*
X45235Y183912D01*
X45221Y183857D01*
X45207Y183802D01*
X45188Y183745D01*
X45166Y183691D01*
X45142Y183639D01*
X45112Y183589D01*
X45109Y183587D01*
X45104Y183579D01*
X45096Y183565D01*
X45082Y183549D01*
X45063Y183527D01*
X45044Y183502D01*
X45019Y183475D01*
X44989Y183445D01*
X44956Y183415D01*
X44921Y183382D01*
X44883Y183352D01*
X44839Y183319D01*
X44792Y183286D01*
X44743Y183256D01*
X44689Y183229D01*
X44631Y183202D01*
X44629Y183199D01*
X44618Y183196D01*
X44599Y183191D01*
X44577Y183183D01*
X44547Y183172D01*
X44514Y183161D01*
X44473Y183150D01*
X44429Y183136D01*
X44380Y183125D01*
X44328Y183112D01*
X44274Y183101D01*
X44214Y183093D01*
X44088Y183076D01*
X44023Y183074D01*
X43957Y183071D01*
X43952D01*
X43941D01*
X43919D01*
X43892Y183074D01*
X43856Y183076D01*
X43815Y183079D01*
X43771Y183084D01*
X43722Y183090D01*
X43670Y183098D01*
X43616Y183106D01*
X43498Y183134D01*
X43441Y183153D01*
X43384Y183172D01*
X43324Y183194D01*
X43269Y183221D01*
X43266Y183224D01*
X43255Y183229D01*
X43242Y183237D01*
X43220Y183248D01*
X43195Y183265D01*
X43168Y183284D01*
X43138Y183306D01*
X43103Y183330D01*
X43070Y183360D01*
X43032Y183390D01*
X42996Y183426D01*
X42958Y183464D01*
X42922Y183505D01*
X42887Y183549D01*
X42854Y183598D01*
X42824Y183647D01*
X42821Y183650D01*
X42819Y183660D01*
X42810Y183674D01*
X42799Y183696D01*
X42789Y183721D01*
X42775Y183753D01*
X42761Y183789D01*
X42748Y183827D01*
X42734Y183871D01*
X42720Y183920D01*
X42707Y183969D01*
X42696Y184024D01*
X42677Y184135D01*
X42674Y184196D01*
X42671Y184258D01*
Y184294D01*
X42674Y184321D01*
X42677Y184354D01*
X42682Y184392D01*
X42688Y184433D01*
X42696Y184479D01*
X42707Y184529D01*
X42718Y184581D01*
X42734Y184632D01*
X42753Y184687D01*
X42775Y184742D01*
X42802Y184793D01*
X42830Y184845D01*
X42865Y184895D01*
X42868Y184897D01*
X42873Y184905D01*
X42884Y184919D01*
X42900Y184935D01*
X42920Y184957D01*
X42944Y184982D01*
X42972Y185006D01*
X43004Y185036D01*
X43040Y185066D01*
X43081Y185097D01*
X43124Y185126D01*
X43174Y185154D01*
X43225Y185184D01*
X43283Y185208D01*
X43343Y185233D01*
X43406Y185255D01*
X43482Y184927D01*
X43479D01*
X43471Y184922D01*
X43455Y184919D01*
X43436Y184911D01*
X43414Y184903D01*
X43389Y184889D01*
X43329Y184862D01*
X43264Y184826D01*
X43195Y184780D01*
X43133Y184731D01*
X43105Y184701D01*
X43081Y184671D01*
X43078Y184668D01*
X43075Y184662D01*
X43070Y184654D01*
X43062Y184641D01*
X43051Y184624D01*
X43040Y184605D01*
X43029Y184583D01*
X43018Y184556D01*
X43007Y184526D01*
X42996Y184496D01*
X42974Y184425D01*
X42961Y184343D01*
X42955Y184299D01*
Y184226D01*
X42958Y184204D01*
X42961Y184179D01*
X42963Y184149D01*
X42966Y184116D01*
X42972Y184084D01*
X42991Y184004D01*
X43015Y183923D01*
X43032Y183882D01*
X43051Y183841D01*
X43073Y183802D01*
X43097Y183764D01*
X43100Y183762D01*
X43103Y183756D01*
X43111Y183745D01*
X43122Y183731D01*
X43135Y183718D01*
X43154Y183699D01*
X43174Y183680D01*
X43195Y183658D01*
X43223Y183636D01*
X43250Y183611D01*
X43313Y183568D01*
X43387Y183527D01*
X43471Y183491D01*
X43474D01*
X43482Y183489D01*
X43496Y183483D01*
X43512Y183480D01*
X43534Y183475D01*
X43558Y183467D01*
X43589Y183461D01*
X43619Y183453D01*
X43654Y183445D01*
X43692Y183439D01*
X43774Y183426D01*
X43861Y183417D01*
X43954Y183415D01*
X43957D01*
X43968D01*
X43984D01*
X44009Y183417D01*
X44036D01*
X44069Y183420D01*
X44104Y183423D01*
X44145Y183426D01*
X44189Y183431D01*
X44233Y183437D01*
X44328Y183453D01*
X44424Y183478D01*
X44517Y183508D01*
X44519D01*
X44528Y183513D01*
X44539Y183519D01*
X44555Y183524D01*
X44577Y183535D01*
X44599Y183549D01*
X44651Y183579D01*
X44710Y183620D01*
X44768Y183669D01*
X44825Y183729D01*
X44850Y183762D01*
X44874Y183797D01*
Y183800D01*
X44880Y183805D01*
X44885Y183816D01*
X44893Y183833D01*
X44902Y183852D01*
X44912Y183873D01*
X44921Y183898D01*
X44932Y183925D01*
X44954Y183988D01*
X44973Y184062D01*
X44986Y184141D01*
X44989Y184182D01*
X44992Y184226D01*
Y184253D01*
X44989Y184272D01*
X44986Y184297D01*
X44984Y184324D01*
X44978Y184357D01*
X44973Y184389D01*
X44954Y184466D01*
X44940Y184504D01*
X44923Y184545D01*
X44904Y184586D01*
X44883Y184624D01*
X44858Y184662D01*
X44831Y184701D01*
X44828Y184703D01*
X44822Y184709D01*
X44814Y184720D01*
X44801Y184733D01*
X44784Y184747D01*
X44762Y184766D01*
X44738Y184785D01*
X44710Y184807D01*
X44678Y184829D01*
X44642Y184851D01*
X44604Y184873D01*
X44560Y184895D01*
X44514Y184914D01*
X44462Y184933D01*
X44407Y184952D01*
X44350Y184965D01*
X44435Y185299D01*
X44440D01*
X44454Y185293D01*
D02*
G37*
G36*
X34595Y187250D02*
X34625Y187248D01*
X34658Y187242D01*
X34696Y187237D01*
X34740Y187229D01*
X34783Y187218D01*
X34833Y187204D01*
X34882Y187188D01*
X34931Y187169D01*
X34980Y187147D01*
X35032Y187119D01*
X35081Y187089D01*
X35127Y187054D01*
X35130Y187051D01*
X35141Y187043D01*
X35155Y187029D01*
X35174Y187010D01*
X35198Y186986D01*
X35223Y186956D01*
X35253Y186920D01*
X35280Y186879D01*
X35307Y186836D01*
X35338Y186786D01*
X35362Y186732D01*
X35384Y186672D01*
X35406Y186609D01*
X35419Y186541D01*
X35430Y186470D01*
X35433Y186393D01*
Y186361D01*
X35430Y186336D01*
X35428Y186306D01*
X35422Y186273D01*
X35417Y186235D01*
X35409Y186194D01*
X35400Y186150D01*
X35387Y186104D01*
X35370Y186057D01*
X35351Y186011D01*
X35329Y185965D01*
X35305Y185918D01*
X35275Y185874D01*
X35242Y185831D01*
X35239Y185828D01*
X35234Y185823D01*
X35223Y185812D01*
X35206Y185798D01*
X35187Y185779D01*
X35166Y185760D01*
X35138Y185741D01*
X35105Y185719D01*
X35073Y185697D01*
X35034Y185675D01*
X34991Y185656D01*
X34947Y185637D01*
X34898Y185618D01*
X34846Y185604D01*
X34789Y185593D01*
X34732Y185585D01*
X34707Y185910D01*
X34710D01*
X34718Y185913D01*
X34729Y185916D01*
X34745Y185918D01*
X34764Y185921D01*
X34789Y185929D01*
X34841Y185943D01*
X34898Y185965D01*
X34958Y185995D01*
X35013Y186030D01*
X35037Y186052D01*
X35062Y186074D01*
Y186076D01*
X35067Y186079D01*
X35073Y186088D01*
X35081Y186098D01*
X35100Y186126D01*
X35119Y186164D01*
X35141Y186210D01*
X35160Y186265D01*
X35174Y186325D01*
X35177Y186358D01*
X35179Y186393D01*
Y186415D01*
X35177Y186431D01*
X35174Y186451D01*
X35171Y186472D01*
X35157Y186524D01*
X35138Y186584D01*
X35125Y186614D01*
X35108Y186647D01*
X35089Y186680D01*
X35067Y186710D01*
X35043Y186740D01*
X35013Y186770D01*
X35010Y186773D01*
X35004Y186775D01*
X34996Y186784D01*
X34983Y186794D01*
X34964Y186805D01*
X34944Y186819D01*
X34920Y186833D01*
X34893Y186849D01*
X34863Y186863D01*
X34830Y186876D01*
X34792Y186890D01*
X34753Y186901D01*
X34710Y186912D01*
X34663Y186920D01*
X34617Y186923D01*
X34565Y186926D01*
X34562D01*
X34554D01*
X34540D01*
X34521Y186923D01*
X34499Y186920D01*
X34472Y186917D01*
X34445Y186912D01*
X34412Y186907D01*
X34347Y186890D01*
X34276Y186863D01*
X34243Y186846D01*
X34210Y186825D01*
X34177Y186803D01*
X34147Y186775D01*
X34145Y186773D01*
X34142Y186770D01*
X34134Y186759D01*
X34123Y186748D01*
X34112Y186734D01*
X34098Y186715D01*
X34084Y186696D01*
X34068Y186672D01*
X34054Y186644D01*
X34041Y186617D01*
X34016Y186549D01*
X34005Y186513D01*
X33997Y186472D01*
X33994Y186431D01*
X33992Y186388D01*
Y186363D01*
X33994Y186333D01*
X34000Y186298D01*
X34008Y186254D01*
X34022Y186208D01*
X34038Y186161D01*
X34063Y186115D01*
X34065Y186109D01*
X34074Y186096D01*
X34090Y186074D01*
X34109Y186047D01*
X34136Y186019D01*
X34166Y185986D01*
X34202Y185956D01*
X34240Y185929D01*
X34199Y185640D01*
X32905Y185883D01*
Y187136D01*
X33200D01*
Y186128D01*
X33877Y185995D01*
X33874Y185997D01*
X33869Y186006D01*
X33863Y186016D01*
X33852Y186033D01*
X33841Y186055D01*
X33828Y186079D01*
X33812Y186107D01*
X33798Y186139D01*
X33784Y186172D01*
X33768Y186210D01*
X33743Y186290D01*
X33732Y186333D01*
X33724Y186377D01*
X33721Y186423D01*
X33719Y186470D01*
Y186483D01*
X33721Y186502D01*
Y186524D01*
X33727Y186552D01*
X33730Y186584D01*
X33738Y186623D01*
X33746Y186661D01*
X33760Y186704D01*
X33773Y186748D01*
X33792Y186794D01*
X33814Y186841D01*
X33841Y186887D01*
X33872Y186934D01*
X33907Y186980D01*
X33948Y187024D01*
X33951Y187027D01*
X33959Y187035D01*
X33973Y187046D01*
X33989Y187059D01*
X34011Y187078D01*
X34041Y187098D01*
X34071Y187117D01*
X34106Y187138D01*
X34147Y187160D01*
X34194Y187180D01*
X34240Y187201D01*
X34295Y187218D01*
X34349Y187231D01*
X34409Y187242D01*
X34472Y187250D01*
X34538Y187253D01*
X34540D01*
X34554D01*
X34570D01*
X34595Y187250D01*
D02*
G37*
G36*
X34611Y185293D02*
X34631Y185288D01*
X34661Y185277D01*
X34693Y185266D01*
X34734Y185249D01*
X34778Y185233D01*
X34824Y185211D01*
X34876Y185187D01*
X34925Y185159D01*
X34980Y185129D01*
X35032Y185094D01*
X35081Y185055D01*
X35130Y185015D01*
X35177Y184968D01*
X35220Y184919D01*
X35223Y184916D01*
X35228Y184905D01*
X35239Y184892D01*
X35253Y184870D01*
X35269Y184845D01*
X35288Y184813D01*
X35307Y184777D01*
X35327Y184733D01*
X35346Y184687D01*
X35365Y184638D01*
X35384Y184583D01*
X35400Y184523D01*
X35414Y184460D01*
X35425Y184395D01*
X35430Y184327D01*
X35433Y184253D01*
Y184215D01*
X35430Y184185D01*
X35428Y184152D01*
X35425Y184111D01*
X35419Y184067D01*
X35411Y184018D01*
X35403Y183966D01*
X35392Y183912D01*
X35379Y183857D01*
X35365Y183802D01*
X35346Y183745D01*
X35324Y183691D01*
X35299Y183639D01*
X35269Y183589D01*
X35267Y183587D01*
X35261Y183579D01*
X35253Y183565D01*
X35239Y183549D01*
X35220Y183527D01*
X35201Y183502D01*
X35177Y183475D01*
X35146Y183445D01*
X35114Y183415D01*
X35078Y183382D01*
X35040Y183352D01*
X34996Y183319D01*
X34950Y183286D01*
X34901Y183256D01*
X34846Y183229D01*
X34789Y183202D01*
X34786Y183199D01*
X34775Y183196D01*
X34756Y183191D01*
X34734Y183183D01*
X34704Y183172D01*
X34671Y183161D01*
X34631Y183150D01*
X34587Y183136D01*
X34538Y183125D01*
X34486Y183112D01*
X34431Y183101D01*
X34371Y183093D01*
X34246Y183076D01*
X34180Y183074D01*
X34115Y183071D01*
X34109D01*
X34098D01*
X34076D01*
X34049Y183074D01*
X34014Y183076D01*
X33973Y183079D01*
X33929Y183084D01*
X33880Y183090D01*
X33828Y183098D01*
X33773Y183106D01*
X33656Y183134D01*
X33599Y183153D01*
X33541Y183172D01*
X33481Y183194D01*
X33427Y183221D01*
X33424Y183224D01*
X33413Y183229D01*
X33399Y183237D01*
X33377Y183248D01*
X33353Y183265D01*
X33326Y183284D01*
X33296Y183306D01*
X33260Y183330D01*
X33227Y183360D01*
X33189Y183390D01*
X33154Y183426D01*
X33115Y183464D01*
X33080Y183505D01*
X33044Y183549D01*
X33012Y183598D01*
X32982Y183647D01*
X32979Y183650D01*
X32976Y183660D01*
X32968Y183674D01*
X32957Y183696D01*
X32946Y183721D01*
X32932Y183753D01*
X32919Y183789D01*
X32905Y183827D01*
X32891Y183871D01*
X32878Y183920D01*
X32864Y183969D01*
X32853Y184024D01*
X32834Y184135D01*
X32831Y184196D01*
X32829Y184258D01*
Y184294D01*
X32831Y184321D01*
X32834Y184354D01*
X32840Y184392D01*
X32845Y184433D01*
X32853Y184479D01*
X32864Y184529D01*
X32875Y184581D01*
X32891Y184632D01*
X32911Y184687D01*
X32932Y184742D01*
X32960Y184793D01*
X32987Y184845D01*
X33022Y184895D01*
X33025Y184897D01*
X33031Y184905D01*
X33042Y184919D01*
X33058Y184935D01*
X33077Y184957D01*
X33102Y184982D01*
X33129Y185006D01*
X33162Y185036D01*
X33197Y185066D01*
X33238Y185097D01*
X33282Y185126D01*
X33331Y185154D01*
X33383Y185184D01*
X33440Y185208D01*
X33500Y185233D01*
X33563Y185255D01*
X33639Y184927D01*
X33637D01*
X33629Y184922D01*
X33612Y184919D01*
X33593Y184911D01*
X33571Y184903D01*
X33547Y184889D01*
X33487Y184862D01*
X33421Y184826D01*
X33353Y184780D01*
X33290Y184731D01*
X33263Y184701D01*
X33238Y184671D01*
X33235Y184668D01*
X33233Y184662D01*
X33227Y184654D01*
X33219Y184641D01*
X33208Y184624D01*
X33197Y184605D01*
X33186Y184583D01*
X33175Y184556D01*
X33165Y184526D01*
X33154Y184496D01*
X33132Y184425D01*
X33118Y184343D01*
X33113Y184299D01*
Y184226D01*
X33115Y184204D01*
X33118Y184179D01*
X33121Y184149D01*
X33123Y184116D01*
X33129Y184084D01*
X33148Y184004D01*
X33173Y183923D01*
X33189Y183882D01*
X33208Y183841D01*
X33230Y183802D01*
X33255Y183764D01*
X33257Y183762D01*
X33260Y183756D01*
X33268Y183745D01*
X33279Y183731D01*
X33293Y183718D01*
X33312Y183699D01*
X33331Y183680D01*
X33353Y183658D01*
X33380Y183636D01*
X33408Y183611D01*
X33470Y183568D01*
X33544Y183527D01*
X33629Y183491D01*
X33631D01*
X33639Y183489D01*
X33653Y183483D01*
X33669Y183480D01*
X33691Y183475D01*
X33716Y183467D01*
X33746Y183461D01*
X33776Y183453D01*
X33812Y183445D01*
X33850Y183439D01*
X33932Y183426D01*
X34019Y183417D01*
X34112Y183415D01*
X34115D01*
X34126D01*
X34142D01*
X34166Y183417D01*
X34194D01*
X34227Y183420D01*
X34262Y183423D01*
X34303Y183426D01*
X34347Y183431D01*
X34390Y183437D01*
X34486Y183453D01*
X34581Y183478D01*
X34674Y183508D01*
X34677D01*
X34685Y183513D01*
X34696Y183519D01*
X34712Y183524D01*
X34734Y183535D01*
X34756Y183549D01*
X34808Y183579D01*
X34868Y183620D01*
X34925Y183669D01*
X34983Y183729D01*
X35007Y183762D01*
X35032Y183797D01*
Y183800D01*
X35037Y183805D01*
X35043Y183816D01*
X35051Y183833D01*
X35059Y183852D01*
X35070Y183873D01*
X35078Y183898D01*
X35089Y183925D01*
X35111Y183988D01*
X35130Y184062D01*
X35144Y184141D01*
X35146Y184182D01*
X35149Y184226D01*
Y184253D01*
X35146Y184272D01*
X35144Y184297D01*
X35141Y184324D01*
X35136Y184357D01*
X35130Y184389D01*
X35111Y184466D01*
X35097Y184504D01*
X35081Y184545D01*
X35062Y184586D01*
X35040Y184624D01*
X35015Y184662D01*
X34988Y184701D01*
X34985Y184703D01*
X34980Y184709D01*
X34972Y184720D01*
X34958Y184733D01*
X34942Y184747D01*
X34920Y184766D01*
X34895Y184785D01*
X34868Y184807D01*
X34835Y184829D01*
X34800Y184851D01*
X34762Y184873D01*
X34718Y184895D01*
X34671Y184914D01*
X34620Y184933D01*
X34565Y184952D01*
X34508Y184965D01*
X34592Y185299D01*
X34598D01*
X34611Y185293D01*
D02*
G37*
G36*
X47900Y137793D02*
X47921D01*
X47952Y137790D01*
X47984Y137784D01*
X48020Y137779D01*
X48061Y137771D01*
X48104Y137760D01*
X48148Y137746D01*
X48195Y137733D01*
X48241Y137713D01*
X48287Y137689D01*
X48331Y137664D01*
X48377Y137634D01*
X48418Y137599D01*
X48421Y137596D01*
X48427Y137591D01*
X48438Y137580D01*
X48454Y137563D01*
X48470Y137544D01*
X48489Y137520D01*
X48509Y137492D01*
X48530Y137460D01*
X48552Y137427D01*
X48574Y137386D01*
X48596Y137345D01*
X48615Y137299D01*
X48631Y137249D01*
X48648Y137197D01*
X48659Y137143D01*
X48667Y137085D01*
X48358Y137045D01*
Y137047D01*
X48356Y137056D01*
X48353Y137069D01*
X48347Y137088D01*
X48342Y137110D01*
X48336Y137135D01*
X48317Y137192D01*
X48293Y137255D01*
X48263Y137318D01*
X48225Y137375D01*
X48203Y137399D01*
X48181Y137424D01*
X48178D01*
X48175Y137429D01*
X48167Y137435D01*
X48159Y137443D01*
X48132Y137460D01*
X48094Y137481D01*
X48047Y137503D01*
X47995Y137520D01*
X47932Y137533D01*
X47867Y137539D01*
X47845D01*
X47829Y137536D01*
X47812Y137533D01*
X47788Y137531D01*
X47739Y137520D01*
X47679Y137503D01*
X47616Y137476D01*
X47586Y137457D01*
X47556Y137438D01*
X47526Y137416D01*
X47496Y137389D01*
X47493Y137386D01*
X47490Y137380D01*
X47482Y137372D01*
X47471Y137361D01*
X47460Y137348D01*
X47449Y137329D01*
X47436Y137309D01*
X47419Y137285D01*
X47392Y137230D01*
X47370Y137167D01*
X47351Y137094D01*
X47348Y137056D01*
X47346Y137015D01*
Y137012D01*
Y137006D01*
Y136993D01*
X47348Y136979D01*
X47351Y136960D01*
X47354Y136941D01*
X47362Y136892D01*
X47381Y136834D01*
X47406Y136777D01*
X47422Y136747D01*
X47441Y136720D01*
X47463Y136692D01*
X47488Y136665D01*
X47490Y136662D01*
X47493Y136660D01*
X47501Y136652D01*
X47512Y136643D01*
X47526Y136632D01*
X47542Y136621D01*
X47583Y136594D01*
X47635Y136570D01*
X47695Y136548D01*
X47763Y136531D01*
X47801Y136529D01*
X47840Y136526D01*
X47856D01*
X47875Y136529D01*
X47900D01*
X47932Y136534D01*
X47968Y136539D01*
X48012Y136548D01*
X48058Y136559D01*
X48025Y136288D01*
X48020D01*
X48006Y136291D01*
X47990Y136294D01*
X47954D01*
X47941Y136291D01*
X47921D01*
X47902Y136288D01*
X47856Y136280D01*
X47801Y136269D01*
X47741Y136250D01*
X47679Y136226D01*
X47618Y136190D01*
X47616D01*
X47610Y136185D01*
X47605Y136179D01*
X47594Y136171D01*
X47567Y136146D01*
X47537Y136111D01*
X47509Y136067D01*
X47482Y136013D01*
X47471Y135983D01*
X47466Y135947D01*
X47460Y135912D01*
X47457Y135873D01*
Y135871D01*
Y135865D01*
Y135857D01*
X47460Y135843D01*
X47463Y135813D01*
X47471Y135772D01*
X47485Y135729D01*
X47507Y135682D01*
X47537Y135633D01*
X47553Y135611D01*
X47575Y135590D01*
X47580Y135584D01*
X47597Y135573D01*
X47621Y135554D01*
X47654Y135532D01*
X47698Y135513D01*
X47750Y135494D01*
X47807Y135483D01*
X47872Y135478D01*
X47889D01*
X47902Y135480D01*
X47919D01*
X47935Y135483D01*
X47979Y135491D01*
X48025Y135505D01*
X48077Y135527D01*
X48126Y135554D01*
X48175Y135592D01*
X48181Y135598D01*
X48195Y135614D01*
X48216Y135639D01*
X48238Y135677D01*
X48265Y135723D01*
X48290Y135783D01*
X48312Y135852D01*
X48328Y135931D01*
X48637Y135876D01*
Y135873D01*
X48634Y135863D01*
X48631Y135846D01*
X48626Y135824D01*
X48618Y135800D01*
X48610Y135770D01*
X48599Y135737D01*
X48585Y135701D01*
X48549Y135622D01*
X48530Y135584D01*
X48506Y135543D01*
X48478Y135505D01*
X48448Y135467D01*
X48416Y135428D01*
X48380Y135396D01*
X48377Y135393D01*
X48372Y135388D01*
X48358Y135379D01*
X48345Y135368D01*
X48323Y135355D01*
X48301Y135341D01*
X48274Y135325D01*
X48241Y135308D01*
X48208Y135295D01*
X48170Y135278D01*
X48129Y135265D01*
X48085Y135251D01*
X48036Y135240D01*
X47987Y135232D01*
X47935Y135226D01*
X47881Y135224D01*
X47845D01*
X47826Y135226D01*
X47807Y135229D01*
X47755Y135235D01*
X47698Y135246D01*
X47632Y135262D01*
X47567Y135284D01*
X47501Y135314D01*
X47498D01*
X47493Y135317D01*
X47485Y135322D01*
X47471Y135330D01*
X47441Y135349D01*
X47403Y135377D01*
X47359Y135412D01*
X47315Y135453D01*
X47272Y135499D01*
X47234Y135554D01*
Y135557D01*
X47231Y135559D01*
X47225Y135570D01*
X47220Y135581D01*
X47212Y135595D01*
X47203Y135611D01*
X47187Y135652D01*
X47171Y135701D01*
X47154Y135756D01*
X47144Y135816D01*
X47141Y135879D01*
Y135882D01*
Y135887D01*
Y135895D01*
Y135906D01*
X47146Y135939D01*
X47152Y135977D01*
X47163Y136024D01*
X47179Y136073D01*
X47201Y136125D01*
X47231Y136176D01*
Y136179D01*
X47234Y136182D01*
X47247Y136198D01*
X47266Y136223D01*
X47296Y136253D01*
X47332Y136288D01*
X47378Y136324D01*
X47430Y136357D01*
X47490Y136389D01*
X47488D01*
X47479Y136392D01*
X47468Y136395D01*
X47452Y136400D01*
X47436Y136406D01*
X47414Y136414D01*
X47362Y136436D01*
X47307Y136466D01*
X47250Y136501D01*
X47193Y136548D01*
X47144Y136605D01*
X47141Y136608D01*
X47138Y136613D01*
X47133Y136621D01*
X47124Y136635D01*
X47113Y136649D01*
X47102Y136668D01*
X47092Y136690D01*
X47081Y136717D01*
X47070Y136744D01*
X47059Y136774D01*
X47037Y136843D01*
X47023Y136922D01*
X47018Y136965D01*
Y137009D01*
Y137012D01*
Y137023D01*
X47021Y137042D01*
Y137064D01*
X47026Y137094D01*
X47032Y137127D01*
X47037Y137162D01*
X47048Y137203D01*
X47062Y137247D01*
X47078Y137290D01*
X47097Y137337D01*
X47122Y137383D01*
X47149Y137432D01*
X47182Y137479D01*
X47217Y137525D01*
X47261Y137569D01*
X47264Y137572D01*
X47272Y137580D01*
X47285Y137591D01*
X47305Y137604D01*
X47326Y137621D01*
X47356Y137640D01*
X47389Y137662D01*
X47427Y137681D01*
X47468Y137703D01*
X47515Y137724D01*
X47564Y137743D01*
X47618Y137760D01*
X47676Y137774D01*
X47736Y137784D01*
X47799Y137793D01*
X47867Y137795D01*
X47881D01*
X47900Y137793D01*
D02*
G37*
G36*
X50067Y137790D02*
X50100Y137787D01*
X50141Y137784D01*
X50185Y137779D01*
X50234Y137771D01*
X50286Y137763D01*
X50340Y137752D01*
X50395Y137738D01*
X50450Y137724D01*
X50507Y137705D01*
X50561Y137683D01*
X50613Y137659D01*
X50662Y137629D01*
X50665Y137626D01*
X50673Y137621D01*
X50687Y137612D01*
X50703Y137599D01*
X50725Y137580D01*
X50750Y137560D01*
X50777Y137536D01*
X50807Y137506D01*
X50837Y137473D01*
X50870Y137438D01*
X50900Y137399D01*
X50933Y137356D01*
X50965Y137309D01*
X50995Y137260D01*
X51023Y137206D01*
X51050Y137148D01*
X51053Y137146D01*
X51056Y137135D01*
X51061Y137116D01*
X51069Y137094D01*
X51080Y137064D01*
X51091Y137031D01*
X51102Y136990D01*
X51116Y136946D01*
X51126Y136897D01*
X51140Y136845D01*
X51151Y136791D01*
X51159Y136731D01*
X51176Y136605D01*
X51178Y136539D01*
X51181Y136474D01*
Y136469D01*
Y136458D01*
Y136436D01*
X51178Y136408D01*
X51176Y136373D01*
X51173Y136332D01*
X51168Y136288D01*
X51162Y136239D01*
X51154Y136187D01*
X51146Y136133D01*
X51118Y136015D01*
X51099Y135958D01*
X51080Y135901D01*
X51058Y135841D01*
X51031Y135786D01*
X51028Y135783D01*
X51023Y135772D01*
X51015Y135759D01*
X51004Y135737D01*
X50987Y135712D01*
X50968Y135685D01*
X50946Y135655D01*
X50922Y135619D01*
X50892Y135587D01*
X50862Y135548D01*
X50826Y135513D01*
X50788Y135475D01*
X50747Y135439D01*
X50703Y135404D01*
X50654Y135371D01*
X50605Y135341D01*
X50602Y135338D01*
X50591Y135336D01*
X50578Y135327D01*
X50556Y135317D01*
X50531Y135306D01*
X50499Y135292D01*
X50463Y135278D01*
X50425Y135265D01*
X50381Y135251D01*
X50332Y135237D01*
X50283Y135224D01*
X50228Y135213D01*
X50116Y135194D01*
X50056Y135191D01*
X49994Y135188D01*
X49958D01*
X49931Y135191D01*
X49898Y135194D01*
X49860Y135199D01*
X49819Y135205D01*
X49773Y135213D01*
X49723Y135224D01*
X49672Y135235D01*
X49620Y135251D01*
X49565Y135270D01*
X49510Y135292D01*
X49459Y135319D01*
X49407Y135346D01*
X49358Y135382D01*
X49355Y135385D01*
X49347Y135390D01*
X49333Y135401D01*
X49317Y135417D01*
X49295Y135437D01*
X49270Y135461D01*
X49246Y135488D01*
X49216Y135521D01*
X49185Y135557D01*
X49156Y135598D01*
X49125Y135641D01*
X49098Y135690D01*
X49068Y135742D01*
X49044Y135800D01*
X49019Y135860D01*
X48997Y135923D01*
X49325Y135999D01*
Y135996D01*
X49330Y135988D01*
X49333Y135972D01*
X49341Y135953D01*
X49349Y135931D01*
X49363Y135906D01*
X49390Y135846D01*
X49426Y135781D01*
X49472Y135712D01*
X49521Y135650D01*
X49551Y135622D01*
X49581Y135598D01*
X49584Y135595D01*
X49590Y135592D01*
X49598Y135587D01*
X49611Y135579D01*
X49628Y135568D01*
X49647Y135557D01*
X49669Y135546D01*
X49696Y135535D01*
X49726Y135524D01*
X49756Y135513D01*
X49827Y135491D01*
X49909Y135478D01*
X49953Y135472D01*
X50026D01*
X50048Y135475D01*
X50073Y135478D01*
X50103Y135480D01*
X50136Y135483D01*
X50168Y135488D01*
X50248Y135508D01*
X50329Y135532D01*
X50370Y135548D01*
X50411Y135568D01*
X50450Y135590D01*
X50488Y135614D01*
X50490Y135617D01*
X50496Y135619D01*
X50507Y135628D01*
X50520Y135639D01*
X50534Y135652D01*
X50553Y135671D01*
X50572Y135690D01*
X50594Y135712D01*
X50616Y135740D01*
X50641Y135767D01*
X50684Y135830D01*
X50725Y135903D01*
X50761Y135988D01*
Y135991D01*
X50763Y135999D01*
X50769Y136013D01*
X50772Y136029D01*
X50777Y136051D01*
X50785Y136075D01*
X50791Y136106D01*
X50799Y136135D01*
X50807Y136171D01*
X50813Y136209D01*
X50826Y136291D01*
X50834Y136379D01*
X50837Y136471D01*
Y136474D01*
Y136485D01*
Y136501D01*
X50834Y136526D01*
Y136553D01*
X50832Y136586D01*
X50829Y136621D01*
X50826Y136662D01*
X50821Y136706D01*
X50815Y136750D01*
X50799Y136845D01*
X50774Y136941D01*
X50744Y137034D01*
Y137036D01*
X50739Y137045D01*
X50733Y137056D01*
X50728Y137072D01*
X50717Y137094D01*
X50703Y137116D01*
X50673Y137167D01*
X50632Y137227D01*
X50583Y137285D01*
X50523Y137342D01*
X50490Y137367D01*
X50455Y137391D01*
X50452D01*
X50447Y137397D01*
X50436Y137402D01*
X50419Y137410D01*
X50400Y137419D01*
X50379Y137429D01*
X50354Y137438D01*
X50327Y137449D01*
X50264Y137470D01*
X50190Y137490D01*
X50111Y137503D01*
X50070Y137506D01*
X50026Y137509D01*
X49999D01*
X49980Y137506D01*
X49955Y137503D01*
X49928Y137501D01*
X49895Y137495D01*
X49863Y137490D01*
X49786Y137470D01*
X49748Y137457D01*
X49707Y137440D01*
X49666Y137421D01*
X49628Y137399D01*
X49590Y137375D01*
X49551Y137348D01*
X49549Y137345D01*
X49543Y137339D01*
X49532Y137331D01*
X49519Y137318D01*
X49505Y137301D01*
X49486Y137279D01*
X49467Y137255D01*
X49445Y137227D01*
X49423Y137195D01*
X49401Y137159D01*
X49379Y137121D01*
X49358Y137077D01*
X49338Y137031D01*
X49319Y136979D01*
X49300Y136925D01*
X49286Y136867D01*
X48954Y136952D01*
Y136957D01*
X48959Y136971D01*
X48964Y136990D01*
X48975Y137020D01*
X48986Y137053D01*
X49003Y137094D01*
X49019Y137137D01*
X49041Y137184D01*
X49065Y137236D01*
X49093Y137285D01*
X49123Y137339D01*
X49158Y137391D01*
X49196Y137440D01*
X49237Y137490D01*
X49284Y137536D01*
X49333Y137580D01*
X49336Y137582D01*
X49347Y137588D01*
X49360Y137599D01*
X49382Y137612D01*
X49407Y137629D01*
X49439Y137648D01*
X49475Y137667D01*
X49519Y137686D01*
X49565Y137705D01*
X49614Y137724D01*
X49669Y137743D01*
X49729Y137760D01*
X49792Y137774D01*
X49857Y137784D01*
X49925Y137790D01*
X49999Y137793D01*
X50037D01*
X50067Y137790D01*
D02*
G37*
G36*
X16603Y147635D02*
X16635Y147632D01*
X16677Y147630D01*
X16720Y147624D01*
X16769Y147616D01*
X16821Y147608D01*
X16876Y147597D01*
X16930Y147583D01*
X16985Y147570D01*
X17042Y147550D01*
X17097Y147529D01*
X17149Y147504D01*
X17198Y147474D01*
X17201Y147471D01*
X17209Y147466D01*
X17222Y147458D01*
X17239Y147444D01*
X17261Y147425D01*
X17285Y147406D01*
X17312Y147381D01*
X17343Y147351D01*
X17373Y147318D01*
X17405Y147283D01*
X17435Y147245D01*
X17468Y147201D01*
X17501Y147155D01*
X17531Y147106D01*
X17558Y147051D01*
X17586Y146994D01*
X17588Y146991D01*
X17591Y146980D01*
X17596Y146961D01*
X17605Y146939D01*
X17616Y146909D01*
X17627Y146876D01*
X17637Y146835D01*
X17651Y146792D01*
X17662Y146742D01*
X17676Y146690D01*
X17687Y146636D01*
X17695Y146576D01*
X17711Y146450D01*
X17714Y146385D01*
X17717Y146319D01*
Y146314D01*
Y146303D01*
Y146281D01*
X17714Y146254D01*
X17711Y146218D01*
X17708Y146177D01*
X17703Y146134D01*
X17697Y146084D01*
X17689Y146033D01*
X17681Y145978D01*
X17654Y145861D01*
X17635Y145803D01*
X17616Y145746D01*
X17594Y145686D01*
X17566Y145631D01*
X17564Y145629D01*
X17558Y145618D01*
X17550Y145604D01*
X17539Y145582D01*
X17523Y145558D01*
X17504Y145530D01*
X17482Y145500D01*
X17457Y145465D01*
X17427Y145432D01*
X17397Y145394D01*
X17362Y145358D01*
X17323Y145320D01*
X17282Y145285D01*
X17239Y145249D01*
X17190Y145216D01*
X17141Y145186D01*
X17138Y145184D01*
X17127Y145181D01*
X17113Y145173D01*
X17091Y145162D01*
X17067Y145151D01*
X17034Y145137D01*
X16999Y145124D01*
X16960Y145110D01*
X16917Y145096D01*
X16868Y145083D01*
X16818Y145069D01*
X16764Y145058D01*
X16652Y145039D01*
X16592Y145036D01*
X16529Y145033D01*
X16493D01*
X16466Y145036D01*
X16433Y145039D01*
X16395Y145044D01*
X16354Y145050D01*
X16308Y145058D01*
X16259Y145069D01*
X16207Y145080D01*
X16155Y145096D01*
X16100Y145115D01*
X16046Y145137D01*
X15994Y145165D01*
X15942Y145192D01*
X15893Y145227D01*
X15890Y145230D01*
X15882Y145235D01*
X15868Y145246D01*
X15852Y145263D01*
X15830Y145282D01*
X15806Y145306D01*
X15781Y145334D01*
X15751Y145367D01*
X15721Y145402D01*
X15691Y145443D01*
X15661Y145487D01*
X15634Y145536D01*
X15604Y145588D01*
X15579Y145645D01*
X15554Y145705D01*
X15533Y145768D01*
X15860Y145844D01*
Y145842D01*
X15866Y145833D01*
X15868Y145817D01*
X15877Y145798D01*
X15885Y145776D01*
X15898Y145751D01*
X15926Y145691D01*
X15961Y145626D01*
X16008Y145558D01*
X16057Y145495D01*
X16087Y145467D01*
X16117Y145443D01*
X16119Y145440D01*
X16125Y145438D01*
X16133Y145432D01*
X16147Y145424D01*
X16163Y145413D01*
X16182Y145402D01*
X16204Y145391D01*
X16231Y145380D01*
X16262Y145369D01*
X16292Y145358D01*
X16363Y145336D01*
X16444Y145323D01*
X16488Y145317D01*
X16562D01*
X16584Y145320D01*
X16608Y145323D01*
X16638Y145326D01*
X16671Y145328D01*
X16704Y145334D01*
X16783Y145353D01*
X16865Y145377D01*
X16906Y145394D01*
X16947Y145413D01*
X16985Y145435D01*
X17023Y145459D01*
X17026Y145462D01*
X17031Y145465D01*
X17042Y145473D01*
X17056Y145484D01*
X17070Y145498D01*
X17089Y145517D01*
X17108Y145536D01*
X17130Y145558D01*
X17152Y145585D01*
X17176Y145612D01*
X17220Y145675D01*
X17261Y145749D01*
X17296Y145833D01*
Y145836D01*
X17299Y145844D01*
X17304Y145858D01*
X17307Y145874D01*
X17312Y145896D01*
X17321Y145921D01*
X17326Y145951D01*
X17334Y145981D01*
X17343Y146016D01*
X17348Y146054D01*
X17362Y146136D01*
X17370Y146224D01*
X17373Y146317D01*
Y146319D01*
Y146330D01*
Y146347D01*
X17370Y146371D01*
Y146398D01*
X17367Y146431D01*
X17364Y146467D01*
X17362Y146508D01*
X17356Y146551D01*
X17351Y146595D01*
X17334Y146690D01*
X17310Y146786D01*
X17280Y146879D01*
Y146882D01*
X17274Y146890D01*
X17269Y146901D01*
X17263Y146917D01*
X17253Y146939D01*
X17239Y146961D01*
X17209Y147013D01*
X17168Y147073D01*
X17119Y147130D01*
X17059Y147187D01*
X17026Y147212D01*
X16990Y147237D01*
X16988D01*
X16982Y147242D01*
X16971Y147248D01*
X16955Y147256D01*
X16936Y147264D01*
X16914Y147275D01*
X16889Y147283D01*
X16862Y147294D01*
X16799Y147316D01*
X16726Y147335D01*
X16646Y147348D01*
X16605Y147351D01*
X16562Y147354D01*
X16534D01*
X16515Y147351D01*
X16491Y147348D01*
X16464Y147346D01*
X16431Y147340D01*
X16398Y147335D01*
X16322Y147316D01*
X16283Y147302D01*
X16242Y147286D01*
X16201Y147267D01*
X16163Y147245D01*
X16125Y147220D01*
X16087Y147193D01*
X16084Y147190D01*
X16079Y147185D01*
X16068Y147177D01*
X16054Y147163D01*
X16040Y147146D01*
X16021Y147125D01*
X16002Y147100D01*
X15980Y147073D01*
X15958Y147040D01*
X15937Y147004D01*
X15915Y146966D01*
X15893Y146923D01*
X15874Y146876D01*
X15855Y146824D01*
X15836Y146770D01*
X15822Y146712D01*
X15489Y146797D01*
Y146802D01*
X15494Y146816D01*
X15500Y146835D01*
X15511Y146865D01*
X15522Y146898D01*
X15538Y146939D01*
X15554Y146983D01*
X15576Y147029D01*
X15601Y147081D01*
X15628Y147130D01*
X15658Y147185D01*
X15694Y147237D01*
X15732Y147286D01*
X15773Y147335D01*
X15819Y147381D01*
X15868Y147425D01*
X15871Y147428D01*
X15882Y147433D01*
X15896Y147444D01*
X15917Y147458D01*
X15942Y147474D01*
X15975Y147493D01*
X16010Y147512D01*
X16054Y147531D01*
X16100Y147550D01*
X16150Y147570D01*
X16204Y147589D01*
X16264Y147605D01*
X16327Y147619D01*
X16393Y147630D01*
X16461Y147635D01*
X16534Y147638D01*
X16573D01*
X16603Y147635D01*
D02*
G37*
G36*
X14348Y145629D02*
X14353Y145634D01*
X14367Y145648D01*
X14391Y145667D01*
X14427Y145694D01*
X14468Y145727D01*
X14520Y145762D01*
X14577Y145801D01*
X14643Y145842D01*
X14645D01*
X14651Y145847D01*
X14659Y145852D01*
X14673Y145858D01*
X14689Y145869D01*
X14708Y145877D01*
X14752Y145902D01*
X14801Y145926D01*
X14855Y145953D01*
X14913Y145978D01*
X14967Y146000D01*
Y145702D01*
X14965Y145700D01*
X14957Y145697D01*
X14943Y145689D01*
X14924Y145680D01*
X14902Y145669D01*
X14875Y145653D01*
X14845Y145637D01*
X14815Y145620D01*
X14744Y145577D01*
X14667Y145525D01*
X14588Y145470D01*
X14514Y145407D01*
X14512Y145405D01*
X14506Y145399D01*
X14495Y145391D01*
X14481Y145377D01*
X14468Y145361D01*
X14449Y145345D01*
X14408Y145298D01*
X14361Y145249D01*
X14315Y145192D01*
X14274Y145132D01*
X14239Y145069D01*
X14039D01*
Y147597D01*
X14348D01*
Y145629D01*
D02*
G37*
G36*
X16600Y187301D02*
X16627Y187298D01*
X16660Y187292D01*
X16696Y187287D01*
X16734Y187279D01*
X16775Y187270D01*
X16816Y187257D01*
X16859Y187243D01*
X16900Y187224D01*
X16944Y187202D01*
X16982Y187178D01*
X17020Y187148D01*
X17056Y187115D01*
X17059Y187112D01*
X17064Y187107D01*
X17072Y187096D01*
X17083Y187079D01*
X17097Y187060D01*
X17110Y187036D01*
X17127Y187006D01*
X17143Y186973D01*
X17157Y186935D01*
X17173Y186894D01*
X17187Y186847D01*
X17201Y186795D01*
X17209Y186741D01*
X17217Y186681D01*
X17222Y186618D01*
Y186550D01*
X16922Y186506D01*
Y186509D01*
Y186520D01*
X16919Y186533D01*
Y186552D01*
X16917Y186577D01*
X16914Y186604D01*
X16906Y186664D01*
X16892Y186730D01*
X16873Y186795D01*
X16862Y186826D01*
X16849Y186855D01*
X16832Y186880D01*
X16816Y186902D01*
X16810Y186907D01*
X16797Y186918D01*
X16775Y186935D01*
X16745Y186954D01*
X16706Y186973D01*
X16660Y186989D01*
X16608Y187000D01*
X16548Y187006D01*
X16526D01*
X16504Y187003D01*
X16474Y186997D01*
X16439Y186992D01*
X16404Y186981D01*
X16368Y186967D01*
X16332Y186948D01*
X16327Y186946D01*
X16316Y186937D01*
X16303Y186924D01*
X16281Y186907D01*
X16262Y186885D01*
X16240Y186858D01*
X16221Y186828D01*
X16204Y186793D01*
X16201Y186787D01*
X16199Y186774D01*
X16193Y186749D01*
X16185Y186716D01*
X16180Y186673D01*
X16174Y186618D01*
X16171Y186555D01*
X16169Y186517D01*
Y186479D01*
Y184742D01*
X15836D01*
Y186460D01*
Y186462D01*
Y186473D01*
Y186490D01*
Y186512D01*
X15838Y186539D01*
Y186569D01*
X15841Y186604D01*
X15846Y186640D01*
X15855Y186719D01*
X15868Y186801D01*
X15888Y186880D01*
X15901Y186916D01*
X15915Y186951D01*
Y186954D01*
X15917Y186959D01*
X15923Y186967D01*
X15928Y186978D01*
X15948Y187011D01*
X15975Y187049D01*
X16008Y187090D01*
X16049Y187134D01*
X16100Y187175D01*
X16158Y187213D01*
X16161D01*
X16166Y187216D01*
X16174Y187221D01*
X16188Y187227D01*
X16201Y187235D01*
X16221Y187240D01*
X16242Y187249D01*
X16267Y187257D01*
X16324Y187276D01*
X16390Y187290D01*
X16464Y187301D01*
X16545Y187303D01*
X16578D01*
X16600Y187301D01*
D02*
G37*
G36*
X14561Y185294D02*
X14566Y185299D01*
X14580Y185313D01*
X14604Y185332D01*
X14640Y185359D01*
X14681Y185392D01*
X14733Y185428D01*
X14790Y185466D01*
X14856Y185507D01*
X14858D01*
X14864Y185512D01*
X14872Y185518D01*
X14886Y185523D01*
X14902Y185534D01*
X14921Y185542D01*
X14965Y185567D01*
X15014Y185591D01*
X15068Y185619D01*
X15126Y185643D01*
X15180Y185665D01*
Y185368D01*
X15178Y185365D01*
X15169Y185362D01*
X15156Y185354D01*
X15137Y185346D01*
X15115Y185335D01*
X15088Y185319D01*
X15058Y185302D01*
X15028Y185286D01*
X14957Y185242D01*
X14880Y185190D01*
X14801Y185136D01*
X14727Y185073D01*
X14725Y185070D01*
X14719Y185065D01*
X14708Y185056D01*
X14694Y185043D01*
X14681Y185026D01*
X14662Y185010D01*
X14621Y184964D01*
X14574Y184915D01*
X14528Y184857D01*
X14487Y184797D01*
X14451Y184734D01*
X14252D01*
Y187262D01*
X14561D01*
Y185294D01*
D02*
G37*
G36*
X50067Y127950D02*
X50100Y127947D01*
X50141Y127945D01*
X50185Y127939D01*
X50234Y127931D01*
X50286Y127923D01*
X50340Y127912D01*
X50395Y127898D01*
X50450Y127885D01*
X50507Y127866D01*
X50561Y127844D01*
X50613Y127819D01*
X50662Y127789D01*
X50665Y127786D01*
X50673Y127781D01*
X50687Y127773D01*
X50703Y127759D01*
X50725Y127740D01*
X50750Y127721D01*
X50777Y127696D01*
X50807Y127666D01*
X50837Y127633D01*
X50870Y127598D01*
X50900Y127560D01*
X50933Y127516D01*
X50965Y127470D01*
X50995Y127420D01*
X51023Y127366D01*
X51050Y127308D01*
X51053Y127306D01*
X51056Y127295D01*
X51061Y127276D01*
X51069Y127254D01*
X51080Y127224D01*
X51091Y127191D01*
X51102Y127150D01*
X51116Y127106D01*
X51126Y127057D01*
X51140Y127006D01*
X51151Y126951D01*
X51159Y126891D01*
X51176Y126765D01*
X51178Y126700D01*
X51181Y126634D01*
Y126629D01*
Y126618D01*
Y126596D01*
X51178Y126569D01*
X51176Y126533D01*
X51173Y126492D01*
X51168Y126449D01*
X51162Y126399D01*
X51154Y126348D01*
X51146Y126293D01*
X51118Y126176D01*
X51099Y126118D01*
X51080Y126061D01*
X51058Y126001D01*
X51031Y125946D01*
X51028Y125944D01*
X51023Y125933D01*
X51015Y125919D01*
X51004Y125897D01*
X50987Y125873D01*
X50968Y125845D01*
X50946Y125815D01*
X50922Y125780D01*
X50892Y125747D01*
X50862Y125709D01*
X50826Y125673D01*
X50788Y125635D01*
X50747Y125600D01*
X50703Y125564D01*
X50654Y125531D01*
X50605Y125501D01*
X50602Y125498D01*
X50591Y125496D01*
X50578Y125488D01*
X50556Y125477D01*
X50531Y125466D01*
X50499Y125452D01*
X50463Y125438D01*
X50425Y125425D01*
X50381Y125411D01*
X50332Y125398D01*
X50283Y125384D01*
X50228Y125373D01*
X50116Y125354D01*
X50056Y125351D01*
X49994Y125348D01*
X49958D01*
X49931Y125351D01*
X49898Y125354D01*
X49860Y125359D01*
X49819Y125365D01*
X49773Y125373D01*
X49723Y125384D01*
X49672Y125395D01*
X49620Y125411D01*
X49565Y125430D01*
X49510Y125452D01*
X49459Y125479D01*
X49407Y125507D01*
X49358Y125542D01*
X49355Y125545D01*
X49347Y125550D01*
X49333Y125561D01*
X49317Y125578D01*
X49295Y125597D01*
X49270Y125621D01*
X49246Y125649D01*
X49216Y125681D01*
X49185Y125717D01*
X49156Y125758D01*
X49125Y125802D01*
X49098Y125851D01*
X49068Y125903D01*
X49044Y125960D01*
X49019Y126020D01*
X48997Y126083D01*
X49325Y126159D01*
Y126156D01*
X49330Y126148D01*
X49333Y126132D01*
X49341Y126113D01*
X49349Y126091D01*
X49363Y126066D01*
X49390Y126006D01*
X49426Y125941D01*
X49472Y125873D01*
X49521Y125810D01*
X49551Y125783D01*
X49581Y125758D01*
X49584Y125755D01*
X49590Y125752D01*
X49598Y125747D01*
X49611Y125739D01*
X49628Y125728D01*
X49647Y125717D01*
X49669Y125706D01*
X49696Y125695D01*
X49726Y125684D01*
X49756Y125673D01*
X49827Y125651D01*
X49909Y125638D01*
X49953Y125632D01*
X50026D01*
X50048Y125635D01*
X50073Y125638D01*
X50103Y125640D01*
X50136Y125643D01*
X50168Y125649D01*
X50248Y125668D01*
X50329Y125692D01*
X50370Y125709D01*
X50411Y125728D01*
X50450Y125750D01*
X50488Y125774D01*
X50490Y125777D01*
X50496Y125780D01*
X50507Y125788D01*
X50520Y125799D01*
X50534Y125812D01*
X50553Y125832D01*
X50572Y125851D01*
X50594Y125873D01*
X50616Y125900D01*
X50641Y125927D01*
X50684Y125990D01*
X50725Y126064D01*
X50761Y126148D01*
Y126151D01*
X50763Y126159D01*
X50769Y126173D01*
X50772Y126189D01*
X50777Y126211D01*
X50785Y126236D01*
X50791Y126266D01*
X50799Y126296D01*
X50807Y126331D01*
X50813Y126369D01*
X50826Y126451D01*
X50834Y126539D01*
X50837Y126631D01*
Y126634D01*
Y126645D01*
Y126662D01*
X50834Y126686D01*
Y126713D01*
X50832Y126746D01*
X50829Y126782D01*
X50826Y126823D01*
X50821Y126866D01*
X50815Y126910D01*
X50799Y127006D01*
X50774Y127101D01*
X50744Y127194D01*
Y127197D01*
X50739Y127205D01*
X50733Y127216D01*
X50728Y127232D01*
X50717Y127254D01*
X50703Y127276D01*
X50673Y127328D01*
X50632Y127388D01*
X50583Y127445D01*
X50523Y127502D01*
X50490Y127527D01*
X50455Y127551D01*
X50452D01*
X50447Y127557D01*
X50436Y127562D01*
X50419Y127571D01*
X50400Y127579D01*
X50379Y127590D01*
X50354Y127598D01*
X50327Y127609D01*
X50264Y127631D01*
X50190Y127650D01*
X50111Y127663D01*
X50070Y127666D01*
X50026Y127669D01*
X49999D01*
X49980Y127666D01*
X49955Y127663D01*
X49928Y127661D01*
X49895Y127655D01*
X49863Y127650D01*
X49786Y127631D01*
X49748Y127617D01*
X49707Y127601D01*
X49666Y127582D01*
X49628Y127560D01*
X49590Y127535D01*
X49551Y127508D01*
X49549Y127505D01*
X49543Y127500D01*
X49532Y127491D01*
X49519Y127478D01*
X49505Y127461D01*
X49486Y127440D01*
X49467Y127415D01*
X49445Y127388D01*
X49423Y127355D01*
X49401Y127320D01*
X49379Y127281D01*
X49358Y127238D01*
X49338Y127191D01*
X49319Y127139D01*
X49300Y127085D01*
X49286Y127027D01*
X48954Y127112D01*
Y127117D01*
X48959Y127131D01*
X48964Y127150D01*
X48975Y127180D01*
X48986Y127213D01*
X49003Y127254D01*
X49019Y127298D01*
X49041Y127344D01*
X49065Y127396D01*
X49093Y127445D01*
X49123Y127500D01*
X49158Y127551D01*
X49196Y127601D01*
X49237Y127650D01*
X49284Y127696D01*
X49333Y127740D01*
X49336Y127743D01*
X49347Y127748D01*
X49360Y127759D01*
X49382Y127773D01*
X49407Y127789D01*
X49439Y127808D01*
X49475Y127827D01*
X49519Y127846D01*
X49565Y127866D01*
X49614Y127885D01*
X49669Y127904D01*
X49729Y127920D01*
X49792Y127934D01*
X49857Y127945D01*
X49925Y127950D01*
X49999Y127953D01*
X50037D01*
X50067Y127950D01*
D02*
G37*
G36*
X47676Y127308D02*
X48773D01*
Y127025D01*
X47621Y125392D01*
X47367D01*
Y127025D01*
X47026D01*
Y127308D01*
X47367D01*
Y127912D01*
X47676D01*
Y127308D01*
D02*
G37*
%LPC*%
G36*
X40031Y94601D02*
X39452D01*
X39430Y94598D01*
X39406D01*
X39351Y94596D01*
X39289Y94590D01*
X39223Y94582D01*
X39160Y94571D01*
X39103Y94557D01*
X39100D01*
X39097Y94555D01*
X39089Y94552D01*
X39078Y94549D01*
X39054Y94538D01*
X39021Y94525D01*
X38986Y94506D01*
X38947Y94484D01*
X38909Y94456D01*
X38876Y94426D01*
X38874Y94424D01*
X38871Y94421D01*
X38857Y94405D01*
X38835Y94377D01*
X38808Y94342D01*
X38781Y94295D01*
X38751Y94241D01*
X38721Y94178D01*
X38693Y94107D01*
Y94104D01*
X38691Y94099D01*
X38688Y94088D01*
X38682Y94072D01*
X38677Y94052D01*
X38672Y94028D01*
X38666Y94001D01*
X38658Y93971D01*
X38653Y93938D01*
X38647Y93900D01*
X38642Y93861D01*
X38636Y93818D01*
X38628Y93725D01*
X38625Y93621D01*
Y93616D01*
Y93605D01*
Y93583D01*
X38628Y93555D01*
Y93523D01*
X38631Y93485D01*
X38636Y93444D01*
X38642Y93397D01*
X38658Y93299D01*
X38680Y93198D01*
X38712Y93102D01*
X38734Y93056D01*
X38756Y93015D01*
X38759Y93012D01*
X38762Y93007D01*
X38770Y92996D01*
X38781Y92980D01*
X38792Y92963D01*
X38808Y92944D01*
X38844Y92900D01*
X38890Y92851D01*
X38945Y92805D01*
X39005Y92761D01*
X39037Y92745D01*
X39073Y92728D01*
X39076D01*
X39078Y92726D01*
X39087Y92723D01*
X39097Y92720D01*
X39114Y92717D01*
X39130Y92712D01*
X39152Y92707D01*
X39177Y92701D01*
X39204Y92698D01*
X39237Y92693D01*
X39272Y92687D01*
X39310Y92685D01*
X39354Y92682D01*
X39401Y92679D01*
X39450Y92677D01*
X40031D01*
Y94601D01*
D02*
G37*
G36*
X116062Y94001D02*
X115481D01*
Y92076D01*
X116060D01*
X116081Y92079D01*
X116106D01*
X116161Y92082D01*
X116223Y92087D01*
X116289Y92095D01*
X116352Y92106D01*
X116409Y92120D01*
X116412D01*
X116414Y92123D01*
X116423Y92125D01*
X116434Y92128D01*
X116458Y92139D01*
X116491Y92153D01*
X116526Y92172D01*
X116565Y92194D01*
X116603Y92221D01*
X116636Y92251D01*
X116638Y92254D01*
X116641Y92256D01*
X116655Y92273D01*
X116676Y92300D01*
X116704Y92335D01*
X116731Y92382D01*
X116761Y92436D01*
X116791Y92499D01*
X116818Y92570D01*
Y92573D01*
X116821Y92579D01*
X116824Y92589D01*
X116829Y92606D01*
X116835Y92625D01*
X116840Y92649D01*
X116846Y92677D01*
X116854Y92707D01*
X116859Y92739D01*
X116865Y92778D01*
X116870Y92816D01*
X116876Y92860D01*
X116884Y92953D01*
X116887Y93056D01*
Y93062D01*
Y93073D01*
Y93094D01*
X116884Y93122D01*
Y93155D01*
X116881Y93193D01*
X116876Y93234D01*
X116870Y93280D01*
X116854Y93378D01*
X116832Y93479D01*
X116799Y93575D01*
X116778Y93621D01*
X116756Y93662D01*
X116753Y93665D01*
X116750Y93670D01*
X116742Y93681D01*
X116731Y93698D01*
X116720Y93714D01*
X116704Y93733D01*
X116668Y93777D01*
X116622Y93826D01*
X116567Y93872D01*
X116507Y93916D01*
X116474Y93932D01*
X116439Y93949D01*
X116436D01*
X116434Y93952D01*
X116425Y93954D01*
X116414Y93957D01*
X116398Y93960D01*
X116382Y93965D01*
X116360Y93971D01*
X116335Y93976D01*
X116308Y93979D01*
X116275Y93984D01*
X116240Y93990D01*
X116201Y93993D01*
X116158Y93995D01*
X116111Y93998D01*
X116062Y94001D01*
D02*
G37*
G36*
X44435Y186917D02*
X44432D01*
X44424D01*
X44410D01*
X44391Y186915D01*
X44369Y186912D01*
X44345Y186909D01*
X44317Y186907D01*
X44287Y186901D01*
X44222Y186885D01*
X44154Y186860D01*
X44118Y186844D01*
X44085Y186825D01*
X44055Y186803D01*
X44025Y186778D01*
X44023Y186775D01*
X44020Y186773D01*
X44012Y186765D01*
X44001Y186754D01*
X43990Y186740D01*
X43976Y186724D01*
X43949Y186683D01*
X43922Y186631D01*
X43897Y186571D01*
X43878Y186502D01*
X43875Y186464D01*
X43872Y186426D01*
Y186407D01*
X43875Y186390D01*
X43878Y186374D01*
X43881Y186352D01*
X43892Y186303D01*
X43911Y186246D01*
X43938Y186186D01*
X43954Y186156D01*
X43973Y186126D01*
X43998Y186096D01*
X44025Y186068D01*
X44028Y186066D01*
X44034Y186063D01*
X44042Y186055D01*
X44053Y186047D01*
X44066Y186036D01*
X44085Y186022D01*
X44107Y186008D01*
X44132Y185997D01*
X44156Y185984D01*
X44186Y185970D01*
X44255Y185945D01*
X44331Y185929D01*
X44375Y185926D01*
X44418Y185924D01*
X44421D01*
X44427D01*
X44435D01*
X44446D01*
X44459Y185926D01*
X44476D01*
X44517Y185932D01*
X44563Y185940D01*
X44615Y185951D01*
X44670Y185967D01*
X44724Y185989D01*
X44727D01*
X44730Y185992D01*
X44738Y185997D01*
X44749Y186003D01*
X44773Y186016D01*
X44806Y186038D01*
X44842Y186066D01*
X44877Y186098D01*
X44912Y186134D01*
X44945Y186178D01*
Y186180D01*
X44948Y186183D01*
X44956Y186199D01*
X44970Y186224D01*
X44984Y186257D01*
X44997Y186295D01*
X45011Y186339D01*
X45019Y186388D01*
X45022Y186437D01*
Y186456D01*
X45019Y186470D01*
X45016Y186489D01*
X45014Y186508D01*
X45003Y186554D01*
X44984Y186606D01*
X44970Y186636D01*
X44956Y186663D01*
X44937Y186694D01*
X44918Y186721D01*
X44893Y186748D01*
X44866Y186775D01*
X44863Y186778D01*
X44858Y186781D01*
X44850Y186789D01*
X44836Y186797D01*
X44820Y186808D01*
X44801Y186819D01*
X44779Y186833D01*
X44752Y186846D01*
X44724Y186860D01*
X44691Y186874D01*
X44656Y186885D01*
X44618Y186896D01*
X44577Y186904D01*
X44530Y186912D01*
X44484Y186915D01*
X44435Y186917D01*
D02*
G37*
G36*
X48470Y127025D02*
X47676D01*
Y125889D01*
X48470Y127025D01*
D02*
G37*
%LPD*%
D14*
X22243Y157087D02*
Y169685D01*
X30511D01*
Y157087D02*
Y169685D01*
X22243Y157087D02*
X30511D01*
X20669Y73442D02*
X65945D01*
X20669D02*
Y116355D01*
X65945D01*
Y73442D02*
Y116355D01*
X76811Y181663D02*
X147598D01*
Y3376D02*
Y181663D01*
X76811Y3376D02*
X147598D01*
X76811D02*
Y181663D01*
X53839Y181201D02*
Y195374D01*
Y181201D02*
X66043D01*
Y195374D01*
X53839D02*
X66043D01*
X35236Y171063D02*
X67126D01*
Y143898D02*
Y171063D01*
X35236Y143898D02*
X67126D01*
X35236D02*
Y171063D01*
X41142Y176772D02*
X49409D01*
Y189370D01*
X41142D02*
X49409D01*
X41142Y176772D02*
Y189370D01*
X31299Y176772D02*
X39567D01*
Y189370D01*
X31299D02*
X39567D01*
X31299Y176772D02*
Y189370D01*
X44882Y133661D02*
X57480D01*
X44882D02*
Y141929D01*
X57480D01*
Y133661D02*
Y141929D01*
X11417Y143504D02*
X24016D01*
X11417D02*
Y151772D01*
X24016D01*
Y143504D02*
Y151772D01*
X5116Y176279D02*
X29329D01*
X5116D02*
Y198327D01*
X29329D01*
Y176279D02*
Y198327D01*
X44882Y123819D02*
X57480D01*
X44882D02*
Y132087D01*
X57480D01*
Y123819D02*
Y132087D01*
M02*
