G04*
G04 #@! TF.GenerationSoftware,Altium Limited,Altium Designer,24.6.1 (21)*
G04*
G04 Layer_Color=2752767*
%FSLAX25Y25*%
%MOIN*%
G70*
G04*
G04 #@! TF.SameCoordinates,FB6864B3-348A-4B3C-8FDE-2C751703143F*
G04*
G04*
G04 #@! TF.FilePolarity,Positive*
G04*
G01*
G75*
%ADD12C,0.00500*%
%ADD67C,0.00667*%
D12*
X55874Y19654D02*
X56874Y21654D01*
X55874Y23654D01*
X57874Y22654D01*
X59874Y23654D01*
X58874Y21654D01*
X59874Y19654D01*
X57874Y20654D01*
X55874Y19654D01*
Y27921D02*
X56874Y29921D01*
X55874Y31921D01*
X57874Y30921D01*
X59874Y31921D01*
X58874Y29921D01*
X59874Y27921D01*
X57874Y28921D01*
X55874Y27921D01*
X6874Y152937D02*
Y151937D01*
X8874D01*
Y152937D01*
X9874D01*
Y154937D01*
X8874D01*
Y155937D01*
X6874D01*
Y154937D01*
X5874D01*
Y152937D01*
X6874D01*
Y163961D02*
Y162961D01*
X8874D01*
Y163961D01*
X9874D01*
Y165961D01*
X8874D01*
Y166961D01*
X6874D01*
Y165961D01*
X5874D01*
Y163961D01*
X6874D01*
X8268Y124378D02*
X9268Y125378D01*
X10268D01*
X9268Y126378D01*
X10268Y127378D01*
X9268D01*
X8268Y128378D01*
X7268Y127378D01*
X6268D01*
X7268Y126378D01*
X6268Y125378D01*
X7268D01*
X8268Y124378D01*
X177165Y11779D02*
X175165Y15779D01*
X179165D01*
X177165Y11779D01*
X167165D02*
X165165Y15779D01*
X169165D01*
X167165Y11779D01*
X157165D02*
X155165Y15779D01*
X159165D01*
X157165Y11779D01*
X80205Y164270D02*
Y168270D01*
X84205D01*
Y164270D01*
X80205D01*
Y154270D02*
Y158270D01*
X84205D01*
Y154270D01*
X80205D01*
Y144270D02*
Y148270D01*
X84205D01*
Y144270D01*
X80205D01*
Y134270D02*
Y138270D01*
X84205D01*
Y134270D01*
X80205D01*
Y124270D02*
Y128270D01*
X84205D01*
Y124270D01*
X80205D01*
Y114270D02*
Y118270D01*
X84205D01*
Y114270D01*
X80205D01*
Y104270D02*
Y108270D01*
X84205D01*
Y104270D01*
X80205D01*
Y94270D02*
Y98270D01*
X84205D01*
Y94270D01*
X80205D01*
Y84270D02*
Y88270D01*
X84205D01*
Y84270D01*
X80205D01*
Y74270D02*
Y78270D01*
X84205D01*
Y74270D01*
X80205D01*
Y64270D02*
Y68270D01*
X84205D01*
Y64270D01*
X80205D01*
Y54270D02*
Y58270D01*
X84205D01*
Y54270D01*
X80205D01*
Y44270D02*
Y48270D01*
X84205D01*
Y44270D01*
X80205D01*
Y34270D02*
Y38270D01*
X84205D01*
Y34270D01*
X80205D01*
Y24270D02*
Y28270D01*
X84205D01*
Y24270D01*
X80205D01*
X140205D02*
Y28270D01*
X144205D01*
Y24270D01*
X140205D01*
Y34270D02*
Y38270D01*
X144205D01*
Y34270D01*
X140205D01*
Y44270D02*
Y48270D01*
X144205D01*
Y44270D01*
X140205D01*
Y54270D02*
Y58270D01*
X144205D01*
Y54270D01*
X140205D01*
Y64270D02*
Y68270D01*
X144205D01*
Y64270D01*
X140205D01*
Y74270D02*
Y78270D01*
X144205D01*
Y74270D01*
X140205D01*
Y84270D02*
Y88270D01*
X144205D01*
Y84270D01*
X140205D01*
Y94270D02*
Y98270D01*
X144205D01*
Y94270D01*
X140205D01*
Y104270D02*
Y108270D01*
X144205D01*
Y104270D01*
X140205D01*
Y114270D02*
Y118270D01*
X144205D01*
Y114270D01*
X140205D01*
Y124270D02*
Y128270D01*
X144205D01*
Y124270D01*
X140205D01*
Y134270D02*
Y138270D01*
X144205D01*
Y134270D01*
X140205D01*
Y144270D02*
Y148270D01*
X144205D01*
Y144270D01*
X140205D01*
Y154270D02*
Y158270D01*
X144205D01*
Y154270D01*
X140205D01*
Y164270D02*
Y168270D01*
X144205D01*
Y164270D01*
X140205D01*
X116535Y189732D02*
X117535Y190732D01*
X118535D01*
X117535Y191732D01*
X118535Y192732D01*
X117535D01*
X116535Y193732D01*
X115535Y192732D01*
X114535D01*
X115535Y191732D01*
X114535Y190732D01*
X115535D01*
X116535Y189732D01*
X200787Y9811D02*
X201787Y10811D01*
X202787D01*
X201787Y11811D01*
X202787Y12811D01*
X201787D01*
X200787Y13811D01*
X199787Y12811D01*
X198787D01*
X199787Y11811D01*
X198787Y10811D01*
X199787D01*
X200787Y9811D01*
D67*
X52394Y21654D02*
G03*
X52394Y21654I-2000J0D01*
G01*
X20504Y132283D02*
G03*
X20504Y132283I-2000J0D01*
G01*
X202787Y70866D02*
G03*
X202787Y70866I-2000J0D01*
G01*
X135858Y161417D02*
G03*
X135858Y161417I-2000J0D01*
G01*
X108299Y177165D02*
G03*
X108299Y177165I-2000J0D01*
G01*
X38221Y192913D02*
G03*
X38221Y192913I-2000J0D01*
G01*
X50032D02*
G03*
X50032Y192913I-2000J0D01*
G01*
X18929Y94488D02*
G03*
X18929Y94488I-2000J0D01*
G01*
X22472Y11811D02*
G03*
X22472Y11811I-2000J0D01*
G01*
X15779Y35433D02*
G03*
X15779Y35433I-2000J0D01*
G01*
X200819Y149606D02*
G03*
X200819Y149606I-2000J0D01*
G01*
X212630Y179134D02*
G03*
X212630Y179134I-2000J0D01*
G01*
X189008Y9843D02*
G03*
X189008Y9843I-2000J0D01*
G01*
X208693Y21654D02*
G03*
X208693Y21654I-2000J0D01*
G01*
X155543Y163386D02*
G03*
X155543Y163386I-2000J0D01*
G01*
X224441Y25591D02*
G03*
X224441Y25591I-2000J0D01*
G01*
X153575Y74803D02*
G03*
X153575Y74803I-2000J0D01*
G01*
X171291Y25591D02*
G03*
X171291Y25591I-2000J0D01*
G01*
X17748Y112205D02*
G03*
X17748Y112205I-2000J0D01*
G01*
X63024Y68898D02*
G03*
X63024Y68898I-2000J0D01*
G01*
X51213Y41339D02*
G03*
X51213Y41339I-2000J0D01*
G01*
X43339Y21654D02*
G03*
X43339Y21654I-2000J0D01*
G01*
X66961Y177165D02*
G03*
X66961Y177165I-2000J0D01*
G01*
X9874Y175197D02*
G03*
X9874Y175197I-2000J0D01*
G01*
X29559Y173228D02*
G03*
X29559Y173228I-2000J0D01*
G01*
X94520Y147638D02*
G03*
X94520Y147638I-2000J0D01*
G01*
X43043Y133858D02*
G03*
X43043Y133858I-2000J0D01*
G01*
X74835Y194882D02*
G03*
X74835Y194882I-2000J0D01*
G01*
X175228Y190945D02*
G03*
X175228Y190945I-2000J0D01*
G01*
M02*
