G04*
G04 #@! TF.GenerationSoftware,Altium Limited,Altium Designer,24.6.1 (21)*
G04*
G04 Layer_Color=8421504*
%FSLAX25Y25*%
%MOIN*%
G70*
G04*
G04 #@! TF.SameCoordinates,FB6864B3-348A-4B3C-8FDE-2C751703143F*
G04*
G04*
G04 #@! TF.FilePolarity,Positive*
G04*
G01*
G75*
%ADD20C,0.00689*%
%ADD21R,0.05000X0.07874*%
%ADD22R,0.01772X0.01772*%
%ADD23R,0.05315X0.03347*%
%ADD24R,0.05512X0.03740*%
%ADD25O,0.05906X0.11811*%
%ADD26R,0.03937X0.04134*%
%ADD27R,0.04134X0.08661*%
%ADD28R,0.03347X0.05315*%
%ADD29R,0.05906X0.04724*%
%ADD30R,0.05906X0.12992*%
%ADD31R,0.04134X0.03937*%
%ADD32R,0.08661X0.04134*%
%ADD33R,0.03740X0.05512*%
%ADD34R,0.04724X0.04724*%
%ADD35R,0.03937X0.10630*%
%ADD36R,0.02362X0.06693*%
G36*
X18701Y76198D02*
Y78954D01*
X24213D01*
Y78560D01*
X27756D01*
Y76591D01*
X24213D01*
Y76198D01*
X18701D01*
D02*
G37*
G36*
Y80332D02*
Y83481D01*
X24213D01*
Y83088D01*
X27756D01*
Y80725D01*
X24213D01*
Y80332D01*
X18701D01*
D02*
G37*
G36*
Y84662D02*
Y87812D01*
X24213D01*
Y87418D01*
X27756D01*
Y85056D01*
X24213D01*
Y84662D01*
X18701D01*
D02*
G37*
G36*
Y88993D02*
Y92143D01*
X24213D01*
Y91749D01*
X27756D01*
Y89387D01*
X24213D01*
Y88993D01*
X18701D01*
D02*
G37*
G36*
Y93324D02*
Y96473D01*
X24213D01*
Y96080D01*
X27756D01*
Y93717D01*
X24213D01*
Y93324D01*
X18701D01*
D02*
G37*
G36*
Y97654D02*
Y100804D01*
X24213D01*
Y100410D01*
X27756D01*
Y98048D01*
X24213D01*
Y97654D01*
X18701D01*
D02*
G37*
G36*
Y101985D02*
Y105135D01*
X24213D01*
Y104741D01*
X27756D01*
Y102379D01*
X24213D01*
Y101985D01*
X18701D01*
D02*
G37*
G36*
Y106316D02*
Y109466D01*
X24213D01*
Y109072D01*
X27756D01*
Y106710D01*
X24213D01*
Y106316D01*
X18701D01*
D02*
G37*
G36*
Y110844D02*
Y113599D01*
X24213D01*
Y113206D01*
X27756D01*
Y111237D01*
X24213D01*
Y110844D01*
X18701D01*
D02*
G37*
G36*
X67913Y78954D02*
Y76198D01*
X62402D01*
Y76591D01*
X58858D01*
Y78560D01*
X62402D01*
Y78954D01*
X67913D01*
D02*
G37*
G36*
Y83481D02*
Y80332D01*
X62402D01*
Y80725D01*
X58858D01*
Y83088D01*
X62402D01*
Y83481D01*
X67913D01*
D02*
G37*
G36*
Y87812D02*
Y84662D01*
X62402D01*
Y85056D01*
X58858D01*
Y87418D01*
X62402D01*
Y87812D01*
X67913D01*
D02*
G37*
G36*
Y92143D02*
Y88993D01*
X62402D01*
Y89387D01*
X58858D01*
Y91749D01*
X62402D01*
Y92143D01*
X67913D01*
D02*
G37*
G36*
Y96473D02*
Y93324D01*
X62402D01*
Y93717D01*
X58858D01*
Y96080D01*
X62402D01*
Y96473D01*
X67913D01*
D02*
G37*
G36*
Y100804D02*
Y97654D01*
X62402D01*
Y98048D01*
X58858D01*
Y100410D01*
X62402D01*
Y100804D01*
X67913D01*
D02*
G37*
G36*
Y105135D02*
Y101985D01*
X62402D01*
Y102379D01*
X58858D01*
Y104741D01*
X62402D01*
Y105135D01*
X67913D01*
D02*
G37*
G36*
Y113599D02*
Y110844D01*
X62402D01*
Y111237D01*
X58858D01*
Y113206D01*
X62402D01*
Y113599D01*
X67913D01*
D02*
G37*
G36*
Y109466D02*
Y106316D01*
X62402D01*
Y106710D01*
X58858D01*
Y109072D01*
X62402D01*
Y109466D01*
X67913D01*
D02*
G37*
D20*
X63140Y192126D02*
G03*
X63140Y192126I-344J0D01*
G01*
Y189567D02*
G03*
X63140Y189567I-344J0D01*
G01*
Y187008D02*
G03*
X63140Y187008I-344J0D01*
G01*
Y184449D02*
G03*
X63140Y184449I-344J0D01*
G01*
X57431Y192126D02*
G03*
X57431Y192126I-344J0D01*
G01*
Y189567D02*
G03*
X57431Y189567I-344J0D01*
G01*
Y187008D02*
G03*
X57431Y187008I-344J0D01*
G01*
Y184449D02*
G03*
X57431Y184449I-344J0D01*
G01*
D21*
X185087Y141762D02*
D03*
X185039Y78740D02*
D03*
X200461Y78770D02*
D03*
X192961D02*
D03*
X177213Y78762D02*
D03*
X169339Y78740D02*
D03*
X216583D02*
D03*
X161465Y78770D02*
D03*
X208709Y141762D02*
D03*
X208459Y78762D02*
D03*
X161465Y141770D02*
D03*
X168965D02*
D03*
X177213Y141762D02*
D03*
X216583D02*
D03*
D22*
X62992Y123622D02*
D03*
Y120473D02*
D03*
X71653Y95669D02*
D03*
Y92520D02*
D03*
X79921Y196850D02*
D03*
Y193701D02*
D03*
D23*
X64961Y41339D02*
D03*
Y47835D02*
D03*
X187008Y181693D02*
D03*
Y175197D02*
D03*
X31496Y32185D02*
D03*
Y38681D02*
D03*
X214567Y19094D02*
D03*
Y25591D02*
D03*
D24*
X26377Y159744D02*
D03*
Y167028D02*
D03*
X45276Y186713D02*
D03*
Y179429D02*
D03*
X35433Y186713D02*
D03*
Y179429D02*
D03*
D25*
X102362Y192913D02*
D03*
X94488D02*
D03*
D26*
X187008Y190847D02*
D03*
X171358Y33366D02*
D03*
X192913D02*
D03*
X214469D02*
D03*
X31496Y17815D02*
D03*
D27*
X192815Y196850D02*
D03*
X181201D02*
D03*
X177165Y39370D02*
D03*
X165551D02*
D03*
X198721D02*
D03*
X187106D02*
D03*
X208661D02*
D03*
X220276D02*
D03*
X37303Y11811D02*
D03*
X25689D02*
D03*
D28*
X206004Y185039D02*
D03*
X199508D02*
D03*
X206004Y173228D02*
D03*
X199508D02*
D03*
X210039Y155512D02*
D03*
X216535D02*
D03*
X13189Y45276D02*
D03*
X19685D02*
D03*
Y25591D02*
D03*
X13189D02*
D03*
X17717Y61024D02*
D03*
X24213D02*
D03*
D29*
X38583Y166535D02*
D03*
Y157480D02*
D03*
Y148425D02*
D03*
D30*
X63779Y157480D02*
D03*
D31*
X171358Y159350D02*
D03*
X39272Y59055D02*
D03*
D32*
X165354Y165157D02*
D03*
Y153543D02*
D03*
X45276Y64862D02*
D03*
Y53248D02*
D03*
D33*
X54823Y137795D02*
D03*
X47539D02*
D03*
X21358Y147638D02*
D03*
X14075D02*
D03*
X54823Y127953D02*
D03*
X47539D02*
D03*
D34*
X64961Y29921D02*
D03*
Y21654D02*
D03*
D35*
X26967Y192618D02*
D03*
X7478D02*
D03*
D36*
X19683Y180020D02*
D03*
X14762D02*
D03*
M02*
