G04*
G04 #@! TF.GenerationSoftware,Altium Limited,Altium Designer,24.6.1 (21)*
G04*
G04 Layer_Color=255*
%FSLAX25Y25*%
%MOIN*%
G70*
G04*
G04 #@! TF.SameCoordinates,FB6864B3-348A-4B3C-8FDE-2C751703143F*
G04*
G04*
G04 #@! TF.FilePolarity,Positive*
G04*
G01*
G75*
%ADD21R,0.05000X0.07874*%
%ADD22R,0.01772X0.01772*%
%ADD23R,0.05315X0.03347*%
%ADD24R,0.05512X0.03740*%
%ADD25O,0.05906X0.11811*%
%ADD26R,0.03937X0.04134*%
%ADD27R,0.04134X0.08661*%
%ADD28R,0.03347X0.05315*%
%ADD29R,0.05906X0.04724*%
%ADD30R,0.05906X0.12992*%
%ADD31R,0.04134X0.03937*%
%ADD32R,0.08661X0.04134*%
%ADD33R,0.03740X0.05512*%
%ADD34R,0.04724X0.04724*%
%ADD35R,0.03937X0.10630*%
%ADD36R,0.02362X0.06693*%
%ADD41R,0.07087X0.02756*%
%ADD42R,0.07087X0.03150*%
%ADD46R,0.01378X0.01378*%
%ADD55R,0.05567X0.05567*%
%ADD56C,0.05567*%
%ADD59C,0.03937*%
%ADD60C,0.07874*%
%ADD61C,0.11811*%
G04:AMPARAMS|DCode=62|XSize=62.99mil|YSize=62.99mil|CornerRadius=15.75mil|HoleSize=0mil|Usage=FLASHONLY|Rotation=180.000|XOffset=0mil|YOffset=0mil|HoleType=Round|Shape=RoundedRectangle|*
%AMROUNDEDRECTD62*
21,1,0.06299,0.03150,0,0,180.0*
21,1,0.03150,0.06299,0,0,180.0*
1,1,0.03150,-0.01575,0.01575*
1,1,0.03150,0.01575,0.01575*
1,1,0.03150,0.01575,-0.01575*
1,1,0.03150,-0.01575,-0.01575*
%
%ADD62ROUNDEDRECTD62*%
%ADD63C,0.06299*%
D21*
X185087Y141762D02*
D03*
X185039Y78740D02*
D03*
X200461Y78770D02*
D03*
X192961D02*
D03*
X177213Y78762D02*
D03*
X169339Y78740D02*
D03*
X216583D02*
D03*
X161465Y78770D02*
D03*
X208709Y141762D02*
D03*
X208459Y78762D02*
D03*
X161465Y141770D02*
D03*
X168965D02*
D03*
X177213Y141762D02*
D03*
X216583D02*
D03*
D22*
X62992Y123622D02*
D03*
Y120473D02*
D03*
X71653Y95669D02*
D03*
Y92520D02*
D03*
X79921Y196850D02*
D03*
Y193701D02*
D03*
D23*
X64961Y41339D02*
D03*
Y47835D02*
D03*
X187008Y181693D02*
D03*
Y175197D02*
D03*
X31496Y32185D02*
D03*
Y38681D02*
D03*
X214567Y19094D02*
D03*
Y25591D02*
D03*
D24*
X26377Y159744D02*
D03*
Y167028D02*
D03*
X45276Y186713D02*
D03*
Y179429D02*
D03*
X35433Y186713D02*
D03*
Y179429D02*
D03*
D25*
X102362Y192913D02*
D03*
X94488D02*
D03*
D26*
X187008Y190847D02*
D03*
X171358Y33366D02*
D03*
X192913D02*
D03*
X214469D02*
D03*
X31496Y17815D02*
D03*
D27*
X192815Y196850D02*
D03*
X181201D02*
D03*
X177165Y39370D02*
D03*
X165551D02*
D03*
X198721D02*
D03*
X187106D02*
D03*
X208661D02*
D03*
X220276D02*
D03*
X37303Y11811D02*
D03*
X25689D02*
D03*
D28*
X206004Y185039D02*
D03*
X199508D02*
D03*
X206004Y173228D02*
D03*
X199508D02*
D03*
X210039Y155512D02*
D03*
X216535D02*
D03*
X13189Y45276D02*
D03*
X19685D02*
D03*
Y25591D02*
D03*
X13189D02*
D03*
X17717Y61024D02*
D03*
X24213D02*
D03*
D29*
X38583Y166535D02*
D03*
Y157480D02*
D03*
Y148425D02*
D03*
D30*
X63779Y157480D02*
D03*
D31*
X171358Y159350D02*
D03*
X39272Y59055D02*
D03*
D32*
X165354Y165157D02*
D03*
Y153543D02*
D03*
X45276Y64862D02*
D03*
Y53248D02*
D03*
D33*
X54823Y137795D02*
D03*
X47539D02*
D03*
X21358Y147638D02*
D03*
X14075D02*
D03*
X54823Y127953D02*
D03*
X47539D02*
D03*
D34*
X64961Y29921D02*
D03*
Y21654D02*
D03*
D35*
X26967Y192618D02*
D03*
X7478D02*
D03*
D36*
X19683Y180020D02*
D03*
X14762D02*
D03*
D41*
X62008Y77576D02*
D03*
Y112222D02*
D03*
X24606D02*
D03*
Y77576D02*
D03*
D42*
X62008Y81906D02*
D03*
Y86237D02*
D03*
Y90568D02*
D03*
Y94899D02*
D03*
Y99229D02*
D03*
Y103560D02*
D03*
Y107891D02*
D03*
X24606D02*
D03*
Y103560D02*
D03*
Y99229D02*
D03*
Y94899D02*
D03*
Y90568D02*
D03*
Y86237D02*
D03*
Y81906D02*
D03*
D46*
X57087Y192126D02*
D03*
Y189567D02*
D03*
Y187008D02*
D03*
Y184449D02*
D03*
X62795D02*
D03*
Y187008D02*
D03*
Y189567D02*
D03*
Y192126D02*
D03*
D55*
X82205Y166270D02*
D03*
D56*
Y156270D02*
D03*
Y146270D02*
D03*
Y136270D02*
D03*
Y126270D02*
D03*
Y116270D02*
D03*
Y106270D02*
D03*
Y96270D02*
D03*
Y86270D02*
D03*
Y76270D02*
D03*
Y66270D02*
D03*
Y56270D02*
D03*
Y46270D02*
D03*
Y36270D02*
D03*
Y26270D02*
D03*
X142205D02*
D03*
Y36270D02*
D03*
Y46270D02*
D03*
Y56270D02*
D03*
Y66270D02*
D03*
Y76270D02*
D03*
Y86270D02*
D03*
Y96270D02*
D03*
Y106270D02*
D03*
Y116270D02*
D03*
Y126270D02*
D03*
Y136270D02*
D03*
Y146270D02*
D03*
Y156270D02*
D03*
Y166270D02*
D03*
D59*
X57874Y21654D02*
D03*
Y29921D02*
D03*
D60*
X7874Y153937D02*
D03*
Y164961D02*
D03*
D61*
X8268Y126378D02*
D03*
X116535Y191732D02*
D03*
X200787Y11811D02*
D03*
D62*
X177165Y13780D02*
D03*
D63*
X167165D02*
D03*
X157165D02*
D03*
M02*
