G04*
G04 #@! TF.GenerationSoftware,Altium Limited,Altium Designer,24.6.1 (21)*
G04*
G04 Layer_Color=255*
%FSLAX25Y25*%
%MOIN*%
G70*
G04*
G04 #@! TF.SameCoordinates,FB6864B3-348A-4B3C-8FDE-2C751703143F*
G04*
G04*
G04 #@! TF.FilePolarity,Positive*
G04*
G01*
G75*
%ADD55R,0.05567X0.05567*%
%ADD56C,0.05567*%
%ADD59C,0.03937*%
%ADD60C,0.07874*%
%ADD61C,0.11811*%
G04:AMPARAMS|DCode=62|XSize=62.99mil|YSize=62.99mil|CornerRadius=15.75mil|HoleSize=0mil|Usage=FLASHONLY|Rotation=180.000|XOffset=0mil|YOffset=0mil|HoleType=Round|Shape=RoundedRectangle|*
%AMROUNDEDRECTD62*
21,1,0.06299,0.03150,0,0,180.0*
21,1,0.03150,0.06299,0,0,180.0*
1,1,0.03150,-0.01575,0.01575*
1,1,0.03150,0.01575,0.01575*
1,1,0.03150,0.01575,-0.01575*
1,1,0.03150,-0.01575,-0.01575*
%
%ADD62ROUNDEDRECTD62*%
%ADD63C,0.06299*%
D55*
X82205Y166270D02*
D03*
D56*
Y156270D02*
D03*
Y146270D02*
D03*
Y136270D02*
D03*
Y126270D02*
D03*
Y116270D02*
D03*
Y106270D02*
D03*
Y96270D02*
D03*
Y86270D02*
D03*
Y76270D02*
D03*
Y66270D02*
D03*
Y56270D02*
D03*
Y46270D02*
D03*
Y36270D02*
D03*
Y26270D02*
D03*
X142205D02*
D03*
Y36270D02*
D03*
Y46270D02*
D03*
Y56270D02*
D03*
Y66270D02*
D03*
Y76270D02*
D03*
Y86270D02*
D03*
Y96270D02*
D03*
Y106270D02*
D03*
Y116270D02*
D03*
Y126270D02*
D03*
Y136270D02*
D03*
Y146270D02*
D03*
Y156270D02*
D03*
Y166270D02*
D03*
D59*
X57874Y21654D02*
D03*
Y29921D02*
D03*
D60*
X7874Y153937D02*
D03*
Y164961D02*
D03*
D61*
X8268Y126378D02*
D03*
X116535Y191732D02*
D03*
D62*
X177165Y13780D02*
D03*
D63*
X167165D02*
D03*
X157165D02*
D03*
M02*
