G04*
G04 #@! TF.GenerationSoftware,Altium Limited,Altium Designer,24.6.1 (21)*
G04*
G04 Layer_Color=0*
%FSLAX25Y25*%
%MOIN*%
G70*
G04*
G04 #@! TF.SameCoordinates,FB6864B3-348A-4B3C-8FDE-2C751703143F*
G04*
G04*
G04 #@! TF.FilePolarity,Positive*
G04*
G01*
G75*
%ADD13C,0.00394*%
%ADD66C,0.00197*%
D13*
X26377Y161417D02*
Y165354D01*
X24408Y163386D02*
X28345D01*
X41339Y94899D02*
X45276D01*
X43307Y92930D02*
Y96867D01*
X110236Y92520D02*
X114173D01*
X112205Y90551D02*
Y94488D01*
X59941Y186319D02*
Y190256D01*
X57973Y188287D02*
X61910D01*
X49213Y157480D02*
X53150D01*
X51181Y155512D02*
Y159449D01*
X43307Y183071D02*
X47244D01*
X45276Y181102D02*
Y185039D01*
X33465Y183071D02*
X37402D01*
X35433Y181102D02*
Y185039D01*
X49213Y137795D02*
X53150D01*
X51181Y135827D02*
Y139764D01*
X15748Y147638D02*
X19685D01*
X17717Y145669D02*
Y149606D01*
X15254Y188976D02*
X19191D01*
X17222Y187008D02*
Y190945D01*
X49213Y127953D02*
X53150D01*
X51181Y125984D02*
Y129921D01*
D66*
X165197Y13780D02*
X169134D01*
X167165Y11811D02*
Y15748D01*
M02*
