G04*
G04 #@! TF.GenerationSoftware,Altium Limited,Altium Designer,24.6.1 (21)*
G04*
G04 Layer_Color=65535*
%FSLAX25Y25*%
%MOIN*%
G70*
G04*
G04 #@! TF.SameCoordinates,848F02FD-2630-40CC-A56B-9648625414CD*
G04*
G04*
G04 #@! TF.FilePolarity,Positive*
G04*
G01*
G75*
%ADD10C,0.00984*%
%ADD11C,0.01000*%
%ADD12C,0.00787*%
%ADD13C,0.00394*%
%ADD14C,0.00803*%
D10*
X61319Y13878D02*
G03*
X61319Y13878I-492J0D01*
G01*
X41020D02*
G03*
X41020Y13878I-492J0D01*
G01*
X20722D02*
G03*
X20722Y13878I-492J0D01*
G01*
X134350Y47343D02*
G03*
X134350Y47343I-492J0D01*
G01*
X83169Y29331D02*
G03*
X83169Y29331I-492J0D01*
G01*
D11*
X133858Y27559D02*
Y35433D01*
X94488Y27559D02*
Y35433D01*
X98425Y43307D02*
X129921D01*
X106299Y70866D02*
X110236Y66929D01*
X102362D02*
X110236D01*
X102362D02*
X106299Y70866D01*
Y59055D02*
Y70866D01*
X66929Y47244D02*
X70866Y51181D01*
X66929Y47244D02*
Y55118D01*
X70866Y51181D01*
X55118D02*
X70866D01*
X145669Y7874D02*
X153543Y0D01*
X137795D02*
X145669Y7874D01*
X137795Y0D02*
X145669Y7874D01*
X169291Y31496D02*
X177165Y23622D01*
X169291Y31496D02*
X177165Y39370D01*
X169291Y31496D02*
X177165D01*
X169291D02*
X177165D01*
X169291Y23622D02*
Y31496D01*
X137795Y7874D02*
X145669D01*
X153543D01*
X169291Y31496D02*
Y39370D01*
X145669Y0D02*
Y7874D01*
X116088Y117612D02*
X114089D01*
X115089D01*
Y112614D01*
X114089Y111614D01*
X113089D01*
X112090Y112614D01*
X118088Y111614D02*
X120087D01*
X119088D01*
Y117612D01*
X118088Y116613D01*
D12*
X85728Y5217D02*
X87500D01*
X85728Y10531D02*
X87500D01*
X68701Y18996D02*
X73032D01*
X48402D02*
X52733D01*
X28104D02*
X32434D01*
X132579Y26673D02*
Y28445D01*
X127264Y26673D02*
Y28445D01*
X113287Y36713D02*
X115059D01*
X113287Y42028D02*
X115059D01*
X114858Y49640D02*
X152858D01*
Y54364D01*
X114858Y49640D02*
Y54364D01*
X101083Y26673D02*
Y28445D01*
X95768Y26673D02*
Y28445D01*
X77559Y37205D02*
Y41535D01*
D13*
X90945Y47638D02*
Y50262D01*
X92257Y51573D01*
X93569Y50262D01*
Y47638D01*
Y49606D01*
X90945D01*
X94881Y47638D02*
Y51573D01*
X97504Y47638D01*
Y51573D01*
X98816D02*
X101440D01*
X100128D01*
Y47638D01*
X83990Y13780D02*
Y17716D01*
X85958D01*
X86614Y17060D01*
Y15748D01*
X85958Y15092D01*
X83990D01*
X85302D02*
X86614Y13780D01*
X87926D02*
X89238D01*
X88582D01*
Y17716D01*
X87926Y17060D01*
X59712Y21654D02*
Y25590D01*
X61680D01*
X62336Y24934D01*
Y23622D01*
X61680Y22966D01*
X59712D01*
X63648Y24934D02*
X64304Y25590D01*
X65616D01*
X66272Y24934D01*
Y24278D01*
X65616Y23622D01*
X64960D01*
X65616D01*
X66272Y22966D01*
Y22310D01*
X65616Y21654D01*
X64304D01*
X63648Y22310D01*
X43964Y21654D02*
Y25590D01*
X45932D01*
X46588Y24934D01*
Y23622D01*
X45932Y22966D01*
X43964D01*
X50524Y21654D02*
X47900D01*
X50524Y24278D01*
Y24934D01*
X49868Y25590D01*
X48556D01*
X47900Y24934D01*
X24935Y21654D02*
Y25590D01*
X26903D01*
X27559Y24934D01*
Y23622D01*
X26903Y22966D01*
X24935D01*
X28871Y21654D02*
X30183D01*
X29527D01*
Y25590D01*
X28871Y24934D01*
D14*
X24425Y68388D02*
Y72324D01*
X25737Y71012D01*
X27049Y72324D01*
Y68388D01*
X28361Y72324D02*
Y68388D01*
X30985D01*
X32297Y67732D02*
X34920D01*
X36232Y68388D02*
Y71012D01*
X37544Y72324D01*
X38856Y71012D01*
Y68388D01*
Y70356D01*
X36232D01*
X40168Y68388D02*
Y71012D01*
X42136D01*
X42792Y70356D01*
Y68388D01*
X44760Y71668D02*
Y71012D01*
X44104D01*
X45416D01*
X44760D01*
Y69044D01*
X45416Y68388D01*
X49352D02*
X48040D01*
X47384Y69044D01*
Y70356D01*
X48040Y71012D01*
X49352D01*
X50007Y70356D01*
Y69700D01*
X47384D01*
X51319Y68388D02*
Y71012D01*
X53287D01*
X53943Y70356D01*
Y68388D01*
X55255D02*
Y71012D01*
X57223D01*
X57879Y70356D01*
Y68388D01*
X59847Y71012D02*
X61159D01*
X61815Y70356D01*
Y68388D01*
X59847D01*
X59191Y69044D01*
X59847Y69700D01*
X61815D01*
X63127Y67732D02*
X65750D01*
X69686Y71668D02*
X69030Y72324D01*
X67718D01*
X67062Y71668D01*
Y71012D01*
X67718Y70356D01*
X69030D01*
X69686Y69700D01*
Y69044D01*
X69030Y68388D01*
X67718D01*
X67062Y69044D01*
X70998Y68388D02*
X72310D01*
X71654D01*
Y71012D01*
X70998D01*
X76902Y72324D02*
Y68388D01*
X74934D01*
X74278Y69044D01*
Y70356D01*
X74934Y71012D01*
X76902D01*
X80181Y68388D02*
X78870D01*
X78214Y69044D01*
Y70356D01*
X78870Y71012D01*
X80181D01*
X80837Y70356D01*
Y69700D01*
X78214D01*
X82149Y67732D02*
X84773D01*
X86085Y71668D02*
X86741Y72324D01*
X88053D01*
X88709Y71668D01*
Y69044D01*
X88053Y68388D01*
X86741D01*
X86085Y69044D01*
Y71668D01*
X90021Y68388D02*
Y69044D01*
X90677D01*
Y68388D01*
X90021D01*
X93301Y71668D02*
X93957Y72324D01*
X95268D01*
X95924Y71668D01*
Y69044D01*
X95268Y68388D01*
X93957D01*
X93301Y69044D01*
Y71668D01*
M02*
