G04*
G04 #@! TF.GenerationSoftware,Altium Limited,Altium Designer,24.6.1 (21)*
G04*
G04 Layer_Color=2752767*
%FSLAX25Y25*%
%MOIN*%
G70*
G04*
G04 #@! TF.SameCoordinates,848F02FD-2630-40CC-A56B-9648625414CD*
G04*
G04*
G04 #@! TF.FilePolarity,Positive*
G04*
G01*
G75*
%ADD36C,0.00500*%
%ADD37C,0.00667*%
D36*
X62992Y37370D02*
X60992Y41370D01*
X64992D01*
X62992Y37370D01*
X104299Y53118D02*
Y57118D01*
X108299D01*
Y53118D01*
X104299D01*
X112173Y21622D02*
Y25622D01*
X116173D01*
Y21622D01*
X112173D01*
X13748D02*
Y25622D01*
X17748D01*
Y21622D01*
X13748D01*
X84614Y25559D02*
Y29559D01*
X88614D01*
Y25559D01*
X84614D01*
X72803Y21622D02*
Y25622D01*
X76803D01*
Y21622D01*
X72803D01*
X96425Y5874D02*
Y9874D01*
X100425D01*
Y5874D01*
X96425D01*
X80677Y53118D02*
Y57118D01*
X84677D01*
Y53118D01*
X80677D01*
X127921Y9811D02*
Y13811D01*
X131921D01*
Y9811D01*
X127921D01*
D37*
X167354Y66929D02*
G03*
X167354Y66929I-2000J0D01*
G01*
X13811Y11811D02*
G03*
X13811Y11811I-2000J0D01*
G01*
Y66929D02*
G03*
X13811Y66929I-2000J0D01*
G01*
M02*
