G04*
G04 #@! TF.GenerationSoftware,Altium Limited,Altium Designer,24.6.1 (21)*
G04*
G04 Layer_Color=16711935*
%FSLAX25Y25*%
%MOIN*%
G70*
G04*
G04 #@! TF.SameCoordinates,848F02FD-2630-40CC-A56B-9648625414CD*
G04*
G04*
G04 #@! TF.FilePolarity,Positive*
G04*
G01*
G75*
%ADD12C,0.00787*%
G36*
X90190Y7874D02*
X89882D01*
Y9842D01*
X89877Y9837D01*
X89863Y9823D01*
X89838Y9804D01*
X89803Y9777D01*
X89762Y9744D01*
X89710Y9708D01*
X89653Y9670D01*
X89587Y9629D01*
X89584D01*
X89579Y9624D01*
X89571Y9618D01*
X89557Y9613D01*
X89541Y9602D01*
X89522Y9594D01*
X89478Y9569D01*
X89429Y9545D01*
X89374Y9517D01*
X89317Y9493D01*
X89262Y9471D01*
Y9769D01*
X89265Y9771D01*
X89273Y9774D01*
X89287Y9782D01*
X89306Y9790D01*
X89328Y9801D01*
X89355Y9818D01*
X89385Y9834D01*
X89415Y9850D01*
X89486Y9894D01*
X89562Y9946D01*
X89642Y10001D01*
X89715Y10063D01*
X89718Y10066D01*
X89724Y10072D01*
X89735Y10080D01*
X89748Y10093D01*
X89762Y10110D01*
X89781Y10126D01*
X89822Y10173D01*
X89868Y10222D01*
X89915Y10279D01*
X89956Y10339D01*
X89991Y10402D01*
X90190D01*
Y7874D01*
D02*
G37*
G36*
X87815Y10391D02*
X87845D01*
X87881Y10388D01*
X87922Y10386D01*
X88004Y10377D01*
X88088Y10364D01*
X88170Y10347D01*
X88206Y10336D01*
X88241Y10326D01*
X88244D01*
X88249Y10323D01*
X88258Y10317D01*
X88271Y10312D01*
X88304Y10295D01*
X88342Y10271D01*
X88389Y10238D01*
X88435Y10194D01*
X88481Y10145D01*
X88522Y10085D01*
Y10082D01*
X88528Y10077D01*
X88533Y10069D01*
X88539Y10055D01*
X88547Y10039D01*
X88555Y10020D01*
X88566Y9998D01*
X88577Y9973D01*
X88596Y9916D01*
X88613Y9853D01*
X88623Y9782D01*
X88629Y9706D01*
Y9703D01*
Y9695D01*
Y9679D01*
X88626Y9662D01*
X88623Y9638D01*
X88621Y9610D01*
X88615Y9580D01*
X88607Y9548D01*
X88585Y9477D01*
X88572Y9438D01*
X88555Y9400D01*
X88536Y9362D01*
X88512Y9324D01*
X88484Y9288D01*
X88454Y9253D01*
X88451Y9250D01*
X88446Y9244D01*
X88435Y9236D01*
X88421Y9223D01*
X88402Y9209D01*
X88380Y9193D01*
X88353Y9173D01*
X88320Y9154D01*
X88285Y9135D01*
X88247Y9116D01*
X88203Y9097D01*
X88154Y9078D01*
X88102Y9061D01*
X88045Y9045D01*
X87982Y9031D01*
X87916Y9021D01*
X87919D01*
X87922Y9018D01*
X87938Y9010D01*
X87963Y8996D01*
X87993Y8980D01*
X88025Y8961D01*
X88058Y8941D01*
X88091Y8917D01*
X88118Y8895D01*
X88121Y8892D01*
X88124Y8890D01*
X88132Y8881D01*
X88143Y8870D01*
X88157Y8857D01*
X88173Y8840D01*
X88208Y8802D01*
X88249Y8753D01*
X88296Y8696D01*
X88345Y8630D01*
X88394Y8559D01*
X88831Y7874D01*
X88413D01*
X88080Y8398D01*
X88077Y8401D01*
X88075Y8409D01*
X88067Y8420D01*
X88056Y8436D01*
X88045Y8456D01*
X88028Y8477D01*
X87995Y8526D01*
X87957Y8584D01*
X87919Y8641D01*
X87878Y8696D01*
X87840Y8745D01*
Y8748D01*
X87834Y8750D01*
X87823Y8764D01*
X87807Y8786D01*
X87783Y8810D01*
X87758Y8838D01*
X87728Y8865D01*
X87698Y8892D01*
X87671Y8911D01*
X87668Y8914D01*
X87657Y8919D01*
X87643Y8928D01*
X87624Y8939D01*
X87600Y8950D01*
X87575Y8961D01*
X87548Y8971D01*
X87518Y8980D01*
X87515D01*
X87507Y8982D01*
X87493Y8985D01*
X87474Y8988D01*
X87447D01*
X87414Y8991D01*
X87376Y8993D01*
X86947D01*
Y7874D01*
X86614D01*
Y10394D01*
X87785D01*
X87815Y10391D01*
D02*
G37*
G36*
X129318Y31272D02*
X129921D01*
Y30963D01*
X129318D01*
Y29866D01*
X129034D01*
X127401Y31018D01*
Y31272D01*
X129034D01*
Y31613D01*
X129318D01*
Y31272D01*
D02*
G37*
G36*
X129921Y29358D02*
X129397Y29025D01*
X129394Y29022D01*
X129386Y29019D01*
X129375Y29011D01*
X129359Y29000D01*
X129340Y28989D01*
X129318Y28973D01*
X129269Y28940D01*
X129211Y28902D01*
X129154Y28864D01*
X129100Y28823D01*
X129050Y28785D01*
X129048D01*
X129045Y28779D01*
X129031Y28768D01*
X129009Y28752D01*
X128985Y28727D01*
X128958Y28703D01*
X128930Y28673D01*
X128903Y28643D01*
X128884Y28615D01*
X128881Y28613D01*
X128876Y28602D01*
X128867Y28588D01*
X128857Y28569D01*
X128846Y28545D01*
X128835Y28520D01*
X128824Y28493D01*
X128816Y28463D01*
Y28460D01*
X128813Y28452D01*
X128810Y28438D01*
X128807Y28419D01*
Y28392D01*
X128805Y28359D01*
X128802Y28321D01*
Y27892D01*
X129921D01*
Y27559D01*
X127401D01*
Y28730D01*
X127404Y28760D01*
Y28790D01*
X127407Y28826D01*
X127410Y28867D01*
X127418Y28949D01*
X127431Y29033D01*
X127448Y29115D01*
X127459Y29151D01*
X127470Y29186D01*
Y29189D01*
X127472Y29194D01*
X127478Y29202D01*
X127483Y29216D01*
X127500Y29249D01*
X127524Y29287D01*
X127557Y29333D01*
X127601Y29380D01*
X127650Y29426D01*
X127710Y29467D01*
X127713D01*
X127718Y29473D01*
X127726Y29478D01*
X127740Y29484D01*
X127756Y29492D01*
X127776Y29500D01*
X127797Y29511D01*
X127822Y29522D01*
X127879Y29541D01*
X127942Y29557D01*
X128013Y29568D01*
X128089Y29574D01*
X128092D01*
X128100D01*
X128117D01*
X128133Y29571D01*
X128158Y29568D01*
X128185Y29566D01*
X128215Y29560D01*
X128248Y29552D01*
X128319Y29530D01*
X128357Y29516D01*
X128395Y29500D01*
X128434Y29481D01*
X128472Y29456D01*
X128507Y29429D01*
X128543Y29399D01*
X128545Y29396D01*
X128551Y29391D01*
X128559Y29380D01*
X128573Y29366D01*
X128586Y29347D01*
X128603Y29325D01*
X128622Y29298D01*
X128641Y29265D01*
X128660Y29230D01*
X128679Y29191D01*
X128698Y29148D01*
X128717Y29099D01*
X128734Y29047D01*
X128750Y28989D01*
X128764Y28927D01*
X128775Y28861D01*
Y28864D01*
X128777Y28867D01*
X128786Y28883D01*
X128799Y28908D01*
X128816Y28938D01*
X128835Y28970D01*
X128854Y29003D01*
X128878Y29036D01*
X128900Y29063D01*
X128903Y29066D01*
X128906Y29069D01*
X128914Y29077D01*
X128925Y29088D01*
X128938Y29101D01*
X128955Y29118D01*
X128993Y29153D01*
X129042Y29194D01*
X129100Y29241D01*
X129165Y29290D01*
X129236Y29339D01*
X129921Y29776D01*
Y29358D01*
D02*
G37*
G36*
X117479Y41895D02*
X117509Y41892D01*
X117545Y41887D01*
X117586Y41882D01*
X117627Y41873D01*
X117673Y41862D01*
X117719Y41849D01*
X117769Y41833D01*
X117815Y41813D01*
X117864Y41789D01*
X117911Y41761D01*
X117954Y41732D01*
X117995Y41696D01*
X117998Y41693D01*
X118003Y41688D01*
X118014Y41674D01*
X118028Y41660D01*
X118044Y41641D01*
X118063Y41617D01*
X118082Y41589D01*
X118102Y41557D01*
X118121Y41524D01*
X118140Y41486D01*
X118159Y41445D01*
X118175Y41401D01*
X118189Y41352D01*
X118200Y41303D01*
X118205Y41251D01*
X118208Y41196D01*
Y41194D01*
Y41191D01*
Y41183D01*
Y41172D01*
X118205Y41142D01*
X118200Y41104D01*
X118192Y41057D01*
X118181Y41008D01*
X118167Y40953D01*
X118145Y40899D01*
Y40896D01*
X118143Y40893D01*
X118140Y40885D01*
X118134Y40874D01*
X118118Y40844D01*
X118096Y40806D01*
X118066Y40760D01*
X118031Y40708D01*
X117990Y40653D01*
X117938Y40593D01*
X117935Y40590D01*
X117932Y40585D01*
X117921Y40577D01*
X117911Y40563D01*
X117894Y40547D01*
X117875Y40528D01*
X117853Y40503D01*
X117826Y40478D01*
X117793Y40448D01*
X117758Y40416D01*
X117719Y40377D01*
X117676Y40339D01*
X117629Y40295D01*
X117578Y40252D01*
X117520Y40203D01*
X117460Y40151D01*
X117457Y40148D01*
X117449Y40140D01*
X117433Y40129D01*
X117416Y40113D01*
X117392Y40093D01*
X117367Y40072D01*
X117310Y40023D01*
X117250Y39971D01*
X117193Y39916D01*
X117165Y39891D01*
X117141Y39870D01*
X117119Y39848D01*
X117103Y39831D01*
X117100Y39829D01*
X117089Y39818D01*
X117075Y39801D01*
X117056Y39779D01*
X117034Y39755D01*
X117012Y39728D01*
X116969Y39668D01*
X118211D01*
Y39370D01*
X116543D01*
Y39375D01*
Y39389D01*
Y39411D01*
X116545Y39438D01*
X116548Y39471D01*
X116557Y39507D01*
X116565Y39545D01*
X116578Y39583D01*
Y39586D01*
X116581Y39591D01*
X116584Y39599D01*
X116589Y39613D01*
X116597Y39627D01*
X116606Y39646D01*
X116627Y39689D01*
X116655Y39741D01*
X116690Y39799D01*
X116731Y39859D01*
X116780Y39919D01*
X116783Y39922D01*
X116786Y39927D01*
X116794Y39935D01*
X116808Y39949D01*
X116821Y39962D01*
X116840Y39981D01*
X116859Y40003D01*
X116884Y40028D01*
X116911Y40055D01*
X116941Y40083D01*
X116974Y40115D01*
X117012Y40148D01*
X117051Y40184D01*
X117094Y40219D01*
X117138Y40257D01*
X117187Y40298D01*
X117193Y40301D01*
X117206Y40315D01*
X117225Y40331D01*
X117253Y40356D01*
X117285Y40383D01*
X117324Y40416D01*
X117367Y40451D01*
X117411Y40492D01*
X117504Y40577D01*
X117594Y40667D01*
X117638Y40710D01*
X117678Y40754D01*
X117714Y40795D01*
X117744Y40833D01*
X117747Y40836D01*
X117750Y40841D01*
X117758Y40852D01*
X117766Y40866D01*
X117780Y40885D01*
X117790Y40904D01*
X117818Y40953D01*
X117845Y41011D01*
X117870Y41074D01*
X117886Y41139D01*
X117889Y41172D01*
X117891Y41205D01*
Y41207D01*
Y41213D01*
Y41224D01*
X117889Y41235D01*
Y41251D01*
X117883Y41270D01*
X117875Y41311D01*
X117859Y41360D01*
X117834Y41412D01*
X117821Y41439D01*
X117801Y41464D01*
X117782Y41489D01*
X117758Y41513D01*
X117755Y41516D01*
X117752Y41519D01*
X117744Y41524D01*
X117733Y41532D01*
X117719Y41543D01*
X117703Y41554D01*
X117665Y41579D01*
X117613Y41600D01*
X117556Y41622D01*
X117487Y41636D01*
X117449Y41641D01*
X117389D01*
X117373Y41639D01*
X117354D01*
X117332Y41633D01*
X117283Y41625D01*
X117225Y41609D01*
X117165Y41584D01*
X117135Y41568D01*
X117105Y41551D01*
X117078Y41530D01*
X117051Y41505D01*
X117048Y41502D01*
X117045Y41499D01*
X117040Y41491D01*
X117029Y41480D01*
X117021Y41467D01*
X117010Y41450D01*
X116996Y41431D01*
X116985Y41409D01*
X116971Y41385D01*
X116961Y41357D01*
X116939Y41292D01*
X116922Y41221D01*
X116920Y41180D01*
X116917Y41136D01*
X116600Y41169D01*
Y41175D01*
X116603Y41186D01*
X116606Y41202D01*
X116608Y41226D01*
X116614Y41256D01*
X116622Y41292D01*
X116630Y41330D01*
X116644Y41371D01*
X116657Y41412D01*
X116674Y41458D01*
X116696Y41502D01*
X116718Y41546D01*
X116745Y41592D01*
X116775Y41633D01*
X116808Y41674D01*
X116846Y41710D01*
X116849Y41712D01*
X116857Y41718D01*
X116868Y41726D01*
X116884Y41740D01*
X116906Y41753D01*
X116933Y41770D01*
X116963Y41786D01*
X116999Y41805D01*
X117037Y41822D01*
X117081Y41838D01*
X117127Y41854D01*
X117179Y41868D01*
X117234Y41882D01*
X117291Y41890D01*
X117354Y41895D01*
X117419Y41898D01*
X117455D01*
X117479Y41895D01*
D02*
G37*
G36*
X115374Y41887D02*
X115404D01*
X115440Y41884D01*
X115481Y41882D01*
X115563Y41873D01*
X115647Y41860D01*
X115729Y41843D01*
X115765Y41833D01*
X115800Y41822D01*
X115803D01*
X115808Y41819D01*
X115817Y41813D01*
X115830Y41808D01*
X115863Y41791D01*
X115901Y41767D01*
X115948Y41734D01*
X115994Y41690D01*
X116041Y41641D01*
X116081Y41581D01*
Y41579D01*
X116087Y41573D01*
X116092Y41565D01*
X116098Y41551D01*
X116106Y41535D01*
X116114Y41516D01*
X116125Y41494D01*
X116136Y41469D01*
X116155Y41412D01*
X116172Y41349D01*
X116182Y41278D01*
X116188Y41202D01*
Y41199D01*
Y41191D01*
Y41175D01*
X116185Y41158D01*
X116182Y41134D01*
X116180Y41106D01*
X116174Y41076D01*
X116166Y41043D01*
X116144Y40973D01*
X116131Y40934D01*
X116114Y40896D01*
X116095Y40858D01*
X116070Y40820D01*
X116043Y40784D01*
X116013Y40749D01*
X116010Y40746D01*
X116005Y40740D01*
X115994Y40732D01*
X115980Y40719D01*
X115961Y40705D01*
X115939Y40689D01*
X115912Y40670D01*
X115879Y40650D01*
X115844Y40631D01*
X115806Y40612D01*
X115762Y40593D01*
X115713Y40574D01*
X115661Y40558D01*
X115604Y40541D01*
X115541Y40528D01*
X115475Y40517D01*
X115478D01*
X115481Y40514D01*
X115497Y40506D01*
X115522Y40492D01*
X115552Y40476D01*
X115585Y40457D01*
X115617Y40437D01*
X115650Y40413D01*
X115677Y40391D01*
X115680Y40388D01*
X115683Y40386D01*
X115691Y40377D01*
X115702Y40367D01*
X115716Y40353D01*
X115732Y40336D01*
X115768Y40298D01*
X115808Y40249D01*
X115855Y40192D01*
X115904Y40126D01*
X115953Y40055D01*
X116390Y39370D01*
X115972D01*
X115639Y39894D01*
X115636Y39897D01*
X115634Y39905D01*
X115626Y39916D01*
X115615Y39932D01*
X115604Y39952D01*
X115587Y39973D01*
X115554Y40023D01*
X115516Y40080D01*
X115478Y40137D01*
X115437Y40192D01*
X115399Y40241D01*
Y40244D01*
X115393Y40246D01*
X115383Y40260D01*
X115366Y40282D01*
X115342Y40306D01*
X115317Y40334D01*
X115287Y40361D01*
X115257Y40388D01*
X115230Y40407D01*
X115227Y40410D01*
X115216Y40416D01*
X115202Y40424D01*
X115183Y40435D01*
X115159Y40446D01*
X115134Y40457D01*
X115107Y40468D01*
X115077Y40476D01*
X115074D01*
X115066Y40478D01*
X115052Y40481D01*
X115033Y40484D01*
X115006D01*
X114973Y40487D01*
X114935Y40489D01*
X114506D01*
Y39370D01*
X114173D01*
Y41890D01*
X115344D01*
X115374Y41887D01*
D02*
G37*
G36*
X133817Y81402D02*
X131849D01*
X131854Y81396D01*
X131868Y81383D01*
X131887Y81358D01*
X131914Y81323D01*
X131947Y81282D01*
X131983Y81230D01*
X132021Y81173D01*
X132062Y81107D01*
Y81104D01*
X132067Y81099D01*
X132073Y81091D01*
X132078Y81077D01*
X132089Y81061D01*
X132097Y81042D01*
X132122Y80998D01*
X132147Y80949D01*
X132174Y80894D01*
X132199Y80837D01*
X132220Y80782D01*
X131923D01*
X131920Y80785D01*
X131917Y80793D01*
X131909Y80807D01*
X131901Y80826D01*
X131890Y80848D01*
X131874Y80875D01*
X131857Y80905D01*
X131841Y80935D01*
X131797Y81006D01*
X131745Y81082D01*
X131691Y81162D01*
X131628Y81235D01*
X131625Y81238D01*
X131620Y81243D01*
X131612Y81254D01*
X131598Y81268D01*
X131581Y81282D01*
X131565Y81301D01*
X131519Y81342D01*
X131470Y81388D01*
X131412Y81435D01*
X131352Y81476D01*
X131289Y81511D01*
Y81710D01*
X133817D01*
Y81402D01*
D02*
G37*
G36*
X133094Y80124D02*
X133124D01*
X133159Y80121D01*
X133195Y80116D01*
X133274Y80108D01*
X133356Y80094D01*
X133435Y80075D01*
X133471Y80061D01*
X133506Y80048D01*
X133509D01*
X133514Y80045D01*
X133522Y80040D01*
X133533Y80034D01*
X133566Y80015D01*
X133604Y79988D01*
X133645Y79955D01*
X133689Y79914D01*
X133730Y79862D01*
X133768Y79805D01*
Y79802D01*
X133771Y79797D01*
X133776Y79788D01*
X133782Y79775D01*
X133790Y79761D01*
X133795Y79742D01*
X133804Y79720D01*
X133812Y79696D01*
X133831Y79638D01*
X133845Y79573D01*
X133856Y79499D01*
X133858Y79417D01*
Y79384D01*
X133856Y79362D01*
X133853Y79335D01*
X133847Y79303D01*
X133842Y79267D01*
X133834Y79229D01*
X133826Y79188D01*
X133812Y79147D01*
X133798Y79103D01*
X133779Y79062D01*
X133757Y79019D01*
X133733Y78980D01*
X133703Y78942D01*
X133670Y78907D01*
X133667Y78904D01*
X133662Y78899D01*
X133651Y78890D01*
X133634Y78879D01*
X133615Y78866D01*
X133591Y78852D01*
X133561Y78836D01*
X133528Y78819D01*
X133490Y78806D01*
X133449Y78789D01*
X133402Y78776D01*
X133351Y78762D01*
X133296Y78754D01*
X133236Y78746D01*
X133173Y78740D01*
X133105D01*
X133061Y79040D01*
X133064D01*
X133075D01*
X133088Y79043D01*
X133107D01*
X133132Y79046D01*
X133159Y79049D01*
X133220Y79057D01*
X133285Y79070D01*
X133351Y79089D01*
X133380Y79101D01*
X133411Y79114D01*
X133435Y79131D01*
X133457Y79147D01*
X133462Y79152D01*
X133473Y79166D01*
X133490Y79188D01*
X133509Y79218D01*
X133528Y79256D01*
X133544Y79303D01*
X133555Y79354D01*
X133561Y79414D01*
Y79436D01*
X133558Y79458D01*
X133553Y79488D01*
X133547Y79524D01*
X133536Y79559D01*
X133522Y79595D01*
X133503Y79630D01*
X133501Y79636D01*
X133493Y79646D01*
X133479Y79660D01*
X133462Y79682D01*
X133441Y79701D01*
X133413Y79723D01*
X133383Y79742D01*
X133348Y79758D01*
X133342Y79761D01*
X133329Y79764D01*
X133304Y79769D01*
X133271Y79777D01*
X133228Y79783D01*
X133173Y79788D01*
X133110Y79791D01*
X133072Y79794D01*
X133034D01*
X131298D01*
Y80127D01*
X133015D01*
X133018D01*
X133028D01*
X133045D01*
X133067D01*
X133094Y80124D01*
D02*
G37*
G36*
X97672Y31618D02*
X97694D01*
X97724Y31613D01*
X97756Y31608D01*
X97792Y31602D01*
X97833Y31591D01*
X97877Y31578D01*
X97920Y31561D01*
X97967Y31542D01*
X98013Y31517D01*
X98062Y31490D01*
X98109Y31457D01*
X98155Y31422D01*
X98199Y31378D01*
X98201Y31376D01*
X98210Y31367D01*
X98220Y31354D01*
X98234Y31335D01*
X98251Y31313D01*
X98270Y31283D01*
X98291Y31250D01*
X98311Y31212D01*
X98332Y31171D01*
X98354Y31124D01*
X98373Y31075D01*
X98390Y31021D01*
X98403Y30963D01*
X98414Y30903D01*
X98422Y30841D01*
X98425Y30772D01*
Y30759D01*
X98422Y30740D01*
Y30718D01*
X98420Y30688D01*
X98414Y30655D01*
X98409Y30619D01*
X98401Y30578D01*
X98390Y30535D01*
X98376Y30491D01*
X98362Y30445D01*
X98343Y30398D01*
X98319Y30352D01*
X98294Y30308D01*
X98264Y30262D01*
X98229Y30221D01*
X98226Y30218D01*
X98220Y30213D01*
X98210Y30202D01*
X98193Y30185D01*
X98174Y30169D01*
X98150Y30150D01*
X98122Y30131D01*
X98089Y30109D01*
X98057Y30087D01*
X98016Y30065D01*
X97975Y30043D01*
X97928Y30024D01*
X97879Y30008D01*
X97827Y29991D01*
X97773Y29980D01*
X97715Y29972D01*
X97675Y30281D01*
X97677D01*
X97685Y30284D01*
X97699Y30286D01*
X97718Y30292D01*
X97740Y30297D01*
X97765Y30303D01*
X97822Y30322D01*
X97885Y30346D01*
X97948Y30376D01*
X98005Y30415D01*
X98029Y30436D01*
X98054Y30458D01*
Y30461D01*
X98059Y30464D01*
X98065Y30472D01*
X98073Y30480D01*
X98089Y30507D01*
X98111Y30546D01*
X98133Y30592D01*
X98150Y30644D01*
X98163Y30707D01*
X98169Y30772D01*
Y30794D01*
X98166Y30810D01*
X98163Y30827D01*
X98160Y30851D01*
X98150Y30900D01*
X98133Y30961D01*
X98106Y31023D01*
X98087Y31053D01*
X98068Y31083D01*
X98046Y31113D01*
X98018Y31144D01*
X98016Y31146D01*
X98010Y31149D01*
X98002Y31157D01*
X97991Y31168D01*
X97978Y31179D01*
X97958Y31190D01*
X97939Y31204D01*
X97915Y31220D01*
X97860Y31247D01*
X97797Y31269D01*
X97724Y31288D01*
X97685Y31291D01*
X97644Y31294D01*
X97642D01*
X97636D01*
X97623D01*
X97609Y31291D01*
X97590Y31288D01*
X97571Y31286D01*
X97522Y31277D01*
X97464Y31258D01*
X97407Y31234D01*
X97377Y31217D01*
X97350Y31198D01*
X97322Y31176D01*
X97295Y31152D01*
X97292Y31149D01*
X97290Y31146D01*
X97281Y31138D01*
X97273Y31127D01*
X97262Y31113D01*
X97251Y31097D01*
X97224Y31056D01*
X97199Y31004D01*
X97178Y30944D01*
X97161Y30876D01*
X97158Y30838D01*
X97156Y30799D01*
Y30783D01*
X97158Y30764D01*
Y30740D01*
X97164Y30707D01*
X97169Y30671D01*
X97178Y30628D01*
X97189Y30581D01*
X96918Y30614D01*
Y30619D01*
X96921Y30633D01*
X96924Y30649D01*
Y30685D01*
X96921Y30698D01*
Y30718D01*
X96918Y30737D01*
X96910Y30783D01*
X96899Y30838D01*
X96880Y30898D01*
X96855Y30961D01*
X96820Y31021D01*
Y31023D01*
X96815Y31029D01*
X96809Y31034D01*
X96801Y31045D01*
X96776Y31073D01*
X96741Y31103D01*
X96697Y31130D01*
X96643Y31157D01*
X96613Y31168D01*
X96577Y31174D01*
X96542Y31179D01*
X96503Y31182D01*
X96501D01*
X96495D01*
X96487D01*
X96473Y31179D01*
X96443Y31176D01*
X96402Y31168D01*
X96359Y31154D01*
X96312Y31133D01*
X96263Y31103D01*
X96241Y31086D01*
X96219Y31064D01*
X96214Y31059D01*
X96203Y31043D01*
X96184Y31018D01*
X96162Y30985D01*
X96143Y30942D01*
X96124Y30890D01*
X96113Y30832D01*
X96108Y30767D01*
Y30750D01*
X96110Y30737D01*
Y30720D01*
X96113Y30704D01*
X96121Y30660D01*
X96135Y30614D01*
X96157Y30562D01*
X96184Y30513D01*
X96222Y30464D01*
X96228Y30458D01*
X96244Y30445D01*
X96268Y30423D01*
X96307Y30401D01*
X96353Y30374D01*
X96413Y30349D01*
X96482Y30327D01*
X96561Y30311D01*
X96506Y30002D01*
X96503D01*
X96492Y30005D01*
X96476Y30008D01*
X96454Y30013D01*
X96430Y30022D01*
X96400Y30030D01*
X96367Y30041D01*
X96331Y30054D01*
X96252Y30090D01*
X96214Y30109D01*
X96173Y30133D01*
X96135Y30161D01*
X96096Y30191D01*
X96058Y30224D01*
X96026Y30259D01*
X96023Y30262D01*
X96017Y30267D01*
X96009Y30281D01*
X95998Y30294D01*
X95985Y30316D01*
X95971Y30338D01*
X95955Y30365D01*
X95938Y30398D01*
X95925Y30431D01*
X95908Y30469D01*
X95894Y30510D01*
X95881Y30554D01*
X95870Y30603D01*
X95862Y30652D01*
X95856Y30704D01*
X95854Y30759D01*
Y30794D01*
X95856Y30813D01*
X95859Y30832D01*
X95864Y30884D01*
X95875Y30942D01*
X95892Y31007D01*
X95914Y31073D01*
X95944Y31138D01*
Y31141D01*
X95946Y31146D01*
X95952Y31154D01*
X95960Y31168D01*
X95979Y31198D01*
X96006Y31236D01*
X96042Y31280D01*
X96083Y31324D01*
X96129Y31367D01*
X96184Y31406D01*
X96187D01*
X96189Y31408D01*
X96200Y31414D01*
X96211Y31419D01*
X96225Y31427D01*
X96241Y31436D01*
X96282Y31452D01*
X96331Y31468D01*
X96386Y31485D01*
X96446Y31496D01*
X96509Y31498D01*
X96512D01*
X96517D01*
X96525D01*
X96536D01*
X96569Y31493D01*
X96607Y31488D01*
X96653Y31477D01*
X96703Y31460D01*
X96754Y31438D01*
X96806Y31408D01*
X96809D01*
X96812Y31406D01*
X96828Y31392D01*
X96853Y31373D01*
X96883Y31343D01*
X96918Y31307D01*
X96954Y31261D01*
X96987Y31209D01*
X97019Y31149D01*
Y31152D01*
X97022Y31160D01*
X97025Y31171D01*
X97030Y31187D01*
X97036Y31204D01*
X97044Y31225D01*
X97066Y31277D01*
X97096Y31332D01*
X97131Y31389D01*
X97178Y31446D01*
X97235Y31496D01*
X97238Y31498D01*
X97243Y31501D01*
X97251Y31507D01*
X97265Y31515D01*
X97279Y31526D01*
X97298Y31537D01*
X97320Y31547D01*
X97347Y31558D01*
X97374Y31569D01*
X97404Y31580D01*
X97473Y31602D01*
X97552Y31616D01*
X97595Y31621D01*
X97639D01*
X97642D01*
X97653D01*
X97672Y31618D01*
D02*
G37*
G36*
X98382Y29358D02*
X97857Y29025D01*
X97855Y29022D01*
X97847Y29020D01*
X97836Y29011D01*
X97819Y29000D01*
X97800Y28989D01*
X97778Y28973D01*
X97729Y28940D01*
X97672Y28902D01*
X97614Y28864D01*
X97560Y28823D01*
X97511Y28785D01*
X97508D01*
X97505Y28779D01*
X97492Y28768D01*
X97470Y28752D01*
X97445Y28727D01*
X97418Y28703D01*
X97391Y28673D01*
X97363Y28643D01*
X97344Y28615D01*
X97341Y28613D01*
X97336Y28602D01*
X97328Y28588D01*
X97317Y28569D01*
X97306Y28545D01*
X97295Y28520D01*
X97284Y28493D01*
X97276Y28463D01*
Y28460D01*
X97273Y28452D01*
X97270Y28438D01*
X97268Y28419D01*
Y28392D01*
X97265Y28359D01*
X97262Y28321D01*
Y27892D01*
X98382D01*
Y27559D01*
X95862D01*
Y28730D01*
X95864Y28760D01*
Y28790D01*
X95867Y28826D01*
X95870Y28867D01*
X95878Y28949D01*
X95892Y29033D01*
X95908Y29115D01*
X95919Y29151D01*
X95930Y29186D01*
Y29189D01*
X95933Y29194D01*
X95938Y29202D01*
X95944Y29216D01*
X95960Y29249D01*
X95985Y29287D01*
X96017Y29333D01*
X96061Y29380D01*
X96110Y29426D01*
X96170Y29467D01*
X96173D01*
X96178Y29473D01*
X96187Y29478D01*
X96200Y29484D01*
X96217Y29492D01*
X96236Y29500D01*
X96258Y29511D01*
X96282Y29522D01*
X96339Y29541D01*
X96402Y29557D01*
X96473Y29568D01*
X96550Y29574D01*
X96552D01*
X96561D01*
X96577D01*
X96593Y29571D01*
X96618Y29568D01*
X96645Y29566D01*
X96675Y29560D01*
X96708Y29552D01*
X96779Y29530D01*
X96817Y29516D01*
X96855Y29500D01*
X96894Y29481D01*
X96932Y29456D01*
X96967Y29429D01*
X97003Y29399D01*
X97006Y29396D01*
X97011Y29391D01*
X97019Y29380D01*
X97033Y29366D01*
X97047Y29347D01*
X97063Y29325D01*
X97082Y29298D01*
X97101Y29265D01*
X97120Y29230D01*
X97139Y29192D01*
X97158Y29148D01*
X97178Y29099D01*
X97194Y29047D01*
X97210Y28989D01*
X97224Y28927D01*
X97235Y28861D01*
Y28864D01*
X97238Y28867D01*
X97246Y28883D01*
X97259Y28908D01*
X97276Y28938D01*
X97295Y28970D01*
X97314Y29003D01*
X97339Y29036D01*
X97360Y29063D01*
X97363Y29066D01*
X97366Y29069D01*
X97374Y29077D01*
X97385Y29088D01*
X97399Y29101D01*
X97415Y29118D01*
X97453Y29153D01*
X97502Y29194D01*
X97560Y29241D01*
X97625Y29290D01*
X97696Y29339D01*
X98382Y29776D01*
Y29358D01*
D02*
G37*
%LPC*%
G36*
X87796Y10115D02*
X86947D01*
Y9283D01*
X87701D01*
X87720Y9285D01*
X87742D01*
X87793Y9288D01*
X87851Y9294D01*
X87911Y9302D01*
X87968Y9313D01*
X88020Y9329D01*
X88023D01*
X88025Y9332D01*
X88042Y9337D01*
X88064Y9348D01*
X88094Y9364D01*
X88124Y9386D01*
X88157Y9411D01*
X88189Y9444D01*
X88217Y9479D01*
X88219Y9485D01*
X88227Y9498D01*
X88239Y9517D01*
X88252Y9548D01*
X88263Y9580D01*
X88274Y9618D01*
X88282Y9662D01*
X88285Y9706D01*
Y9708D01*
Y9714D01*
Y9722D01*
X88282Y9736D01*
Y9749D01*
X88279Y9769D01*
X88269Y9809D01*
X88252Y9856D01*
X88230Y9905D01*
X88197Y9951D01*
X88176Y9976D01*
X88154Y9998D01*
X88151Y10001D01*
X88148Y10003D01*
X88140Y10009D01*
X88129Y10017D01*
X88116Y10025D01*
X88096Y10036D01*
X88077Y10047D01*
X88053Y10058D01*
X88025Y10069D01*
X87995Y10077D01*
X87963Y10088D01*
X87927Y10096D01*
X87886Y10104D01*
X87843Y10110D01*
X87796Y10115D01*
D02*
G37*
G36*
X129034Y30963D02*
X127898D01*
X129034Y30169D01*
Y30963D01*
D02*
G37*
G36*
X128089Y29230D02*
X128087D01*
X128081D01*
X128073D01*
X128059Y29227D01*
X128046D01*
X128027Y29224D01*
X127986Y29213D01*
X127939Y29197D01*
X127890Y29175D01*
X127844Y29142D01*
X127819Y29121D01*
X127797Y29099D01*
X127795Y29096D01*
X127792Y29093D01*
X127786Y29085D01*
X127778Y29074D01*
X127770Y29061D01*
X127759Y29041D01*
X127748Y29022D01*
X127737Y28998D01*
X127726Y28970D01*
X127718Y28940D01*
X127707Y28908D01*
X127699Y28872D01*
X127691Y28831D01*
X127685Y28787D01*
X127680Y28741D01*
Y27892D01*
X128513D01*
Y28646D01*
X128510Y28665D01*
Y28686D01*
X128507Y28738D01*
X128502Y28796D01*
X128493Y28856D01*
X128483Y28913D01*
X128466Y28965D01*
Y28968D01*
X128463Y28970D01*
X128458Y28987D01*
X128447Y29009D01*
X128431Y29039D01*
X128409Y29069D01*
X128384Y29101D01*
X128352Y29134D01*
X128316Y29162D01*
X128311Y29164D01*
X128297Y29172D01*
X128278Y29183D01*
X128248Y29197D01*
X128215Y29208D01*
X128177Y29219D01*
X128133Y29227D01*
X128089Y29230D01*
D02*
G37*
G36*
X115355Y41611D02*
X114506D01*
Y40779D01*
X115260D01*
X115279Y40781D01*
X115301D01*
X115352Y40784D01*
X115410Y40790D01*
X115470Y40798D01*
X115527Y40809D01*
X115579Y40825D01*
X115582D01*
X115585Y40828D01*
X115601Y40833D01*
X115623Y40844D01*
X115653Y40861D01*
X115683Y40883D01*
X115716Y40907D01*
X115748Y40940D01*
X115776Y40975D01*
X115778Y40981D01*
X115787Y40994D01*
X115797Y41014D01*
X115811Y41043D01*
X115822Y41076D01*
X115833Y41115D01*
X115841Y41158D01*
X115844Y41202D01*
Y41205D01*
Y41210D01*
Y41218D01*
X115841Y41232D01*
Y41245D01*
X115839Y41265D01*
X115828Y41306D01*
X115811Y41352D01*
X115789Y41401D01*
X115757Y41448D01*
X115735Y41472D01*
X115713Y41494D01*
X115710Y41497D01*
X115707Y41499D01*
X115699Y41505D01*
X115688Y41513D01*
X115675Y41521D01*
X115656Y41532D01*
X115636Y41543D01*
X115612Y41554D01*
X115585Y41565D01*
X115554Y41573D01*
X115522Y41584D01*
X115486Y41592D01*
X115445Y41600D01*
X115402Y41606D01*
X115355Y41611D01*
D02*
G37*
G36*
X96550Y29230D02*
X96547D01*
X96542D01*
X96533D01*
X96520Y29227D01*
X96506D01*
X96487Y29224D01*
X96446Y29213D01*
X96400Y29197D01*
X96350Y29175D01*
X96304Y29142D01*
X96279Y29121D01*
X96258Y29099D01*
X96255Y29096D01*
X96252Y29093D01*
X96247Y29085D01*
X96238Y29074D01*
X96230Y29061D01*
X96219Y29041D01*
X96209Y29022D01*
X96198Y28998D01*
X96187Y28970D01*
X96178Y28940D01*
X96167Y28908D01*
X96159Y28872D01*
X96151Y28831D01*
X96146Y28787D01*
X96140Y28741D01*
Y27892D01*
X96973D01*
Y28646D01*
X96970Y28665D01*
Y28686D01*
X96967Y28738D01*
X96962Y28796D01*
X96954Y28856D01*
X96943Y28913D01*
X96926Y28965D01*
Y28968D01*
X96924Y28970D01*
X96918Y28987D01*
X96907Y29009D01*
X96891Y29039D01*
X96869Y29069D01*
X96845Y29101D01*
X96812Y29134D01*
X96776Y29162D01*
X96771Y29164D01*
X96757Y29172D01*
X96738Y29183D01*
X96708Y29197D01*
X96675Y29208D01*
X96637Y29219D01*
X96593Y29227D01*
X96550Y29230D01*
D02*
G37*
%LPD*%
D12*
X80315Y4823D02*
Y10925D01*
Y4823D02*
X92913D01*
Y10925D01*
X80315D02*
X92913D01*
X126870Y21260D02*
X132972D01*
Y33858D01*
X126870D02*
X132972D01*
X126870Y21260D02*
Y33858D01*
X107874Y36319D02*
Y42421D01*
Y36319D02*
X120472D01*
Y42421D01*
X107874D02*
X120472D01*
X111465Y49246D02*
X156252D01*
Y108234D01*
X111465D02*
X156252D01*
X111465Y49246D02*
Y108234D01*
X95374Y21260D02*
X101476D01*
Y33858D01*
X95374D02*
X101476D01*
X95374Y21260D02*
Y33858D01*
M02*
