G04*
G04 #@! TF.GenerationSoftware,Altium Limited,Altium Designer,24.6.1 (21)*
G04*
G04 Layer_Physical_Order=1*
G04 Layer_Color=255*
%FSLAX25Y25*%
%MOIN*%
G70*
G04*
G04 #@! TF.SameCoordinates,848F02FD-2630-40CC-A56B-9648625414CD*
G04*
G04*
G04 #@! TF.FilePolarity,Positive*
G04*
G01*
G75*
%ADD11C,0.01000*%
%ADD15R,0.03543X0.04724*%
%ADD16R,0.04134X0.08661*%
%ADD17R,0.03937X0.04134*%
%ADD18R,0.04724X0.03543*%
%ADD19R,0.09000X0.20000*%
%ADD20R,0.09500X0.20000*%
G04:AMPARAMS|DCode=21|XSize=137.8mil|YSize=137.8mil|CornerRadius=34.45mil|HoleSize=0mil|Usage=FLASHONLY|Rotation=0.000|XOffset=0mil|YOffset=0mil|HoleType=Round|Shape=RoundedRectangle|*
%AMROUNDEDRECTD21*
21,1,0.13780,0.06890,0,0,0.0*
21,1,0.06890,0.13780,0,0,0.0*
1,1,0.06890,0.03445,-0.03445*
1,1,0.06890,-0.03445,-0.03445*
1,1,0.06890,-0.03445,0.03445*
1,1,0.06890,0.03445,0.03445*
%
%ADD21ROUNDEDRECTD21*%
%ADD22R,0.08661X0.04134*%
%ADD23R,0.04134X0.03937*%
%ADD31C,0.01968*%
%ADD32C,0.01968*%
%ADD33C,0.06000*%
%ADD34C,0.05000*%
D11*
X86614Y29626D02*
G03*
X82677Y33563I-3937J0D01*
G01*
X86614Y27559D02*
Y29626D01*
X82677Y45177D02*
Y55118D01*
D15*
X90748Y7874D02*
D03*
X82480D02*
D03*
X118307Y39370D02*
D03*
X110039D02*
D03*
D16*
X65059Y13878D02*
D03*
X76673D02*
D03*
X44760D02*
D03*
X56375D02*
D03*
X24462D02*
D03*
X36076D02*
D03*
D17*
X70866Y7874D02*
D03*
X50568D02*
D03*
X30269D02*
D03*
D18*
X129921Y31693D02*
D03*
Y23425D02*
D03*
X98425Y31693D02*
D03*
Y23425D02*
D03*
D19*
X133858Y65840D02*
D03*
D20*
X151108D02*
D03*
X116608D02*
D03*
D21*
X161417Y31496D02*
D03*
X145669Y15748D02*
D03*
D22*
X82677Y33563D02*
D03*
Y45177D02*
D03*
D23*
X88681Y39370D02*
D03*
D31*
X106608Y55118D02*
G03*
X116608Y65118I0J10000D01*
G01*
X74597Y7563D02*
G03*
X74606Y7563I9J1984D01*
G01*
X24462Y14908D02*
G03*
X15748Y23622I-8714J0D01*
G01*
X24462Y13681D02*
G03*
X30269Y7874I5807J0D01*
G01*
X114173Y23622D02*
G03*
X114370Y23425I197J0D01*
G01*
X113976D02*
G03*
X114173Y23622I0J197D01*
G01*
X74803D02*
G03*
X65059Y13878I0J-9744D01*
G01*
X74803Y15748D02*
G03*
X76673Y13878I1870J0D01*
G01*
X141732Y62992D02*
G03*
X138884Y65840I-2848J0D01*
G01*
X161417Y31496D02*
G03*
X153543Y39370I-7874J0D01*
G01*
X106299Y55118D02*
X106608D01*
X116608Y65118D02*
Y65840D01*
X152197Y66929D02*
X165354D01*
X151108Y65840D02*
X152197Y66929D01*
X74597Y7563D02*
X74597D01*
X71850D02*
X74597D01*
X74606Y7563D02*
X81693Y7563D01*
X70866Y7874D02*
X71850Y7563D01*
X81693Y7563D02*
X82480Y7874D01*
X15748Y22592D02*
Y23622D01*
X24462Y13681D02*
Y13878D01*
Y14908D01*
X98425Y23425D02*
X113976D01*
X114370D02*
X129921D01*
X133858Y15748D02*
X145669D01*
X129921Y11811D02*
X133858Y15748D01*
X98425Y39370D02*
X110039D01*
X88681D02*
X98425D01*
Y31693D02*
Y39370D01*
X129921Y31693D02*
Y39370D01*
X141732D01*
X118307D02*
X129921D01*
X74803Y15748D02*
Y23622D01*
X74803D02*
X74803D01*
X24462Y13878D02*
X36076D01*
X141732Y39370D02*
X153543D01*
X141732D02*
Y62992D01*
X133858Y65840D02*
X138884D01*
X90748Y7874D02*
X98425D01*
D32*
X74597Y7563D02*
D03*
D33*
X62992Y39370D02*
D03*
X165354Y66929D02*
D03*
X11811Y11811D02*
D03*
Y66929D02*
D03*
D34*
X106299Y55118D02*
D03*
X114173Y23622D02*
D03*
X15748D02*
D03*
X86614Y27559D02*
D03*
X74803Y23622D02*
D03*
X98425Y7874D02*
D03*
X82677Y55118D02*
D03*
X129921Y11811D02*
D03*
M02*
