G04*
G04 #@! TF.GenerationSoftware,Altium Limited,Altium Designer,24.6.1 (21)*
G04*
G04 Layer_Color=16711935*
%FSLAX25Y25*%
%MOIN*%
G70*
G04*
G04 #@! TF.SameCoordinates,E7B071F1-E274-4D6C-8170-77C2E5B523DC*
G04*
G04*
G04 #@! TF.FilePolarity,Positive*
G04*
G01*
G75*
%ADD10C,0.00787*%
G36*
X207725Y125982D02*
X207755D01*
X207788Y125979D01*
X207829Y125973D01*
X207870Y125968D01*
X207963Y125954D01*
X208061Y125932D01*
X208156Y125902D01*
X208203Y125886D01*
X208246Y125864D01*
X208249Y125861D01*
X208257Y125859D01*
X208268Y125850D01*
X208282Y125842D01*
X208301Y125829D01*
X208323Y125812D01*
X208345Y125796D01*
X208369Y125774D01*
X208424Y125725D01*
X208476Y125665D01*
X208525Y125594D01*
X208547Y125553D01*
X208566Y125512D01*
Y125509D01*
X208569Y125501D01*
X208574Y125487D01*
X208580Y125468D01*
X208588Y125446D01*
X208596Y125417D01*
X208604Y125384D01*
X208612Y125346D01*
X208623Y125302D01*
X208631Y125255D01*
X208640Y125204D01*
X208645Y125146D01*
X208653Y125086D01*
X208656Y125021D01*
X208662Y124952D01*
Y124879D01*
Y123424D01*
X208328D01*
Y124879D01*
Y124881D01*
Y124892D01*
Y124909D01*
Y124933D01*
X208326Y124960D01*
Y124991D01*
X208323Y125026D01*
X208320Y125062D01*
X208315Y125141D01*
X208304Y125220D01*
X208287Y125296D01*
X208279Y125332D01*
X208268Y125362D01*
Y125365D01*
X208266Y125367D01*
X208263Y125375D01*
X208257Y125386D01*
X208241Y125417D01*
X208219Y125449D01*
X208192Y125490D01*
X208156Y125528D01*
X208113Y125567D01*
X208061Y125602D01*
X208058D01*
X208053Y125605D01*
X208045Y125610D01*
X208034Y125616D01*
X208020Y125621D01*
X208001Y125627D01*
X207982Y125635D01*
X207960Y125643D01*
X207905Y125657D01*
X207842Y125670D01*
X207771Y125681D01*
X207695Y125684D01*
X207660D01*
X207635Y125681D01*
X207605Y125679D01*
X207570Y125676D01*
X207531Y125670D01*
X207490Y125662D01*
X207406Y125643D01*
X207362Y125629D01*
X207318Y125613D01*
X207277Y125594D01*
X207239Y125572D01*
X207204Y125548D01*
X207171Y125517D01*
X207168Y125515D01*
X207163Y125509D01*
X207157Y125498D01*
X207146Y125485D01*
X207135Y125466D01*
X207122Y125441D01*
X207105Y125411D01*
X207092Y125375D01*
X207078Y125335D01*
X207062Y125288D01*
X207048Y125236D01*
X207037Y125179D01*
X207026Y125113D01*
X207018Y125042D01*
X207015Y124963D01*
X207013Y124879D01*
Y123424D01*
X206680D01*
Y124879D01*
Y124884D01*
Y124895D01*
Y124914D01*
Y124941D01*
X206682Y124974D01*
X206685Y125010D01*
X206688Y125051D01*
X206690Y125097D01*
X206701Y125193D01*
X206715Y125294D01*
X206737Y125392D01*
X206750Y125438D01*
X206767Y125482D01*
Y125485D01*
X206770Y125493D01*
X206775Y125504D01*
X206783Y125520D01*
X206794Y125539D01*
X206805Y125561D01*
X206838Y125610D01*
X206857Y125640D01*
X206879Y125668D01*
X206906Y125700D01*
X206933Y125730D01*
X206966Y125760D01*
X206999Y125791D01*
X207037Y125818D01*
X207078Y125845D01*
X207081Y125848D01*
X207089Y125850D01*
X207100Y125859D01*
X207119Y125867D01*
X207141Y125878D01*
X207168Y125889D01*
X207198Y125902D01*
X207236Y125913D01*
X207275Y125927D01*
X207318Y125941D01*
X207367Y125952D01*
X207419Y125962D01*
X207477Y125971D01*
X207537Y125979D01*
X207599Y125982D01*
X207665Y125984D01*
X207700D01*
X207725Y125982D01*
D02*
G37*
G36*
X205394Y123975D02*
X205399Y123980D01*
X205413Y123994D01*
X205437Y124013D01*
X205473Y124040D01*
X205514Y124073D01*
X205566Y124109D01*
X205623Y124147D01*
X205689Y124188D01*
X205691D01*
X205697Y124193D01*
X205705Y124199D01*
X205718Y124204D01*
X205735Y124215D01*
X205754Y124223D01*
X205798Y124248D01*
X205847Y124273D01*
X205901Y124300D01*
X205959Y124325D01*
X206013Y124346D01*
Y124049D01*
X206011Y124046D01*
X206002Y124043D01*
X205989Y124035D01*
X205970Y124027D01*
X205948Y124016D01*
X205921Y124000D01*
X205890Y123983D01*
X205860Y123967D01*
X205789Y123923D01*
X205713Y123871D01*
X205634Y123817D01*
X205560Y123754D01*
X205557Y123751D01*
X205552Y123746D01*
X205541Y123738D01*
X205527Y123724D01*
X205514Y123707D01*
X205495Y123691D01*
X205454Y123645D01*
X205407Y123596D01*
X205361Y123538D01*
X205320Y123478D01*
X205284Y123415D01*
X205085D01*
Y125943D01*
X205394D01*
Y123975D01*
D02*
G37*
G36*
X297836Y83474D02*
X297834Y83444D01*
Y83415D01*
X297831Y83379D01*
X297828Y83338D01*
X297820Y83256D01*
X297806Y83171D01*
X297790Y83090D01*
X297779Y83054D01*
X297768Y83019D01*
Y83016D01*
X297765Y83011D01*
X297760Y83002D01*
X297754Y82989D01*
X297738Y82956D01*
X297713Y82918D01*
X297681Y82871D01*
X297637Y82825D01*
X297588Y82778D01*
X297528Y82737D01*
X297525D01*
X297520Y82732D01*
X297511Y82727D01*
X297498Y82721D01*
X297481Y82713D01*
X297462Y82705D01*
X297440Y82694D01*
X297416Y82683D01*
X297358Y82664D01*
X297296Y82647D01*
X297225Y82636D01*
X297148Y82631D01*
X297146D01*
X297137D01*
X297121D01*
X297105Y82634D01*
X297080Y82636D01*
X297053Y82639D01*
X297023Y82645D01*
X296990Y82653D01*
X296919Y82675D01*
X296881Y82688D01*
X296843Y82705D01*
X296804Y82724D01*
X296766Y82748D01*
X296731Y82776D01*
X296695Y82806D01*
X296692Y82808D01*
X296687Y82814D01*
X296679Y82825D01*
X296665Y82838D01*
X296652Y82858D01*
X296635Y82879D01*
X296616Y82907D01*
X296597Y82939D01*
X296578Y82975D01*
X296559Y83013D01*
X296539Y83057D01*
X296520Y83106D01*
X296504Y83158D01*
X296488Y83215D01*
X296474Y83278D01*
X296463Y83343D01*
Y83341D01*
X296460Y83338D01*
X296452Y83322D01*
X296439Y83297D01*
X296422Y83267D01*
X296403Y83234D01*
X296384Y83201D01*
X296359Y83169D01*
X296338Y83141D01*
X296335Y83139D01*
X296332Y83136D01*
X296324Y83128D01*
X296313Y83117D01*
X296299Y83103D01*
X296283Y83087D01*
X296245Y83051D01*
X296196Y83011D01*
X296138Y82964D01*
X296073Y82915D01*
X296002Y82866D01*
X295317Y82429D01*
Y82847D01*
X295841Y83180D01*
X295843Y83182D01*
X295852Y83185D01*
X295863Y83193D01*
X295879Y83204D01*
X295898Y83215D01*
X295920Y83232D01*
X295969Y83264D01*
X296026Y83303D01*
X296084Y83341D01*
X296138Y83382D01*
X296187Y83420D01*
X296190D01*
X296193Y83425D01*
X296206Y83436D01*
X296228Y83453D01*
X296253Y83477D01*
X296280Y83502D01*
X296307Y83532D01*
X296335Y83562D01*
X296354Y83589D01*
X296357Y83592D01*
X296362Y83603D01*
X296370Y83617D01*
X296381Y83636D01*
X296392Y83660D01*
X296403Y83685D01*
X296414Y83712D01*
X296422Y83742D01*
Y83745D01*
X296425Y83753D01*
X296428Y83767D01*
X296430Y83786D01*
Y83813D01*
X296433Y83846D01*
X296436Y83884D01*
Y84313D01*
X295317D01*
Y84646D01*
X297836D01*
Y83474D01*
D02*
G37*
G36*
X296564Y82246D02*
X296586D01*
X296613Y82243D01*
X296673Y82241D01*
X296742Y82235D01*
X296818Y82227D01*
X296900Y82216D01*
X296987Y82200D01*
X297075Y82183D01*
X297162Y82161D01*
X297249Y82134D01*
X297334Y82104D01*
X297416Y82069D01*
X297490Y82025D01*
X297555Y81978D01*
X297558Y81976D01*
X297569Y81968D01*
X297582Y81954D01*
X297602Y81935D01*
X297623Y81913D01*
X297648Y81883D01*
X297673Y81850D01*
X297700Y81812D01*
X297727Y81768D01*
X297752Y81719D01*
X297776Y81667D01*
X297798Y81610D01*
X297817Y81550D01*
X297831Y81484D01*
X297842Y81416D01*
X297845Y81342D01*
Y81312D01*
X297842Y81293D01*
X297839Y81269D01*
X297836Y81239D01*
X297831Y81206D01*
X297823Y81170D01*
X297803Y81091D01*
X297790Y81053D01*
X297774Y81009D01*
X297754Y80968D01*
X297730Y80930D01*
X297705Y80892D01*
X297675Y80854D01*
X297673Y80851D01*
X297667Y80846D01*
X297659Y80835D01*
X297645Y80824D01*
X297629Y80807D01*
X297607Y80791D01*
X297582Y80772D01*
X297555Y80753D01*
X297525Y80734D01*
X297490Y80714D01*
X297451Y80695D01*
X297410Y80676D01*
X297367Y80660D01*
X297320Y80646D01*
X297271Y80633D01*
X297217Y80624D01*
X297192Y80933D01*
X297195D01*
X297200Y80936D01*
X297208Y80938D01*
X297222Y80941D01*
X297255Y80949D01*
X297293Y80963D01*
X297337Y80979D01*
X297380Y81001D01*
X297421Y81023D01*
X297457Y81050D01*
X297460Y81053D01*
X297462Y81056D01*
X297470Y81064D01*
X297479Y81072D01*
X297500Y81099D01*
X297525Y81138D01*
X297550Y81181D01*
X297569Y81236D01*
X297585Y81296D01*
X297588Y81329D01*
X297591Y81362D01*
Y81386D01*
X297585Y81416D01*
X297580Y81452D01*
X297569Y81493D01*
X297555Y81536D01*
X297533Y81580D01*
X297506Y81624D01*
Y81626D01*
X297500Y81629D01*
X297495Y81637D01*
X297487Y81648D01*
X297462Y81673D01*
X297427Y81705D01*
X297383Y81744D01*
X297328Y81782D01*
X297266Y81817D01*
X297195Y81853D01*
X297192D01*
X297186Y81856D01*
X297173Y81861D01*
X297157Y81867D01*
X297137Y81872D01*
X297110Y81880D01*
X297080Y81888D01*
X297047Y81897D01*
X297009Y81905D01*
X296965Y81910D01*
X296916Y81918D01*
X296864Y81927D01*
X296810Y81932D01*
X296750Y81935D01*
X296684Y81938D01*
X296619Y81940D01*
X296619Y81940D01*
X296616D01*
X296619Y81940D01*
X296624Y81935D01*
X296632Y81929D01*
X296643Y81921D01*
X296673Y81897D01*
X296711Y81867D01*
X296753Y81826D01*
X296793Y81779D01*
X296832Y81727D01*
X296867Y81670D01*
Y81667D01*
X296870Y81662D01*
X296875Y81654D01*
X296881Y81643D01*
X296886Y81626D01*
X296894Y81610D01*
X296911Y81566D01*
X296924Y81514D01*
X296938Y81457D01*
X296949Y81394D01*
X296952Y81329D01*
Y81315D01*
X296949Y81299D01*
Y81277D01*
X296944Y81250D01*
X296941Y81220D01*
X296933Y81184D01*
X296924Y81146D01*
X296911Y81108D01*
X296897Y81064D01*
X296878Y81020D01*
X296856Y80977D01*
X296829Y80930D01*
X296799Y80887D01*
X296763Y80843D01*
X296722Y80802D01*
X296720Y80799D01*
X296711Y80794D01*
X296701Y80783D01*
X296681Y80766D01*
X296660Y80750D01*
X296632Y80734D01*
X296600Y80712D01*
X296564Y80693D01*
X296523Y80674D01*
X296480Y80652D01*
X296430Y80635D01*
X296378Y80616D01*
X296324Y80603D01*
X296264Y80592D01*
X296201Y80586D01*
X296135Y80584D01*
X296133D01*
X296125D01*
X296114D01*
X296094Y80586D01*
X296075D01*
X296051Y80589D01*
X296021Y80592D01*
X295991Y80597D01*
X295923Y80608D01*
X295849Y80627D01*
X295772Y80652D01*
X295693Y80687D01*
X295690D01*
X295685Y80693D01*
X295674Y80698D01*
X295660Y80706D01*
X295644Y80717D01*
X295625Y80728D01*
X295579Y80761D01*
X295529Y80799D01*
X295478Y80848D01*
X295426Y80906D01*
X295382Y80968D01*
Y80971D01*
X295376Y80977D01*
X295371Y80988D01*
X295366Y81001D01*
X295357Y81018D01*
X295349Y81037D01*
X295338Y81061D01*
X295330Y81086D01*
X295308Y81146D01*
X295292Y81217D01*
X295281Y81293D01*
X295275Y81375D01*
Y81392D01*
X295278Y81413D01*
X295281Y81441D01*
X295284Y81473D01*
X295292Y81512D01*
X295300Y81553D01*
X295311Y81599D01*
X295327Y81648D01*
X295344Y81700D01*
X295368Y81752D01*
X295396Y81804D01*
X295428Y81858D01*
X295467Y81907D01*
X295510Y81959D01*
X295560Y82006D01*
X295562Y82008D01*
X295573Y82017D01*
X295589Y82028D01*
X295614Y82044D01*
X295644Y82063D01*
X295682Y82082D01*
X295729Y82104D01*
X295783Y82126D01*
X295843Y82151D01*
X295912Y82172D01*
X295988Y82191D01*
X296073Y82211D01*
X296165Y82227D01*
X296267Y82238D01*
X296376Y82246D01*
X296493Y82249D01*
X296496D01*
X296501D01*
X296512D01*
X296526D01*
X296542D01*
X296564Y82246D01*
D02*
G37*
G36*
X309310Y126677D02*
X307341D01*
X307347Y126672D01*
X307360Y126658D01*
X307379Y126634D01*
X307407Y126598D01*
X307439Y126557D01*
X307475Y126505D01*
X307513Y126448D01*
X307554Y126383D01*
Y126380D01*
X307560Y126374D01*
X307565Y126366D01*
X307571Y126353D01*
X307581Y126336D01*
X307590Y126317D01*
X307614Y126273D01*
X307639Y126224D01*
X307666Y126170D01*
X307691Y126112D01*
X307712Y126058D01*
X307415D01*
X307412Y126060D01*
X307409Y126069D01*
X307401Y126082D01*
X307393Y126101D01*
X307382Y126123D01*
X307366Y126151D01*
X307349Y126181D01*
X307333Y126211D01*
X307289Y126282D01*
X307237Y126358D01*
X307183Y126437D01*
X307120Y126511D01*
X307117Y126514D01*
X307112Y126519D01*
X307104Y126530D01*
X307090Y126544D01*
X307074Y126557D01*
X307057Y126576D01*
X307011Y126617D01*
X306962Y126664D01*
X306904Y126710D01*
X306844Y126751D01*
X306782Y126787D01*
Y126986D01*
X309310D01*
Y126677D01*
D02*
G37*
G36*
X308586Y125400D02*
X308616D01*
X308652Y125397D01*
X308687Y125392D01*
X308766Y125383D01*
X308848Y125370D01*
X308927Y125351D01*
X308963Y125337D01*
X308998Y125323D01*
X309001D01*
X309007Y125321D01*
X309015Y125315D01*
X309026Y125310D01*
X309058Y125291D01*
X309097Y125263D01*
X309138Y125231D01*
X309181Y125190D01*
X309222Y125138D01*
X309260Y125080D01*
Y125078D01*
X309263Y125072D01*
X309268Y125064D01*
X309274Y125050D01*
X309282Y125037D01*
X309288Y125018D01*
X309296Y124996D01*
X309304Y124971D01*
X309323Y124914D01*
X309337Y124848D01*
X309348Y124775D01*
X309350Y124693D01*
Y124660D01*
X309348Y124638D01*
X309345Y124611D01*
X309339Y124578D01*
X309334Y124543D01*
X309326Y124504D01*
X309318Y124463D01*
X309304Y124423D01*
X309290Y124379D01*
X309271Y124338D01*
X309249Y124294D01*
X309225Y124256D01*
X309195Y124218D01*
X309162Y124182D01*
X309159Y124179D01*
X309154Y124174D01*
X309143Y124166D01*
X309127Y124155D01*
X309107Y124141D01*
X309083Y124128D01*
X309053Y124111D01*
X309020Y124095D01*
X308982Y124081D01*
X308941Y124065D01*
X308894Y124051D01*
X308843Y124038D01*
X308788Y124029D01*
X308728Y124021D01*
X308665Y124016D01*
X308597D01*
X308553Y124316D01*
X308556D01*
X308567D01*
X308581Y124319D01*
X308600D01*
X308624Y124321D01*
X308652Y124324D01*
X308712Y124332D01*
X308777Y124346D01*
X308843Y124365D01*
X308873Y124376D01*
X308903Y124390D01*
X308927Y124406D01*
X308949Y124423D01*
X308955Y124428D01*
X308965Y124442D01*
X308982Y124463D01*
X309001Y124494D01*
X309020Y124532D01*
X309036Y124578D01*
X309047Y124630D01*
X309053Y124690D01*
Y124712D01*
X309050Y124734D01*
X309045Y124764D01*
X309039Y124799D01*
X309028Y124835D01*
X309015Y124870D01*
X308996Y124906D01*
X308993Y124911D01*
X308985Y124922D01*
X308971Y124936D01*
X308955Y124958D01*
X308933Y124977D01*
X308906Y124998D01*
X308875Y125018D01*
X308840Y125034D01*
X308835Y125037D01*
X308821Y125040D01*
X308796Y125045D01*
X308764Y125053D01*
X308720Y125059D01*
X308665Y125064D01*
X308602Y125067D01*
X308564Y125069D01*
X308526D01*
X306790D01*
Y125402D01*
X308507D01*
X308510D01*
X308521D01*
X308537D01*
X308559D01*
X308586Y125400D01*
D02*
G37*
G36*
X39370Y132264D02*
X38870D01*
X38273Y134049D01*
Y134052D01*
X38270Y134060D01*
X38264Y134074D01*
X38259Y134090D01*
X38254Y134109D01*
X38245Y134134D01*
X38226Y134188D01*
X38207Y134248D01*
X38188Y134311D01*
X38169Y134369D01*
X38161Y134396D01*
X38153Y134420D01*
Y134418D01*
X38150Y134415D01*
X38147Y134407D01*
X38144Y134396D01*
X38139Y134379D01*
X38133Y134363D01*
X38128Y134341D01*
X38120Y134319D01*
X38111Y134292D01*
X38101Y134262D01*
X38090Y134229D01*
X38079Y134191D01*
X38065Y134153D01*
X38052Y134109D01*
X38035Y134065D01*
X38019Y134016D01*
X37413Y132264D01*
X36962D01*
Y134783D01*
X37284D01*
Y132673D01*
X38021Y134783D01*
X38322D01*
X39048Y132638D01*
Y134783D01*
X39370D01*
Y132264D01*
D02*
G37*
G36*
X36427D02*
X35488D01*
X35461Y132266D01*
X35428D01*
X35395Y132269D01*
X35322Y132272D01*
X35248Y132280D01*
X35174Y132288D01*
X35141Y132296D01*
X35111Y132302D01*
X35109D01*
X35100Y132305D01*
X35089Y132307D01*
X35076Y132313D01*
X35057Y132318D01*
X35035Y132324D01*
X34983Y132343D01*
X34926Y132367D01*
X34866Y132397D01*
X34803Y132436D01*
X34743Y132482D01*
X34740Y132485D01*
X34734Y132490D01*
X34724Y132499D01*
X34710Y132512D01*
X34694Y132528D01*
X34675Y132550D01*
X34653Y132572D01*
X34631Y132599D01*
X34606Y132630D01*
X34582Y132662D01*
X34557Y132698D01*
X34532Y132736D01*
X34486Y132821D01*
X34445Y132913D01*
Y132916D01*
X34440Y132924D01*
X34437Y132941D01*
X34429Y132960D01*
X34421Y132984D01*
X34412Y133014D01*
X34404Y133047D01*
X34393Y133085D01*
X34385Y133129D01*
X34377Y133176D01*
X34369Y133225D01*
X34361Y133276D01*
X34352Y133331D01*
X34350Y133388D01*
X34344Y133511D01*
Y133514D01*
Y133525D01*
Y133539D01*
Y133560D01*
X34347Y133585D01*
Y133615D01*
X34350Y133648D01*
X34352Y133683D01*
X34361Y133762D01*
X34374Y133847D01*
X34391Y133934D01*
X34412Y134022D01*
Y134025D01*
X34415Y134033D01*
X34421Y134044D01*
X34423Y134057D01*
X34431Y134076D01*
X34440Y134098D01*
X34459Y134150D01*
X34483Y134207D01*
X34513Y134270D01*
X34546Y134330D01*
X34584Y134388D01*
Y134390D01*
X34590Y134393D01*
X34595Y134401D01*
X34604Y134412D01*
X34623Y134437D01*
X34653Y134469D01*
X34685Y134508D01*
X34724Y134546D01*
X34767Y134581D01*
X34814Y134617D01*
X34816D01*
X34819Y134620D01*
X34836Y134631D01*
X34863Y134644D01*
X34898Y134663D01*
X34942Y134682D01*
X34994Y134704D01*
X35054Y134723D01*
X35117Y134742D01*
X35120D01*
X35125Y134745D01*
X35133D01*
X35147Y134748D01*
X35163Y134751D01*
X35185Y134756D01*
X35207Y134759D01*
X35231Y134762D01*
X35291Y134770D01*
X35360Y134778D01*
X35436Y134781D01*
X35518Y134783D01*
X36427D01*
Y132264D01*
D02*
G37*
G36*
X33154Y132815D02*
X33159Y132821D01*
X33173Y132834D01*
X33198Y132853D01*
X33233Y132881D01*
X33274Y132913D01*
X33326Y132949D01*
X33383Y132987D01*
X33449Y133028D01*
X33451D01*
X33457Y133034D01*
X33465Y133039D01*
X33479Y133045D01*
X33495Y133055D01*
X33514Y133064D01*
X33558Y133088D01*
X33607Y133113D01*
X33662Y133140D01*
X33719Y133165D01*
X33774Y133186D01*
Y132889D01*
X33771Y132886D01*
X33763Y132883D01*
X33749Y132875D01*
X33730Y132867D01*
X33708Y132856D01*
X33681Y132840D01*
X33651Y132823D01*
X33621Y132807D01*
X33550Y132763D01*
X33473Y132711D01*
X33394Y132657D01*
X33320Y132594D01*
X33318Y132591D01*
X33312Y132586D01*
X33301Y132578D01*
X33288Y132564D01*
X33274Y132548D01*
X33255Y132531D01*
X33214Y132485D01*
X33167Y132436D01*
X33121Y132378D01*
X33080Y132318D01*
X33045Y132255D01*
X32845D01*
Y134783D01*
X33154D01*
Y132815D01*
D02*
G37*
%LPC*%
G36*
X297558Y84313D02*
X296725D01*
Y83559D01*
X296728Y83540D01*
Y83518D01*
X296731Y83466D01*
X296736Y83409D01*
X296744Y83349D01*
X296755Y83292D01*
X296772Y83240D01*
Y83237D01*
X296774Y83234D01*
X296780Y83218D01*
X296791Y83196D01*
X296807Y83166D01*
X296829Y83136D01*
X296853Y83103D01*
X296886Y83070D01*
X296922Y83043D01*
X296927Y83040D01*
X296941Y83032D01*
X296960Y83021D01*
X296990Y83008D01*
X297023Y82997D01*
X297061Y82986D01*
X297105Y82978D01*
X297148Y82975D01*
X297151D01*
X297157D01*
X297165D01*
X297178Y82978D01*
X297192D01*
X297211Y82980D01*
X297252Y82991D01*
X297299Y83008D01*
X297348Y83030D01*
X297394Y83062D01*
X297419Y83084D01*
X297440Y83106D01*
X297443Y83109D01*
X297446Y83112D01*
X297451Y83120D01*
X297460Y83131D01*
X297468Y83144D01*
X297479Y83163D01*
X297490Y83182D01*
X297500Y83207D01*
X297511Y83234D01*
X297520Y83264D01*
X297531Y83297D01*
X297539Y83333D01*
X297547Y83373D01*
X297552Y83417D01*
X297558Y83464D01*
Y84313D01*
D02*
G37*
G36*
X296133Y81894D02*
X296130D01*
X296125D01*
X296116D01*
X296106D01*
X296092Y81891D01*
X296075D01*
X296035Y81886D01*
X295988Y81877D01*
X295936Y81867D01*
X295882Y81850D01*
X295827Y81828D01*
X295824D01*
X295821Y81826D01*
X295813Y81820D01*
X295802Y81815D01*
X295778Y81801D01*
X295745Y81779D01*
X295710Y81752D01*
X295674Y81719D01*
X295639Y81684D01*
X295606Y81640D01*
Y81637D01*
X295603Y81634D01*
X295595Y81618D01*
X295581Y81594D01*
X295568Y81561D01*
X295554Y81523D01*
X295540Y81479D01*
X295532Y81430D01*
X295529Y81381D01*
Y81362D01*
X295532Y81348D01*
X295535Y81329D01*
X295538Y81310D01*
X295549Y81263D01*
X295568Y81211D01*
X295581Y81181D01*
X295595Y81154D01*
X295614Y81124D01*
X295633Y81097D01*
X295658Y81069D01*
X295685Y81042D01*
X295688Y81039D01*
X295693Y81037D01*
X295701Y81028D01*
X295715Y81020D01*
X295731Y81009D01*
X295751Y80998D01*
X295772Y80985D01*
X295800Y80971D01*
X295827Y80958D01*
X295860Y80944D01*
X295895Y80933D01*
X295934Y80922D01*
X295974Y80914D01*
X296021Y80906D01*
X296067Y80903D01*
X296116Y80900D01*
X296119D01*
X296127D01*
X296141D01*
X296160Y80903D01*
X296182Y80906D01*
X296206Y80908D01*
X296234Y80911D01*
X296264Y80917D01*
X296329Y80933D01*
X296398Y80958D01*
X296433Y80974D01*
X296466Y80993D01*
X296496Y81015D01*
X296526Y81039D01*
X296529Y81042D01*
X296531Y81045D01*
X296539Y81053D01*
X296550Y81064D01*
X296561Y81078D01*
X296575Y81094D01*
X296602Y81135D01*
X296630Y81187D01*
X296654Y81247D01*
X296673Y81315D01*
X296676Y81353D01*
X296679Y81392D01*
Y81411D01*
X296676Y81427D01*
X296673Y81443D01*
X296671Y81465D01*
X296660Y81514D01*
X296640Y81572D01*
X296613Y81632D01*
X296597Y81662D01*
X296578Y81692D01*
X296553Y81722D01*
X296526Y81749D01*
X296523Y81752D01*
X296518Y81755D01*
X296510Y81763D01*
X296499Y81771D01*
X296485Y81782D01*
X296466Y81796D01*
X296444Y81809D01*
X296419Y81820D01*
X296395Y81834D01*
X296365Y81848D01*
X296297Y81872D01*
X296220Y81888D01*
X296176Y81891D01*
X296133Y81894D01*
D02*
G37*
G36*
X36094Y134486D02*
X35515D01*
X35493Y134483D01*
X35469D01*
X35414Y134480D01*
X35351Y134475D01*
X35286Y134467D01*
X35223Y134456D01*
X35166Y134442D01*
X35163D01*
X35160Y134440D01*
X35152Y134437D01*
X35141Y134434D01*
X35117Y134423D01*
X35084Y134409D01*
X35048Y134390D01*
X35010Y134369D01*
X34972Y134341D01*
X34939Y134311D01*
X34937Y134308D01*
X34934Y134306D01*
X34920Y134289D01*
X34898Y134262D01*
X34871Y134227D01*
X34844Y134180D01*
X34814Y134125D01*
X34784Y134063D01*
X34756Y133992D01*
Y133989D01*
X34754Y133984D01*
X34751Y133973D01*
X34745Y133956D01*
X34740Y133937D01*
X34734Y133913D01*
X34729Y133885D01*
X34721Y133855D01*
X34715Y133823D01*
X34710Y133784D01*
X34705Y133746D01*
X34699Y133702D01*
X34691Y133610D01*
X34688Y133506D01*
Y133500D01*
Y133489D01*
Y133468D01*
X34691Y133440D01*
Y133407D01*
X34694Y133369D01*
X34699Y133328D01*
X34705Y133282D01*
X34721Y133184D01*
X34743Y133083D01*
X34776Y132987D01*
X34797Y132941D01*
X34819Y132900D01*
X34822Y132897D01*
X34825Y132892D01*
X34833Y132881D01*
X34844Y132864D01*
X34855Y132848D01*
X34871Y132829D01*
X34907Y132785D01*
X34953Y132736D01*
X35008Y132690D01*
X35068Y132646D01*
X35100Y132630D01*
X35136Y132613D01*
X35139D01*
X35141Y132610D01*
X35149Y132608D01*
X35160Y132605D01*
X35177Y132602D01*
X35193Y132597D01*
X35215Y132591D01*
X35240Y132586D01*
X35267Y132583D01*
X35300Y132578D01*
X35335Y132572D01*
X35373Y132569D01*
X35417Y132567D01*
X35464Y132564D01*
X35513Y132561D01*
X36094D01*
Y134486D01*
D02*
G37*
%LPD*%
D10*
X192717Y112402D02*
X224606D01*
X192717D02*
Y139567D01*
X224606D01*
Y112402D02*
Y139567D01*
X292224Y89788D02*
X298327D01*
X292224Y79504D02*
Y89788D01*
Y79504D02*
X298327D01*
Y89788D01*
Y111909D02*
Y136122D01*
X320374D01*
Y111909D02*
Y136122D01*
X298327Y111909D02*
X320374D01*
X74764Y44899D02*
Y223186D01*
X3976D02*
X74764D01*
X3976Y44899D02*
Y223186D01*
Y44899D02*
X74764D01*
M02*
