G04*
G04 #@! TF.GenerationSoftware,Altium Limited,Altium Designer,24.6.1 (21)*
G04*
G04 Layer_Color=32768*
%FSLAX25Y25*%
%MOIN*%
G70*
G04*
G04 #@! TF.SameCoordinates,E7B071F1-E274-4D6C-8170-77C2E5B523DC*
G04*
G04*
G04 #@! TF.FilePolarity,Positive*
G04*
G01*
G75*
%ADD10C,0.00787*%
%ADD15C,0.00394*%
%ADD74C,0.00197*%
D10*
X192717Y112402D02*
X224606D01*
X192717D02*
Y139567D01*
X224606D01*
Y112402D02*
Y139567D01*
X292224Y89788D02*
X298327D01*
X292224Y79504D02*
Y89788D01*
Y79504D02*
X298327D01*
Y89788D01*
Y111909D02*
Y136122D01*
X320374D01*
Y111909D02*
Y136122D01*
X298327Y111909D02*
X320374D01*
X74764Y44899D02*
Y223186D01*
X3976D02*
X74764D01*
X3976Y44899D02*
Y223186D01*
Y44899D02*
X74764D01*
D15*
X222441Y82677D02*
X226378D01*
X224410Y80709D02*
Y84646D01*
X301181Y216535D02*
Y220472D01*
X299213Y218504D02*
X303150D01*
X279528Y216535D02*
Y220472D01*
X277559Y218504D02*
X281496D01*
X255906Y200787D02*
X259842D01*
X257874Y198819D02*
Y202756D01*
Y216535D02*
Y220472D01*
X255906Y218504D02*
X259842D01*
X196850Y160630D02*
X200787D01*
X198819Y158661D02*
Y162598D01*
X29528Y39370D02*
X33465D01*
X31496Y37402D02*
Y41339D01*
X198819Y212598D02*
Y216535D01*
X196850Y214567D02*
X200787D01*
X187008Y196834D02*
X190945D01*
X188976Y194865D02*
Y198802D01*
X167323Y160220D02*
X171260D01*
X169291Y158251D02*
Y162188D01*
X173228Y179134D02*
Y183071D01*
X171260Y181102D02*
X175197D01*
X173228Y202756D02*
Y206693D01*
X171260Y204724D02*
X175197D01*
D74*
X321860Y66111D02*
G03*
X321860Y66111I-11900J0D01*
G01*
X89724Y25512D02*
X181653D01*
Y147559D01*
X89724D02*
X181653D01*
X89724Y25512D02*
Y147559D01*
X254724Y18307D02*
Y52559D01*
Y18307D02*
X317717D01*
Y52559D01*
X254724D02*
X317717D01*
X187795Y18307D02*
Y52559D01*
Y18307D02*
X250787D01*
Y52559D01*
X187795D02*
X250787D01*
X259449Y60138D02*
Y105217D01*
X189370Y60138D02*
Y105217D01*
Y60138D02*
X259449D01*
X189370Y105217D02*
X259449D01*
X292913Y224016D02*
X309449D01*
X292913Y210039D02*
Y224016D01*
X309449Y210039D02*
Y224016D01*
X292913Y210039D02*
X309449D01*
X271260Y224016D02*
X287795D01*
X271260Y210039D02*
Y224016D01*
X287795Y210039D02*
Y224016D01*
X271260Y210039D02*
X287795D01*
X261417Y194291D02*
Y207283D01*
X254331Y194291D02*
Y207283D01*
X261417D01*
X254331Y194291D02*
X261417D01*
X249606Y224016D02*
X266142D01*
X249606Y210039D02*
Y224016D01*
X266142Y210039D02*
Y224016D01*
X249606Y210039D02*
X266142D01*
X204331Y152362D02*
Y168898D01*
X190354D02*
X204331D01*
X190354Y152362D02*
X204331D01*
X190354D02*
Y168898D01*
X26181Y36024D02*
Y42717D01*
X36811Y36024D02*
Y42717D01*
X26181D02*
X36811D01*
X26181Y36024D02*
X36811D01*
X190354Y206299D02*
Y222835D01*
Y206299D02*
X204331D01*
X190354Y222835D02*
X204331D01*
Y206299D02*
Y222835D01*
X184055Y188566D02*
Y205101D01*
X193898Y188566D02*
Y205101D01*
X184055Y188566D02*
X193898D01*
X184055Y205101D02*
X193898D01*
X175787Y156676D02*
Y163763D01*
X162795Y156676D02*
Y163763D01*
Y156676D02*
X175787D01*
X162795Y163763D02*
X175787D01*
X164961Y186024D02*
X181496D01*
X164961Y176181D02*
X181496D01*
X164961D02*
Y186024D01*
X181496Y176181D02*
Y186024D01*
X164961Y199803D02*
X181496D01*
X164961Y209646D02*
X181496D01*
Y199803D02*
Y209646D01*
X164961Y199803D02*
Y209646D01*
M02*
