G04*
G04 #@! TF.GenerationSoftware,Altium Limited,Altium Designer,24.6.1 (21)*
G04*
G04 Layer_Color=255*
%FSLAX25Y25*%
%MOIN*%
G70*
G04*
G04 #@! TF.SameCoordinates,E7B071F1-E274-4D6C-8170-77C2E5B523DC*
G04*
G04*
G04 #@! TF.FilePolarity,Positive*
G04*
G01*
G75*
%ADD59C,0.05567*%
%ADD60R,0.05567X0.05567*%
%ADD64C,0.06102*%
%ADD65R,0.06102X0.06102*%
%ADD66C,0.07400*%
%ADD67C,0.07677*%
G04:AMPARAMS|DCode=68|XSize=76.77mil|YSize=76.77mil|CornerRadius=19.19mil|HoleSize=0mil|Usage=FLASHONLY|Rotation=0.000|XOffset=0mil|YOffset=0mil|HoleType=Round|Shape=RoundedRectangle|*
%AMROUNDEDRECTD68*
21,1,0.07677,0.03839,0,0,0.0*
21,1,0.03839,0.07677,0,0,0.0*
1,1,0.03839,0.01919,-0.01919*
1,1,0.03839,-0.01919,-0.01919*
1,1,0.03839,-0.01919,0.01919*
1,1,0.03839,0.01919,0.01919*
%
%ADD68ROUNDEDRECTD68*%
%ADD69C,0.09843*%
%ADD70C,0.04724*%
D59*
X9370Y60292D02*
D03*
Y70292D02*
D03*
Y80292D02*
D03*
Y90292D02*
D03*
Y100292D02*
D03*
Y110292D02*
D03*
Y120292D02*
D03*
Y130292D02*
D03*
Y140292D02*
D03*
Y150292D02*
D03*
Y160292D02*
D03*
Y170292D02*
D03*
Y180292D02*
D03*
Y190292D02*
D03*
Y200292D02*
D03*
X69370D02*
D03*
Y190292D02*
D03*
Y180292D02*
D03*
Y170292D02*
D03*
Y160292D02*
D03*
Y150292D02*
D03*
Y140292D02*
D03*
Y130292D02*
D03*
Y120292D02*
D03*
Y110292D02*
D03*
Y100292D02*
D03*
Y90292D02*
D03*
Y80292D02*
D03*
Y70292D02*
D03*
D60*
Y60292D02*
D03*
D64*
X314961Y66111D02*
D03*
D65*
X304961D02*
D03*
D66*
X155669Y111496D02*
D03*
X145669D02*
D03*
X155669Y141496D02*
D03*
X145669D02*
D03*
X135669D02*
D03*
X125669D02*
D03*
X115669D02*
D03*
Y31496D02*
D03*
X125669D02*
D03*
X135669D02*
D03*
X145669D02*
D03*
X155669D02*
D03*
D67*
X307087Y35433D02*
D03*
X287402D02*
D03*
X240157D02*
D03*
X220472D02*
D03*
D68*
X267717D02*
D03*
X200787D02*
D03*
D69*
X312992Y90551D02*
D03*
Y102362D02*
D03*
D70*
X57244Y39370D02*
D03*
X47244D02*
D03*
M02*
