G04*
G04 #@! TF.GenerationSoftware,Altium Limited,Altium Designer,24.6.1 (21)*
G04*
G04 Layer_Color=8421504*
%FSLAX25Y25*%
%MOIN*%
G70*
G04*
G04 #@! TF.SameCoordinates,E7B071F1-E274-4D6C-8170-77C2E5B523DC*
G04*
G04*
G04 #@! TF.FilePolarity,Positive*
G04*
G01*
G75*
%ADD21R,0.05118X0.06299*%
%ADD22R,0.05906X0.04724*%
%ADD23R,0.05906X0.12992*%
%ADD24R,0.16142X0.04134*%
%ADD25R,0.37795X0.41142*%
%ADD26R,0.04969X0.03182*%
%ADD27R,0.03937X0.04134*%
%ADD28R,0.04134X0.08661*%
%ADD29R,0.05118X0.04331*%
%ADD30R,0.10630X0.03937*%
%ADD31R,0.06693X0.02362*%
%ADD32R,0.04134X0.03937*%
%ADD33R,0.08661X0.04134*%
%ADD34R,0.03347X0.05315*%
%ADD35R,0.05709X0.04724*%
%ADD36R,0.04331X0.05118*%
%ADD37R,0.04724X0.05709*%
%ADD38R,0.07874X0.05000*%
D21*
X274409Y74803D02*
D03*
X266929D02*
D03*
X275394Y94488D02*
D03*
X267914D02*
D03*
X244489Y114173D02*
D03*
X251969D02*
D03*
X244094Y133858D02*
D03*
X251574D02*
D03*
D22*
X221260Y116929D02*
D03*
Y125984D02*
D03*
Y135039D02*
D03*
D23*
X196063Y125984D02*
D03*
D24*
X249410Y72677D02*
D03*
Y92677D02*
D03*
D25*
X210236Y82677D02*
D03*
D26*
X295276Y81488D02*
D03*
Y87803D02*
D03*
D27*
X301181Y212500D02*
D03*
X279528D02*
D03*
X257874D02*
D03*
D28*
X306988Y218504D02*
D03*
X295374D02*
D03*
X285335D02*
D03*
X273721D02*
D03*
X263681D02*
D03*
X252067D02*
D03*
D29*
X257874Y204035D02*
D03*
Y197539D02*
D03*
D30*
X314665Y114272D02*
D03*
Y133760D02*
D03*
D31*
X302067Y121555D02*
D03*
Y126476D02*
D03*
D32*
X192815Y160630D02*
D03*
Y214567D02*
D03*
D33*
X198819Y154823D02*
D03*
Y166437D02*
D03*
Y220374D02*
D03*
Y208760D02*
D03*
D34*
X28248Y39370D02*
D03*
X34744D02*
D03*
D35*
X188976Y192897D02*
D03*
Y200771D02*
D03*
D36*
X172539Y160220D02*
D03*
X166043D02*
D03*
D37*
X169291Y181102D02*
D03*
X177165D02*
D03*
Y204724D02*
D03*
X169291D02*
D03*
D38*
X156604Y161417D02*
D03*
Y200787D02*
D03*
X156612Y209035D02*
D03*
Y216535D02*
D03*
X93604Y169541D02*
D03*
X156604Y169291D02*
D03*
X93612Y216535D02*
D03*
X93582Y161417D02*
D03*
Y208661D02*
D03*
X93604Y200787D02*
D03*
X93612Y185039D02*
D03*
Y177539D02*
D03*
X93582Y192961D02*
D03*
X156604Y192913D02*
D03*
M02*
