G04*
G04 #@! TF.GenerationSoftware,Altium Limited,Altium Designer,24.6.1 (21)*
G04*
G04 Layer_Physical_Order=1*
G04 Layer_Color=255*
%FSLAX25Y25*%
%MOIN*%
G70*
G04*
G04 #@! TF.SameCoordinates,E7B071F1-E274-4D6C-8170-77C2E5B523DC*
G04*
G04*
G04 #@! TF.FilePolarity,Positive*
G04*
G01*
G75*
%ADD14C,0.01000*%
%ADD21R,0.05118X0.06299*%
%ADD22R,0.05906X0.04724*%
%ADD23R,0.05906X0.12992*%
%ADD24R,0.16142X0.04134*%
%ADD25R,0.37795X0.41142*%
%ADD26R,0.04969X0.03182*%
%ADD27R,0.03937X0.04134*%
%ADD28R,0.04134X0.08661*%
%ADD29R,0.05118X0.04331*%
%ADD30R,0.10630X0.03937*%
%ADD31R,0.06693X0.02362*%
%ADD32R,0.04134X0.03937*%
%ADD33R,0.08661X0.04134*%
%ADD34R,0.03347X0.05315*%
%ADD35R,0.05709X0.04724*%
%ADD36R,0.04331X0.05118*%
%ADD37R,0.04724X0.05709*%
%ADD38R,0.07874X0.05000*%
%ADD59C,0.05567*%
%ADD60R,0.05567X0.05567*%
%ADD62C,0.01968*%
%ADD63C,0.03937*%
%ADD64C,0.06102*%
%ADD65R,0.06102X0.06102*%
%ADD66C,0.07400*%
%ADD67C,0.07677*%
G04:AMPARAMS|DCode=68|XSize=76.77mil|YSize=76.77mil|CornerRadius=19.19mil|HoleSize=0mil|Usage=FLASHONLY|Rotation=0.000|XOffset=0mil|YOffset=0mil|HoleType=Round|Shape=RoundedRectangle|*
%AMROUNDEDRECTD68*
21,1,0.07677,0.03839,0,0,0.0*
21,1,0.03839,0.07677,0,0,0.0*
1,1,0.03839,0.01919,-0.01919*
1,1,0.03839,-0.01919,-0.01919*
1,1,0.03839,-0.01919,0.01919*
1,1,0.03839,0.01919,0.01919*
%
%ADD68ROUNDEDRECTD68*%
%ADD69C,0.09843*%
%ADD70C,0.04724*%
%ADD71C,0.05000*%
D14*
X314961Y71488D02*
G03*
X304961Y81488I-10000J0D01*
G01*
X295936Y57087D02*
G03*
X304961Y66111I0J9024D01*
G01*
X221260Y135039D02*
G03*
X222441Y133858I1181J0D01*
G01*
X251574D02*
G03*
X255906Y138189I0J4331D01*
G01*
X244094Y132047D02*
G03*
X254095Y122047I10000J0D01*
G01*
X78740Y25591D02*
G03*
X86614Y33465I0J7874D01*
G01*
X3937Y31496D02*
G03*
X9843Y25591I5906J0D01*
G01*
X88134Y57035D02*
G03*
X86614Y55118I449J-1917D01*
G01*
X81050Y29587D02*
G03*
X82677Y31653I-499J2066D01*
G01*
X80820Y29559D02*
G03*
X81050Y29587I-5J1000D01*
G01*
X88529Y57079D02*
G03*
X88526Y57079I121J-993D01*
G01*
X88650Y57087D02*
G03*
X88529Y57079I0J-1000D01*
G01*
X249410Y72677D02*
G03*
X242126Y65394I0J-7283D01*
G01*
X238189Y57087D02*
G03*
X242126Y61024I0J3937D01*
G01*
X88305Y57059D02*
G03*
X88526Y57079I-156J2996D01*
G01*
X236470Y59087D02*
G03*
X236718Y59119I-5J1000D01*
G01*
Y59119D02*
G03*
X238189Y61024I-498J1905D01*
G01*
X51339Y33465D02*
G03*
X57244Y39370I0J5906D01*
G01*
X19685Y43465D02*
G03*
X29685Y33465I10000J0D01*
G01*
X19685Y62992D02*
G03*
X17717Y64961I-1969J0D01*
G01*
X5906D02*
G03*
X3937Y62992I0J-1969D01*
G01*
X11304Y29581D02*
G03*
X11507Y29559I208J978D01*
G01*
X9370Y31969D02*
G03*
X11304Y29581I2441J0D01*
G01*
X88305Y57059D02*
G03*
X88134Y57035I55J-998D01*
G01*
X88583Y59087D02*
G03*
X88295Y59066I0J-2000D01*
G01*
X88149Y59055D02*
G03*
X88295Y59066I0J1000D01*
G01*
X82680Y48538D02*
G03*
X82709Y49370I-11971J832D01*
G01*
X82719Y55693D02*
G03*
X82709Y55551I989J-146D01*
G01*
X82680Y48538D02*
G03*
X82677Y48466I997J-72D01*
G01*
X86614Y59055D02*
G03*
X82719Y55693I0J-3937D01*
G01*
X248189Y92677D02*
G03*
X238189Y82677I0J-10000D01*
G01*
X129921Y151575D02*
G03*
X125669Y147323I0J-4252D01*
G01*
X169291Y147638D02*
G03*
X165354Y151575I-3937J0D01*
G01*
X169291Y116299D02*
G03*
X179291Y106299I10000J0D01*
G01*
X249410Y96299D02*
G03*
X239409Y106299I-10000J0D01*
G01*
X129246Y153543D02*
G03*
X129342Y153548I0J1000D01*
G01*
X129921Y153575D02*
G03*
X129342Y153548I0J-6252D01*
G01*
X165921Y153548D02*
G03*
X165354Y153575I-566J-5910D01*
G01*
X165921Y153548D02*
G03*
X166015Y153543I94J996D01*
G01*
X141732Y157480D02*
G03*
X145172Y153575I3937J0D01*
G01*
X125669Y153543D02*
G03*
X115669Y143543I0J-10000D01*
G01*
X295276Y100551D02*
G03*
X305276Y90551I10000J0D01*
G01*
X303150Y104331D02*
G03*
X305118Y102362I1969J0D01*
G01*
X291339Y122047D02*
G03*
X295276Y118110I3937J0D01*
G01*
X298622D02*
G03*
X302067Y121555I0J3445D01*
G01*
X279650Y106177D02*
G03*
X277559Y108268I-2091J0D01*
G01*
X297244Y131299D02*
G03*
X302067Y126476I4823J0D01*
G01*
X211417Y116929D02*
G03*
X210630Y116142I0J-787D01*
G01*
X273622Y96260D02*
G03*
X275394Y94488I1772J0D01*
G01*
X266102Y92677D02*
G03*
X267913Y94488I0J1811D01*
G01*
X210236Y82677D02*
G03*
X202362Y90551I-7874J0D01*
G01*
X275591Y74803D02*
G03*
X283465Y82677I0J7874D01*
G01*
X265591Y72677D02*
G03*
X267717Y74803I0J2126D01*
G01*
X251969Y82677D02*
G03*
X249410Y80118I0J-2559D01*
G01*
X271654Y82677D02*
G03*
X279528Y90551I0J7874D01*
G01*
X279635Y91330D02*
G03*
X279650Y91535I-1486J206D01*
G01*
X232283Y118110D02*
G03*
X236221Y114173I3937J0D01*
G01*
X232283Y118110D02*
G03*
X224409Y125984I-7874J0D01*
G01*
X145669Y192913D02*
G03*
X141732Y188976I0J-3937D01*
G01*
X173228Y149606D02*
G03*
X169291Y153543I-3937J0D01*
G01*
X173228Y135984D02*
G03*
X183228Y125984I10000J0D01*
G01*
X51181Y78740D02*
G03*
X55118Y74803I3937J0D01*
G01*
X74803D02*
G03*
X78740Y78740I0J3937D01*
G01*
X127795Y90551D02*
G03*
X137795Y100551I0J10000D01*
G01*
X82677Y90551D02*
G03*
X78740Y86614I0J-3937D01*
G01*
X141732Y129921D02*
G03*
X137795Y125984I0J-3937D01*
G01*
X125669Y94488D02*
G03*
X135669Y104488I0J10000D01*
G01*
X141732Y129921D02*
G03*
X145669Y133858I0J3937D01*
G01*
X59426Y130292D02*
G03*
X51181Y122047I0J-8245D01*
G01*
X61237Y120292D02*
G03*
X59055Y118110I0J-2182D01*
G01*
Y98425D02*
G03*
X62992Y94488I3937J0D01*
G01*
X68416D02*
G03*
X68589Y94504I-5J1000D01*
G01*
X70151Y94504D02*
G03*
X70324Y94488I177J984D01*
G01*
X70151Y94504D02*
G03*
X68589Y94504I-781J-4212D01*
G01*
X259842Y23622D02*
G03*
X267717Y31496I0J7874D01*
G01*
X155669Y31496D02*
G03*
X163543Y23622I7874J0D01*
G01*
X277402Y19685D02*
G03*
X287402Y29685I0J10000D01*
G01*
X145669Y23622D02*
G03*
X149606Y19685I3937J0D01*
G01*
X200787Y35433D02*
G03*
X192976Y43244I-7811J0D01*
G01*
X137419D02*
G03*
X137100Y43190I5J-1000D01*
G01*
D02*
G03*
X135669Y41181I695J-2009D01*
G01*
X220472Y41307D02*
G03*
X216535Y45244I-3937J0D01*
G01*
X127133D02*
G03*
X126192Y44570I5J-1000D01*
G01*
D02*
G03*
X125984Y43307I3729J-1262D01*
G01*
X125669Y31496D02*
G03*
X125984Y31811I0J315D01*
G01*
X240157Y43307D02*
G03*
X236221Y47244I-3937J0D01*
G01*
X118110D02*
G03*
X115669Y44803I0J-2441D01*
G01*
X90551Y157417D02*
G03*
X86614Y153480I0J-3937D01*
G01*
X97519Y157417D02*
G03*
X97530Y157417I0J1500D01*
G01*
X120236Y200787D02*
G03*
X110236Y190787I0J-10000D01*
G01*
X28248Y90108D02*
G03*
X18248Y100108I-10000J0D01*
G01*
X59055Y90551D02*
G03*
X59498Y90108I443J0D01*
G01*
X76614Y100108D02*
G03*
X86614Y110108I0J10000D01*
G01*
X78612D02*
G03*
X82677Y114173I0J4065D01*
G01*
X94488Y161417D02*
G03*
X102362Y169291I0J7874D01*
G01*
Y208661D02*
G03*
X94488Y216535I-7874J0D01*
G01*
X74124Y200108D02*
G03*
X78740Y204724I0J4616D01*
G01*
X82677Y208661D02*
G03*
X78740Y204724I0J-3937D01*
G01*
X75935Y190108D02*
G03*
X78740Y192913I0J2805D01*
G01*
X86614Y200787D02*
G03*
X78740Y192913I0J-7874D01*
G01*
X86662Y192961D02*
G03*
X78740Y185039I0J-7922D01*
G01*
X15748Y196850D02*
G03*
X12490Y200108I-3258J0D01*
G01*
X15748Y195039D02*
G03*
X25748Y185039I10000J0D01*
G01*
X88740Y185039D02*
G03*
X78740Y175039I0J-10000D01*
G01*
X75305Y150108D02*
G03*
X78740Y153543I0J3435D01*
G01*
X92677Y177539D02*
G03*
X82677Y167539I0J-10000D01*
G01*
X10128Y70866D02*
G03*
X9370Y70108I0J-758D01*
G01*
X295276Y87803D02*
Y100551D01*
X314961Y66111D02*
Y71488D01*
X295276Y81488D02*
X304961D01*
X295276Y57087D02*
X295936D01*
X169291Y192913D02*
Y204724D01*
Y181102D02*
Y192913D01*
X251181Y114173D02*
X259842D01*
X244094Y132047D02*
Y133858D01*
X222441D02*
X244094D01*
X254095Y122047D02*
X269685D01*
X3937Y31496D02*
Y62992D01*
X9843Y25591D02*
X78740D01*
X86614Y55118D02*
Y55118D01*
Y33465D02*
Y55118D01*
X11507Y29559D02*
X80820D01*
X82677Y31653D02*
Y48466D01*
X88650Y57087D02*
X238189D01*
X242126Y61024D02*
Y65394D01*
X88583Y59087D02*
X236470D01*
X238189Y61024D02*
Y82677D01*
X29685Y33465D02*
X51339D01*
X19685Y43465D02*
Y62992D01*
X5906Y64961D02*
X17717D01*
X86614Y59055D02*
X88149D01*
X82709Y49370D02*
Y55551D01*
X9370Y31969D02*
Y60292D01*
X249410Y72677D02*
X265591D01*
X249410D02*
Y80118D01*
X125669Y141496D02*
Y147323D01*
X129921Y151575D02*
X165354D01*
X169291Y116299D02*
Y147638D01*
X179291Y106299D02*
X239409D01*
X248189Y92677D02*
X249410D01*
X266102D01*
X249410D02*
Y96299D01*
X125669Y153543D02*
X129246D01*
X129921Y153575D02*
X145172D01*
X165354D01*
X166015Y153543D02*
X169291D01*
X115669Y141496D02*
Y143543D01*
X295276Y100551D02*
Y118110D01*
X305118Y102362D02*
X312992D01*
X295276Y118110D02*
X298622D01*
X305276Y90551D02*
X312992D01*
X269685Y122047D02*
X291339D01*
X269685Y108268D02*
X277559D01*
X269685D02*
Y122047D01*
X297244Y131299D02*
Y133858D01*
X211417Y116929D02*
X221260D01*
X273622Y96260D02*
Y102362D01*
X185039Y90551D02*
X202362D01*
X279650Y91535D02*
Y106177D01*
X273622Y74803D02*
X275591D01*
X251969Y82677D02*
X271654D01*
X279528Y90551D02*
X279635Y91330D01*
X255906Y138189D02*
Y145669D01*
X236221Y114173D02*
X245079D01*
X221260Y125984D02*
X224409D01*
X183228D02*
X196063D01*
X221260D01*
X145669Y192913D02*
X156604D01*
X141732Y157480D02*
Y188976D01*
X173228Y135984D02*
Y149606D01*
X55118Y74803D02*
X74803D01*
X78740Y78740D02*
Y86614D01*
X82677Y90551D02*
X127795D01*
X70324Y94488D02*
X125669D01*
X137795Y100551D02*
Y125984D01*
X145669Y133858D02*
Y141496D01*
X59426Y130292D02*
X69370D01*
X51181Y78740D02*
Y122047D01*
X61237Y120292D02*
X69370D01*
X59055Y98425D02*
Y118110D01*
X62992Y94488D02*
X68416D01*
X70324D02*
X70324D01*
X135669Y104488D02*
Y141496D01*
X163543Y23622D02*
X259842D01*
X267717Y31496D02*
Y35433D01*
X149606Y19685D02*
X277402D01*
X145669Y23622D02*
Y31496D01*
X287402Y29685D02*
Y35433D01*
X137419Y43244D02*
X192976D01*
X137419D02*
X137419D01*
X135669Y31496D02*
Y41181D01*
X220472Y35433D02*
Y41307D01*
X127133Y45244D02*
X216535D01*
X127133D02*
X127133D01*
X125984Y31811D02*
Y43307D01*
X240157Y35433D02*
Y43307D01*
X118110Y47244D02*
X236221D01*
X115669Y31496D02*
Y44803D01*
X86614Y110108D02*
Y153480D01*
X90551Y157417D02*
X97519D01*
X97530Y157417D02*
X110236Y157480D01*
Y190787D02*
X110236D01*
X110236Y157480D02*
Y190787D01*
X28248Y39370D02*
Y90108D01*
X9370Y100108D02*
X18248D01*
X34744Y39370D02*
X47244D01*
X59498Y90108D02*
X69370D01*
X10128Y70866D02*
X19685D01*
X69370Y100108D02*
X76614D01*
X120236Y200787D02*
X156604D01*
X93582Y161417D02*
X94488D01*
X93612Y216535D02*
X94488D01*
X69370Y200108D02*
X74124D01*
X82677Y208661D02*
X93582D01*
X69370Y190108D02*
X75935D01*
X86614Y200787D02*
X93604D01*
X9370Y200108D02*
X12490D01*
X15748Y195039D02*
Y196850D01*
X25748Y185039D02*
X78740D01*
X86662Y192961D02*
X93582D01*
X69370Y150108D02*
X75305D01*
X78740Y153543D02*
Y175039D01*
X88740Y185039D02*
X93612D01*
X69370Y110108D02*
X78612D01*
X82677Y114173D02*
Y167539D01*
X92677Y177539D02*
X93612D01*
X166043Y161417D02*
X166043Y161417D01*
D21*
X274409Y74803D02*
D03*
X266929D02*
D03*
X275394Y94488D02*
D03*
X267914D02*
D03*
X244489Y114173D02*
D03*
X251969D02*
D03*
X244094Y133858D02*
D03*
X251574D02*
D03*
D22*
X221260Y116929D02*
D03*
Y125984D02*
D03*
Y135039D02*
D03*
D23*
X196063Y125984D02*
D03*
D24*
X249410Y72677D02*
D03*
Y92677D02*
D03*
D25*
X210236Y82677D02*
D03*
D26*
X295276Y81488D02*
D03*
Y87803D02*
D03*
D27*
X301181Y212500D02*
D03*
X279528D02*
D03*
X257874D02*
D03*
D28*
X306988Y218504D02*
D03*
X295374D02*
D03*
X285335D02*
D03*
X273721D02*
D03*
X263681D02*
D03*
X252067D02*
D03*
D29*
X257874Y204035D02*
D03*
Y197539D02*
D03*
D30*
X314665Y114272D02*
D03*
Y133760D02*
D03*
D31*
X302067Y121555D02*
D03*
Y126476D02*
D03*
D32*
X192815Y160630D02*
D03*
Y214567D02*
D03*
D33*
X198819Y154823D02*
D03*
Y166437D02*
D03*
Y220374D02*
D03*
Y208760D02*
D03*
D34*
X28248Y39370D02*
D03*
X34744D02*
D03*
D35*
X188976Y192897D02*
D03*
Y200771D02*
D03*
D36*
X172539Y160220D02*
D03*
X166043D02*
D03*
D37*
X169291Y181102D02*
D03*
X177165D02*
D03*
Y204724D02*
D03*
X169291D02*
D03*
D38*
X156604Y161417D02*
D03*
Y200787D02*
D03*
X156612Y209035D02*
D03*
Y216535D02*
D03*
X93604Y169541D02*
D03*
X156604Y169291D02*
D03*
X93612Y216535D02*
D03*
X93582Y161417D02*
D03*
Y208661D02*
D03*
X93604Y200787D02*
D03*
X93612Y185039D02*
D03*
Y177539D02*
D03*
X93582Y192961D02*
D03*
X156604Y192913D02*
D03*
D59*
X9370Y60292D02*
D03*
Y70292D02*
D03*
Y80292D02*
D03*
Y90292D02*
D03*
Y100292D02*
D03*
Y110292D02*
D03*
Y120292D02*
D03*
Y130292D02*
D03*
Y140292D02*
D03*
Y150292D02*
D03*
Y160292D02*
D03*
Y170292D02*
D03*
Y180292D02*
D03*
Y190292D02*
D03*
Y200292D02*
D03*
X69370D02*
D03*
Y190292D02*
D03*
Y180292D02*
D03*
Y170292D02*
D03*
Y160292D02*
D03*
Y150292D02*
D03*
Y140292D02*
D03*
Y130292D02*
D03*
Y120292D02*
D03*
Y110292D02*
D03*
Y100292D02*
D03*
Y90292D02*
D03*
Y80292D02*
D03*
Y70292D02*
D03*
D60*
Y60292D02*
D03*
D62*
X301181Y212500D02*
G03*
X306988Y206693I5807J0D01*
G01*
X315982Y218504D02*
G03*
X316482Y219004I0J500D01*
G01*
X198819Y208760D02*
G03*
X196850Y206791I0J-1969D01*
G01*
X185039Y220472D02*
G03*
X185138Y220374I98J0D01*
G01*
X196850Y168405D02*
G03*
X198819Y166437I1969J0D01*
G01*
X192913Y145669D02*
G03*
X198819Y151575I0J5906D01*
G01*
X192815Y214567D02*
G03*
X188976Y210728I0J-3839D01*
G01*
X172950Y160630D02*
G03*
X172539Y160220I0J-410D01*
G01*
X188976Y164469D02*
G03*
X192815Y160630I3839J0D01*
G01*
X156604Y161417D02*
G03*
X157802Y160220I1198J0D01*
G01*
X306988Y206693D02*
X311024D01*
X306988Y218504D02*
X315982D01*
X295374D02*
X306988D01*
X257874Y190945D02*
Y197539D01*
Y204035D02*
Y212500D01*
X252067Y218504D02*
X263681D01*
X240158D02*
X252067D01*
X196850Y200787D02*
Y206791D01*
X185138Y220374D02*
X198819D01*
X196850Y168405D02*
Y177165D01*
X198819Y151575D02*
Y154823D01*
X156604Y169291D02*
Y169291D01*
Y169291D02*
X169291D01*
X188976Y204724D02*
Y210728D01*
Y200771D02*
Y204724D01*
X177165D02*
X188976D01*
Y181102D02*
Y192897D01*
Y164469D02*
Y181102D01*
X177165D02*
X188976D01*
X177165D02*
Y181102D01*
X172950Y160630D02*
X192815D01*
X157802Y160220D02*
X166043D01*
D63*
X156604Y161417D02*
X157136Y160886D01*
X156604Y169291D02*
X156604Y169291D01*
X169291D02*
X169291Y169291D01*
X165771Y160886D02*
X166043Y160613D01*
Y160220D02*
Y160613D01*
D64*
X314961Y66111D02*
D03*
D65*
X304961D02*
D03*
D66*
X155669Y111496D02*
D03*
X145669D02*
D03*
X155669Y141496D02*
D03*
X145669D02*
D03*
X135669D02*
D03*
X125669D02*
D03*
X115669D02*
D03*
Y31496D02*
D03*
X125669D02*
D03*
X135669D02*
D03*
X145669D02*
D03*
X155669D02*
D03*
D67*
X307087Y35433D02*
D03*
X287402D02*
D03*
X240157D02*
D03*
X220472D02*
D03*
D68*
X267717D02*
D03*
X200787D02*
D03*
D69*
X312992Y90551D02*
D03*
Y102362D02*
D03*
D70*
X57244Y39370D02*
D03*
X47244D02*
D03*
D71*
X196850Y200787D02*
D03*
Y177165D02*
D03*
X192913Y145669D02*
D03*
X240158Y218504D02*
D03*
X316482Y219004D02*
D03*
X311024Y206693D02*
D03*
X259842Y114173D02*
D03*
X295276Y57087D02*
D03*
X303150Y104331D02*
D03*
X297244Y133858D02*
D03*
X210630Y116142D02*
D03*
X273622Y102362D02*
D03*
X185039Y90551D02*
D03*
X257874Y190945D02*
D03*
X283465Y82677D02*
D03*
X255906Y145669D02*
D03*
X169291Y192913D02*
D03*
X59055Y90551D02*
D03*
X19685Y70866D02*
D03*
X102362Y169291D02*
D03*
Y208661D02*
D03*
X185039Y220472D02*
D03*
X169291Y169291D02*
D03*
M02*
