G04*
G04 #@! TF.GenerationSoftware,Altium Limited,Altium Designer,24.6.1 (21)*
G04*
G04 Layer_Color=2752767*
%FSLAX25Y25*%
%MOIN*%
G70*
G04*
G04 #@! TF.SameCoordinates,E7B071F1-E274-4D6C-8170-77C2E5B523DC*
G04*
G04*
G04 #@! TF.FilePolarity,Positive*
G04*
G01*
G75*
%ADD13C,0.00500*%
%ADD75C,0.00667*%
D13*
X312961Y64111D02*
X313961D01*
X314961Y65111D01*
X315961Y64111D01*
X316961D01*
Y65111D01*
X315961Y66111D01*
X316961Y67111D01*
Y68111D01*
X315961D01*
X314961Y67111D01*
X313961Y68111D01*
X312961D01*
Y67111D01*
X313961Y66111D01*
X312961Y65111D01*
Y64111D01*
X302961D02*
X303961D01*
X304961Y65111D01*
X305961Y64111D01*
X306961D01*
Y65111D01*
X305961Y66111D01*
X306961Y67111D01*
Y68111D01*
X305961D01*
X304961Y67111D01*
X303961Y68111D01*
X302961D01*
Y67111D01*
X303961Y66111D01*
X302961Y65111D01*
Y64111D01*
X155669Y109496D02*
X156669Y110496D01*
X157669D01*
X156669Y111496D01*
X157669Y112496D01*
X156669D01*
X155669Y113496D01*
X154669Y112496D01*
X153669D01*
X154669Y111496D01*
X153669Y110496D01*
X154669D01*
X155669Y109496D01*
X145669D02*
X146669Y110496D01*
X147669D01*
X146669Y111496D01*
X147669Y112496D01*
X146669D01*
X145669Y113496D01*
X144669Y112496D01*
X143669D01*
X144669Y111496D01*
X143669Y110496D01*
X144669D01*
X145669Y109496D01*
X155669Y139496D02*
X156669Y140496D01*
X157669D01*
X156669Y141496D01*
X157669Y142496D01*
X156669D01*
X155669Y143496D01*
X154669Y142496D01*
X153669D01*
X154669Y141496D01*
X153669Y140496D01*
X154669D01*
X155669Y139496D01*
X145669D02*
X146669Y140496D01*
X147669D01*
X146669Y141496D01*
X147669Y142496D01*
X146669D01*
X145669Y143496D01*
X144669Y142496D01*
X143669D01*
X144669Y141496D01*
X143669Y140496D01*
X144669D01*
X145669Y139496D01*
X135669D02*
X136669Y140496D01*
X137669D01*
X136669Y141496D01*
X137669Y142496D01*
X136669D01*
X135669Y143496D01*
X134669Y142496D01*
X133669D01*
X134669Y141496D01*
X133669Y140496D01*
X134669D01*
X135669Y139496D01*
X125669D02*
X126669Y140496D01*
X127669D01*
X126669Y141496D01*
X127669Y142496D01*
X126669D01*
X125669Y143496D01*
X124669Y142496D01*
X123669D01*
X124669Y141496D01*
X123669Y140496D01*
X124669D01*
X125669Y139496D01*
X115669D02*
X116669Y140496D01*
X117669D01*
X116669Y141496D01*
X117669Y142496D01*
X116669D01*
X115669Y143496D01*
X114669Y142496D01*
X113669D01*
X114669Y141496D01*
X113669Y140496D01*
X114669D01*
X115669Y139496D01*
Y29496D02*
X116669Y30496D01*
X117669D01*
X116669Y31496D01*
X117669Y32496D01*
X116669D01*
X115669Y33496D01*
X114669Y32496D01*
X113669D01*
X114669Y31496D01*
X113669Y30496D01*
X114669D01*
X115669Y29496D01*
X125669D02*
X126669Y30496D01*
X127669D01*
X126669Y31496D01*
X127669Y32496D01*
X126669D01*
X125669Y33496D01*
X124669Y32496D01*
X123669D01*
X124669Y31496D01*
X123669Y30496D01*
X124669D01*
X125669Y29496D01*
X135669D02*
X136669Y30496D01*
X137669D01*
X136669Y31496D01*
X137669Y32496D01*
X136669D01*
X135669Y33496D01*
X134669Y32496D01*
X133669D01*
X134669Y31496D01*
X133669Y30496D01*
X134669D01*
X135669Y29496D01*
X145669D02*
X146669Y30496D01*
X147669D01*
X146669Y31496D01*
X147669Y32496D01*
X146669D01*
X145669Y33496D01*
X144669Y32496D01*
X143669D01*
X144669Y31496D01*
X143669Y30496D01*
X144669D01*
X145669Y29496D01*
X155669D02*
X156669Y30496D01*
X157669D01*
X156669Y31496D01*
X157669Y32496D01*
X156669D01*
X155669Y33496D01*
X154669Y32496D01*
X153669D01*
X154669Y31496D01*
X153669Y30496D01*
X154669D01*
X155669Y29496D01*
X305087Y33433D02*
X306087Y35433D01*
X305087Y37433D01*
X307087Y36433D01*
X309087Y37433D01*
X308087Y35433D01*
X309087Y33433D01*
X307087Y34433D01*
X305087Y33433D01*
X265717D02*
X266717Y35433D01*
X265717Y37433D01*
X267717Y36433D01*
X269717Y37433D01*
X268717Y35433D01*
X269717Y33433D01*
X267717Y34433D01*
X265717Y33433D01*
X285402D02*
X286402Y35433D01*
X285402Y37433D01*
X287402Y36433D01*
X289402Y37433D01*
X288402Y35433D01*
X289402Y33433D01*
X287402Y34433D01*
X285402Y33433D01*
X238157D02*
X239157Y35433D01*
X238157Y37433D01*
X240157Y36433D01*
X242157Y37433D01*
X241157Y35433D01*
X242157Y33433D01*
X240157Y34433D01*
X238157Y33433D01*
X198787D02*
X199787Y35433D01*
X198787Y37433D01*
X200787Y36433D01*
X202787Y37433D01*
X201787Y35433D01*
X202787Y33433D01*
X200787Y34433D01*
X198787Y33433D01*
X218472D02*
X219472Y35433D01*
X218472Y37433D01*
X220472Y36433D01*
X222472Y37433D01*
X221472Y35433D01*
X222472Y33433D01*
X220472Y34433D01*
X218472Y33433D01*
X310992Y90551D02*
X312992Y92551D01*
X314992Y90551D01*
X312992Y88551D01*
X310992Y90551D01*
Y102362D02*
X312992Y104362D01*
X314992Y102362D01*
X312992Y100362D01*
X310992Y102362D01*
X57244Y37370D02*
X55244Y41370D01*
X59244D01*
X57244Y37370D01*
X47244D02*
X45244Y41370D01*
X49244D01*
X47244Y37370D01*
X7370Y58292D02*
Y62292D01*
X11370D01*
Y58292D01*
X7370D01*
Y68292D02*
Y72292D01*
X11370D01*
Y68292D01*
X7370D01*
Y78292D02*
Y82292D01*
X11370D01*
Y78292D01*
X7370D01*
Y88292D02*
Y92292D01*
X11370D01*
Y88292D01*
X7370D01*
Y98292D02*
Y102292D01*
X11370D01*
Y98292D01*
X7370D01*
Y108292D02*
Y112292D01*
X11370D01*
Y108292D01*
X7370D01*
Y118292D02*
Y122292D01*
X11370D01*
Y118292D01*
X7370D01*
Y128292D02*
Y132292D01*
X11370D01*
Y128292D01*
X7370D01*
Y138292D02*
Y142292D01*
X11370D01*
Y138292D01*
X7370D01*
Y148292D02*
Y152292D01*
X11370D01*
Y148292D01*
X7370D01*
Y158292D02*
Y162292D01*
X11370D01*
Y158292D01*
X7370D01*
Y168292D02*
Y172292D01*
X11370D01*
Y168292D01*
X7370D01*
Y178292D02*
Y182292D01*
X11370D01*
Y178292D01*
X7370D01*
Y188292D02*
Y192292D01*
X11370D01*
Y188292D01*
X7370D01*
Y198292D02*
Y202292D01*
X11370D01*
Y198292D01*
X7370D01*
X67370D02*
Y202292D01*
X71370D01*
Y198292D01*
X67370D01*
Y188292D02*
Y192292D01*
X71370D01*
Y188292D01*
X67370D01*
Y178292D02*
Y182292D01*
X71370D01*
Y178292D01*
X67370D01*
Y168292D02*
Y172292D01*
X71370D01*
Y168292D01*
X67370D01*
Y158292D02*
Y162292D01*
X71370D01*
Y158292D01*
X67370D01*
Y148292D02*
Y152292D01*
X71370D01*
Y148292D01*
X67370D01*
Y138292D02*
Y142292D01*
X71370D01*
Y138292D01*
X67370D01*
Y128292D02*
Y132292D01*
X71370D01*
Y128292D01*
X67370D01*
Y118292D02*
Y122292D01*
X71370D01*
Y118292D01*
X67370D01*
Y108292D02*
Y112292D01*
X71370D01*
Y108292D01*
X67370D01*
Y98292D02*
Y102292D01*
X71370D01*
Y98292D01*
X67370D01*
Y88292D02*
Y92292D01*
X71370D01*
Y88292D01*
X67370D01*
Y78292D02*
Y82292D01*
X71370D01*
Y78292D01*
X67370D01*
Y68292D02*
Y72292D01*
X71370D01*
Y68292D01*
X67370D01*
Y58292D02*
Y62292D01*
X71370D01*
Y58292D01*
X67370D01*
D75*
X198850Y200787D02*
G03*
X198850Y200787I-2000J0D01*
G01*
Y177165D02*
G03*
X198850Y177165I-2000J0D01*
G01*
X194913Y145669D02*
G03*
X194913Y145669I-2000J0D01*
G01*
X242158Y218504D02*
G03*
X242158Y218504I-2000J0D01*
G01*
X318482Y219004D02*
G03*
X318482Y219004I-2000J0D01*
G01*
X313024Y206693D02*
G03*
X313024Y206693I-2000J0D01*
G01*
X261842Y114173D02*
G03*
X261842Y114173I-2000J0D01*
G01*
X297276Y57087D02*
G03*
X297276Y57087I-2000J0D01*
G01*
X305150Y104331D02*
G03*
X305150Y104331I-2000J0D01*
G01*
X299244Y133858D02*
G03*
X299244Y133858I-2000J0D01*
G01*
X212630Y116142D02*
G03*
X212630Y116142I-2000J0D01*
G01*
X275622Y102362D02*
G03*
X275622Y102362I-2000J0D01*
G01*
X187039Y90551D02*
G03*
X187039Y90551I-2000J0D01*
G01*
X259874Y190945D02*
G03*
X259874Y190945I-2000J0D01*
G01*
X285465Y82677D02*
G03*
X285465Y82677I-2000J0D01*
G01*
X257906Y145669D02*
G03*
X257906Y145669I-2000J0D01*
G01*
X171291Y192913D02*
G03*
X171291Y192913I-2000J0D01*
G01*
X61055Y90551D02*
G03*
X61055Y90551I-2000J0D01*
G01*
X21685Y70866D02*
G03*
X21685Y70866I-2000J0D01*
G01*
X104362Y169291D02*
G03*
X104362Y169291I-2000J0D01*
G01*
Y208661D02*
G03*
X104362Y208661I-2000J0D01*
G01*
X187039Y220472D02*
G03*
X187039Y220472I-2000J0D01*
G01*
X171291Y169291D02*
G03*
X171291Y169291I-2000J0D01*
G01*
M02*
