G04*
G04 #@! TF.GenerationSoftware,Altium Limited,Altium Designer,24.6.1 (21)*
G04*
G04 Layer_Color=16711935*
%FSLAX25Y25*%
%MOIN*%
G70*
G04*
G04 #@! TF.SameCoordinates,E7B071F1-E274-4D6C-8170-77C2E5B523DC*
G04*
G04*
G04 #@! TF.FilePolarity,Positive*
G04*
G01*
G75*
%ADD10C,0.00787*%
%ADD13C,0.00500*%
%ADD15C,0.00394*%
D10*
X201378Y112795D02*
X215945D01*
X201378D02*
Y139173D01*
X215945D01*
Y112795D02*
Y139173D01*
X292815Y88583D02*
X297736D01*
X292815Y80709D02*
Y88583D01*
Y80709D02*
X297736D01*
Y88583D01*
X303051Y112697D02*
Y135335D01*
X318996D01*
Y112697D02*
Y135335D01*
X303051Y112697D02*
X318996D01*
X74370Y45292D02*
Y222792D01*
X4370D02*
X74370D01*
X4370Y45292D02*
Y222792D01*
Y45292D02*
X74370D01*
D13*
X90669Y26496D02*
X180669D01*
Y146496D01*
X90669D02*
X180669D01*
X90669Y26496D02*
Y146496D01*
D15*
X321466Y66111D02*
G03*
X321466Y66111I-11506J0D01*
G01*
X257874Y23622D02*
Y47244D01*
Y19094D02*
Y22047D01*
X255512Y24114D02*
X257874Y23622D01*
X255512Y21555D02*
X257874Y22047D01*
X255512Y21555D02*
Y24114D01*
X257874Y48819D02*
Y51772D01*
X255512Y49311D02*
X257874Y48819D01*
X255512Y46752D02*
X257874Y47244D01*
X255512Y46752D02*
Y49311D01*
X316929Y19094D02*
Y51772D01*
X257874Y19094D02*
X316929D01*
X257874Y51772D02*
X316929D01*
X190945Y23622D02*
Y47244D01*
Y19094D02*
Y22047D01*
X188583Y24114D02*
X190945Y23622D01*
X188583Y21555D02*
X190945Y22047D01*
X188583Y21555D02*
Y24114D01*
X190945Y48819D02*
Y51772D01*
X188583Y49311D02*
X190945Y48819D01*
X188583Y46752D02*
X190945Y47244D01*
X188583Y46752D02*
Y49311D01*
X250000Y19094D02*
Y51772D01*
X190945Y19094D02*
X250000D01*
X190945Y51772D02*
X250000D01*
X235827Y62205D02*
Y103150D01*
X199016Y62205D02*
Y103150D01*
Y62205D02*
X235827D01*
X199016Y103150D02*
X235827D01*
X296063Y223622D02*
X306299D01*
Y213386D02*
Y223622D01*
X296063Y213386D02*
Y223622D01*
Y213386D02*
X306299D01*
X274410Y223622D02*
X284646D01*
Y213386D02*
Y223622D01*
X274410Y213386D02*
Y223622D01*
Y213386D02*
X284646D01*
X260335Y196850D02*
Y204724D01*
X255413Y196850D02*
Y204724D01*
X260335D01*
X255413Y196850D02*
X260335D01*
X252756Y223622D02*
X262992D01*
Y213386D02*
Y223622D01*
X252756Y213386D02*
Y223622D01*
Y213386D02*
X262992D01*
X203937Y155512D02*
Y165748D01*
X193701Y155512D02*
X203937D01*
X193701Y165748D02*
X203937D01*
X193701Y155512D02*
Y165748D01*
X27165Y36516D02*
Y42224D01*
X35827Y36516D02*
Y42224D01*
X27165D02*
X35827D01*
X27165Y36516D02*
X35827D01*
X193701Y209449D02*
Y219685D01*
X203937D01*
X193701Y209449D02*
X203937D01*
Y219685D01*
X186319Y192700D02*
Y200968D01*
X191634Y192700D02*
Y200968D01*
X186319Y192700D02*
X191634D01*
X186319Y200968D02*
X191634D01*
X173228Y157759D02*
Y162680D01*
X165354Y157759D02*
Y162680D01*
Y157759D02*
X173228D01*
X165354Y162680D02*
X173228D01*
X169095Y183760D02*
X177362D01*
X169095Y178445D02*
X177362D01*
X169095D02*
Y183760D01*
X177362Y178445D02*
Y183760D01*
X169095Y202067D02*
X177362D01*
X169095Y207382D02*
X177362D01*
Y202067D02*
Y207382D01*
X169095Y202067D02*
Y207382D01*
M02*
