M48
;Layer_Color=9474304
;FILE_FORMAT=2:4
INCH,TZ
;TYPE=PLATED
T01F00S00C0.0236
T02F00S00C0.0280
T03F00S00C0.0360
T04F00S00C0.0400
T05F00S00C0.0413
T06F00S00C0.0512
T07F00S00C0.0787
%
T01
X5724Y3937
X4724
T02
X1969Y7087
X5906Y9055
X10236Y16929
X16929
Y19291
X19685Y17717
X19291Y14567
X18504Y9055
X21063Y11614
X25984Y11417
X27362Y10236
X28346Y8268
X29528Y5709
X30315Y10433
X29724Y13386
X25591Y14567
X25787Y19094
X24016Y21850
X31648Y21900
X31102Y20669
X19685Y20079
X18504Y22047
X10236Y20866
T03
X937Y6029
Y7029
Y8029
Y9029
Y10029
Y11029
Y12029
Y13029
Y14029
Y15029
Y16029
Y17029
Y18029
Y19029
X6937
Y18029
Y17029
Y16029
Y15029
Y14029
Y13029
Y12029
Y11029
Y10029
Y9029
Y8029
Y7029
Y6029
Y20029
X937
T04
X11567Y3150
X12567
X13567
X14567
X15567
Y11150
X14567
Y14150
X15567
X13567
X12567
X11567
T05
X30496Y6611
X31496
T06
X22047Y3543
X24016
X26772
X28740
X30709
X20079
T07
X31299Y9055
Y10236
M30
