G04*
G04 #@! TF.GenerationSoftware,Altium Limited,Altium Designer,24.6.1 (21)*
G04*
G04 Layer_Color=65535*
%FSLAX25Y25*%
%MOIN*%
G70*
G04*
G04 #@! TF.SameCoordinates,E7B071F1-E274-4D6C-8170-77C2E5B523DC*
G04*
G04*
G04 #@! TF.FilePolarity,Positive*
G04*
G01*
G75*
%ADD10C,0.00787*%
%ADD11C,0.01181*%
%ADD12C,0.00984*%
%ADD13C,0.00500*%
%ADD14C,0.01000*%
%ADD15C,0.00394*%
%ADD16C,0.00803*%
%ADD17C,0.00935*%
%ADD18C,0.00595*%
%ADD19C,0.01063*%
%ADD20C,0.01169*%
D10*
X321466Y66111D02*
G03*
X321466Y66111I-11506J0D01*
G01*
X292961Y63611D02*
Y68611D01*
X290461Y66111D02*
X295461D01*
X257874Y23622D02*
Y47244D01*
Y19094D02*
Y22047D01*
X255512Y24114D02*
X257874Y23622D01*
X255512Y21555D02*
X257874Y22047D01*
X255512Y21555D02*
Y24114D01*
X257874Y48819D02*
Y51772D01*
X255512Y49311D02*
X257874Y48819D01*
X255512Y46752D02*
X257874Y47244D01*
X255512Y46752D02*
Y49311D01*
X316929Y19094D02*
Y51772D01*
X257874Y19094D02*
X316929D01*
X257874Y51772D02*
X316929D01*
X190945Y23622D02*
Y47244D01*
Y19094D02*
Y22047D01*
X188583Y24114D02*
X190945Y23622D01*
X188583Y21555D02*
X190945Y22047D01*
X188583Y21555D02*
Y24114D01*
X190945Y48819D02*
Y51772D01*
X188583Y49311D02*
X190945Y48819D01*
X188583Y46752D02*
X190945Y47244D01*
X188583Y46752D02*
Y49311D01*
X250000Y19094D02*
Y51772D01*
X190945Y19094D02*
X250000D01*
X190945Y51772D02*
X250000D01*
X201378Y112795D02*
X215945D01*
X201378D02*
Y139173D01*
X215945D01*
Y112795D02*
Y139173D01*
X230709Y62205D02*
X235827D01*
X230709Y103150D02*
X235827D01*
Y62205D02*
Y103150D01*
X299508Y79897D02*
Y89394D01*
X291043Y79897D02*
Y89394D01*
X299016Y223622D02*
X303346D01*
X277362D02*
X281693D01*
X255709D02*
X260039D01*
X303051Y112697D02*
Y118898D01*
Y129134D02*
Y135335D01*
X307874D01*
X318996Y117717D02*
Y130315D01*
X303051Y112697D02*
X307874D01*
X203937Y158465D02*
Y162795D01*
X31102Y41634D02*
X31890D01*
X31102Y37106D02*
X31890D01*
X203937Y212402D02*
Y216732D01*
X186516Y196440D02*
Y197227D01*
X191437Y196440D02*
Y197227D01*
X74370Y45292D02*
Y222792D01*
X4370D02*
X74370D01*
X4370Y45292D02*
Y222792D01*
Y45292D02*
X74370D01*
X172835Y183563D02*
X173622D01*
X172835Y178642D02*
X173622D01*
X172835Y202264D02*
X173622D01*
X172835Y207185D02*
X173622D01*
D11*
X115260Y22496D02*
G03*
X115260Y22496I-591J0D01*
G01*
D12*
X227658Y116732D02*
G03*
X227658Y116732I-492J0D01*
G01*
X249902Y68445D02*
G03*
X249902Y68445I-492J0D01*
G01*
X291634Y218504D02*
G03*
X291634Y218504I-492J0D01*
G01*
X269980D02*
G03*
X269980Y218504I-492J0D01*
G01*
X248327D02*
G03*
X248327Y218504I-492J0D01*
G01*
X296949Y121555D02*
G03*
X296949Y121555I-492J0D01*
G01*
X199311Y170669D02*
G03*
X199311Y170669I-492J0D01*
G01*
Y224606D02*
G03*
X199311Y224606I-492J0D01*
G01*
X77224Y60292D02*
G03*
X77224Y60292I-492J0D01*
G01*
D13*
X180669Y26496D02*
Y146496D01*
X90669D02*
X180669D01*
X90669Y26496D02*
Y146496D01*
Y26496D02*
X180669D01*
X93582Y157480D02*
X156604D01*
X93582Y220472D02*
X156604D01*
X105108Y192726D02*
X126358D01*
Y212726D01*
X105108D02*
X126358D01*
X105108Y192726D02*
Y212726D01*
X138858Y197726D02*
Y210226D01*
Y197726D02*
X147608D01*
Y210226D01*
X138858D02*
X147608D01*
D14*
X259842Y3937D02*
X299213D01*
X188976D02*
X251969D01*
X302181Y6905D02*
Y12904D01*
X306180Y6905D01*
Y12904D01*
X308179Y6905D02*
X312178Y10904D01*
X314177Y6905D02*
Y10904D01*
X316177Y12904D01*
X318176Y10904D01*
Y6905D01*
Y9905D01*
X314177D01*
X284526Y11904D02*
X283527Y12904D01*
X281527D01*
X280528Y11904D01*
Y7905D01*
X281527Y6905D01*
X283527D01*
X284526Y7905D01*
Y9905D01*
X282527D01*
X286526Y6905D02*
Y12904D01*
X289525D01*
X290524Y11904D01*
Y9905D01*
X289525Y8905D01*
X286526D01*
X288525D02*
X290524Y6905D01*
X292524D02*
Y12904D01*
X296522Y6905D01*
Y12904D01*
X258874D02*
Y11904D01*
X260873Y9905D01*
X262873Y11904D01*
Y12904D01*
X260873Y9905D02*
Y6905D01*
X268871Y12904D02*
X264872D01*
Y6905D01*
X268871D01*
X264872Y9905D02*
X266871D01*
X270870Y12904D02*
Y6905D01*
X274869D01*
X233283D02*
Y12904D01*
X236282D01*
X237282Y11904D01*
Y9905D01*
X236282Y8905D01*
X233283D01*
X235283D02*
X237282Y6905D01*
X243280Y12904D02*
X239282D01*
Y6905D01*
X243280D01*
X239282Y9905D02*
X241281D01*
X245280Y12904D02*
Y6905D01*
X248279D01*
X249278Y7905D01*
Y11904D01*
X248279Y12904D01*
X245280D01*
X212614D02*
Y6905D01*
X215613D01*
X216613Y7905D01*
Y8905D01*
X215613Y9905D01*
X212614D01*
X215613D01*
X216613Y10904D01*
Y11904D01*
X215613Y12904D01*
X212614D01*
X218612D02*
Y6905D01*
X222611D01*
X224610Y12904D02*
Y6905D01*
Y8905D01*
X228609Y12904D01*
X225610Y9905D01*
X228609Y6905D01*
X191945Y12904D02*
Y6905D01*
X193944Y8905D01*
X195944Y6905D01*
Y12904D01*
X197943D02*
Y6905D01*
Y9905D01*
X201942D01*
Y12904D01*
Y6905D01*
X203941Y12904D02*
X207940D01*
X205940D01*
Y6905D01*
X247063Y199911D02*
Y193913D01*
X251062D01*
X281558Y199911D02*
X279559D01*
X278559Y198912D01*
Y194913D01*
X279559Y193913D01*
X281558D01*
X282558Y194913D01*
Y198912D01*
X281558Y199911D01*
X304211Y198912D02*
X303212Y199911D01*
X301212D01*
X300213Y198912D01*
Y197912D01*
X301212Y196912D01*
X303212D01*
X304211Y195913D01*
Y194913D01*
X303212Y193913D01*
X301212D01*
X300213Y194913D01*
X16624Y213720D02*
Y219719D01*
X18624Y217719D01*
X20623Y219719D01*
Y213720D01*
X22622Y219719D02*
Y213720D01*
X25621D01*
X26621Y214720D01*
Y218719D01*
X25621Y219719D01*
X22622D01*
X28620Y213720D02*
X30620D01*
X29620D01*
Y219719D01*
X28620Y218719D01*
X84238Y213747D02*
X86237D01*
X85237D01*
Y219744D01*
X84238Y218745D01*
D15*
X42382Y35433D02*
Y39370D01*
Y35433D02*
X62106D01*
Y43307D01*
X42382D02*
X62106D01*
X42382Y39370D02*
Y43307D01*
X90038Y153982D02*
Y150702D01*
X90694Y150047D01*
X92006D01*
X92662Y150702D01*
Y153982D01*
X93973Y153326D02*
X94630Y153982D01*
X95941D01*
X96597Y153326D01*
Y152670D01*
X95941Y152014D01*
X95285D01*
X95941D01*
X96597Y151358D01*
Y150702D01*
X95941Y150047D01*
X94630D01*
X93973Y150702D01*
X231364Y209054D02*
X228740D01*
Y207086D01*
X230052Y207742D01*
X230708D01*
X231364Y207086D01*
Y205774D01*
X230708Y205118D01*
X229396D01*
X228740Y205774D01*
X232676Y208398D02*
X233332Y209054D01*
X234644D01*
X235300Y208398D01*
Y205774D01*
X234644Y205118D01*
X233332D01*
X232676Y205774D01*
Y208398D01*
X242515Y209054D02*
X241203D01*
X240547Y208398D01*
Y205774D01*
X241203Y205118D01*
X242515D01*
X243171Y205774D01*
Y208398D01*
X242515Y209054D01*
X244483D02*
Y205118D01*
Y207086D01*
X245139Y207742D01*
X246451D01*
X247107Y207086D01*
Y205118D01*
X248419D02*
Y207742D01*
X249075D01*
X249731Y207086D01*
Y205118D01*
Y207086D01*
X250387Y207742D01*
X251043Y207086D01*
Y205118D01*
X262799Y68241D02*
X263455Y68897D01*
X264767D01*
X265423Y68241D01*
Y65617D01*
X264767Y64961D01*
X263455D01*
X262799Y65617D01*
Y68241D01*
X266735Y64961D02*
Y65617D01*
X267390D01*
Y64961D01*
X266735D01*
X270014Y68241D02*
X270670Y68897D01*
X271982D01*
X272638Y68241D01*
Y67585D01*
X271982Y66929D01*
X271326D01*
X271982D01*
X272638Y66273D01*
Y65617D01*
X271982Y64961D01*
X270670D01*
X270014Y65617D01*
X273950Y68241D02*
X274606Y68897D01*
X275918D01*
X276574Y68241D01*
Y67585D01*
X275918Y66929D01*
X275262D01*
X275918D01*
X276574Y66273D01*
Y65617D01*
X275918Y64961D01*
X274606D01*
X273950Y65617D01*
X277886Y67585D02*
Y65617D01*
X278542Y64961D01*
X280510D01*
Y67585D01*
X284445Y68897D02*
X281821D01*
Y66929D01*
X283133D01*
X281821D01*
Y64961D01*
X251315Y103674D02*
X251971Y104330D01*
X253283D01*
X253939Y103674D01*
Y101050D01*
X253283Y100394D01*
X251971D01*
X251315Y101050D01*
Y103674D01*
X255251Y100394D02*
Y101050D01*
X255907D01*
Y100394D01*
X255251D01*
X258531D02*
X259842D01*
X259187D01*
Y104330D01*
X258531Y103674D01*
X261810Y103018D02*
Y101050D01*
X262466Y100394D01*
X264434D01*
Y103018D01*
X268370Y104330D02*
X265746D01*
Y102362D01*
X267058D01*
X265746D01*
Y100394D01*
X235238Y118111D02*
X236550D01*
X235894D01*
Y122047D01*
X235238Y121391D01*
X238518D02*
X239174Y122047D01*
X240486D01*
X241142Y121391D01*
Y118767D01*
X240486Y118111D01*
X239174D01*
X238518Y118767D01*
Y121391D01*
X242454Y120735D02*
Y118767D01*
X243110Y118111D01*
X245078D01*
Y120735D01*
X249013Y122047D02*
X246390D01*
Y120079D01*
X247702D01*
X246390D01*
Y118111D01*
X258861Y131890D02*
X260173D01*
X259517D01*
Y135826D01*
X258861Y135170D01*
X262141D02*
X262797Y135826D01*
X264109D01*
X264765Y135170D01*
Y132546D01*
X264109Y131890D01*
X262797D01*
X262141Y132546D01*
Y135170D01*
X266077D02*
X266733Y135826D01*
X268044D01*
X268701Y135170D01*
Y132546D01*
X268044Y131890D01*
X266733D01*
X266077Y132546D01*
Y135170D01*
X270012Y131890D02*
Y134514D01*
X271980D01*
X272636Y133858D01*
Y131890D01*
X276572Y135826D02*
X273948D01*
Y133858D01*
X275260D01*
X273948D01*
Y131890D01*
X265092Y59054D02*
X263780D01*
X264436D01*
Y55775D01*
X263780Y55119D01*
X263124D01*
X262468Y55775D01*
X266404Y58398D02*
X267060Y59054D01*
X268372D01*
X269028Y58398D01*
Y57743D01*
X268372Y57087D01*
X267716D01*
X268372D01*
X269028Y56431D01*
Y55775D01*
X268372Y55119D01*
X267060D01*
X266404Y55775D01*
X249344Y59054D02*
X248032D01*
X248688D01*
Y55775D01*
X248032Y55119D01*
X247376D01*
X246720Y55775D01*
X253280Y55119D02*
X250656D01*
X253280Y57743D01*
Y58398D01*
X252624Y59054D01*
X251312D01*
X250656Y58398D01*
X206038Y145669D02*
Y142389D01*
X206694Y141733D01*
X208005D01*
X208661Y142389D01*
Y145669D01*
X209973Y141733D02*
X211285D01*
X210629D01*
Y145669D01*
X209973Y145013D01*
X187665Y112204D02*
Y108924D01*
X188321Y108268D01*
X189633D01*
X190289Y108924D01*
Y112204D01*
X194225Y108268D02*
X191601D01*
X194225Y110892D01*
Y111548D01*
X193569Y112204D01*
X192257D01*
X191601Y111548D01*
D16*
X260646Y172735D02*
Y176765D01*
X261989Y175422D01*
X263333Y176765D01*
Y172735D01*
X264676Y176765D02*
Y172735D01*
X267363D01*
X268706Y172063D02*
X271393D01*
X275423Y176765D02*
X272736D01*
Y174750D01*
X274080D01*
X272736D01*
Y172735D01*
X279453Y176093D02*
X278782Y176765D01*
X277438D01*
X276766Y176093D01*
Y173406D01*
X277438Y172735D01*
X278782D01*
X279453Y173406D01*
X280797Y172063D02*
X283484D01*
X284827Y176765D02*
Y174078D01*
X286170Y172735D01*
X287514Y174078D01*
Y176765D01*
X290872Y172735D02*
X289529D01*
X288857Y173406D01*
Y174750D01*
X289529Y175422D01*
X290872D01*
X291544Y174750D01*
Y174078D01*
X288857D01*
X292887Y175422D02*
Y172735D01*
Y174078D01*
X293559Y174750D01*
X294231Y175422D01*
X294902D01*
X296918Y172063D02*
X299604D01*
X300948Y176093D02*
X301619Y176765D01*
X302963D01*
X303635Y176093D01*
Y173406D01*
X302963Y172735D01*
X301619D01*
X300948Y173406D01*
Y176093D01*
X304978Y172735D02*
Y173406D01*
X305650D01*
Y172735D01*
X304978D01*
X308336D02*
X309680D01*
X309008D01*
Y176765D01*
X308336Y176093D01*
D17*
X147250Y192362D02*
X150366D01*
X148808Y193920D02*
Y190804D01*
D18*
X148549Y159437D02*
Y161420D01*
X149541Y162411D01*
X150532Y161420D01*
Y159437D01*
Y160924D01*
X148549D01*
D19*
X147500Y168900D02*
X150333D01*
X100658Y216301D02*
X103491D01*
D20*
X100708Y161263D02*
X103824D01*
M02*
