G04*
G04 #@! TF.GenerationSoftware,Altium Limited,Altium Designer,24.6.1 (21)*
G04*
G04 Layer_Color=8388736*
%FSLAX25Y25*%
%MOIN*%
G70*
G04*
G04 #@! TF.SameCoordinates,E7B071F1-E274-4D6C-8170-77C2E5B523DC*
G04*
G04*
G04 #@! TF.FilePolarity,Negative*
G04*
G01*
G75*
%ADD22R,0.05906X0.04724*%
%ADD23R,0.05906X0.12992*%
%ADD26R,0.04969X0.03182*%
%ADD30R,0.10630X0.03937*%
%ADD31R,0.06693X0.02362*%
%ADD39R,0.05918X0.07099*%
%ADD40R,0.16942X0.04934*%
%ADD41R,0.38595X0.41942*%
%ADD42R,0.04737X0.04934*%
%ADD43R,0.04934X0.09461*%
%ADD44R,0.05918X0.05131*%
%ADD45R,0.04934X0.04737*%
%ADD46R,0.09461X0.04934*%
%ADD47R,0.04147X0.06115*%
%ADD48R,0.06509X0.05524*%
%ADD49R,0.05131X0.05918*%
%ADD50R,0.05524X0.06509*%
%ADD51R,0.08674X0.05800*%
%ADD52C,0.06902*%
%ADD53R,0.06902X0.06902*%
%ADD54C,0.08200*%
%ADD55C,0.08477*%
G04:AMPARAMS|DCode=56|XSize=84.77mil|YSize=84.77mil|CornerRadius=23.19mil|HoleSize=0mil|Usage=FLASHONLY|Rotation=0.000|XOffset=0mil|YOffset=0mil|HoleType=Round|Shape=RoundedRectangle|*
%AMROUNDEDRECTD56*
21,1,0.08477,0.03839,0,0,0.0*
21,1,0.03839,0.08477,0,0,0.0*
1,1,0.04639,0.01919,-0.01919*
1,1,0.04639,-0.01919,-0.01919*
1,1,0.04639,-0.01919,0.01919*
1,1,0.04639,0.01919,0.01919*
%
%ADD56ROUNDEDRECTD56*%
%ADD57C,0.10642*%
%ADD58C,0.05524*%
%ADD59C,0.05567*%
%ADD60R,0.05567X0.05567*%
%ADD61C,0.05800*%
D22*
X221260Y116929D02*
D03*
Y125984D02*
D03*
Y135039D02*
D03*
D23*
X196063Y125984D02*
D03*
D26*
X295276Y81488D02*
D03*
Y87803D02*
D03*
D30*
X314665Y114272D02*
D03*
Y133760D02*
D03*
D31*
X302067Y121555D02*
D03*
Y126476D02*
D03*
D39*
X274409Y74803D02*
D03*
X266929D02*
D03*
X275394Y94488D02*
D03*
X267914D02*
D03*
X244489Y114173D02*
D03*
X251969D02*
D03*
X244094Y133858D02*
D03*
X251574D02*
D03*
D40*
X249410Y72677D02*
D03*
Y92677D02*
D03*
D41*
X210236Y82677D02*
D03*
D42*
X301181Y212500D02*
D03*
X279528D02*
D03*
X257874D02*
D03*
D43*
X306988Y218504D02*
D03*
X295374D02*
D03*
X285335D02*
D03*
X273721D02*
D03*
X263681D02*
D03*
X252067D02*
D03*
D44*
X257874Y204035D02*
D03*
Y197539D02*
D03*
D45*
X192815Y160630D02*
D03*
Y214567D02*
D03*
D46*
X198819Y154823D02*
D03*
Y166437D02*
D03*
Y220374D02*
D03*
Y208760D02*
D03*
D47*
X28248Y39370D02*
D03*
X34744D02*
D03*
D48*
X188976Y192897D02*
D03*
Y200771D02*
D03*
D49*
X172539Y160220D02*
D03*
X166043D02*
D03*
D50*
X169291Y181102D02*
D03*
X177165D02*
D03*
Y204724D02*
D03*
X169291D02*
D03*
D51*
X156604Y161417D02*
D03*
Y200787D02*
D03*
X156612Y209035D02*
D03*
Y216535D02*
D03*
X93604Y169541D02*
D03*
X156604Y169291D02*
D03*
X93612Y216535D02*
D03*
X93582Y161417D02*
D03*
Y208661D02*
D03*
X93604Y200787D02*
D03*
X93612Y185039D02*
D03*
Y177539D02*
D03*
X93582Y192961D02*
D03*
X156604Y192913D02*
D03*
D52*
X314961Y66111D02*
D03*
D53*
X304961D02*
D03*
D54*
X155669Y111496D02*
D03*
X145669D02*
D03*
X155669Y141496D02*
D03*
X145669D02*
D03*
X135669D02*
D03*
X125669D02*
D03*
X115669D02*
D03*
Y31496D02*
D03*
X125669D02*
D03*
X135669D02*
D03*
X145669D02*
D03*
X155669D02*
D03*
D55*
X307087Y35433D02*
D03*
X287402D02*
D03*
X240157D02*
D03*
X220472D02*
D03*
D56*
X267717D02*
D03*
X200787D02*
D03*
D57*
X312992Y90551D02*
D03*
Y102362D02*
D03*
D58*
X57244Y39370D02*
D03*
X47244D02*
D03*
D59*
X9370Y60292D02*
D03*
Y70292D02*
D03*
Y80292D02*
D03*
Y90292D02*
D03*
Y100292D02*
D03*
Y110292D02*
D03*
Y120292D02*
D03*
Y130292D02*
D03*
Y140292D02*
D03*
Y150292D02*
D03*
Y160292D02*
D03*
Y170292D02*
D03*
Y180292D02*
D03*
Y190292D02*
D03*
Y200292D02*
D03*
X69370D02*
D03*
Y190292D02*
D03*
Y180292D02*
D03*
Y170292D02*
D03*
Y160292D02*
D03*
Y150292D02*
D03*
Y140292D02*
D03*
Y130292D02*
D03*
Y120292D02*
D03*
Y110292D02*
D03*
Y100292D02*
D03*
Y90292D02*
D03*
Y80292D02*
D03*
Y70292D02*
D03*
D60*
Y60292D02*
D03*
D61*
X196850Y200787D02*
D03*
Y177165D02*
D03*
X192913Y145669D02*
D03*
X240158Y218504D02*
D03*
X316482Y219004D02*
D03*
X311024Y206693D02*
D03*
X259842Y114173D02*
D03*
X295276Y57087D02*
D03*
X303150Y104331D02*
D03*
X297244Y133858D02*
D03*
X210630Y116142D02*
D03*
X273622Y102362D02*
D03*
X185039Y90551D02*
D03*
X257874Y190945D02*
D03*
X283465Y82677D02*
D03*
X255906Y145669D02*
D03*
X169291Y192913D02*
D03*
X59055Y90551D02*
D03*
X19685Y70866D02*
D03*
X102362Y169291D02*
D03*
Y208661D02*
D03*
X185039Y220472D02*
D03*
X169291Y169291D02*
D03*
M02*
