G04*
G04 #@! TF.GenerationSoftware,Altium Limited,Altium Designer,24.6.1 (21)*
G04*
G04 Layer_Color=128*
%FSLAX25Y25*%
%MOIN*%
G70*
G04*
G04 #@! TF.SameCoordinates,E7B071F1-E274-4D6C-8170-77C2E5B523DC*
G04*
G04*
G04 #@! TF.FilePolarity,Positive*
G04*
G01*
G75*
%ADD13C,0.00500*%
D13*
X312894Y66111D02*
X317028D01*
X314961Y64044D02*
Y68178D01*
X302894Y66111D02*
X307028D01*
X304961Y64044D02*
Y68178D01*
X153669Y111496D02*
X157669D01*
X155669Y109496D02*
Y113496D01*
X143669Y111496D02*
X147669D01*
X145669Y109496D02*
Y113496D01*
X153669Y141496D02*
X157669D01*
X155669Y139496D02*
Y143496D01*
X143669Y141496D02*
X147669D01*
X145669Y139496D02*
Y143496D01*
X133669Y141496D02*
X137669D01*
X135669Y139496D02*
Y143496D01*
X123669Y141496D02*
X127669D01*
X125669Y139496D02*
Y143496D01*
X113669Y141496D02*
X117669D01*
X115669Y139496D02*
Y143496D01*
X113669Y31496D02*
X117669D01*
X115669Y29496D02*
Y33496D01*
X123669Y31496D02*
X127669D01*
X125669Y29496D02*
Y33496D01*
X133669Y31496D02*
X137669D01*
X135669Y29496D02*
Y33496D01*
X143669Y31496D02*
X147669D01*
X145669Y29496D02*
Y33496D01*
X153669Y31496D02*
X157669D01*
X155669Y29496D02*
Y33496D01*
X304527Y35433D02*
X309646D01*
X307087Y32874D02*
Y37992D01*
X265158Y35433D02*
X270276D01*
X267717Y32874D02*
Y37992D01*
X284842Y35433D02*
X289961D01*
X287402Y32874D02*
Y37992D01*
X237598Y35433D02*
X242717D01*
X240157Y32874D02*
Y37992D01*
X198228Y35433D02*
X203346D01*
X200787Y32874D02*
Y37992D01*
X217913Y35433D02*
X223031D01*
X220472Y32874D02*
Y37992D01*
X309055Y90551D02*
X316929D01*
X312992Y86614D02*
Y94488D01*
X309055Y102362D02*
X316929D01*
X312992Y98425D02*
Y106299D01*
X56063Y39370D02*
X58425D01*
X57244Y38189D02*
Y40551D01*
X46063Y39370D02*
X48425D01*
X47244Y38189D02*
Y40551D01*
X7571Y60292D02*
X11169D01*
X9370Y58493D02*
Y62091D01*
X7571Y70292D02*
X11169D01*
X9370Y68493D02*
Y72092D01*
X7571Y80292D02*
X11169D01*
X9370Y78493D02*
Y82091D01*
X7571Y90292D02*
X11169D01*
X9370Y88493D02*
Y92092D01*
X7571Y100292D02*
X11169D01*
X9370Y98493D02*
Y102092D01*
X7571Y110292D02*
X11169D01*
X9370Y108493D02*
Y112092D01*
X7571Y120292D02*
X11169D01*
X9370Y118493D02*
Y122092D01*
X7571Y130292D02*
X11169D01*
X9370Y128493D02*
Y132092D01*
X7571Y140292D02*
X11169D01*
X9370Y138493D02*
Y142092D01*
X7571Y150292D02*
X11169D01*
X9370Y148493D02*
Y152092D01*
X7571Y160292D02*
X11169D01*
X9370Y158493D02*
Y162092D01*
X7571Y170292D02*
X11169D01*
X9370Y168493D02*
Y172092D01*
X7571Y180292D02*
X11169D01*
X9370Y178493D02*
Y182092D01*
X7571Y190292D02*
X11169D01*
X9370Y188493D02*
Y192092D01*
X7571Y200292D02*
X11169D01*
X9370Y198493D02*
Y202092D01*
X67571Y200292D02*
X71169D01*
X69370Y198493D02*
Y202092D01*
X67571Y190292D02*
X71169D01*
X69370Y188493D02*
Y192092D01*
X67571Y180292D02*
X71169D01*
X69370Y178493D02*
Y182092D01*
X67571Y170292D02*
X71169D01*
X69370Y168493D02*
Y172092D01*
X67571Y160292D02*
X71169D01*
X69370Y158493D02*
Y162092D01*
X67571Y150292D02*
X71169D01*
X69370Y148493D02*
Y152092D01*
X67571Y140292D02*
X71169D01*
X69370Y138493D02*
Y142092D01*
X67571Y130292D02*
X71169D01*
X69370Y128493D02*
Y132092D01*
X67571Y120292D02*
X71169D01*
X69370Y118493D02*
Y122092D01*
X67571Y110292D02*
X71169D01*
X69370Y108493D02*
Y112092D01*
X67571Y100292D02*
X71169D01*
X69370Y98493D02*
Y102092D01*
X67571Y90292D02*
X71169D01*
X69370Y88493D02*
Y92092D01*
X67571Y80292D02*
X71169D01*
X69370Y78493D02*
Y82091D01*
X67571Y70292D02*
X71169D01*
X69370Y68493D02*
Y72092D01*
X67571Y60292D02*
X71169D01*
X69370Y58493D02*
Y62091D01*
X195450Y200787D02*
X198250D01*
X196850Y199387D02*
Y202187D01*
X195450Y177165D02*
X198250D01*
X196850Y175765D02*
Y178565D01*
X191513Y145669D02*
X194313D01*
X192913Y144269D02*
Y147069D01*
X238757Y218504D02*
X241558D01*
X240158Y217104D02*
Y219904D01*
X315082Y219004D02*
X317882D01*
X316482Y217604D02*
Y220404D01*
X309624Y206693D02*
X312424D01*
X311024Y205293D02*
Y208093D01*
X258442Y114173D02*
X261243D01*
X259842Y112773D02*
Y115573D01*
X293876Y57087D02*
X296676D01*
X295276Y55687D02*
Y58487D01*
X301750Y104331D02*
X304550D01*
X303150Y102931D02*
Y105731D01*
X295844Y133858D02*
X298644D01*
X297244Y132458D02*
Y135258D01*
X209230Y116142D02*
X212030D01*
X210630Y114742D02*
Y117542D01*
X272222Y102362D02*
X275022D01*
X273622Y100962D02*
Y103762D01*
X183639Y90551D02*
X186439D01*
X185039Y89151D02*
Y91951D01*
X256474Y190945D02*
X259274D01*
X257874Y189545D02*
Y192345D01*
X282065Y82677D02*
X284865D01*
X283465Y81277D02*
Y84077D01*
X254505Y145669D02*
X257306D01*
X255906Y144269D02*
Y147069D01*
X167891Y192913D02*
X170691D01*
X169291Y191513D02*
Y194313D01*
X57655Y90551D02*
X60455D01*
X59055Y89151D02*
Y91951D01*
X18285Y70866D02*
X21085D01*
X19685Y69466D02*
Y72266D01*
X100962Y169291D02*
X103762D01*
X102362Y167891D02*
Y170691D01*
X100962Y208661D02*
X103762D01*
X102362Y207261D02*
Y210061D01*
X183639Y220472D02*
X186439D01*
X185039Y219072D02*
Y221872D01*
X167891Y169291D02*
X170691D01*
X169291Y167891D02*
Y170691D01*
M02*
